G04 #@! TF.FileFunction,Legend,Top*
%FSLAX46Y46*%
G04 Gerber Fmt 4.6, Leading zero omitted, Abs format (unit mm)*
G04 Created by KiCad (PCBNEW 4.0.7) date 05/27/21 16:34:53*
%MOMM*%
%LPD*%
G01*
G04 APERTURE LIST*
%ADD10C,0.100000*%
%ADD11C,0.300000*%
%ADD12C,0.200000*%
%ADD13C,0.150000*%
G04 APERTURE END LIST*
D10*
D11*
X92468095Y-64779714D02*
X92753809Y-64922571D01*
X92849048Y-65065429D01*
X92944286Y-65351143D01*
X92944286Y-65779714D01*
X92849048Y-66065429D01*
X92753809Y-66208286D01*
X92563333Y-66351143D01*
X91801428Y-66351143D01*
X91801428Y-63351143D01*
X92468095Y-63351143D01*
X92658571Y-63494000D01*
X92753809Y-63636857D01*
X92849048Y-63922571D01*
X92849048Y-64208286D01*
X92753809Y-64494000D01*
X92658571Y-64636857D01*
X92468095Y-64779714D01*
X91801428Y-64779714D01*
X94182381Y-63351143D02*
X94563333Y-63351143D01*
X94753809Y-63494000D01*
X94944286Y-63779714D01*
X95039524Y-64351143D01*
X95039524Y-65351143D01*
X94944286Y-65922571D01*
X94753809Y-66208286D01*
X94563333Y-66351143D01*
X94182381Y-66351143D01*
X93991905Y-66208286D01*
X93801428Y-65922571D01*
X93706190Y-65351143D01*
X93706190Y-64351143D01*
X93801428Y-63779714D01*
X93991905Y-63494000D01*
X94182381Y-63351143D01*
X95801428Y-65494000D02*
X96753809Y-65494000D01*
X95610952Y-66351143D02*
X96277619Y-63351143D01*
X96944286Y-66351143D01*
X98753810Y-66351143D02*
X98087143Y-64922571D01*
X97610952Y-66351143D02*
X97610952Y-63351143D01*
X98372857Y-63351143D01*
X98563333Y-63494000D01*
X98658572Y-63636857D01*
X98753810Y-63922571D01*
X98753810Y-64351143D01*
X98658572Y-64636857D01*
X98563333Y-64779714D01*
X98372857Y-64922571D01*
X97610952Y-64922571D01*
X99610952Y-66351143D02*
X99610952Y-63351143D01*
X100087143Y-63351143D01*
X100372857Y-63494000D01*
X100563333Y-63779714D01*
X100658572Y-64065429D01*
X100753810Y-64636857D01*
X100753810Y-65065429D01*
X100658572Y-65636857D01*
X100563333Y-65922571D01*
X100372857Y-66208286D01*
X100087143Y-66351143D01*
X99610952Y-66351143D01*
X78688762Y-66065429D02*
X78593524Y-66208286D01*
X78307809Y-66351143D01*
X78117333Y-66351143D01*
X77831619Y-66208286D01*
X77641143Y-65922571D01*
X77545904Y-65636857D01*
X77450666Y-65065429D01*
X77450666Y-64636857D01*
X77545904Y-64065429D01*
X77641143Y-63779714D01*
X77831619Y-63494000D01*
X78117333Y-63351143D01*
X78307809Y-63351143D01*
X78593524Y-63494000D01*
X78688762Y-63636857D01*
X79926857Y-63351143D02*
X80307809Y-63351143D01*
X80498285Y-63494000D01*
X80688762Y-63779714D01*
X80784000Y-64351143D01*
X80784000Y-65351143D01*
X80688762Y-65922571D01*
X80498285Y-66208286D01*
X80307809Y-66351143D01*
X79926857Y-66351143D01*
X79736381Y-66208286D01*
X79545904Y-65922571D01*
X79450666Y-65351143D01*
X79450666Y-64351143D01*
X79545904Y-63779714D01*
X79736381Y-63494000D01*
X79926857Y-63351143D01*
X81641142Y-66351143D02*
X81641142Y-63351143D01*
X82784000Y-66351143D01*
X82784000Y-63351143D01*
X83450666Y-63351143D02*
X84593523Y-63351143D01*
X84022095Y-66351143D02*
X84022095Y-63351143D01*
X86403048Y-66351143D02*
X85736381Y-64922571D01*
X85260190Y-66351143D02*
X85260190Y-63351143D01*
X86022095Y-63351143D01*
X86212571Y-63494000D01*
X86307810Y-63636857D01*
X86403048Y-63922571D01*
X86403048Y-64351143D01*
X86307810Y-64636857D01*
X86212571Y-64779714D01*
X86022095Y-64922571D01*
X85260190Y-64922571D01*
X87641143Y-63351143D02*
X88022095Y-63351143D01*
X88212571Y-63494000D01*
X88403048Y-63779714D01*
X88498286Y-64351143D01*
X88498286Y-65351143D01*
X88403048Y-65922571D01*
X88212571Y-66208286D01*
X88022095Y-66351143D01*
X87641143Y-66351143D01*
X87450667Y-66208286D01*
X87260190Y-65922571D01*
X87164952Y-65351143D01*
X87164952Y-64351143D01*
X87260190Y-63779714D01*
X87450667Y-63494000D01*
X87641143Y-63351143D01*
X90307809Y-66351143D02*
X89355428Y-66351143D01*
X89355428Y-63351143D01*
X72084285Y-66351143D02*
X71131904Y-66351143D01*
X71131904Y-63351143D01*
X72750952Y-64779714D02*
X73417619Y-64779714D01*
X73703333Y-66351143D02*
X72750952Y-66351143D01*
X72750952Y-63351143D01*
X73703333Y-63351143D01*
X74560476Y-66351143D02*
X74560476Y-63351143D01*
X75036667Y-63351143D01*
X75322381Y-63494000D01*
X75512857Y-63779714D01*
X75608096Y-64065429D01*
X75703334Y-64636857D01*
X75703334Y-65065429D01*
X75608096Y-65636857D01*
X75512857Y-65922571D01*
X75322381Y-66208286D01*
X75036667Y-66351143D01*
X74560476Y-66351143D01*
X59765714Y-66351143D02*
X59765714Y-63351143D01*
X60432381Y-65494000D01*
X61099048Y-63351143D01*
X61099048Y-66351143D01*
X61956190Y-65494000D02*
X62908571Y-65494000D01*
X61765714Y-66351143D02*
X62432381Y-63351143D01*
X63099048Y-66351143D01*
X63480000Y-63351143D02*
X64622857Y-63351143D01*
X64051429Y-66351143D02*
X64051429Y-63351143D01*
X66432382Y-66351143D02*
X65765715Y-64922571D01*
X65289524Y-66351143D02*
X65289524Y-63351143D01*
X66051429Y-63351143D01*
X66241905Y-63494000D01*
X66337144Y-63636857D01*
X66432382Y-63922571D01*
X66432382Y-64351143D01*
X66337144Y-64636857D01*
X66241905Y-64779714D01*
X66051429Y-64922571D01*
X65289524Y-64922571D01*
X67289524Y-66351143D02*
X67289524Y-63351143D01*
X68051429Y-63351143D02*
X69384763Y-66351143D01*
X69384763Y-63351143D02*
X68051429Y-66351143D01*
D12*
X124170000Y-70328000D02*
X125186000Y-70328000D01*
X124932000Y-70836000D02*
X124932000Y-69820000D01*
X124932000Y-70328000D02*
X124424000Y-69820000D01*
X124424000Y-70836000D02*
X124932000Y-70328000D01*
X124424000Y-70582000D02*
X124424000Y-70836000D01*
X124424000Y-69820000D02*
X124424000Y-70582000D01*
X107850572Y-64720143D02*
X108993429Y-64720143D01*
X108422000Y-65291571D02*
X108422000Y-64148714D01*
X58000000Y-54000000D02*
G75*
G03X58000000Y-54000000I-4000000J0D01*
G01*
X58000000Y-138000000D02*
G75*
G03X58000000Y-138000000I-4000000J0D01*
G01*
X126000000Y-138000000D02*
G75*
G03X126000000Y-138000000I-4000000J0D01*
G01*
X126000000Y-54000000D02*
G75*
G03X126000000Y-54000000I-4000000J0D01*
G01*
D11*
X70322000Y-141888000D02*
X70322000Y-140813000D01*
X70322000Y-140813000D02*
X75402000Y-140813000D01*
X75402000Y-140813000D02*
X75402000Y-141888000D01*
X65242000Y-140178000D02*
X64607000Y-141448000D01*
X64607000Y-141448000D02*
X65877000Y-141448000D01*
X65877000Y-141448000D02*
X65242000Y-140178000D01*
X70322000Y-141888000D02*
X58952000Y-141888000D01*
X58952000Y-141888000D02*
X58952000Y-133388000D01*
X58952000Y-133388000D02*
X86772000Y-133388000D01*
X86772000Y-133388000D02*
X86772000Y-141888000D01*
X86772000Y-141888000D02*
X75402000Y-141888000D01*
X98262000Y-141888000D02*
X98262000Y-140813000D01*
X98262000Y-140813000D02*
X103342000Y-140813000D01*
X103342000Y-140813000D02*
X103342000Y-141888000D01*
X93182000Y-140178000D02*
X92547000Y-141448000D01*
X92547000Y-141448000D02*
X93817000Y-141448000D01*
X93817000Y-141448000D02*
X93182000Y-140178000D01*
X98262000Y-141888000D02*
X86892000Y-141888000D01*
X86892000Y-141888000D02*
X86892000Y-133388000D01*
X86892000Y-133388000D02*
X114712000Y-133388000D01*
X114712000Y-133388000D02*
X114712000Y-141888000D01*
X114712000Y-141888000D02*
X103342000Y-141888000D01*
X79212000Y-59338000D02*
X79212000Y-58263000D01*
X79212000Y-58263000D02*
X84292000Y-58263000D01*
X84292000Y-58263000D02*
X84292000Y-59338000D01*
X74132000Y-57628000D02*
X73497000Y-58898000D01*
X73497000Y-58898000D02*
X74767000Y-58898000D01*
X74767000Y-58898000D02*
X74132000Y-57628000D01*
X79212000Y-59338000D02*
X67842000Y-59338000D01*
X67842000Y-59338000D02*
X67842000Y-50838000D01*
X67842000Y-50838000D02*
X95662000Y-50838000D01*
X95662000Y-50838000D02*
X95662000Y-59338000D01*
X95662000Y-59338000D02*
X84292000Y-59338000D01*
X107282000Y-56268000D02*
X104582000Y-56268000D01*
X103882000Y-56568000D02*
X107882000Y-56568000D01*
X108282000Y-56868000D02*
X103482000Y-56868000D01*
X108682000Y-57168000D02*
X106982000Y-57168000D01*
X108882000Y-57368000D02*
X106982000Y-57368000D01*
X109082000Y-57668000D02*
X106982000Y-57668000D01*
X109382000Y-57968000D02*
X106982000Y-57968000D01*
X109482000Y-58268000D02*
X106982000Y-58268000D01*
X104782000Y-57168000D02*
X103082000Y-57168000D01*
X104782000Y-57368000D02*
X102882000Y-57368000D01*
X104782000Y-57668000D02*
X102582000Y-57668000D01*
X104782000Y-57968000D02*
X102382000Y-57968000D01*
X102182000Y-58268000D02*
X104782000Y-58268000D01*
X101982000Y-58868000D02*
X104782000Y-58868000D01*
X109782000Y-58868000D02*
X106982000Y-58868000D01*
X101882000Y-59168000D02*
X104782000Y-59168000D01*
X104782000Y-59168000D02*
X104782000Y-57168000D01*
X104782000Y-57168000D02*
X106982000Y-57168000D01*
X106982000Y-57168000D02*
X106982000Y-59168000D01*
X106982000Y-59168000D02*
X109882000Y-59168000D01*
X102182000Y-58568000D02*
X104782000Y-58568000D01*
X106982000Y-58568000D02*
X109682000Y-58568000D01*
X110007000Y-60168000D02*
G75*
G03X110007000Y-60168000I-4125000J0D01*
G01*
X121232000Y-67308000D02*
X121232000Y-58108000D01*
X117232000Y-58108000D02*
X126032000Y-58108000D01*
X126032000Y-58108000D02*
X126032000Y-67308000D01*
X111332000Y-59708000D02*
X111332000Y-58108000D01*
X111332000Y-58108000D02*
X113232000Y-58108000D01*
X126032000Y-67308000D02*
X111332000Y-67308000D01*
X111332000Y-67308000D02*
X111332000Y-65708000D01*
X118242000Y-94228000D02*
X118242000Y-71828000D01*
X125242000Y-71828000D02*
X113742000Y-71828000D01*
X125242000Y-94228000D02*
X113742000Y-94228000D01*
X125242000Y-94228000D02*
X125242000Y-71828000D01*
X117142000Y-132558000D02*
X125642000Y-132558000D01*
X125642000Y-132558000D02*
X125642000Y-107158000D01*
X125642000Y-107158000D02*
X117142000Y-107158000D01*
X117142000Y-107158000D02*
X117142000Y-132558000D01*
X49772000Y-108428000D02*
X43772000Y-108428000D01*
X49772000Y-110968000D02*
X43772000Y-110968000D01*
X49772000Y-113508000D02*
X43772000Y-113508000D01*
X49772000Y-116048000D02*
X43772000Y-116048000D01*
X49772000Y-118588000D02*
X43772000Y-118588000D01*
X49772000Y-121128000D02*
X43772000Y-121128000D01*
X49772000Y-123668000D02*
X43772000Y-123668000D01*
X49772000Y-126208000D02*
X43772000Y-126208000D01*
X49772000Y-128748000D02*
X43772000Y-128748000D01*
X49772000Y-131288000D02*
X43772000Y-131288000D01*
X52312000Y-132558000D02*
X52312000Y-107158000D01*
X52312000Y-107158000D02*
X49772000Y-107158000D01*
X49772000Y-107158000D02*
X49772000Y-132558000D01*
X49772000Y-132558000D02*
X52312000Y-132558000D01*
X84412000Y-127208000D02*
G75*
G02X84412000Y-125208000I0J1000000D01*
G01*
X84412000Y-125208000D02*
X84412000Y-123438000D01*
X84412000Y-123438000D02*
X61312000Y-123438000D01*
X61312000Y-123438000D02*
X61312000Y-128978000D01*
X61312000Y-128978000D02*
X84412000Y-128978000D01*
X84412000Y-128978000D02*
X84412000Y-127208000D01*
X84412000Y-117048000D02*
G75*
G02X84412000Y-115048000I0J1000000D01*
G01*
X84412000Y-115048000D02*
X84412000Y-113278000D01*
X84412000Y-113278000D02*
X61312000Y-113278000D01*
X61312000Y-113278000D02*
X61312000Y-118818000D01*
X61312000Y-118818000D02*
X84412000Y-118818000D01*
X84412000Y-118818000D02*
X84412000Y-117048000D01*
X108542000Y-127208000D02*
G75*
G02X108542000Y-125208000I0J1000000D01*
G01*
X108542000Y-125208000D02*
X108542000Y-123438000D01*
X108542000Y-123438000D02*
X85442000Y-123438000D01*
X85442000Y-123438000D02*
X85442000Y-128978000D01*
X85442000Y-128978000D02*
X108542000Y-128978000D01*
X108542000Y-128978000D02*
X108542000Y-127208000D01*
X108542000Y-117048000D02*
G75*
G02X108542000Y-115048000I0J1000000D01*
G01*
X108542000Y-115048000D02*
X108542000Y-113278000D01*
X108542000Y-113278000D02*
X85442000Y-113278000D01*
X85442000Y-113278000D02*
X85442000Y-118818000D01*
X85442000Y-118818000D02*
X108542000Y-118818000D01*
X108542000Y-118818000D02*
X108542000Y-117048000D01*
X54962000Y-97268000D02*
G75*
G02X54962000Y-99268000I0J-1000000D01*
G01*
X54962000Y-99268000D02*
X54962000Y-101038000D01*
X54962000Y-101038000D02*
X80602000Y-101038000D01*
X80602000Y-101038000D02*
X80602000Y-95498000D01*
X80602000Y-95498000D02*
X54962000Y-95498000D01*
X54962000Y-95498000D02*
X54962000Y-97268000D01*
X54962000Y-84568000D02*
G75*
G02X54962000Y-86568000I0J-1000000D01*
G01*
X54962000Y-86568000D02*
X54962000Y-88338000D01*
X54962000Y-88338000D02*
X80602000Y-88338000D01*
X80602000Y-88338000D02*
X80602000Y-82798000D01*
X80602000Y-82798000D02*
X54962000Y-82798000D01*
X54962000Y-82798000D02*
X54962000Y-84568000D01*
X81632000Y-97268000D02*
G75*
G02X81632000Y-99268000I0J-1000000D01*
G01*
X81632000Y-99268000D02*
X81632000Y-101038000D01*
X81632000Y-101038000D02*
X107272000Y-101038000D01*
X107272000Y-101038000D02*
X107272000Y-95498000D01*
X107272000Y-95498000D02*
X81632000Y-95498000D01*
X81632000Y-95498000D02*
X81632000Y-97268000D01*
X81632000Y-84568000D02*
G75*
G02X81632000Y-86568000I0J-1000000D01*
G01*
X81632000Y-86568000D02*
X81632000Y-88338000D01*
X81632000Y-88338000D02*
X107272000Y-88338000D01*
X107272000Y-88338000D02*
X107272000Y-82798000D01*
X107272000Y-82798000D02*
X81632000Y-82798000D01*
X81632000Y-82798000D02*
X81632000Y-84568000D01*
X54962000Y-71868000D02*
G75*
G02X54962000Y-73868000I0J-1000000D01*
G01*
X54962000Y-73868000D02*
X54962000Y-75638000D01*
X54962000Y-75638000D02*
X80602000Y-75638000D01*
X80602000Y-75638000D02*
X80602000Y-70098000D01*
X80602000Y-70098000D02*
X54962000Y-70098000D01*
X54962000Y-70098000D02*
X54962000Y-71868000D01*
X81632000Y-71868000D02*
G75*
G02X81632000Y-73868000I0J-1000000D01*
G01*
X81632000Y-73868000D02*
X81632000Y-75638000D01*
X81632000Y-75638000D02*
X107272000Y-75638000D01*
X107272000Y-75638000D02*
X107272000Y-70098000D01*
X107272000Y-70098000D02*
X81632000Y-70098000D01*
X81632000Y-70098000D02*
X81632000Y-71868000D01*
X118312000Y-69478000D02*
X116312000Y-69478000D01*
X116312000Y-71178000D02*
X118312000Y-71178000D01*
X122757000Y-69478000D02*
X120757000Y-69478000D01*
X120757000Y-71178000D02*
X122757000Y-71178000D01*
X113742000Y-94668000D02*
X125242000Y-94668000D01*
X113742000Y-107068000D02*
X125242000Y-107068000D01*
X113742000Y-107068000D02*
X113742000Y-94658000D01*
D13*
X84109524Y-132407143D02*
X84061905Y-132454762D01*
X83919048Y-132502381D01*
X83823810Y-132502381D01*
X83680952Y-132454762D01*
X83585714Y-132359524D01*
X83538095Y-132264286D01*
X83490476Y-132073810D01*
X83490476Y-131930952D01*
X83538095Y-131740476D01*
X83585714Y-131645238D01*
X83680952Y-131550000D01*
X83823810Y-131502381D01*
X83919048Y-131502381D01*
X84061905Y-131550000D01*
X84109524Y-131597619D01*
X84538095Y-132502381D02*
X84538095Y-131502381D01*
X85109524Y-132502381D01*
X85109524Y-131502381D01*
X86109524Y-132502381D02*
X85538095Y-132502381D01*
X85823809Y-132502381D02*
X85823809Y-131502381D01*
X85728571Y-131645238D01*
X85633333Y-131740476D01*
X85538095Y-131788095D01*
X111541524Y-132661143D02*
X111493905Y-132708762D01*
X111351048Y-132756381D01*
X111255810Y-132756381D01*
X111112952Y-132708762D01*
X111017714Y-132613524D01*
X110970095Y-132518286D01*
X110922476Y-132327810D01*
X110922476Y-132184952D01*
X110970095Y-131994476D01*
X111017714Y-131899238D01*
X111112952Y-131804000D01*
X111255810Y-131756381D01*
X111351048Y-131756381D01*
X111493905Y-131804000D01*
X111541524Y-131851619D01*
X111970095Y-132756381D02*
X111970095Y-131756381D01*
X112541524Y-132756381D01*
X112541524Y-131756381D01*
X112970095Y-131851619D02*
X113017714Y-131804000D01*
X113112952Y-131756381D01*
X113351048Y-131756381D01*
X113446286Y-131804000D01*
X113493905Y-131851619D01*
X113541524Y-131946857D01*
X113541524Y-132042095D01*
X113493905Y-132184952D01*
X112922476Y-132756381D01*
X113541524Y-132756381D01*
X92491524Y-60525143D02*
X92443905Y-60572762D01*
X92301048Y-60620381D01*
X92205810Y-60620381D01*
X92062952Y-60572762D01*
X91967714Y-60477524D01*
X91920095Y-60382286D01*
X91872476Y-60191810D01*
X91872476Y-60048952D01*
X91920095Y-59858476D01*
X91967714Y-59763238D01*
X92062952Y-59668000D01*
X92205810Y-59620381D01*
X92301048Y-59620381D01*
X92443905Y-59668000D01*
X92491524Y-59715619D01*
X92920095Y-60620381D02*
X92920095Y-59620381D01*
X93491524Y-60620381D01*
X93491524Y-59620381D01*
X94396286Y-59953714D02*
X94396286Y-60620381D01*
X94158190Y-59572762D02*
X93920095Y-60287048D01*
X94539143Y-60287048D01*
X105715334Y-65605143D02*
X105667715Y-65652762D01*
X105524858Y-65700381D01*
X105429620Y-65700381D01*
X105286762Y-65652762D01*
X105191524Y-65557524D01*
X105143905Y-65462286D01*
X105096286Y-65271810D01*
X105096286Y-65128952D01*
X105143905Y-64938476D01*
X105191524Y-64843238D01*
X105286762Y-64748000D01*
X105429620Y-64700381D01*
X105524858Y-64700381D01*
X105667715Y-64748000D01*
X105715334Y-64795619D01*
X106048667Y-64700381D02*
X106715334Y-64700381D01*
X106286762Y-65700381D01*
X111795524Y-68653143D02*
X111747905Y-68700762D01*
X111605048Y-68748381D01*
X111509810Y-68748381D01*
X111366952Y-68700762D01*
X111271714Y-68605524D01*
X111224095Y-68510286D01*
X111176476Y-68319810D01*
X111176476Y-68176952D01*
X111224095Y-67986476D01*
X111271714Y-67891238D01*
X111366952Y-67796000D01*
X111509810Y-67748381D01*
X111605048Y-67748381D01*
X111747905Y-67796000D01*
X111795524Y-67843619D01*
X112224095Y-68748381D02*
X112224095Y-67748381D01*
X112795524Y-68748381D01*
X112795524Y-67748381D01*
X113176476Y-67748381D02*
X113795524Y-67748381D01*
X113462190Y-68129333D01*
X113605048Y-68129333D01*
X113700286Y-68176952D01*
X113747905Y-68224571D01*
X113795524Y-68319810D01*
X113795524Y-68557905D01*
X113747905Y-68653143D01*
X113700286Y-68700762D01*
X113605048Y-68748381D01*
X113319333Y-68748381D01*
X113224095Y-68700762D01*
X113176476Y-68653143D01*
X112303524Y-92275143D02*
X112255905Y-92322762D01*
X112113048Y-92370381D01*
X112017810Y-92370381D01*
X111874952Y-92322762D01*
X111779714Y-92227524D01*
X111732095Y-92132286D01*
X111684476Y-91941810D01*
X111684476Y-91798952D01*
X111732095Y-91608476D01*
X111779714Y-91513238D01*
X111874952Y-91418000D01*
X112017810Y-91370381D01*
X112113048Y-91370381D01*
X112255905Y-91418000D01*
X112303524Y-91465619D01*
X112732095Y-92370381D02*
X112732095Y-91370381D01*
X113303524Y-92370381D01*
X113303524Y-91370381D01*
X114255905Y-91370381D02*
X113779714Y-91370381D01*
X113732095Y-91846571D01*
X113779714Y-91798952D01*
X113874952Y-91751333D01*
X114113048Y-91751333D01*
X114208286Y-91798952D01*
X114255905Y-91846571D01*
X114303524Y-91941810D01*
X114303524Y-92179905D01*
X114255905Y-92275143D01*
X114208286Y-92322762D01*
X114113048Y-92370381D01*
X113874952Y-92370381D01*
X113779714Y-92322762D01*
X113732095Y-92275143D01*
X117637524Y-134185143D02*
X117589905Y-134232762D01*
X117447048Y-134280381D01*
X117351810Y-134280381D01*
X117208952Y-134232762D01*
X117113714Y-134137524D01*
X117066095Y-134042286D01*
X117018476Y-133851810D01*
X117018476Y-133708952D01*
X117066095Y-133518476D01*
X117113714Y-133423238D01*
X117208952Y-133328000D01*
X117351810Y-133280381D01*
X117447048Y-133280381D01*
X117589905Y-133328000D01*
X117637524Y-133375619D01*
X118066095Y-134280381D02*
X118066095Y-133280381D01*
X118637524Y-134280381D01*
X118637524Y-133280381D01*
X119542286Y-133280381D02*
X119351809Y-133280381D01*
X119256571Y-133328000D01*
X119208952Y-133375619D01*
X119113714Y-133518476D01*
X119066095Y-133708952D01*
X119066095Y-134089905D01*
X119113714Y-134185143D01*
X119161333Y-134232762D01*
X119256571Y-134280381D01*
X119447048Y-134280381D01*
X119542286Y-134232762D01*
X119589905Y-134185143D01*
X119637524Y-134089905D01*
X119637524Y-133851810D01*
X119589905Y-133756571D01*
X119542286Y-133708952D01*
X119447048Y-133661333D01*
X119256571Y-133661333D01*
X119161333Y-133708952D01*
X119113714Y-133756571D01*
X119066095Y-133851810D01*
X56423524Y-131391143D02*
X56375905Y-131438762D01*
X56233048Y-131486381D01*
X56137810Y-131486381D01*
X55994952Y-131438762D01*
X55899714Y-131343524D01*
X55852095Y-131248286D01*
X55804476Y-131057810D01*
X55804476Y-130914952D01*
X55852095Y-130724476D01*
X55899714Y-130629238D01*
X55994952Y-130534000D01*
X56137810Y-130486381D01*
X56233048Y-130486381D01*
X56375905Y-130534000D01*
X56423524Y-130581619D01*
X56852095Y-131486381D02*
X56852095Y-130486381D01*
X57423524Y-131486381D01*
X57423524Y-130486381D01*
X57804476Y-130486381D02*
X58471143Y-130486381D01*
X58042571Y-131486381D01*
X71631810Y-132502381D02*
X71631810Y-131502381D01*
X72679429Y-132407143D02*
X72631810Y-132454762D01*
X72488953Y-132502381D01*
X72393715Y-132502381D01*
X72250857Y-132454762D01*
X72155619Y-132359524D01*
X72108000Y-132264286D01*
X72060381Y-132073810D01*
X72060381Y-131930952D01*
X72108000Y-131740476D01*
X72155619Y-131645238D01*
X72250857Y-131550000D01*
X72393715Y-131502381D01*
X72488953Y-131502381D01*
X72631810Y-131550000D01*
X72679429Y-131597619D01*
X73584191Y-131502381D02*
X73108000Y-131502381D01*
X73060381Y-131978571D01*
X73108000Y-131930952D01*
X73203238Y-131883333D01*
X73441334Y-131883333D01*
X73536572Y-131930952D01*
X73584191Y-131978571D01*
X73631810Y-132073810D01*
X73631810Y-132311905D01*
X73584191Y-132407143D01*
X73536572Y-132454762D01*
X73441334Y-132502381D01*
X73203238Y-132502381D01*
X73108000Y-132454762D01*
X73060381Y-132407143D01*
X59185810Y-120564381D02*
X59185810Y-119564381D01*
X60233429Y-120469143D02*
X60185810Y-120516762D01*
X60042953Y-120564381D01*
X59947715Y-120564381D01*
X59804857Y-120516762D01*
X59709619Y-120421524D01*
X59662000Y-120326286D01*
X59614381Y-120135810D01*
X59614381Y-119992952D01*
X59662000Y-119802476D01*
X59709619Y-119707238D01*
X59804857Y-119612000D01*
X59947715Y-119564381D01*
X60042953Y-119564381D01*
X60185810Y-119612000D01*
X60233429Y-119659619D01*
X61090572Y-119564381D02*
X60900095Y-119564381D01*
X60804857Y-119612000D01*
X60757238Y-119659619D01*
X60662000Y-119802476D01*
X60614381Y-119992952D01*
X60614381Y-120373905D01*
X60662000Y-120469143D01*
X60709619Y-120516762D01*
X60804857Y-120564381D01*
X60995334Y-120564381D01*
X61090572Y-120516762D01*
X61138191Y-120469143D01*
X61185810Y-120373905D01*
X61185810Y-120135810D01*
X61138191Y-120040571D01*
X61090572Y-119992952D01*
X60995334Y-119945333D01*
X60804857Y-119945333D01*
X60709619Y-119992952D01*
X60662000Y-120040571D01*
X60614381Y-120135810D01*
X95507810Y-132502381D02*
X95507810Y-131502381D01*
X96555429Y-132407143D02*
X96507810Y-132454762D01*
X96364953Y-132502381D01*
X96269715Y-132502381D01*
X96126857Y-132454762D01*
X96031619Y-132359524D01*
X95984000Y-132264286D01*
X95936381Y-132073810D01*
X95936381Y-131930952D01*
X95984000Y-131740476D01*
X96031619Y-131645238D01*
X96126857Y-131550000D01*
X96269715Y-131502381D01*
X96364953Y-131502381D01*
X96507810Y-131550000D01*
X96555429Y-131597619D01*
X96888762Y-131502381D02*
X97555429Y-131502381D01*
X97126857Y-132502381D01*
X108715810Y-120564381D02*
X108715810Y-119564381D01*
X109763429Y-120469143D02*
X109715810Y-120516762D01*
X109572953Y-120564381D01*
X109477715Y-120564381D01*
X109334857Y-120516762D01*
X109239619Y-120421524D01*
X109192000Y-120326286D01*
X109144381Y-120135810D01*
X109144381Y-119992952D01*
X109192000Y-119802476D01*
X109239619Y-119707238D01*
X109334857Y-119612000D01*
X109477715Y-119564381D01*
X109572953Y-119564381D01*
X109715810Y-119612000D01*
X109763429Y-119659619D01*
X110334857Y-119992952D02*
X110239619Y-119945333D01*
X110192000Y-119897714D01*
X110144381Y-119802476D01*
X110144381Y-119754857D01*
X110192000Y-119659619D01*
X110239619Y-119612000D01*
X110334857Y-119564381D01*
X110525334Y-119564381D01*
X110620572Y-119612000D01*
X110668191Y-119659619D01*
X110715810Y-119754857D01*
X110715810Y-119802476D01*
X110668191Y-119897714D01*
X110620572Y-119945333D01*
X110525334Y-119992952D01*
X110334857Y-119992952D01*
X110239619Y-120040571D01*
X110192000Y-120088190D01*
X110144381Y-120183429D01*
X110144381Y-120373905D01*
X110192000Y-120469143D01*
X110239619Y-120516762D01*
X110334857Y-120564381D01*
X110525334Y-120564381D01*
X110620572Y-120516762D01*
X110668191Y-120469143D01*
X110715810Y-120373905D01*
X110715810Y-120183429D01*
X110668191Y-120088190D01*
X110620572Y-120040571D01*
X110525334Y-119992952D01*
X67059810Y-104562381D02*
X67059810Y-103562381D01*
X68107429Y-104467143D02*
X68059810Y-104514762D01*
X67916953Y-104562381D01*
X67821715Y-104562381D01*
X67678857Y-104514762D01*
X67583619Y-104419524D01*
X67536000Y-104324286D01*
X67488381Y-104133810D01*
X67488381Y-103990952D01*
X67536000Y-103800476D01*
X67583619Y-103705238D01*
X67678857Y-103610000D01*
X67821715Y-103562381D01*
X67916953Y-103562381D01*
X68059810Y-103610000D01*
X68107429Y-103657619D01*
X69059810Y-104562381D02*
X68488381Y-104562381D01*
X68774095Y-104562381D02*
X68774095Y-103562381D01*
X68678857Y-103705238D01*
X68583619Y-103800476D01*
X68488381Y-103848095D01*
X66805810Y-91862381D02*
X66805810Y-90862381D01*
X67853429Y-91767143D02*
X67805810Y-91814762D01*
X67662953Y-91862381D01*
X67567715Y-91862381D01*
X67424857Y-91814762D01*
X67329619Y-91719524D01*
X67282000Y-91624286D01*
X67234381Y-91433810D01*
X67234381Y-91290952D01*
X67282000Y-91100476D01*
X67329619Y-91005238D01*
X67424857Y-90910000D01*
X67567715Y-90862381D01*
X67662953Y-90862381D01*
X67805810Y-90910000D01*
X67853429Y-90957619D01*
X68234381Y-90957619D02*
X68282000Y-90910000D01*
X68377238Y-90862381D01*
X68615334Y-90862381D01*
X68710572Y-90910000D01*
X68758191Y-90957619D01*
X68805810Y-91052857D01*
X68805810Y-91148095D01*
X68758191Y-91290952D01*
X68186762Y-91862381D01*
X68805810Y-91862381D01*
X93221810Y-104562381D02*
X93221810Y-103562381D01*
X94269429Y-104467143D02*
X94221810Y-104514762D01*
X94078953Y-104562381D01*
X93983715Y-104562381D01*
X93840857Y-104514762D01*
X93745619Y-104419524D01*
X93698000Y-104324286D01*
X93650381Y-104133810D01*
X93650381Y-103990952D01*
X93698000Y-103800476D01*
X93745619Y-103705238D01*
X93840857Y-103610000D01*
X93983715Y-103562381D01*
X94078953Y-103562381D01*
X94221810Y-103610000D01*
X94269429Y-103657619D01*
X94602762Y-103562381D02*
X95221810Y-103562381D01*
X94888476Y-103943333D01*
X95031334Y-103943333D01*
X95126572Y-103990952D01*
X95174191Y-104038571D01*
X95221810Y-104133810D01*
X95221810Y-104371905D01*
X95174191Y-104467143D01*
X95126572Y-104514762D01*
X95031334Y-104562381D01*
X94745619Y-104562381D01*
X94650381Y-104514762D01*
X94602762Y-104467143D01*
X93475810Y-91862381D02*
X93475810Y-90862381D01*
X94523429Y-91767143D02*
X94475810Y-91814762D01*
X94332953Y-91862381D01*
X94237715Y-91862381D01*
X94094857Y-91814762D01*
X93999619Y-91719524D01*
X93952000Y-91624286D01*
X93904381Y-91433810D01*
X93904381Y-91290952D01*
X93952000Y-91100476D01*
X93999619Y-91005238D01*
X94094857Y-90910000D01*
X94237715Y-90862381D01*
X94332953Y-90862381D01*
X94475810Y-90910000D01*
X94523429Y-90957619D01*
X95380572Y-91195714D02*
X95380572Y-91862381D01*
X95142476Y-90814762D02*
X94904381Y-91529048D01*
X95523429Y-91529048D01*
X66551810Y-79162381D02*
X66551810Y-78162381D01*
X67599429Y-79067143D02*
X67551810Y-79114762D01*
X67408953Y-79162381D01*
X67313715Y-79162381D01*
X67170857Y-79114762D01*
X67075619Y-79019524D01*
X67028000Y-78924286D01*
X66980381Y-78733810D01*
X66980381Y-78590952D01*
X67028000Y-78400476D01*
X67075619Y-78305238D01*
X67170857Y-78210000D01*
X67313715Y-78162381D01*
X67408953Y-78162381D01*
X67551810Y-78210000D01*
X67599429Y-78257619D01*
X68075619Y-79162381D02*
X68266095Y-79162381D01*
X68361334Y-79114762D01*
X68408953Y-79067143D01*
X68504191Y-78924286D01*
X68551810Y-78733810D01*
X68551810Y-78352857D01*
X68504191Y-78257619D01*
X68456572Y-78210000D01*
X68361334Y-78162381D01*
X68170857Y-78162381D01*
X68075619Y-78210000D01*
X68028000Y-78257619D01*
X67980381Y-78352857D01*
X67980381Y-78590952D01*
X68028000Y-78686190D01*
X68075619Y-78733810D01*
X68170857Y-78781429D01*
X68361334Y-78781429D01*
X68456572Y-78733810D01*
X68504191Y-78686190D01*
X68551810Y-78590952D01*
X92745619Y-78908381D02*
X92745619Y-77908381D01*
X93793238Y-78813143D02*
X93745619Y-78860762D01*
X93602762Y-78908381D01*
X93507524Y-78908381D01*
X93364666Y-78860762D01*
X93269428Y-78765524D01*
X93221809Y-78670286D01*
X93174190Y-78479810D01*
X93174190Y-78336952D01*
X93221809Y-78146476D01*
X93269428Y-78051238D01*
X93364666Y-77956000D01*
X93507524Y-77908381D01*
X93602762Y-77908381D01*
X93745619Y-77956000D01*
X93793238Y-78003619D01*
X94745619Y-78908381D02*
X94174190Y-78908381D01*
X94459904Y-78908381D02*
X94459904Y-77908381D01*
X94364666Y-78051238D01*
X94269428Y-78146476D01*
X94174190Y-78194095D01*
X95364666Y-77908381D02*
X95459905Y-77908381D01*
X95555143Y-77956000D01*
X95602762Y-78003619D01*
X95650381Y-78098857D01*
X95698000Y-78289333D01*
X95698000Y-78527429D01*
X95650381Y-78717905D01*
X95602762Y-78813143D01*
X95555143Y-78860762D01*
X95459905Y-78908381D01*
X95364666Y-78908381D01*
X95269428Y-78860762D01*
X95221809Y-78813143D01*
X95174190Y-78717905D01*
X95126571Y-78527429D01*
X95126571Y-78289333D01*
X95174190Y-78098857D01*
X95221809Y-78003619D01*
X95269428Y-77956000D01*
X95364666Y-77908381D01*
X112859143Y-70780381D02*
X112525809Y-70304190D01*
X112287714Y-70780381D02*
X112287714Y-69780381D01*
X112668667Y-69780381D01*
X112763905Y-69828000D01*
X112811524Y-69875619D01*
X112859143Y-69970857D01*
X112859143Y-70113714D01*
X112811524Y-70208952D01*
X112763905Y-70256571D01*
X112668667Y-70304190D01*
X112287714Y-70304190D01*
X113811524Y-70780381D02*
X113240095Y-70780381D01*
X113525809Y-70780381D02*
X113525809Y-69780381D01*
X113430571Y-69923238D01*
X113335333Y-70018476D01*
X113240095Y-70066095D01*
X114144857Y-69780381D02*
X114811524Y-69780381D01*
X114382952Y-70780381D01*
X120510953Y-69002381D02*
X120034762Y-69002381D01*
X120034762Y-68002381D01*
X120844286Y-68478571D02*
X121177620Y-68478571D01*
X121320477Y-69002381D02*
X120844286Y-69002381D01*
X120844286Y-68002381D01*
X121320477Y-68002381D01*
X121749048Y-69002381D02*
X121749048Y-68002381D01*
X121987143Y-68002381D01*
X122130001Y-68050000D01*
X122225239Y-68145238D01*
X122272858Y-68240476D01*
X122320477Y-68430952D01*
X122320477Y-68573810D01*
X122272858Y-68764286D01*
X122225239Y-68859524D01*
X122130001Y-68954762D01*
X121987143Y-69002381D01*
X121749048Y-69002381D01*
X123272858Y-69002381D02*
X122701429Y-69002381D01*
X122987143Y-69002381D02*
X122987143Y-68002381D01*
X122891905Y-68145238D01*
X122796667Y-68240476D01*
X122701429Y-68288095D01*
X110779524Y-104975143D02*
X110731905Y-105022762D01*
X110589048Y-105070381D01*
X110493810Y-105070381D01*
X110350952Y-105022762D01*
X110255714Y-104927524D01*
X110208095Y-104832286D01*
X110160476Y-104641810D01*
X110160476Y-104498952D01*
X110208095Y-104308476D01*
X110255714Y-104213238D01*
X110350952Y-104118000D01*
X110493810Y-104070381D01*
X110589048Y-104070381D01*
X110731905Y-104118000D01*
X110779524Y-104165619D01*
X111208095Y-105070381D02*
X111208095Y-104070381D01*
X111779524Y-105070381D01*
X111779524Y-104070381D01*
X112398571Y-104498952D02*
X112303333Y-104451333D01*
X112255714Y-104403714D01*
X112208095Y-104308476D01*
X112208095Y-104260857D01*
X112255714Y-104165619D01*
X112303333Y-104118000D01*
X112398571Y-104070381D01*
X112589048Y-104070381D01*
X112684286Y-104118000D01*
X112731905Y-104165619D01*
X112779524Y-104260857D01*
X112779524Y-104308476D01*
X112731905Y-104403714D01*
X112684286Y-104451333D01*
X112589048Y-104498952D01*
X112398571Y-104498952D01*
X112303333Y-104546571D01*
X112255714Y-104594190D01*
X112208095Y-104689429D01*
X112208095Y-104879905D01*
X112255714Y-104975143D01*
X112303333Y-105022762D01*
X112398571Y-105070381D01*
X112589048Y-105070381D01*
X112684286Y-105022762D01*
X112731905Y-104975143D01*
X112779524Y-104879905D01*
X112779524Y-104689429D01*
X112731905Y-104594190D01*
X112684286Y-104546571D01*
X112589048Y-104498952D01*
M02*
