G04 #@! TF.FileFunction,Copper,L2,Bot,Signal*
%FSLAX46Y46*%
G04 Gerber Fmt 4.6, Leading zero omitted, Abs format (unit mm)*
G04 Created by KiCad (PCBNEW 4.0.7) date 05/27/21 16:34:53*
%MOMM*%
%LPD*%
G01*
G04 APERTURE LIST*
%ADD10C,0.100000*%
%ADD11R,1.400000X1.400000*%
%ADD12C,1.400000*%
%ADD13C,1.600000*%
%ADD14O,2.600000X5.100000*%
%ADD15O,2.600000X4.600000*%
%ADD16O,4.600000X2.600000*%
%ADD17R,1.600000X1.600000*%
%ADD18O,1.400000X1.400000*%
%ADD19R,1.250000X1.000000*%
%ADD20R,1.000000X1.250000*%
%ADD21R,1.700000X1.700000*%
%ADD22C,1.700000*%
%ADD23C,1.000000*%
%ADD24C,0.600000*%
%ADD25C,0.250000*%
%ADD26C,2.000000*%
%ADD27C,0.500000*%
%ADD28C,0.800000*%
%ADD29C,1.600000*%
%ADD30C,0.254000*%
G04 APERTURE END LIST*
D10*
D11*
X63972000Y-138908000D03*
D12*
X63972000Y-136368000D03*
X66512000Y-138908000D03*
X66512000Y-136368000D03*
X69052000Y-138908000D03*
X69052000Y-136368000D03*
X71592000Y-138908000D03*
X71592000Y-136368000D03*
X74132000Y-138908000D03*
X74132000Y-136368000D03*
X76672000Y-138908000D03*
X76672000Y-136368000D03*
X79212000Y-138908000D03*
X79212000Y-136368000D03*
X81752000Y-138908000D03*
X81752000Y-136368000D03*
D11*
X91912000Y-138908000D03*
D12*
X91912000Y-136368000D03*
X94452000Y-138908000D03*
X94452000Y-136368000D03*
X96992000Y-138908000D03*
X96992000Y-136368000D03*
X99532000Y-138908000D03*
X99532000Y-136368000D03*
X102072000Y-138908000D03*
X102072000Y-136368000D03*
X104612000Y-138908000D03*
X104612000Y-136368000D03*
X107152000Y-138908000D03*
X107152000Y-136368000D03*
X109692000Y-138908000D03*
X109692000Y-136368000D03*
D11*
X72862000Y-56358000D03*
D12*
X72862000Y-53818000D03*
X75402000Y-56358000D03*
X75402000Y-53818000D03*
X77942000Y-56358000D03*
X77942000Y-53818000D03*
X80482000Y-56358000D03*
X80482000Y-53818000D03*
X83022000Y-56358000D03*
X83022000Y-53818000D03*
X85562000Y-56358000D03*
X85562000Y-53818000D03*
X88102000Y-56358000D03*
X88102000Y-53818000D03*
X90642000Y-56358000D03*
X90642000Y-53818000D03*
D13*
X105882000Y-62068000D03*
X105882000Y-58268000D03*
D14*
X112232000Y-62708000D03*
D15*
X118232000Y-62708000D03*
D16*
X115232000Y-58008000D03*
D17*
X116042000Y-91778000D03*
D13*
X116042000Y-89278000D03*
X116042000Y-86778000D03*
X116042000Y-84278000D03*
X116042000Y-81778000D03*
X116042000Y-79278000D03*
X116042000Y-76778000D03*
X116042000Y-74278000D03*
D17*
X116042000Y-131288000D03*
D13*
X116042000Y-128748000D03*
X116042000Y-126208000D03*
X116042000Y-123668000D03*
X116042000Y-121128000D03*
X116042000Y-118588000D03*
X116042000Y-116048000D03*
X116042000Y-113508000D03*
X116042000Y-110968000D03*
X116042000Y-108428000D03*
X53812000Y-121128000D03*
X53812000Y-118588000D03*
X53812000Y-116048000D03*
X53812000Y-113508000D03*
X53812000Y-110968000D03*
X53812000Y-108428000D03*
X53812000Y-123668000D03*
X53812000Y-126208000D03*
X53812000Y-128748000D03*
D17*
X53812000Y-131288000D03*
D11*
X83022000Y-122398000D03*
D18*
X65242000Y-130018000D03*
X80482000Y-122398000D03*
X67782000Y-130018000D03*
X77942000Y-122398000D03*
X70322000Y-130018000D03*
X75402000Y-122398000D03*
X72862000Y-130018000D03*
X72862000Y-122398000D03*
X75402000Y-130018000D03*
X70322000Y-122398000D03*
X77942000Y-130018000D03*
X67782000Y-122398000D03*
X80482000Y-130018000D03*
X65242000Y-122398000D03*
X83022000Y-130018000D03*
X62702000Y-122398000D03*
X62702000Y-130018000D03*
D11*
X83022000Y-112238000D03*
D18*
X65242000Y-119858000D03*
X80482000Y-112238000D03*
X67782000Y-119858000D03*
X77942000Y-112238000D03*
X70322000Y-119858000D03*
X75402000Y-112238000D03*
X72862000Y-119858000D03*
X72862000Y-112238000D03*
X75402000Y-119858000D03*
X70322000Y-112238000D03*
X77942000Y-119858000D03*
X67782000Y-112238000D03*
X80482000Y-119858000D03*
X65242000Y-112238000D03*
X83022000Y-119858000D03*
X62702000Y-112238000D03*
X62702000Y-119858000D03*
D11*
X107152000Y-122398000D03*
D18*
X89372000Y-130018000D03*
X104612000Y-122398000D03*
X91912000Y-130018000D03*
X102072000Y-122398000D03*
X94452000Y-130018000D03*
X99532000Y-122398000D03*
X96992000Y-130018000D03*
X96992000Y-122398000D03*
X99532000Y-130018000D03*
X94452000Y-122398000D03*
X102072000Y-130018000D03*
X91912000Y-122398000D03*
X104612000Y-130018000D03*
X89372000Y-122398000D03*
X107152000Y-130018000D03*
X86832000Y-122398000D03*
X86832000Y-130018000D03*
D11*
X107152000Y-112238000D03*
D18*
X89372000Y-119858000D03*
X104612000Y-112238000D03*
X91912000Y-119858000D03*
X102072000Y-112238000D03*
X94452000Y-119858000D03*
X99532000Y-112238000D03*
X96992000Y-119858000D03*
X96992000Y-112238000D03*
X99532000Y-119858000D03*
X94452000Y-112238000D03*
X102072000Y-119858000D03*
X91912000Y-112238000D03*
X104612000Y-119858000D03*
X89372000Y-112238000D03*
X107152000Y-119858000D03*
X86832000Y-112238000D03*
X86832000Y-119858000D03*
D19*
X83022000Y-84568000D03*
X83022000Y-86568000D03*
X56352000Y-97268000D03*
X56352000Y-99268000D03*
X56352000Y-84568000D03*
X56352000Y-86568000D03*
X83022000Y-97268000D03*
X83022000Y-99268000D03*
X56352000Y-71868000D03*
X56352000Y-73868000D03*
X83022000Y-71868000D03*
X83022000Y-73868000D03*
D11*
X56352000Y-102078000D03*
D18*
X74132000Y-94458000D03*
X58892000Y-102078000D03*
X71592000Y-94458000D03*
X61432000Y-102078000D03*
X69052000Y-94458000D03*
X63972000Y-102078000D03*
X66512000Y-94458000D03*
X66512000Y-102078000D03*
X63972000Y-94458000D03*
X69052000Y-102078000D03*
X61432000Y-94458000D03*
X71592000Y-102078000D03*
X58892000Y-94458000D03*
X74132000Y-102078000D03*
X56352000Y-94458000D03*
X76672000Y-102078000D03*
X79212000Y-102078000D03*
X79212000Y-94458000D03*
X76672000Y-94458000D03*
D11*
X56352000Y-89378000D03*
D18*
X74132000Y-81758000D03*
X58892000Y-89378000D03*
X71592000Y-81758000D03*
X61432000Y-89378000D03*
X69052000Y-81758000D03*
X63972000Y-89378000D03*
X66512000Y-81758000D03*
X66512000Y-89378000D03*
X63972000Y-81758000D03*
X69052000Y-89378000D03*
X61432000Y-81758000D03*
X71592000Y-89378000D03*
X58892000Y-81758000D03*
X74132000Y-89378000D03*
X56352000Y-81758000D03*
X76672000Y-89378000D03*
X79212000Y-89378000D03*
X79212000Y-81758000D03*
X76672000Y-81758000D03*
D11*
X83022000Y-102078000D03*
D18*
X100802000Y-94458000D03*
X85562000Y-102078000D03*
X98262000Y-94458000D03*
X88102000Y-102078000D03*
X95722000Y-94458000D03*
X90642000Y-102078000D03*
X93182000Y-94458000D03*
X93182000Y-102078000D03*
X90642000Y-94458000D03*
X95722000Y-102078000D03*
X88102000Y-94458000D03*
X98262000Y-102078000D03*
X85562000Y-94458000D03*
X100802000Y-102078000D03*
X83022000Y-94458000D03*
X103342000Y-102078000D03*
X105882000Y-102078000D03*
X105882000Y-94458000D03*
X103342000Y-94458000D03*
D11*
X83022000Y-89378000D03*
D18*
X100802000Y-81758000D03*
X85562000Y-89378000D03*
X98262000Y-81758000D03*
X88102000Y-89378000D03*
X95722000Y-81758000D03*
X90642000Y-89378000D03*
X93182000Y-81758000D03*
X93182000Y-89378000D03*
X90642000Y-81758000D03*
X95722000Y-89378000D03*
X88102000Y-81758000D03*
X98262000Y-89378000D03*
X85562000Y-81758000D03*
X100802000Y-89378000D03*
X83022000Y-81758000D03*
X103342000Y-89378000D03*
X105882000Y-89378000D03*
X105882000Y-81758000D03*
X103342000Y-81758000D03*
D11*
X56352000Y-76678000D03*
D18*
X74132000Y-69058000D03*
X58892000Y-76678000D03*
X71592000Y-69058000D03*
X61432000Y-76678000D03*
X69052000Y-69058000D03*
X63972000Y-76678000D03*
X66512000Y-69058000D03*
X66512000Y-76678000D03*
X63972000Y-69058000D03*
X69052000Y-76678000D03*
X61432000Y-69058000D03*
X71592000Y-76678000D03*
X58892000Y-69058000D03*
X74132000Y-76678000D03*
X56352000Y-69058000D03*
X76672000Y-76678000D03*
X79212000Y-76678000D03*
X79212000Y-69058000D03*
X76672000Y-69058000D03*
D11*
X83022000Y-76678000D03*
D18*
X100802000Y-69058000D03*
X85562000Y-76678000D03*
X98262000Y-69058000D03*
X88102000Y-76678000D03*
X95722000Y-69058000D03*
X90642000Y-76678000D03*
X93182000Y-69058000D03*
X93182000Y-76678000D03*
X90642000Y-69058000D03*
X95722000Y-76678000D03*
X88102000Y-69058000D03*
X98262000Y-76678000D03*
X85562000Y-69058000D03*
X100802000Y-76678000D03*
X83022000Y-69058000D03*
X103342000Y-76678000D03*
X105882000Y-76678000D03*
X105882000Y-69058000D03*
X103342000Y-69058000D03*
D19*
X71592000Y-59168000D03*
X71592000Y-61168000D03*
X72862000Y-62978000D03*
X72862000Y-64978000D03*
X74132000Y-59168000D03*
X74132000Y-61168000D03*
X75402000Y-62978000D03*
X75402000Y-64978000D03*
X76672000Y-59168000D03*
X76672000Y-61168000D03*
X77942000Y-62978000D03*
X77942000Y-64978000D03*
X79212000Y-59168000D03*
X79212000Y-61168000D03*
X80482000Y-62978000D03*
X80482000Y-64978000D03*
X83022000Y-59168000D03*
X83022000Y-61168000D03*
X84292000Y-62978000D03*
X84292000Y-64978000D03*
X85562000Y-59168000D03*
X85562000Y-61168000D03*
X86832000Y-62978000D03*
X86832000Y-64978000D03*
X88102000Y-59168000D03*
X88102000Y-61168000D03*
X89372000Y-62978000D03*
X89372000Y-64978000D03*
X90642000Y-59168000D03*
X90642000Y-61168000D03*
X91912000Y-62978000D03*
X91912000Y-64978000D03*
D20*
X118852000Y-91918000D03*
X120852000Y-91918000D03*
X118852000Y-89378000D03*
X120852000Y-89378000D03*
X118852000Y-86838000D03*
X120852000Y-86838000D03*
X118852000Y-84298000D03*
X120852000Y-84298000D03*
X118852000Y-81758000D03*
X120852000Y-81758000D03*
X118852000Y-79218000D03*
X120852000Y-79218000D03*
D21*
X116042000Y-104618000D03*
D22*
X116042000Y-102078000D03*
X116042000Y-99538000D03*
X116042000Y-96998000D03*
D13*
X121122000Y-104618000D03*
X121122000Y-102078000D03*
X121122000Y-113508000D03*
X121122000Y-116048000D03*
D12*
X108422000Y-96998000D03*
X108422000Y-84298000D03*
X108422000Y-71598000D03*
D23*
X58892000Y-99538000D03*
D13*
X57622000Y-112238000D03*
X110962000Y-74138000D03*
X110962000Y-124938000D03*
X110962000Y-114778000D03*
X110962000Y-76678000D03*
X110962000Y-99538000D03*
X110962000Y-86838000D03*
D23*
X81117000Y-99538000D03*
X58892000Y-74138000D03*
X81117000Y-74138000D03*
X58892000Y-86838000D03*
X81117000Y-86838000D03*
D13*
X57622000Y-108428000D03*
X57622000Y-124938000D03*
X57622000Y-132558000D03*
D24*
X105120000Y-92426000D03*
X106898000Y-91918000D03*
X89372000Y-78202000D03*
X88610000Y-91156000D03*
X81752000Y-79218000D03*
X65242000Y-127732000D03*
X77942000Y-80488000D03*
X70957000Y-107158000D03*
X81752000Y-107158000D03*
X64607000Y-110333000D03*
X75402000Y-110333000D03*
X69687000Y-107793000D03*
X80482000Y-107793000D03*
X76672000Y-109698000D03*
X65877000Y-109698000D03*
X68417000Y-108428000D03*
X79212000Y-108428000D03*
X67147000Y-109063000D03*
X77942000Y-109063000D03*
X72227000Y-106523000D03*
X83022000Y-106523000D03*
X85562000Y-91410000D03*
X76672000Y-91410000D03*
X106898000Y-93442000D03*
X84292000Y-92553000D03*
X105882000Y-107158000D03*
X96357000Y-107158000D03*
X90007000Y-110333000D03*
X99532000Y-110333000D03*
X95087000Y-107793000D03*
X104612000Y-107793000D03*
X100802000Y-109698000D03*
X91277000Y-109698000D03*
X103342000Y-108428000D03*
X93817000Y-108428000D03*
X92547000Y-109063000D03*
X102072000Y-109063000D03*
X107152000Y-106523000D03*
X98897000Y-106523000D03*
D25*
X65242000Y-130018000D02*
X65242000Y-131288000D01*
X62702000Y-137638000D02*
X63972000Y-138908000D01*
X62702000Y-133828000D02*
X62702000Y-137638000D01*
X65242000Y-131288000D02*
X62702000Y-133828000D01*
X66512000Y-131288000D02*
X66512000Y-121763000D01*
X66512000Y-121763000D02*
X65242000Y-120493000D01*
X65242000Y-120493000D02*
X65242000Y-119858000D01*
X63972000Y-136368000D02*
X63972000Y-133828000D01*
X63972000Y-133828000D02*
X66512000Y-131288000D01*
X66512000Y-138908000D02*
X65242000Y-137638000D01*
X67782000Y-131288000D02*
X67782000Y-130018000D01*
X65242000Y-133828000D02*
X67782000Y-131288000D01*
X65242000Y-137638000D02*
X65242000Y-133828000D01*
X67782000Y-119858000D02*
X67782000Y-120493000D01*
X67782000Y-120493000D02*
X69052000Y-121763000D01*
X69052000Y-121763000D02*
X69052000Y-131288000D01*
X69052000Y-131288000D02*
X66512000Y-133828000D01*
X66512000Y-133828000D02*
X66512000Y-136368000D01*
X69052000Y-138908000D02*
X67782000Y-137638000D01*
X70322000Y-131288000D02*
X70322000Y-130018000D01*
X67782000Y-133828000D02*
X70322000Y-131288000D01*
X67782000Y-137638000D02*
X67782000Y-133828000D01*
X70322000Y-119858000D02*
X70322000Y-120493000D01*
X70322000Y-120493000D02*
X71592000Y-121763000D01*
X69052000Y-136368000D02*
X69052000Y-133828000D01*
X71592000Y-131288000D02*
X71592000Y-121763000D01*
X69052000Y-133828000D02*
X71592000Y-131288000D01*
X71592000Y-138908000D02*
X70322000Y-137638000D01*
X72862000Y-131288000D02*
X72862000Y-130018000D01*
X70322000Y-133828000D02*
X72862000Y-131288000D01*
X70322000Y-137638000D02*
X70322000Y-133828000D01*
X72862000Y-119858000D02*
X72862000Y-120493000D01*
X72862000Y-120493000D02*
X74132000Y-121763000D01*
X71592000Y-136368000D02*
X71592000Y-133828000D01*
X74132000Y-131288000D02*
X74132000Y-121763000D01*
X71592000Y-133828000D02*
X74132000Y-131288000D01*
X74132000Y-138908000D02*
X72862000Y-137638000D01*
X75402000Y-131288000D02*
X75402000Y-130018000D01*
X72862000Y-133828000D02*
X75402000Y-131288000D01*
X72862000Y-137638000D02*
X72862000Y-133828000D01*
X75402000Y-119858000D02*
X75402000Y-120493000D01*
X75402000Y-120493000D02*
X76672000Y-121763000D01*
X74132000Y-136368000D02*
X74132000Y-133828000D01*
X76672000Y-131288000D02*
X76672000Y-121763000D01*
X74132000Y-133828000D02*
X76672000Y-131288000D01*
X76672000Y-138908000D02*
X75402000Y-137638000D01*
X77942000Y-131288000D02*
X77942000Y-130018000D01*
X75402000Y-133828000D02*
X77942000Y-131288000D01*
X75402000Y-137638000D02*
X75402000Y-133828000D01*
X77942000Y-119858000D02*
X77942000Y-120493000D01*
X77942000Y-120493000D02*
X79212000Y-121763000D01*
X76672000Y-136368000D02*
X76672000Y-133828000D01*
X79212000Y-131288000D02*
X79212000Y-121763000D01*
X76672000Y-133828000D02*
X79212000Y-131288000D01*
X79212000Y-138908000D02*
X77942000Y-137638000D01*
X80482000Y-131288000D02*
X80482000Y-130018000D01*
X77942000Y-133828000D02*
X80482000Y-131288000D01*
X77942000Y-137638000D02*
X77942000Y-133828000D01*
X80482000Y-119858000D02*
X80482000Y-120493000D01*
X80482000Y-120493000D02*
X81752000Y-121763000D01*
X79212000Y-136368000D02*
X79212000Y-133828000D01*
X81752000Y-131288000D02*
X81752000Y-121763000D01*
X79212000Y-133828000D02*
X81752000Y-131288000D01*
X81752000Y-138908000D02*
X80482000Y-137638000D01*
X83022000Y-131288000D02*
X83022000Y-130018000D01*
X80482000Y-133828000D02*
X83022000Y-131288000D01*
X80482000Y-137638000D02*
X80482000Y-133828000D01*
X83022000Y-119858000D02*
X83022000Y-120493000D01*
X83022000Y-120493000D02*
X84292000Y-121763000D01*
X81752000Y-136368000D02*
X81752000Y-133828000D01*
X84292000Y-131288000D02*
X84292000Y-121763000D01*
X81752000Y-133828000D02*
X84292000Y-131288000D01*
X91912000Y-138908000D02*
X89372000Y-136368000D01*
X89372000Y-136368000D02*
X89372000Y-130018000D01*
X91912000Y-136368000D02*
X91912000Y-132558000D01*
X91912000Y-132558000D02*
X90642000Y-131288000D01*
X89372000Y-119858000D02*
X89372000Y-120493000D01*
X89372000Y-120493000D02*
X90642000Y-121763000D01*
X90642000Y-121763000D02*
X90642000Y-131288000D01*
X94452000Y-138908000D02*
X93182000Y-137638000D01*
X91912000Y-131288000D02*
X91912000Y-130018000D01*
X93182000Y-132558000D02*
X91912000Y-131288000D01*
X93182000Y-137638000D02*
X93182000Y-132558000D01*
X91912000Y-119858000D02*
X91912000Y-120493000D01*
X91912000Y-120493000D02*
X93182000Y-121763000D01*
X93182000Y-121763000D02*
X93182000Y-131288000D01*
X93182000Y-131288000D02*
X94452000Y-132558000D01*
X94452000Y-132558000D02*
X94452000Y-136368000D01*
X96992000Y-138908000D02*
X95722000Y-137638000D01*
X94452000Y-131288000D02*
X94452000Y-130018000D01*
X95722000Y-132558000D02*
X94452000Y-131288000D01*
X95722000Y-137638000D02*
X95722000Y-132558000D01*
X95722000Y-131288000D02*
X95722000Y-121763000D01*
X96992000Y-132558000D02*
X95722000Y-131288000D01*
X96992000Y-136368000D02*
X96992000Y-132558000D01*
X95722000Y-121763000D02*
X94452000Y-120493000D01*
X94452000Y-120493000D02*
X94452000Y-119858000D01*
X99532000Y-138908000D02*
X98262000Y-137638000D01*
X96992000Y-131288000D02*
X96992000Y-130018000D01*
X98262000Y-132558000D02*
X96992000Y-131288000D01*
X98262000Y-137638000D02*
X98262000Y-132558000D01*
X99532000Y-136368000D02*
X99532000Y-132558000D01*
X98262000Y-121763000D02*
X96992000Y-120493000D01*
X98262000Y-131288000D02*
X98262000Y-121763000D01*
X99532000Y-132558000D02*
X98262000Y-131288000D01*
X96992000Y-120493000D02*
X96992000Y-119858000D01*
X102072000Y-138908000D02*
X100802000Y-137638000D01*
X99532000Y-131288000D02*
X99532000Y-130018000D01*
X100802000Y-132558000D02*
X99532000Y-131288000D01*
X100802000Y-137638000D02*
X100802000Y-132558000D01*
X102072000Y-136368000D02*
X102072000Y-132558000D01*
X100802000Y-121763000D02*
X99532000Y-120493000D01*
X100802000Y-131288000D02*
X100802000Y-121763000D01*
X102072000Y-132558000D02*
X100802000Y-131288000D01*
X99532000Y-120493000D02*
X99532000Y-119858000D01*
X104612000Y-138908000D02*
X103342000Y-137638000D01*
X102072000Y-131288000D02*
X102072000Y-130018000D01*
X103342000Y-132558000D02*
X102072000Y-131288000D01*
X103342000Y-137638000D02*
X103342000Y-132558000D01*
X104612000Y-136368000D02*
X104612000Y-132558000D01*
X103342000Y-121763000D02*
X102072000Y-120493000D01*
X103342000Y-131288000D02*
X103342000Y-121763000D01*
X104612000Y-132558000D02*
X103342000Y-131288000D01*
X102072000Y-120493000D02*
X102072000Y-119858000D01*
X107152000Y-138908000D02*
X105882000Y-137638000D01*
X104612000Y-131288000D02*
X104612000Y-130018000D01*
X105882000Y-132558000D02*
X104612000Y-131288000D01*
X105882000Y-137638000D02*
X105882000Y-132558000D01*
X107152000Y-136368000D02*
X107152000Y-132558000D01*
X105882000Y-121763000D02*
X104612000Y-120493000D01*
X105882000Y-131288000D02*
X105882000Y-121763000D01*
X107152000Y-132558000D02*
X105882000Y-131288000D01*
X104612000Y-120493000D02*
X104612000Y-119858000D01*
X109692000Y-138908000D02*
X108422000Y-137638000D01*
X107152000Y-131288000D02*
X107152000Y-130018000D01*
X108422000Y-132558000D02*
X107152000Y-131288000D01*
X108422000Y-137638000D02*
X108422000Y-132558000D01*
X109692000Y-136368000D02*
X109692000Y-132558000D01*
X108422000Y-121763000D02*
X107152000Y-120493000D01*
X108422000Y-131288000D02*
X108422000Y-121763000D01*
X109692000Y-132558000D02*
X108422000Y-131288000D01*
X107152000Y-120493000D02*
X107152000Y-119858000D01*
X71592000Y-59168000D02*
X71592000Y-57628000D01*
X71592000Y-57628000D02*
X72862000Y-56358000D01*
X72862000Y-62978000D02*
X72862000Y-58390000D01*
X74132000Y-55088000D02*
X72862000Y-53818000D01*
X74132000Y-57374000D02*
X74132000Y-55088000D01*
X73624000Y-57882000D02*
X74132000Y-57374000D01*
X73370000Y-57882000D02*
X73624000Y-57882000D01*
X72862000Y-58390000D02*
X73370000Y-57882000D01*
X74132000Y-59168000D02*
X74132000Y-58136000D01*
X74132000Y-58136000D02*
X75402000Y-56866000D01*
X75402000Y-56866000D02*
X75402000Y-56358000D01*
X75402000Y-62978000D02*
X75402000Y-58136000D01*
X76672000Y-55088000D02*
X75402000Y-53818000D01*
X76672000Y-56866000D02*
X76672000Y-55088000D01*
X75402000Y-58136000D02*
X76672000Y-56866000D01*
X76672000Y-59168000D02*
X76672000Y-58136000D01*
X77942000Y-56866000D02*
X77942000Y-56358000D01*
X76672000Y-58136000D02*
X77942000Y-56866000D01*
X77942000Y-62978000D02*
X77942000Y-58136000D01*
X79212000Y-55088000D02*
X77942000Y-53818000D01*
X79212000Y-56866000D02*
X79212000Y-55088000D01*
X77942000Y-58136000D02*
X79212000Y-56866000D01*
X79212000Y-59168000D02*
X79212000Y-58136000D01*
X80482000Y-56866000D02*
X80482000Y-56358000D01*
X79212000Y-58136000D02*
X80482000Y-56866000D01*
X80482000Y-62978000D02*
X80482000Y-58136000D01*
X81752000Y-55088000D02*
X80482000Y-53818000D01*
X81752000Y-56866000D02*
X81752000Y-55088000D01*
X80482000Y-58136000D02*
X81752000Y-56866000D01*
X83022000Y-59168000D02*
X83022000Y-56358000D01*
X84292000Y-62978000D02*
X84292000Y-55088000D01*
X84292000Y-55088000D02*
X83022000Y-53818000D01*
X85562000Y-59168000D02*
X85562000Y-56358000D01*
X86832000Y-62978000D02*
X86832000Y-55088000D01*
X86832000Y-55088000D02*
X85562000Y-53818000D01*
X88102000Y-59168000D02*
X88102000Y-56358000D01*
X89372000Y-62978000D02*
X89372000Y-55088000D01*
X89372000Y-55088000D02*
X88102000Y-53818000D01*
X90642000Y-59168000D02*
X90642000Y-56358000D01*
X91912000Y-62978000D02*
X91912000Y-55088000D01*
X91912000Y-55088000D02*
X90642000Y-53818000D01*
D26*
X112232000Y-62708000D02*
X108422000Y-62708000D01*
X121122000Y-104618000D02*
X123662000Y-104618000D01*
X121122000Y-102078000D02*
X123662000Y-102078000D01*
X123662000Y-113508000D02*
X121122000Y-113508000D01*
X123662000Y-116048000D02*
X121122000Y-116048000D01*
X123662000Y-113508000D02*
X123662000Y-116048000D01*
D27*
X120852000Y-91918000D02*
X123662000Y-91918000D01*
X120852000Y-89378000D02*
X123662000Y-89378000D01*
X120852000Y-86838000D02*
X123662000Y-86838000D01*
X120852000Y-84298000D02*
X123662000Y-84298000D01*
X120852000Y-81758000D02*
X123662000Y-81758000D01*
D26*
X112232000Y-62708000D02*
X112232000Y-67153000D01*
X123662000Y-67153000D02*
X123662000Y-81758000D01*
X123662000Y-81758000D02*
X123662000Y-84298000D01*
X123662000Y-84298000D02*
X123662000Y-86838000D01*
X123662000Y-86838000D02*
X123662000Y-89378000D01*
X123662000Y-89378000D02*
X123662000Y-91918000D01*
X123662000Y-91918000D02*
X123662000Y-102078000D01*
X123662000Y-102078000D02*
X123662000Y-104618000D01*
X123662000Y-104618000D02*
X123662000Y-113508000D01*
X112232000Y-67153000D02*
X123662000Y-67153000D01*
D28*
X83022000Y-94458000D02*
X83022000Y-97268000D01*
X83022000Y-81758000D02*
X83022000Y-84568000D01*
D29*
X108422000Y-96998000D02*
X108422000Y-84298000D01*
X108422000Y-71598000D02*
X108422000Y-84298000D01*
X108422000Y-71598000D02*
X108422000Y-62708000D01*
D28*
X56352000Y-94458000D02*
X56352000Y-97268000D01*
X56352000Y-81758000D02*
X56352000Y-84298000D01*
X56352000Y-84298000D02*
X56352000Y-84568000D01*
X56352000Y-69058000D02*
X56352000Y-71868000D01*
X83022000Y-69058000D02*
X83022000Y-71868000D01*
X56352000Y-99268000D02*
X58622000Y-99268000D01*
X58622000Y-99268000D02*
X58892000Y-99538000D01*
D27*
X120852000Y-79218000D02*
X120852000Y-77043000D01*
X120587000Y-76778000D02*
X116042000Y-76778000D01*
X120852000Y-77043000D02*
X120587000Y-76778000D01*
D26*
X110962000Y-124938000D02*
X110962000Y-114778000D01*
X110962000Y-114778000D02*
X110962000Y-99538000D01*
D29*
X118232000Y-62708000D02*
X118232000Y-63693000D01*
D26*
X110962000Y-76678000D02*
X110962000Y-74138000D01*
X110962000Y-86838000D02*
X110962000Y-76678000D01*
X110962000Y-99538000D02*
X110962000Y-86838000D01*
D28*
X83022000Y-99268000D02*
X81387000Y-99268000D01*
X81387000Y-99268000D02*
X81117000Y-99538000D01*
X56352000Y-73868000D02*
X58622000Y-73868000D01*
X58622000Y-73868000D02*
X58892000Y-74138000D01*
X83022000Y-73868000D02*
X81387000Y-73868000D01*
X81387000Y-73868000D02*
X81117000Y-74138000D01*
X56352000Y-86568000D02*
X58622000Y-86568000D01*
X58622000Y-86568000D02*
X58892000Y-86838000D01*
X83022000Y-86568000D02*
X81387000Y-86568000D01*
X81387000Y-86568000D02*
X81117000Y-86838000D01*
D26*
X57622000Y-124938000D02*
X57622000Y-112238000D01*
X57622000Y-112238000D02*
X57622000Y-108428000D01*
X57622000Y-132558000D02*
X57622000Y-124938000D01*
X115232000Y-58008000D02*
X116422000Y-58008000D01*
X116422000Y-58008000D02*
X118232000Y-59818000D01*
X118232000Y-59818000D02*
X118232000Y-62708000D01*
X105882000Y-58268000D02*
X114972000Y-58268000D01*
X114972000Y-58268000D02*
X115232000Y-58008000D01*
D25*
X119725000Y-127605000D02*
X119725000Y-92791000D01*
X119725000Y-92791000D02*
X118852000Y-91918000D01*
X119725000Y-127605000D02*
X116042000Y-131288000D01*
X118852000Y-91918000D02*
X116182000Y-91918000D01*
X116182000Y-91918000D02*
X116042000Y-91778000D01*
X104612000Y-77948000D02*
X103342000Y-76678000D01*
X104612000Y-84298000D02*
X104612000Y-77948000D01*
X102072000Y-86838000D02*
X104612000Y-84298000D01*
X102072000Y-90011602D02*
X102072000Y-86838000D01*
X104422199Y-92361801D02*
X102072000Y-90011602D01*
X105055801Y-92361801D02*
X104422199Y-92361801D01*
X105120000Y-92426000D02*
X105055801Y-92361801D01*
X119090000Y-125700000D02*
X119090000Y-95220000D01*
X117312000Y-93442000D02*
X115026000Y-93442000D01*
X119090000Y-95220000D02*
X117312000Y-93442000D01*
X119090000Y-125700000D02*
X116042000Y-128748000D01*
X114772000Y-90548000D02*
X116042000Y-89278000D01*
X114772000Y-93188000D02*
X114772000Y-90548000D01*
X115026000Y-93442000D02*
X114772000Y-93188000D01*
X107152000Y-70328000D02*
X105882000Y-69058000D01*
X107152000Y-91664000D02*
X107152000Y-70328000D01*
X106898000Y-91918000D02*
X107152000Y-91664000D01*
X118852000Y-89378000D02*
X116142000Y-89378000D01*
X116142000Y-89378000D02*
X116042000Y-89278000D01*
X118455000Y-123795000D02*
X118455000Y-95347000D01*
X117058000Y-93950000D02*
X114772000Y-93950000D01*
X118455000Y-95347000D02*
X117058000Y-93950000D01*
X118455000Y-123795000D02*
X116042000Y-126208000D01*
X114137000Y-88683000D02*
X116042000Y-86778000D01*
X114137000Y-93315000D02*
X114137000Y-88683000D01*
X114772000Y-93950000D02*
X114137000Y-93315000D01*
X89372000Y-84298000D02*
X89372000Y-78202000D01*
X86832000Y-86838000D02*
X89372000Y-84298000D01*
X86832000Y-89886000D02*
X86832000Y-86838000D01*
X88102000Y-91156000D02*
X86832000Y-89886000D01*
X88610000Y-91156000D02*
X88102000Y-91156000D01*
X118852000Y-86838000D02*
X116102000Y-86838000D01*
X116102000Y-86838000D02*
X116042000Y-86778000D01*
X117820000Y-121890000D02*
X117820000Y-95474000D01*
X116804000Y-94458000D02*
X114518000Y-94458000D01*
X117820000Y-95474000D02*
X116804000Y-94458000D01*
X117820000Y-121890000D02*
X116042000Y-123668000D01*
X114518000Y-94458000D02*
X113502000Y-93442000D01*
X113502000Y-93442000D02*
X113502000Y-86818000D01*
X113502000Y-86818000D02*
X116042000Y-84278000D01*
X118852000Y-84298000D02*
X116062000Y-84298000D01*
X116062000Y-84298000D02*
X116042000Y-84278000D01*
X117312000Y-119858000D02*
X117312000Y-95728000D01*
X116550000Y-94966000D02*
X114264000Y-94966000D01*
X117312000Y-95728000D02*
X116550000Y-94966000D01*
X117312000Y-119858000D02*
X116042000Y-121128000D01*
X112994000Y-84826000D02*
X116042000Y-81778000D01*
X112994000Y-93696000D02*
X112994000Y-84826000D01*
X114264000Y-94966000D02*
X112994000Y-93696000D01*
X118852000Y-81758000D02*
X116062000Y-81758000D01*
X116062000Y-81758000D02*
X116042000Y-81778000D01*
X80482000Y-90648000D02*
X80482000Y-88743000D01*
X80482000Y-88743000D02*
X79212000Y-87473000D01*
X80482000Y-90648000D02*
X79212000Y-91918000D01*
X105882000Y-81758000D02*
X105882000Y-85568000D01*
X105882000Y-85568000D02*
X104612000Y-86838000D01*
X105882000Y-94458000D02*
X105882000Y-91918000D01*
X104612000Y-90648000D02*
X104612000Y-86838000D01*
X105882000Y-91918000D02*
X104612000Y-90648000D01*
X79212000Y-81758000D02*
X79212000Y-87473000D01*
X79212000Y-94458000D02*
X79212000Y-91918000D01*
X114518000Y-95982000D02*
X114518000Y-117064000D01*
X114518000Y-117064000D02*
X116042000Y-118588000D01*
X114518000Y-95982000D02*
X112486000Y-93950000D01*
X112486000Y-93950000D02*
X112486000Y-82834000D01*
X112486000Y-82834000D02*
X116042000Y-79278000D01*
X82260000Y-89378000D02*
X83022000Y-89378000D01*
X80228000Y-87346000D02*
X82260000Y-89378000D01*
X80228000Y-85314000D02*
X80228000Y-87346000D01*
X81752000Y-83790000D02*
X80228000Y-85314000D01*
X81752000Y-79218000D02*
X81752000Y-83790000D01*
X118852000Y-79218000D02*
X116102000Y-79218000D01*
X116102000Y-79218000D02*
X116042000Y-79278000D01*
X83022000Y-102078000D02*
X83022000Y-101443000D01*
X83022000Y-101443000D02*
X84292000Y-100173000D01*
X84292000Y-100173000D02*
X84292000Y-93823000D01*
X84292000Y-93823000D02*
X83022000Y-92553000D01*
X83022000Y-92553000D02*
X83022000Y-89378000D01*
X58892000Y-69058000D02*
X59400000Y-69058000D01*
X59400000Y-69058000D02*
X63972000Y-64486000D01*
X63972000Y-64486000D02*
X70830000Y-64486000D01*
X70830000Y-64486000D02*
X71592000Y-63724000D01*
X71592000Y-63724000D02*
X71592000Y-61168000D01*
X60162000Y-70328000D02*
X60162000Y-75408000D01*
X60162000Y-75408000D02*
X58892000Y-76678000D01*
X60162000Y-70328000D02*
X61432000Y-69058000D01*
X61432000Y-69058000D02*
X61940000Y-69058000D01*
X61940000Y-69058000D02*
X66020000Y-64978000D01*
X66020000Y-64978000D02*
X72862000Y-64978000D01*
X61432000Y-76678000D02*
X61432000Y-71598000D01*
X61432000Y-71598000D02*
X63972000Y-69058000D01*
X63972000Y-69058000D02*
X64480000Y-69058000D01*
X64480000Y-69058000D02*
X67216002Y-66321998D01*
X67216002Y-66321998D02*
X73820002Y-66321998D01*
X73820002Y-66321998D02*
X74132000Y-66010000D01*
X74132000Y-66010000D02*
X74132000Y-61168000D01*
X63972000Y-76678000D02*
X63972000Y-71598000D01*
X63972000Y-71598000D02*
X66512000Y-69058000D01*
X69306000Y-66772000D02*
X74443998Y-66772000D01*
X74443998Y-66772000D02*
X75402000Y-65813998D01*
X66512000Y-69058000D02*
X67020000Y-69058000D01*
X75402000Y-65813998D02*
X75402000Y-64978000D01*
X67020000Y-69058000D02*
X69306000Y-66772000D01*
X66512000Y-76678000D02*
X66512000Y-71598000D01*
X66512000Y-71598000D02*
X69052000Y-69058000D01*
X76672000Y-61168000D02*
X76672000Y-66067998D01*
X76221998Y-66518000D02*
X75656000Y-66518000D01*
X76672000Y-66067998D02*
X76221998Y-66518000D01*
X71338000Y-67280000D02*
X74894000Y-67280000D01*
X74894000Y-67280000D02*
X75656000Y-66518000D01*
X69560000Y-69058000D02*
X71338000Y-67280000D01*
X69052000Y-69058000D02*
X69560000Y-69058000D01*
X69052000Y-76678000D02*
X69052000Y-71598000D01*
X69052000Y-71598000D02*
X71592000Y-69058000D01*
X77942000Y-64978000D02*
X77942000Y-66010000D01*
X76926000Y-67026000D02*
X75910000Y-67026000D01*
X77942000Y-66010000D02*
X76926000Y-67026000D01*
X73243000Y-67915000D02*
X75021000Y-67915000D01*
X72100000Y-69058000D02*
X73243000Y-67915000D01*
X75021000Y-67915000D02*
X75910000Y-67026000D01*
X71592000Y-69058000D02*
X72100000Y-69058000D01*
X77942000Y-64994000D02*
X77942000Y-64978000D01*
X71592000Y-76678000D02*
X71592000Y-71598000D01*
X71592000Y-71598000D02*
X74132000Y-69058000D01*
X74132000Y-69058000D02*
X74640000Y-69058000D01*
X74640000Y-69058000D02*
X76164000Y-67534000D01*
X76164000Y-67534000D02*
X77180000Y-67534000D01*
X77180000Y-67534000D02*
X79212000Y-65502000D01*
X79212000Y-65502000D02*
X79212000Y-61168000D01*
X74132000Y-76678000D02*
X74132000Y-71598000D01*
X74132000Y-71598000D02*
X76672000Y-69058000D01*
X76672000Y-69058000D02*
X77180000Y-69058000D01*
X77180000Y-69058000D02*
X80482000Y-65756000D01*
X80482000Y-65756000D02*
X80482000Y-64978000D01*
X76672000Y-76678000D02*
X76672000Y-74138000D01*
X81117000Y-68931000D02*
X83022000Y-67026000D01*
X81117000Y-69693000D02*
X81117000Y-68931000D01*
X76672000Y-74138000D02*
X81117000Y-69693000D01*
X83022000Y-61168000D02*
X83022000Y-67026000D01*
X83022000Y-67026000D02*
X85054000Y-69058000D01*
X85562000Y-69058000D02*
X85054000Y-69058000D01*
X85562000Y-76678000D02*
X85562000Y-71598000D01*
X85562000Y-71598000D02*
X88102000Y-69058000D01*
X84292000Y-64978000D02*
X84292000Y-66010000D01*
X84292000Y-66010000D02*
X86070000Y-67788000D01*
X86324000Y-67788000D02*
X86070000Y-67788000D01*
X87594000Y-69058000D02*
X86324000Y-67788000D01*
X88102000Y-69058000D02*
X87594000Y-69058000D01*
X88102000Y-76678000D02*
X88102000Y-71598000D01*
X88102000Y-71598000D02*
X90642000Y-69058000D01*
X85562000Y-61168000D02*
X85562000Y-66010000D01*
X85562000Y-66010000D02*
X87340000Y-67788000D01*
X88610000Y-67788000D02*
X87340000Y-67788000D01*
X89880000Y-69058000D02*
X88610000Y-67788000D01*
X90642000Y-69058000D02*
X89880000Y-69058000D01*
X90642000Y-76678000D02*
X90642000Y-71598000D01*
X90642000Y-71598000D02*
X93182000Y-69058000D01*
X86832000Y-64978000D02*
X86832000Y-66010000D01*
X86832000Y-66010000D02*
X88102000Y-67280000D01*
X88864000Y-67280000D02*
X88102000Y-67280000D01*
X92674000Y-69058000D02*
X91404000Y-67788000D01*
X89372000Y-67788000D02*
X88864000Y-67280000D01*
X91404000Y-67788000D02*
X89372000Y-67788000D01*
X93182000Y-69058000D02*
X92674000Y-69058000D01*
X93182000Y-76678000D02*
X93182000Y-71598000D01*
X93182000Y-71598000D02*
X95722000Y-69058000D01*
X88102000Y-61168000D02*
X88102000Y-65756000D01*
X88102000Y-65756000D02*
X89626000Y-67280000D01*
X93436000Y-67280000D02*
X89626000Y-67280000D01*
X95214000Y-69058000D02*
X93436000Y-67280000D01*
X95722000Y-69058000D02*
X95214000Y-69058000D01*
X95722000Y-76678000D02*
X95722000Y-71598000D01*
X95722000Y-71598000D02*
X98262000Y-69058000D01*
X89372000Y-64978000D02*
X89372000Y-66010000D01*
X98262000Y-69058000D02*
X97754000Y-69058000D01*
X97754000Y-69058000D02*
X95525998Y-66829998D01*
X90191998Y-66829998D02*
X89372000Y-66010000D01*
X95525998Y-66829998D02*
X90191998Y-66829998D01*
X98262000Y-76678000D02*
X98262000Y-71598000D01*
X98262000Y-71598000D02*
X100802000Y-69058000D01*
X100802000Y-69058000D02*
X100294000Y-69058000D01*
X100294000Y-69058000D02*
X97500000Y-66264000D01*
X97500000Y-66264000D02*
X90896000Y-66264000D01*
X90896000Y-66264000D02*
X90642000Y-66010000D01*
X90642000Y-66010000D02*
X90642000Y-61168000D01*
X100802000Y-76678000D02*
X100802000Y-71598000D01*
X100802000Y-71598000D02*
X103342000Y-69058000D01*
X103342000Y-69058000D02*
X102834000Y-69058000D01*
X102834000Y-69058000D02*
X98754000Y-64978000D01*
X98754000Y-64978000D02*
X91912000Y-64978000D01*
X65242000Y-122398000D02*
X65242000Y-127732000D01*
X54447000Y-93188000D02*
X54447000Y-102713000D01*
X54447000Y-102713000D02*
X56352000Y-104618000D01*
X58892000Y-94458000D02*
X58892000Y-93188000D01*
X55082000Y-92553000D02*
X54447000Y-93188000D01*
X58257000Y-92553000D02*
X55082000Y-92553000D01*
X58892000Y-93188000D02*
X58257000Y-92553000D01*
X63972000Y-121128000D02*
X63972000Y-110968000D01*
X57622000Y-104618000D02*
X56352000Y-104618000D01*
X63972000Y-110968000D02*
X57622000Y-104618000D01*
X65242000Y-122398000D02*
X63972000Y-121128000D01*
X72862000Y-122398000D02*
X72862000Y-121763000D01*
X72862000Y-121763000D02*
X71592000Y-120493000D01*
X71592000Y-120493000D02*
X71592000Y-102078000D01*
X74132000Y-94458000D02*
X74132000Y-96998000D01*
X74132000Y-96998000D02*
X71592000Y-99538000D01*
X71592000Y-102078000D02*
X71592000Y-99538000D01*
X60416000Y-98014000D02*
X60416000Y-100554000D01*
X60416000Y-100554000D02*
X58892000Y-102078000D01*
X65242000Y-112238000D02*
X65242000Y-109698000D01*
X65242000Y-109698000D02*
X58892000Y-103348000D01*
X58892000Y-103348000D02*
X58892000Y-102078000D01*
X61432000Y-94458000D02*
X61432000Y-96998000D01*
X61432000Y-96998000D02*
X60416000Y-98014000D01*
X70322000Y-112238000D02*
X70322000Y-104618000D01*
X69052000Y-103348000D02*
X69052000Y-102078000D01*
X70322000Y-104618000D02*
X69052000Y-103348000D01*
X71592000Y-94458000D02*
X71592000Y-96998000D01*
X71592000Y-96998000D02*
X69052000Y-99538000D01*
X69052000Y-102078000D02*
X69052000Y-99538000D01*
X67782000Y-122398000D02*
X67782000Y-121763000D01*
X67782000Y-121763000D02*
X66512000Y-120493000D01*
X66512000Y-120493000D02*
X66512000Y-108428000D01*
X66512000Y-108428000D02*
X61432000Y-103348000D01*
X61432000Y-103348000D02*
X61432000Y-102078000D01*
X63972000Y-94458000D02*
X63972000Y-96998000D01*
X63972000Y-96998000D02*
X61432000Y-99538000D01*
X61432000Y-102078000D02*
X61432000Y-99538000D01*
X70322000Y-122398000D02*
X70322000Y-121763000D01*
X70322000Y-121763000D02*
X69052000Y-120493000D01*
X69052000Y-120493000D02*
X69052000Y-105888000D01*
X69052000Y-105888000D02*
X66512000Y-103348000D01*
X66512000Y-103348000D02*
X66512000Y-102078000D01*
X69052000Y-94458000D02*
X69052000Y-96998000D01*
X69052000Y-96998000D02*
X66512000Y-99538000D01*
X66512000Y-102078000D02*
X66512000Y-99538000D01*
X67782000Y-112238000D02*
X67782000Y-107158000D01*
X63972000Y-103348000D02*
X63972000Y-102078000D01*
X67782000Y-107158000D02*
X63972000Y-103348000D01*
X66512000Y-94458000D02*
X66512000Y-96998000D01*
X66512000Y-96998000D02*
X63972000Y-99538000D01*
X63972000Y-102078000D02*
X63972000Y-99538000D01*
X72862000Y-112238000D02*
X72862000Y-104618000D01*
X74132000Y-103348000D02*
X74132000Y-102078000D01*
X72862000Y-104618000D02*
X74132000Y-103348000D01*
X76672000Y-94458000D02*
X76672000Y-96998000D01*
X76672000Y-96998000D02*
X74132000Y-99538000D01*
X74132000Y-102078000D02*
X74132000Y-99538000D01*
X76672000Y-102078000D02*
X76672000Y-98268000D01*
X77942000Y-96998000D02*
X77942000Y-80488000D01*
X76672000Y-98268000D02*
X77942000Y-96998000D01*
X75402000Y-122398000D02*
X75402000Y-121763000D01*
X75402000Y-121763000D02*
X74132000Y-120493000D01*
X74132000Y-120493000D02*
X74132000Y-105888000D01*
X74132000Y-105888000D02*
X76672000Y-103348000D01*
X76672000Y-103348000D02*
X76672000Y-102078000D01*
X71592000Y-91918000D02*
X71592000Y-89378000D01*
X72862000Y-93188000D02*
X71592000Y-91918000D01*
X72862000Y-96998000D02*
X72862000Y-93188000D01*
X70322000Y-99538000D02*
X72862000Y-96998000D01*
X70322000Y-103348000D02*
X70322000Y-99538000D01*
X70957000Y-103983000D02*
X70322000Y-103348000D01*
X70957000Y-107158000D02*
X70957000Y-103983000D01*
X83022000Y-122398000D02*
X83022000Y-121763000D01*
X83022000Y-121763000D02*
X81752000Y-120493000D01*
X81752000Y-120493000D02*
X81752000Y-107158000D01*
X74132000Y-81758000D02*
X74132000Y-84298000D01*
X74132000Y-84298000D02*
X71592000Y-86838000D01*
X71592000Y-89378000D02*
X71592000Y-86838000D01*
X57622000Y-103348000D02*
X57622000Y-101570000D01*
X59838998Y-96051002D02*
X60162000Y-95728000D01*
X59838998Y-100115002D02*
X59838998Y-96051002D01*
X59146000Y-100808000D02*
X59838998Y-100115002D01*
X58384000Y-100808000D02*
X59146000Y-100808000D01*
X57622000Y-101570000D02*
X58384000Y-100808000D01*
X58892000Y-91918000D02*
X58892000Y-89378000D01*
X60162000Y-95728000D02*
X60162000Y-93188000D01*
X60162000Y-93188000D02*
X58892000Y-91918000D01*
X64607000Y-110333000D02*
X57622000Y-103348000D01*
X75402000Y-112238000D02*
X75402000Y-110333000D01*
X61432000Y-81758000D02*
X61432000Y-85568000D01*
X61432000Y-85568000D02*
X58892000Y-88108000D01*
X58892000Y-89378000D02*
X58892000Y-88108000D01*
X69052000Y-91918000D02*
X69052000Y-89378000D01*
X70322000Y-93188000D02*
X69052000Y-91918000D01*
X70322000Y-96998000D02*
X70322000Y-93188000D01*
X67782000Y-99538000D02*
X70322000Y-96998000D01*
X67782000Y-103348000D02*
X67782000Y-99538000D01*
X69687000Y-105253000D02*
X67782000Y-103348000D01*
X69687000Y-107793000D02*
X69687000Y-105253000D01*
X80482000Y-112238000D02*
X80482000Y-107793000D01*
X71592000Y-81758000D02*
X71592000Y-84298000D01*
X71592000Y-84298000D02*
X69052000Y-86838000D01*
X69052000Y-89378000D02*
X69052000Y-86838000D01*
X60924000Y-98776000D02*
X60924000Y-100808000D01*
X60924000Y-100808000D02*
X60162000Y-101570000D01*
X76672000Y-120493000D02*
X76672000Y-109698000D01*
X77942000Y-121763000D02*
X76672000Y-120493000D01*
X65877000Y-109698000D02*
X65877000Y-109063000D01*
X65877000Y-109063000D02*
X60162000Y-103348000D01*
X60162000Y-103348000D02*
X60162000Y-101570000D01*
X61432000Y-91918000D02*
X61432000Y-89378000D01*
X62702000Y-93188000D02*
X61432000Y-91918000D01*
X62702000Y-96998000D02*
X62702000Y-93188000D01*
X60924000Y-98776000D02*
X62702000Y-96998000D01*
X77942000Y-122398000D02*
X77942000Y-121763000D01*
X63972000Y-81758000D02*
X63972000Y-84298000D01*
X63972000Y-84298000D02*
X61432000Y-86838000D01*
X61432000Y-89378000D02*
X61432000Y-86838000D01*
X66512000Y-91918000D02*
X66512000Y-89378000D01*
X67782000Y-93188000D02*
X66512000Y-91918000D01*
X67782000Y-96998000D02*
X67782000Y-93188000D01*
X65242000Y-99538000D02*
X67782000Y-96998000D01*
X65242000Y-103348000D02*
X65242000Y-99538000D01*
X68417000Y-106523000D02*
X65242000Y-103348000D01*
X68417000Y-108428000D02*
X68417000Y-106523000D01*
X80482000Y-122398000D02*
X80482000Y-121763000D01*
X80482000Y-121763000D02*
X79212000Y-120493000D01*
X79212000Y-120493000D02*
X79212000Y-108428000D01*
X69052000Y-81758000D02*
X69052000Y-84298000D01*
X69052000Y-84298000D02*
X66512000Y-86838000D01*
X66512000Y-89378000D02*
X66512000Y-86838000D01*
X63972000Y-91918000D02*
X63972000Y-89378000D01*
X65242000Y-93188000D02*
X63972000Y-91918000D01*
X65242000Y-96998000D02*
X65242000Y-93188000D01*
X62702000Y-99538000D02*
X65242000Y-96998000D01*
X62702000Y-103348000D02*
X62702000Y-99538000D01*
X67147000Y-107793000D02*
X62702000Y-103348000D01*
X67147000Y-109063000D02*
X67147000Y-107793000D01*
X77942000Y-112238000D02*
X77942000Y-109063000D01*
X66512000Y-81758000D02*
X66512000Y-84298000D01*
X66512000Y-84298000D02*
X63972000Y-86838000D01*
X63972000Y-89378000D02*
X63972000Y-86838000D01*
X74132000Y-91918000D02*
X74132000Y-89378000D01*
X75402000Y-93188000D02*
X74132000Y-91918000D01*
X75402000Y-96998000D02*
X75402000Y-93188000D01*
X72862000Y-99538000D02*
X75402000Y-96998000D01*
X72862000Y-103348000D02*
X72862000Y-99538000D01*
X72227000Y-103983000D02*
X72862000Y-103348000D01*
X72227000Y-106523000D02*
X72227000Y-103983000D01*
X83022000Y-112238000D02*
X83022000Y-106523000D01*
X76672000Y-81758000D02*
X76672000Y-84298000D01*
X76672000Y-84298000D02*
X74132000Y-86838000D01*
X74132000Y-89378000D02*
X74132000Y-86838000D01*
X84292000Y-104618000D02*
X84292000Y-101443000D01*
X85562000Y-100173000D02*
X85562000Y-94458000D01*
X84292000Y-101443000D02*
X85562000Y-100173000D01*
X88102000Y-120493000D02*
X89372000Y-121763000D01*
X89372000Y-121763000D02*
X89372000Y-122398000D01*
X88102000Y-108428000D02*
X84292000Y-104618000D01*
X88102000Y-120493000D02*
X88102000Y-108428000D01*
X76672000Y-89378000D02*
X76672000Y-91410000D01*
X85562000Y-91410000D02*
X85562000Y-94458000D01*
X98262000Y-102078000D02*
X98262000Y-103348000D01*
X98262000Y-103348000D02*
X95722000Y-105888000D01*
X96992000Y-122398000D02*
X96992000Y-121763000D01*
X96992000Y-121763000D02*
X95722000Y-120493000D01*
X95722000Y-120493000D02*
X95722000Y-105888000D01*
X100802000Y-94458000D02*
X100802000Y-96998000D01*
X100802000Y-96998000D02*
X98262000Y-99538000D01*
X98262000Y-102078000D02*
X98262000Y-99538000D01*
X86197000Y-98903000D02*
X86197000Y-101443000D01*
X86197000Y-101443000D02*
X85562000Y-102078000D01*
X89372000Y-112238000D02*
X89372000Y-107158000D01*
X89372000Y-107158000D02*
X85562000Y-103348000D01*
X85562000Y-103348000D02*
X85562000Y-102078000D01*
X88102000Y-94458000D02*
X88102000Y-96998000D01*
X88102000Y-96998000D02*
X86197000Y-98903000D01*
X94452000Y-112238000D02*
X94452000Y-104618000D01*
X95722000Y-103348000D02*
X95722000Y-102078000D01*
X94452000Y-104618000D02*
X95722000Y-103348000D01*
X98262000Y-94458000D02*
X98262000Y-96998000D01*
X98262000Y-96998000D02*
X95722000Y-99538000D01*
X95722000Y-102078000D02*
X95722000Y-99538000D01*
X91912000Y-122398000D02*
X91912000Y-121763000D01*
X91912000Y-121763000D02*
X90642000Y-120493000D01*
X90642000Y-120493000D02*
X90642000Y-105888000D01*
X90642000Y-105888000D02*
X88102000Y-103348000D01*
X88102000Y-103348000D02*
X88102000Y-102078000D01*
X90642000Y-94458000D02*
X90642000Y-96998000D01*
X90642000Y-96998000D02*
X88102000Y-99538000D01*
X88102000Y-102078000D02*
X88102000Y-99538000D01*
X94452000Y-122398000D02*
X94452000Y-121763000D01*
X94452000Y-121763000D02*
X93182000Y-120493000D01*
X93182000Y-120493000D02*
X93182000Y-102078000D01*
X95722000Y-94458000D02*
X95722000Y-96998000D01*
X95722000Y-96998000D02*
X93182000Y-99538000D01*
X93182000Y-102078000D02*
X93182000Y-99538000D01*
X91912000Y-112238000D02*
X91912000Y-104618000D01*
X90642000Y-103348000D02*
X90642000Y-102078000D01*
X91912000Y-104618000D02*
X90642000Y-103348000D01*
X93182000Y-94458000D02*
X93182000Y-96998000D01*
X93182000Y-96998000D02*
X90642000Y-99538000D01*
X90642000Y-102078000D02*
X90642000Y-99538000D01*
X96992000Y-112238000D02*
X96992000Y-107158000D01*
X100802000Y-103348000D02*
X100802000Y-102078000D01*
X96992000Y-107158000D02*
X100802000Y-103348000D01*
X103342000Y-94458000D02*
X103342000Y-96998000D01*
X103342000Y-96998000D02*
X100802000Y-99538000D01*
X100802000Y-102078000D02*
X100802000Y-99538000D01*
X107152000Y-93696000D02*
X107152000Y-96998000D01*
X106898000Y-93442000D02*
X107152000Y-93696000D01*
X103342000Y-102078000D02*
X103342000Y-100808000D01*
X103342000Y-100808000D02*
X107152000Y-96998000D01*
X99532000Y-122398000D02*
X99532000Y-121763000D01*
X99532000Y-121763000D02*
X98262000Y-120493000D01*
X98262000Y-120493000D02*
X98262000Y-108428000D01*
X98262000Y-108428000D02*
X103342000Y-103348000D01*
X103342000Y-103348000D02*
X103342000Y-102078000D01*
X85562000Y-84298000D02*
X85562000Y-81758000D01*
X84292000Y-92553000D02*
X84292000Y-85568000D01*
X84292000Y-85568000D02*
X85562000Y-84298000D01*
X107152000Y-122398000D02*
X107152000Y-121763000D01*
X107152000Y-121763000D02*
X105882000Y-120493000D01*
X105882000Y-120493000D02*
X105882000Y-107158000D01*
X96357000Y-107158000D02*
X96357000Y-106523000D01*
X96357000Y-106523000D02*
X99532000Y-103348000D01*
X99532000Y-103348000D02*
X99532000Y-99538000D01*
X99532000Y-99538000D02*
X102072000Y-96998000D01*
X102072000Y-96998000D02*
X102072000Y-93188000D01*
X102072000Y-93188000D02*
X98262000Y-89378000D01*
X100802000Y-81758000D02*
X100802000Y-84298000D01*
X100802000Y-84298000D02*
X98262000Y-86838000D01*
X98262000Y-89378000D02*
X98262000Y-86838000D01*
X99532000Y-112238000D02*
X99532000Y-110333000D01*
X89372000Y-93188000D02*
X85562000Y-89378000D01*
X89372000Y-96998000D02*
X89372000Y-93188000D01*
X86832000Y-99538000D02*
X89372000Y-96998000D01*
X86832000Y-103348000D02*
X86832000Y-99538000D01*
X90007000Y-106523000D02*
X86832000Y-103348000D01*
X90007000Y-110333000D02*
X90007000Y-106523000D01*
X88102000Y-81758000D02*
X88102000Y-84298000D01*
X88102000Y-84298000D02*
X85562000Y-86838000D01*
X85562000Y-89378000D02*
X85562000Y-86838000D01*
X104612000Y-112238000D02*
X104612000Y-107793000D01*
X99532000Y-93188000D02*
X95722000Y-89378000D01*
X99532000Y-96998000D02*
X99532000Y-93188000D01*
X96992000Y-99538000D02*
X99532000Y-96998000D01*
X96992000Y-103348000D02*
X96992000Y-99538000D01*
X95087000Y-105253000D02*
X96992000Y-103348000D01*
X95087000Y-107793000D02*
X95087000Y-105253000D01*
X98262000Y-81758000D02*
X98262000Y-84298000D01*
X98262000Y-84298000D02*
X95722000Y-86838000D01*
X95722000Y-89378000D02*
X95722000Y-86838000D01*
X102072000Y-122398000D02*
X102072000Y-121763000D01*
X102072000Y-121763000D02*
X100802000Y-120493000D01*
X100802000Y-120493000D02*
X100802000Y-109698000D01*
X91277000Y-109698000D02*
X91277000Y-105253000D01*
X91277000Y-105253000D02*
X89372000Y-103348000D01*
X89372000Y-103348000D02*
X89372000Y-99538000D01*
X89372000Y-99538000D02*
X91912000Y-96998000D01*
X91912000Y-96998000D02*
X91912000Y-93188000D01*
X91912000Y-93188000D02*
X88102000Y-89378000D01*
X90642000Y-81758000D02*
X90642000Y-84298000D01*
X90642000Y-84298000D02*
X88102000Y-86838000D01*
X88102000Y-89378000D02*
X88102000Y-86838000D01*
X104612000Y-122398000D02*
X104612000Y-121763000D01*
X104612000Y-121763000D02*
X103342000Y-120493000D01*
X103342000Y-120493000D02*
X103342000Y-108428000D01*
X93817000Y-108428000D02*
X93817000Y-103983000D01*
X93817000Y-103983000D02*
X94452000Y-103348000D01*
X94452000Y-103348000D02*
X94452000Y-99538000D01*
X94452000Y-99538000D02*
X96992000Y-96998000D01*
X96992000Y-96998000D02*
X96992000Y-93188000D01*
X96992000Y-93188000D02*
X93182000Y-89378000D01*
X95722000Y-81758000D02*
X95722000Y-84298000D01*
X95722000Y-84298000D02*
X93182000Y-86838000D01*
X93182000Y-89378000D02*
X93182000Y-86838000D01*
X102072000Y-112238000D02*
X102072000Y-109063000D01*
X94452000Y-93188000D02*
X90642000Y-89378000D01*
X94452000Y-96998000D02*
X94452000Y-93188000D01*
X91912000Y-99538000D02*
X94452000Y-96998000D01*
X91912000Y-103348000D02*
X91912000Y-99538000D01*
X92547000Y-103983000D02*
X91912000Y-103348000D01*
X92547000Y-109063000D02*
X92547000Y-103983000D01*
X93182000Y-81758000D02*
X93182000Y-84298000D01*
X93182000Y-84298000D02*
X90642000Y-86838000D01*
X90642000Y-89378000D02*
X90642000Y-86838000D01*
X100802000Y-89378000D02*
X100802000Y-89886000D01*
X100802000Y-89886000D02*
X104612000Y-93696000D01*
X107152000Y-112238000D02*
X107152000Y-106523000D01*
X98897000Y-106523000D02*
X102072000Y-103348000D01*
X102072000Y-103348000D02*
X102072000Y-99538000D01*
X102072000Y-99538000D02*
X104612000Y-96998000D01*
X104612000Y-96998000D02*
X104612000Y-93696000D01*
X103342000Y-81758000D02*
X103342000Y-84298000D01*
X103342000Y-84298000D02*
X100802000Y-86838000D01*
X100802000Y-89378000D02*
X100802000Y-86838000D01*
D30*
G36*
X117185000Y-51965606D02*
X117185000Y-55723000D01*
X117195006Y-55772410D01*
X117222197Y-55812803D01*
X120397197Y-58987803D01*
X120439211Y-59015666D01*
X120487000Y-59025000D01*
X124244394Y-59025000D01*
X125265000Y-60045606D01*
X125265000Y-132045394D01*
X124244394Y-133066000D01*
X119852000Y-133066000D01*
X119802590Y-133076006D01*
X119762197Y-133103197D01*
X117222197Y-135643197D01*
X117194334Y-135685211D01*
X117185000Y-135733000D01*
X117185000Y-140125394D01*
X116045394Y-141265000D01*
X60158606Y-141265000D01*
X59019000Y-140125394D01*
X59019000Y-135733000D01*
X59008994Y-135683590D01*
X58971336Y-135633830D01*
X57020821Y-134073418D01*
X57622000Y-134193000D01*
X58247687Y-134068543D01*
X58778120Y-133714120D01*
X59132543Y-133183687D01*
X59257000Y-132558000D01*
X59257000Y-108428000D01*
X59132543Y-107802313D01*
X58778120Y-107271880D01*
X58247687Y-106917457D01*
X57622000Y-106793000D01*
X56996313Y-106917457D01*
X56465880Y-107271880D01*
X56111457Y-107802313D01*
X55987000Y-108428000D01*
X55987000Y-132558000D01*
X56111457Y-133183687D01*
X56344356Y-133532246D01*
X55796336Y-133093830D01*
X55751503Y-133070777D01*
X55717000Y-133066000D01*
X51959606Y-133066000D01*
X50764000Y-131870394D01*
X50764000Y-130488000D01*
X52364560Y-130488000D01*
X52364560Y-132088000D01*
X52408838Y-132323317D01*
X52547910Y-132539441D01*
X52760110Y-132684431D01*
X53012000Y-132735440D01*
X54612000Y-132735440D01*
X54847317Y-132691162D01*
X55063441Y-132552090D01*
X55208431Y-132339890D01*
X55259440Y-132088000D01*
X55259440Y-130488000D01*
X55215162Y-130252683D01*
X55076090Y-130036559D01*
X54863890Y-129891569D01*
X54725646Y-129863574D01*
X55027824Y-129561923D01*
X55246750Y-129034691D01*
X55247248Y-128463813D01*
X55029243Y-127936200D01*
X54625923Y-127532176D01*
X54495785Y-127478138D01*
X54623800Y-127425243D01*
X55027824Y-127021923D01*
X55246750Y-126494691D01*
X55247248Y-125923813D01*
X55029243Y-125396200D01*
X54625923Y-124992176D01*
X54495785Y-124938138D01*
X54623800Y-124885243D01*
X55027824Y-124481923D01*
X55246750Y-123954691D01*
X55247248Y-123383813D01*
X55029243Y-122856200D01*
X54625923Y-122452176D01*
X54495785Y-122398138D01*
X54623800Y-122345243D01*
X55027824Y-121941923D01*
X55246750Y-121414691D01*
X55247248Y-120843813D01*
X55029243Y-120316200D01*
X54625923Y-119912176D01*
X54495785Y-119858138D01*
X54623800Y-119805243D01*
X55027824Y-119401923D01*
X55246750Y-118874691D01*
X55247248Y-118303813D01*
X55029243Y-117776200D01*
X54625923Y-117372176D01*
X54397873Y-117277481D01*
X54432058Y-117195559D01*
X53812000Y-116575502D01*
X53191942Y-117195559D01*
X53226100Y-117277417D01*
X53000200Y-117370757D01*
X52596176Y-117774077D01*
X52377250Y-118301309D01*
X52376752Y-118872187D01*
X52594757Y-119399800D01*
X52998077Y-119803824D01*
X53128215Y-119857862D01*
X53000200Y-119910757D01*
X52596176Y-120314077D01*
X52377250Y-120841309D01*
X52376752Y-121412187D01*
X52594757Y-121939800D01*
X52998077Y-122343824D01*
X53128215Y-122397862D01*
X53000200Y-122450757D01*
X52596176Y-122854077D01*
X52377250Y-123381309D01*
X52376752Y-123952187D01*
X52594757Y-124479800D01*
X52998077Y-124883824D01*
X53128215Y-124937862D01*
X53000200Y-124990757D01*
X52596176Y-125394077D01*
X52377250Y-125921309D01*
X52376752Y-126492187D01*
X52594757Y-127019800D01*
X52998077Y-127423824D01*
X53128215Y-127477862D01*
X53000200Y-127530757D01*
X52596176Y-127934077D01*
X52377250Y-128461309D01*
X52376752Y-129032187D01*
X52594757Y-129559800D01*
X52896688Y-129862258D01*
X52776683Y-129884838D01*
X52560559Y-130023910D01*
X52415569Y-130236110D01*
X52364560Y-130488000D01*
X50764000Y-130488000D01*
X50764000Y-116080422D01*
X52349246Y-116080422D01*
X52448184Y-116577817D01*
X52664441Y-116668058D01*
X53284498Y-116048000D01*
X54339502Y-116048000D01*
X54959559Y-116668058D01*
X55175816Y-116577817D01*
X55274754Y-116015578D01*
X55175816Y-115518183D01*
X54959559Y-115427942D01*
X54339502Y-116048000D01*
X53284498Y-116048000D01*
X52664441Y-115427942D01*
X52448184Y-115518183D01*
X52349246Y-116080422D01*
X50764000Y-116080422D01*
X50764000Y-114655559D01*
X53191942Y-114655559D01*
X53243035Y-114778000D01*
X53191942Y-114900441D01*
X53812000Y-115520498D01*
X54432058Y-114900441D01*
X54380965Y-114778000D01*
X54432058Y-114655559D01*
X53812000Y-114035502D01*
X53191942Y-114655559D01*
X50764000Y-114655559D01*
X50764000Y-113540422D01*
X52349246Y-113540422D01*
X52448184Y-114037817D01*
X52664441Y-114128058D01*
X53284498Y-113508000D01*
X54339502Y-113508000D01*
X54959559Y-114128058D01*
X55175816Y-114037817D01*
X55274754Y-113475578D01*
X55175816Y-112978183D01*
X54959559Y-112887942D01*
X54339502Y-113508000D01*
X53284498Y-113508000D01*
X52664441Y-112887942D01*
X52448184Y-112978183D01*
X52349246Y-113540422D01*
X50764000Y-113540422D01*
X50764000Y-108712187D01*
X52376752Y-108712187D01*
X52594757Y-109239800D01*
X52998077Y-109643824D01*
X53128215Y-109697862D01*
X53000200Y-109750757D01*
X52596176Y-110154077D01*
X52377250Y-110681309D01*
X52376752Y-111252187D01*
X52594757Y-111779800D01*
X52998077Y-112183824D01*
X53226127Y-112278519D01*
X53191942Y-112360441D01*
X53812000Y-112980498D01*
X54432058Y-112360441D01*
X54397900Y-112278583D01*
X54623800Y-112185243D01*
X55027824Y-111781923D01*
X55246750Y-111254691D01*
X55247248Y-110683813D01*
X55029243Y-110156200D01*
X54625923Y-109752176D01*
X54495785Y-109698138D01*
X54623800Y-109645243D01*
X55027824Y-109241923D01*
X55246750Y-108714691D01*
X55247248Y-108143813D01*
X55029243Y-107616200D01*
X54625923Y-107212176D01*
X54098691Y-106993250D01*
X53527813Y-106992752D01*
X53000200Y-107210757D01*
X52596176Y-107614077D01*
X52377250Y-108141309D01*
X52376752Y-108712187D01*
X50764000Y-108712187D01*
X50764000Y-93188000D01*
X53687000Y-93188000D01*
X53687000Y-102713000D01*
X53744852Y-103003839D01*
X53909599Y-103250401D01*
X55814599Y-105155401D01*
X56061161Y-105320148D01*
X56352000Y-105378000D01*
X57307198Y-105378000D01*
X62831879Y-110902681D01*
X62702000Y-110876846D01*
X62191118Y-110978467D01*
X61758012Y-111267858D01*
X61468621Y-111700964D01*
X61367000Y-112211846D01*
X61367000Y-112264154D01*
X61468621Y-112775036D01*
X61758012Y-113208142D01*
X62191118Y-113497533D01*
X62702000Y-113599154D01*
X63212000Y-113497708D01*
X63212000Y-118598292D01*
X62702000Y-118496846D01*
X62191118Y-118598467D01*
X61758012Y-118887858D01*
X61468621Y-119320964D01*
X61367000Y-119831846D01*
X61367000Y-119884154D01*
X61468621Y-120395036D01*
X61758012Y-120828142D01*
X62191118Y-121117533D01*
X62243739Y-121128000D01*
X62191118Y-121138467D01*
X61758012Y-121427858D01*
X61468621Y-121860964D01*
X61367000Y-122371846D01*
X61367000Y-122424154D01*
X61468621Y-122935036D01*
X61758012Y-123368142D01*
X62191118Y-123657533D01*
X62702000Y-123759154D01*
X63212882Y-123657533D01*
X63645988Y-123368142D01*
X63935379Y-122935036D01*
X63972000Y-122750930D01*
X64008621Y-122935036D01*
X64298012Y-123368142D01*
X64482000Y-123491078D01*
X64482000Y-127169537D01*
X64449808Y-127201673D01*
X64307162Y-127545201D01*
X64306838Y-127917167D01*
X64448883Y-128260943D01*
X64711673Y-128524192D01*
X65055201Y-128666838D01*
X65191172Y-128666956D01*
X64731118Y-128758467D01*
X64298012Y-129047858D01*
X64008621Y-129480964D01*
X63972000Y-129665070D01*
X63935379Y-129480964D01*
X63645988Y-129047858D01*
X63212882Y-128758467D01*
X62702000Y-128656846D01*
X62191118Y-128758467D01*
X61758012Y-129047858D01*
X61468621Y-129480964D01*
X61367000Y-129991846D01*
X61367000Y-130044154D01*
X61468621Y-130555036D01*
X61758012Y-130988142D01*
X62191118Y-131277533D01*
X62702000Y-131379154D01*
X63212882Y-131277533D01*
X63645988Y-130988142D01*
X63935379Y-130555036D01*
X63972000Y-130370930D01*
X64008621Y-130555036D01*
X64298012Y-130988142D01*
X64399347Y-131055851D01*
X62164599Y-133290599D01*
X61999852Y-133537161D01*
X61942000Y-133828000D01*
X61942000Y-137638000D01*
X61999852Y-137928839D01*
X62164599Y-138175401D01*
X62624560Y-138635362D01*
X62624560Y-139608000D01*
X62668838Y-139843317D01*
X62807910Y-140059441D01*
X63020110Y-140204431D01*
X63272000Y-140255440D01*
X64672000Y-140255440D01*
X64907317Y-140211162D01*
X65123441Y-140072090D01*
X65268431Y-139859890D01*
X65319440Y-139608000D01*
X65319440Y-139517674D01*
X65379582Y-139663229D01*
X65754796Y-140039098D01*
X66245287Y-140242768D01*
X66776383Y-140243231D01*
X67267229Y-140040418D01*
X67643098Y-139665204D01*
X67782091Y-139330473D01*
X67919582Y-139663229D01*
X68294796Y-140039098D01*
X68785287Y-140242768D01*
X69316383Y-140243231D01*
X69807229Y-140040418D01*
X70183098Y-139665204D01*
X70322091Y-139330473D01*
X70459582Y-139663229D01*
X70834796Y-140039098D01*
X71325287Y-140242768D01*
X71856383Y-140243231D01*
X72347229Y-140040418D01*
X72723098Y-139665204D01*
X72862091Y-139330473D01*
X72999582Y-139663229D01*
X73374796Y-140039098D01*
X73865287Y-140242768D01*
X74396383Y-140243231D01*
X74887229Y-140040418D01*
X75263098Y-139665204D01*
X75402091Y-139330473D01*
X75539582Y-139663229D01*
X75914796Y-140039098D01*
X76405287Y-140242768D01*
X76936383Y-140243231D01*
X77427229Y-140040418D01*
X77803098Y-139665204D01*
X77942091Y-139330473D01*
X78079582Y-139663229D01*
X78454796Y-140039098D01*
X78945287Y-140242768D01*
X79476383Y-140243231D01*
X79967229Y-140040418D01*
X80343098Y-139665204D01*
X80482091Y-139330473D01*
X80619582Y-139663229D01*
X80994796Y-140039098D01*
X81485287Y-140242768D01*
X82016383Y-140243231D01*
X82507229Y-140040418D01*
X82883098Y-139665204D01*
X83086768Y-139174713D01*
X83087231Y-138643617D01*
X82884418Y-138152771D01*
X82509204Y-137776902D01*
X82174473Y-137637909D01*
X82507229Y-137500418D01*
X82883098Y-137125204D01*
X83086768Y-136634713D01*
X83087231Y-136103617D01*
X82884418Y-135612771D01*
X82512000Y-135239703D01*
X82512000Y-134142802D01*
X84829401Y-131825401D01*
X84994148Y-131578840D01*
X85033868Y-131379154D01*
X85052000Y-131288000D01*
X85052000Y-121763000D01*
X84994148Y-121472161D01*
X84994148Y-121472160D01*
X84829401Y-121225599D01*
X84152623Y-120548821D01*
X84255379Y-120395036D01*
X84357000Y-119884154D01*
X84357000Y-119831846D01*
X84255379Y-119320964D01*
X83965988Y-118887858D01*
X83532882Y-118598467D01*
X83022000Y-118496846D01*
X82512000Y-118598292D01*
X82512000Y-113585440D01*
X83722000Y-113585440D01*
X83957317Y-113541162D01*
X84173441Y-113402090D01*
X84318431Y-113189890D01*
X84369440Y-112938000D01*
X84369440Y-111538000D01*
X84325162Y-111302683D01*
X84186090Y-111086559D01*
X83973890Y-110941569D01*
X83782000Y-110902710D01*
X83782000Y-107085463D01*
X83814192Y-107053327D01*
X83956838Y-106709799D01*
X83957162Y-106337833D01*
X83815117Y-105994057D01*
X83552327Y-105730808D01*
X83208799Y-105588162D01*
X82836833Y-105587838D01*
X82493057Y-105729883D01*
X82229808Y-105992673D01*
X82105378Y-106292332D01*
X81938799Y-106223162D01*
X81566833Y-106222838D01*
X81223057Y-106364883D01*
X80959808Y-106627673D01*
X80835378Y-106927332D01*
X80668799Y-106858162D01*
X80296833Y-106857838D01*
X79953057Y-106999883D01*
X79689808Y-107262673D01*
X79565378Y-107562332D01*
X79398799Y-107493162D01*
X79026833Y-107492838D01*
X78683057Y-107634883D01*
X78419808Y-107897673D01*
X78295378Y-108197332D01*
X78128799Y-108128162D01*
X77756833Y-108127838D01*
X77413057Y-108269883D01*
X77149808Y-108532673D01*
X77025378Y-108832332D01*
X76858799Y-108763162D01*
X76486833Y-108762838D01*
X76143057Y-108904883D01*
X75879808Y-109167673D01*
X75755378Y-109467332D01*
X75588799Y-109398162D01*
X75216833Y-109397838D01*
X74892000Y-109532056D01*
X74892000Y-106202802D01*
X77209401Y-103885401D01*
X77374148Y-103638840D01*
X77383746Y-103590586D01*
X77432000Y-103348000D01*
X77432000Y-103171078D01*
X77615988Y-103048142D01*
X77905379Y-102615036D01*
X77942000Y-102430930D01*
X77978621Y-102615036D01*
X78268012Y-103048142D01*
X78701118Y-103337533D01*
X79212000Y-103439154D01*
X79722882Y-103337533D01*
X80155988Y-103048142D01*
X80445379Y-102615036D01*
X80547000Y-102104154D01*
X80547000Y-102051846D01*
X80445379Y-101540964D01*
X80155988Y-101107858D01*
X79722882Y-100818467D01*
X79212000Y-100716846D01*
X78701118Y-100818467D01*
X78268012Y-101107858D01*
X77978621Y-101540964D01*
X77942000Y-101725070D01*
X77905379Y-101540964D01*
X77615988Y-101107858D01*
X77432000Y-100984922D01*
X77432000Y-98582802D01*
X78479401Y-97535401D01*
X78644148Y-97288840D01*
X78702000Y-96998000D01*
X78702000Y-96641691D01*
X81762000Y-96641691D01*
X81762000Y-96859250D01*
X81920750Y-97018000D01*
X82709500Y-97018000D01*
X82709500Y-96291750D01*
X82550750Y-96133000D01*
X82270690Y-96133000D01*
X82037301Y-96229673D01*
X81858673Y-96408302D01*
X81762000Y-96641691D01*
X78702000Y-96641691D01*
X78702000Y-95717708D01*
X79212000Y-95819154D01*
X79722882Y-95717533D01*
X80155988Y-95428142D01*
X80438566Y-95005231D01*
X81804280Y-95005231D01*
X82106390Y-95429577D01*
X82474774Y-95675690D01*
X82672000Y-95580971D01*
X82672000Y-94808000D01*
X81892416Y-94808000D01*
X81804280Y-95005231D01*
X80438566Y-95005231D01*
X80445379Y-94995036D01*
X80547000Y-94484154D01*
X80547000Y-94431846D01*
X80445379Y-93920964D01*
X80155988Y-93487858D01*
X79972000Y-93364922D01*
X79972000Y-92232802D01*
X81019401Y-91185401D01*
X81184148Y-90938840D01*
X81242000Y-90648000D01*
X81242000Y-89434802D01*
X81674560Y-89867362D01*
X81674560Y-90078000D01*
X81718838Y-90313317D01*
X81857910Y-90529441D01*
X82070110Y-90674431D01*
X82262000Y-90713290D01*
X82262000Y-92553000D01*
X82319852Y-92843839D01*
X82484599Y-93090401D01*
X82648998Y-93254800D01*
X82648998Y-93323982D01*
X82474774Y-93240310D01*
X82106390Y-93486423D01*
X81804280Y-93910769D01*
X81892416Y-94108000D01*
X82672000Y-94108000D01*
X82672000Y-94065000D01*
X83372000Y-94065000D01*
X83372000Y-94108000D01*
X83415000Y-94108000D01*
X83415000Y-94808000D01*
X83372000Y-94808000D01*
X83372000Y-95580971D01*
X83532000Y-95657812D01*
X83532000Y-96133000D01*
X83493250Y-96133000D01*
X83334500Y-96291750D01*
X83334500Y-97018000D01*
X83415000Y-97018000D01*
X83415000Y-97518000D01*
X83334500Y-97518000D01*
X83334500Y-97661000D01*
X82709500Y-97661000D01*
X82709500Y-97518000D01*
X81920750Y-97518000D01*
X81762000Y-97676750D01*
X81762000Y-97894309D01*
X81858673Y-98127698D01*
X81963974Y-98233000D01*
X81387005Y-98233000D01*
X81387000Y-98232999D01*
X81018362Y-98306327D01*
X80990923Y-98311785D01*
X80793902Y-98443429D01*
X80474914Y-98575233D01*
X80155355Y-98894235D01*
X79982197Y-99311244D01*
X79981803Y-99762775D01*
X80154233Y-100180086D01*
X80473235Y-100499645D01*
X80890244Y-100672803D01*
X81341775Y-100673197D01*
X81759086Y-100500767D01*
X81957198Y-100303000D01*
X82055203Y-100303000D01*
X82145110Y-100364431D01*
X82397000Y-100415440D01*
X82974758Y-100415440D01*
X82659638Y-100730560D01*
X82322000Y-100730560D01*
X82086683Y-100774838D01*
X81870559Y-100913910D01*
X81725569Y-101126110D01*
X81674560Y-101378000D01*
X81674560Y-102778000D01*
X81718838Y-103013317D01*
X81857910Y-103229441D01*
X82070110Y-103374431D01*
X82322000Y-103425440D01*
X83532000Y-103425440D01*
X83532000Y-104618000D01*
X83589852Y-104908839D01*
X83754599Y-105155401D01*
X87342000Y-108742802D01*
X87342000Y-110978292D01*
X86832000Y-110876846D01*
X86321118Y-110978467D01*
X85888012Y-111267858D01*
X85598621Y-111700964D01*
X85497000Y-112211846D01*
X85497000Y-112264154D01*
X85598621Y-112775036D01*
X85888012Y-113208142D01*
X86321118Y-113497533D01*
X86832000Y-113599154D01*
X87342000Y-113497708D01*
X87342000Y-118598292D01*
X86832000Y-118496846D01*
X86321118Y-118598467D01*
X85888012Y-118887858D01*
X85598621Y-119320964D01*
X85497000Y-119831846D01*
X85497000Y-119884154D01*
X85598621Y-120395036D01*
X85888012Y-120828142D01*
X86321118Y-121117533D01*
X86373739Y-121128000D01*
X86321118Y-121138467D01*
X85888012Y-121427858D01*
X85598621Y-121860964D01*
X85497000Y-122371846D01*
X85497000Y-122424154D01*
X85598621Y-122935036D01*
X85888012Y-123368142D01*
X86321118Y-123657533D01*
X86832000Y-123759154D01*
X87342882Y-123657533D01*
X87775988Y-123368142D01*
X88065379Y-122935036D01*
X88102000Y-122750930D01*
X88138621Y-122935036D01*
X88428012Y-123368142D01*
X88861118Y-123657533D01*
X89372000Y-123759154D01*
X89882000Y-123657708D01*
X89882000Y-128758292D01*
X89372000Y-128656846D01*
X88861118Y-128758467D01*
X88428012Y-129047858D01*
X88138621Y-129480964D01*
X88102000Y-129665070D01*
X88065379Y-129480964D01*
X87775988Y-129047858D01*
X87342882Y-128758467D01*
X86832000Y-128656846D01*
X86321118Y-128758467D01*
X85888012Y-129047858D01*
X85598621Y-129480964D01*
X85497000Y-129991846D01*
X85497000Y-130044154D01*
X85598621Y-130555036D01*
X85888012Y-130988142D01*
X86321118Y-131277533D01*
X86832000Y-131379154D01*
X87342882Y-131277533D01*
X87775988Y-130988142D01*
X88065379Y-130555036D01*
X88102000Y-130370930D01*
X88138621Y-130555036D01*
X88428012Y-130988142D01*
X88612000Y-131111078D01*
X88612000Y-136368000D01*
X88669852Y-136658839D01*
X88834599Y-136905401D01*
X90564560Y-138635362D01*
X90564560Y-139608000D01*
X90608838Y-139843317D01*
X90747910Y-140059441D01*
X90960110Y-140204431D01*
X91212000Y-140255440D01*
X92612000Y-140255440D01*
X92847317Y-140211162D01*
X93063441Y-140072090D01*
X93208431Y-139859890D01*
X93259440Y-139608000D01*
X93259440Y-139517674D01*
X93319582Y-139663229D01*
X93694796Y-140039098D01*
X94185287Y-140242768D01*
X94716383Y-140243231D01*
X95207229Y-140040418D01*
X95583098Y-139665204D01*
X95722091Y-139330473D01*
X95859582Y-139663229D01*
X96234796Y-140039098D01*
X96725287Y-140242768D01*
X97256383Y-140243231D01*
X97747229Y-140040418D01*
X98123098Y-139665204D01*
X98262091Y-139330473D01*
X98399582Y-139663229D01*
X98774796Y-140039098D01*
X99265287Y-140242768D01*
X99796383Y-140243231D01*
X100287229Y-140040418D01*
X100663098Y-139665204D01*
X100802091Y-139330473D01*
X100939582Y-139663229D01*
X101314796Y-140039098D01*
X101805287Y-140242768D01*
X102336383Y-140243231D01*
X102827229Y-140040418D01*
X103203098Y-139665204D01*
X103342091Y-139330473D01*
X103479582Y-139663229D01*
X103854796Y-140039098D01*
X104345287Y-140242768D01*
X104876383Y-140243231D01*
X105367229Y-140040418D01*
X105743098Y-139665204D01*
X105882091Y-139330473D01*
X106019582Y-139663229D01*
X106394796Y-140039098D01*
X106885287Y-140242768D01*
X107416383Y-140243231D01*
X107907229Y-140040418D01*
X108283098Y-139665204D01*
X108422091Y-139330473D01*
X108559582Y-139663229D01*
X108934796Y-140039098D01*
X109425287Y-140242768D01*
X109956383Y-140243231D01*
X110447229Y-140040418D01*
X110823098Y-139665204D01*
X111026768Y-139174713D01*
X111027231Y-138643617D01*
X110824418Y-138152771D01*
X110449204Y-137776902D01*
X110114473Y-137637909D01*
X110447229Y-137500418D01*
X110823098Y-137125204D01*
X111026768Y-136634713D01*
X111027231Y-136103617D01*
X110824418Y-135612771D01*
X110452000Y-135239703D01*
X110452000Y-132558000D01*
X110394148Y-132267161D01*
X110394148Y-132267160D01*
X110229401Y-132020599D01*
X109182000Y-130973198D01*
X109182000Y-121763000D01*
X109124148Y-121472161D01*
X109124148Y-121472160D01*
X108959401Y-121225599D01*
X108282623Y-120548821D01*
X108385379Y-120395036D01*
X108487000Y-119884154D01*
X108487000Y-119831846D01*
X108385379Y-119320964D01*
X108095988Y-118887858D01*
X107662882Y-118598467D01*
X107152000Y-118496846D01*
X106642000Y-118598292D01*
X106642000Y-113585440D01*
X107852000Y-113585440D01*
X108087317Y-113541162D01*
X108303441Y-113402090D01*
X108448431Y-113189890D01*
X108499440Y-112938000D01*
X108499440Y-111538000D01*
X108455162Y-111302683D01*
X108316090Y-111086559D01*
X108103890Y-110941569D01*
X107912000Y-110902710D01*
X107912000Y-107085463D01*
X107944192Y-107053327D01*
X108086838Y-106709799D01*
X108087162Y-106337833D01*
X107945117Y-105994057D01*
X107682327Y-105730808D01*
X107338799Y-105588162D01*
X106966833Y-105587838D01*
X106623057Y-105729883D01*
X106359808Y-105992673D01*
X106235378Y-106292332D01*
X106068799Y-106223162D01*
X105696833Y-106222838D01*
X105353057Y-106364883D01*
X105089808Y-106627673D01*
X104965378Y-106927332D01*
X104798799Y-106858162D01*
X104426833Y-106857838D01*
X104083057Y-106999883D01*
X103819808Y-107262673D01*
X103695378Y-107562332D01*
X103528799Y-107493162D01*
X103156833Y-107492838D01*
X102813057Y-107634883D01*
X102549808Y-107897673D01*
X102425378Y-108197332D01*
X102258799Y-108128162D01*
X101886833Y-108127838D01*
X101543057Y-108269883D01*
X101279808Y-108532673D01*
X101155378Y-108832332D01*
X100988799Y-108763162D01*
X100616833Y-108762838D01*
X100273057Y-108904883D01*
X100009808Y-109167673D01*
X99885378Y-109467332D01*
X99718799Y-109398162D01*
X99346833Y-109397838D01*
X99022000Y-109532056D01*
X99022000Y-108742802D01*
X103879401Y-103885401D01*
X104044148Y-103638839D01*
X104102000Y-103348000D01*
X104102000Y-103171078D01*
X104285988Y-103048142D01*
X104575379Y-102615036D01*
X104612000Y-102430930D01*
X104648621Y-102615036D01*
X104938012Y-103048142D01*
X105371118Y-103337533D01*
X105882000Y-103439154D01*
X106392882Y-103337533D01*
X106825988Y-103048142D01*
X107115379Y-102615036D01*
X107217000Y-102104154D01*
X107217000Y-102051846D01*
X107115379Y-101540964D01*
X106825988Y-101107858D01*
X106392882Y-100818467D01*
X105882000Y-100716846D01*
X105371118Y-100818467D01*
X104938012Y-101107858D01*
X104648621Y-101540964D01*
X104612000Y-101725070D01*
X104575379Y-101540964D01*
X104285988Y-101107858D01*
X104184653Y-101040149D01*
X107689401Y-97535401D01*
X107854148Y-97288839D01*
X107912000Y-96998000D01*
X107912000Y-93696000D01*
X107854148Y-93405161D01*
X107854148Y-93405160D01*
X107833060Y-93373600D01*
X107833162Y-93256833D01*
X107691117Y-92913057D01*
X107458291Y-92679824D01*
X107690192Y-92448327D01*
X107832838Y-92104799D01*
X107832941Y-91986579D01*
X107854148Y-91954840D01*
X107912000Y-91664000D01*
X107912000Y-74138000D01*
X109327000Y-74138000D01*
X109327000Y-124938000D01*
X109451457Y-125563687D01*
X109805880Y-126094120D01*
X110336313Y-126448543D01*
X110962000Y-126573000D01*
X111587687Y-126448543D01*
X112118120Y-126094120D01*
X112472543Y-125563687D01*
X112597000Y-124938000D01*
X112597000Y-95135802D01*
X113758000Y-96296802D01*
X113758000Y-117064000D01*
X113815852Y-117354839D01*
X113980599Y-117601401D01*
X114628744Y-118249546D01*
X114607250Y-118301309D01*
X114606752Y-118872187D01*
X114824757Y-119399800D01*
X115228077Y-119803824D01*
X115358215Y-119857862D01*
X115230200Y-119910757D01*
X114826176Y-120314077D01*
X114607250Y-120841309D01*
X114606752Y-121412187D01*
X114824757Y-121939800D01*
X115228077Y-122343824D01*
X115358215Y-122397862D01*
X115230200Y-122450757D01*
X114826176Y-122854077D01*
X114607250Y-123381309D01*
X114606752Y-123952187D01*
X114824757Y-124479800D01*
X115228077Y-124883824D01*
X115358215Y-124937862D01*
X115230200Y-124990757D01*
X114826176Y-125394077D01*
X114607250Y-125921309D01*
X114606752Y-126492187D01*
X114824757Y-127019800D01*
X115228077Y-127423824D01*
X115358215Y-127477862D01*
X115230200Y-127530757D01*
X114826176Y-127934077D01*
X114607250Y-128461309D01*
X114606752Y-129032187D01*
X114824757Y-129559800D01*
X115126688Y-129862258D01*
X115006683Y-129884838D01*
X114790559Y-130023910D01*
X114645569Y-130236110D01*
X114594560Y-130488000D01*
X114594560Y-132088000D01*
X114638838Y-132323317D01*
X114777910Y-132539441D01*
X114990110Y-132684431D01*
X115242000Y-132735440D01*
X116842000Y-132735440D01*
X117077317Y-132691162D01*
X117293441Y-132552090D01*
X117438431Y-132339890D01*
X117489440Y-132088000D01*
X117489440Y-130915362D01*
X120262401Y-128142401D01*
X120427148Y-127895839D01*
X120485000Y-127605000D01*
X120485000Y-93136250D01*
X120602000Y-93019250D01*
X120602000Y-92230500D01*
X121102000Y-92230500D01*
X121102000Y-93019250D01*
X121260750Y-93178000D01*
X121478309Y-93178000D01*
X121711698Y-93081327D01*
X121890327Y-92902699D01*
X121987000Y-92669310D01*
X121987000Y-92389250D01*
X121828250Y-92230500D01*
X121102000Y-92230500D01*
X120602000Y-92230500D01*
X120459000Y-92230500D01*
X120459000Y-91605500D01*
X120602000Y-91605500D01*
X120602000Y-90816750D01*
X121102000Y-90816750D01*
X121102000Y-91605500D01*
X121828250Y-91605500D01*
X121987000Y-91446750D01*
X121987000Y-91166690D01*
X121890327Y-90933301D01*
X121711698Y-90754673D01*
X121478309Y-90658000D01*
X121260750Y-90658000D01*
X121102000Y-90816750D01*
X120602000Y-90816750D01*
X120443250Y-90658000D01*
X120225691Y-90658000D01*
X119992302Y-90754673D01*
X119851064Y-90895910D01*
X119816090Y-90841559D01*
X119603890Y-90696569D01*
X119364491Y-90648090D01*
X119587317Y-90606162D01*
X119803441Y-90467090D01*
X119849969Y-90398994D01*
X119992302Y-90541327D01*
X120225691Y-90638000D01*
X120443250Y-90638000D01*
X120602000Y-90479250D01*
X120602000Y-89690500D01*
X121102000Y-89690500D01*
X121102000Y-90479250D01*
X121260750Y-90638000D01*
X121478309Y-90638000D01*
X121711698Y-90541327D01*
X121890327Y-90362699D01*
X121987000Y-90129310D01*
X121987000Y-89849250D01*
X121828250Y-89690500D01*
X121102000Y-89690500D01*
X120602000Y-89690500D01*
X120459000Y-89690500D01*
X120459000Y-89065500D01*
X120602000Y-89065500D01*
X120602000Y-88276750D01*
X121102000Y-88276750D01*
X121102000Y-89065500D01*
X121828250Y-89065500D01*
X121987000Y-88906750D01*
X121987000Y-88626690D01*
X121890327Y-88393301D01*
X121711698Y-88214673D01*
X121478309Y-88118000D01*
X121260750Y-88118000D01*
X121102000Y-88276750D01*
X120602000Y-88276750D01*
X120443250Y-88118000D01*
X120225691Y-88118000D01*
X119992302Y-88214673D01*
X119851064Y-88355910D01*
X119816090Y-88301559D01*
X119603890Y-88156569D01*
X119364491Y-88108090D01*
X119587317Y-88066162D01*
X119803441Y-87927090D01*
X119849969Y-87858994D01*
X119992302Y-88001327D01*
X120225691Y-88098000D01*
X120443250Y-88098000D01*
X120602000Y-87939250D01*
X120602000Y-87150500D01*
X121102000Y-87150500D01*
X121102000Y-87939250D01*
X121260750Y-88098000D01*
X121478309Y-88098000D01*
X121711698Y-88001327D01*
X121890327Y-87822699D01*
X121987000Y-87589310D01*
X121987000Y-87309250D01*
X121828250Y-87150500D01*
X121102000Y-87150500D01*
X120602000Y-87150500D01*
X120459000Y-87150500D01*
X120459000Y-86525500D01*
X120602000Y-86525500D01*
X120602000Y-85736750D01*
X121102000Y-85736750D01*
X121102000Y-86525500D01*
X121828250Y-86525500D01*
X121987000Y-86366750D01*
X121987000Y-86086690D01*
X121890327Y-85853301D01*
X121711698Y-85674673D01*
X121478309Y-85578000D01*
X121260750Y-85578000D01*
X121102000Y-85736750D01*
X120602000Y-85736750D01*
X120443250Y-85578000D01*
X120225691Y-85578000D01*
X119992302Y-85674673D01*
X119851064Y-85815910D01*
X119816090Y-85761559D01*
X119603890Y-85616569D01*
X119364491Y-85568090D01*
X119587317Y-85526162D01*
X119803441Y-85387090D01*
X119849969Y-85318994D01*
X119992302Y-85461327D01*
X120225691Y-85558000D01*
X120443250Y-85558000D01*
X120602000Y-85399250D01*
X120602000Y-84610500D01*
X121102000Y-84610500D01*
X121102000Y-85399250D01*
X121260750Y-85558000D01*
X121478309Y-85558000D01*
X121711698Y-85461327D01*
X121890327Y-85282699D01*
X121987000Y-85049310D01*
X121987000Y-84769250D01*
X121828250Y-84610500D01*
X121102000Y-84610500D01*
X120602000Y-84610500D01*
X120459000Y-84610500D01*
X120459000Y-83985500D01*
X120602000Y-83985500D01*
X120602000Y-83196750D01*
X121102000Y-83196750D01*
X121102000Y-83985500D01*
X121828250Y-83985500D01*
X121987000Y-83826750D01*
X121987000Y-83546690D01*
X121890327Y-83313301D01*
X121711698Y-83134673D01*
X121478309Y-83038000D01*
X121260750Y-83038000D01*
X121102000Y-83196750D01*
X120602000Y-83196750D01*
X120443250Y-83038000D01*
X120225691Y-83038000D01*
X119992302Y-83134673D01*
X119851064Y-83275910D01*
X119816090Y-83221559D01*
X119603890Y-83076569D01*
X119364491Y-83028090D01*
X119587317Y-82986162D01*
X119803441Y-82847090D01*
X119849969Y-82778994D01*
X119992302Y-82921327D01*
X120225691Y-83018000D01*
X120443250Y-83018000D01*
X120602000Y-82859250D01*
X120602000Y-82070500D01*
X121102000Y-82070500D01*
X121102000Y-82859250D01*
X121260750Y-83018000D01*
X121478309Y-83018000D01*
X121711698Y-82921327D01*
X121890327Y-82742699D01*
X121987000Y-82509310D01*
X121987000Y-82229250D01*
X121828250Y-82070500D01*
X121102000Y-82070500D01*
X120602000Y-82070500D01*
X120459000Y-82070500D01*
X120459000Y-81445500D01*
X120602000Y-81445500D01*
X120602000Y-80656750D01*
X121102000Y-80656750D01*
X121102000Y-81445500D01*
X121828250Y-81445500D01*
X121987000Y-81286750D01*
X121987000Y-81006690D01*
X121890327Y-80773301D01*
X121711698Y-80594673D01*
X121478309Y-80498000D01*
X121260750Y-80498000D01*
X121102000Y-80656750D01*
X120602000Y-80656750D01*
X120443250Y-80498000D01*
X120225691Y-80498000D01*
X119992302Y-80594673D01*
X119851064Y-80735910D01*
X119816090Y-80681559D01*
X119603890Y-80536569D01*
X119364491Y-80488090D01*
X119587317Y-80446162D01*
X119803441Y-80307090D01*
X119851134Y-80237289D01*
X119887910Y-80294441D01*
X120100110Y-80439431D01*
X120352000Y-80490440D01*
X121352000Y-80490440D01*
X121587317Y-80446162D01*
X121803441Y-80307090D01*
X121948431Y-80094890D01*
X121999440Y-79843000D01*
X121999440Y-78593000D01*
X121955162Y-78357683D01*
X121816090Y-78141559D01*
X121737000Y-78087519D01*
X121737000Y-77043005D01*
X121737001Y-77043000D01*
X121669634Y-76704326D01*
X121492567Y-76439326D01*
X121477790Y-76417210D01*
X121477787Y-76417208D01*
X121212790Y-76152210D01*
X121149839Y-76110148D01*
X120925675Y-75960367D01*
X120869484Y-75949190D01*
X120587000Y-75892999D01*
X120586995Y-75893000D01*
X117186171Y-75893000D01*
X116855923Y-75562176D01*
X116774069Y-75528187D01*
X116853800Y-75495243D01*
X117257824Y-75091923D01*
X117476750Y-74564691D01*
X117477248Y-73993813D01*
X117259243Y-73466200D01*
X116855923Y-73062176D01*
X116328691Y-72843250D01*
X115757813Y-72842752D01*
X115230200Y-73060757D01*
X114826176Y-73464077D01*
X114607250Y-73991309D01*
X114606752Y-74562187D01*
X114824757Y-75089800D01*
X115228077Y-75493824D01*
X115309931Y-75527813D01*
X115230200Y-75560757D01*
X114826176Y-75964077D01*
X114607250Y-76491309D01*
X114606752Y-77062187D01*
X114824757Y-77589800D01*
X115228077Y-77993824D01*
X115309931Y-78027813D01*
X115230200Y-78060757D01*
X114826176Y-78464077D01*
X114607250Y-78991309D01*
X114606752Y-79562187D01*
X114629049Y-79616149D01*
X112597000Y-81648198D01*
X112597000Y-74138000D01*
X112472543Y-73512313D01*
X112118120Y-72981880D01*
X111587687Y-72627457D01*
X110962000Y-72503000D01*
X110336313Y-72627457D01*
X109805880Y-72981880D01*
X109451457Y-73512313D01*
X109327000Y-74138000D01*
X107912000Y-74138000D01*
X107912000Y-70328000D01*
X107854148Y-70037161D01*
X107854148Y-70037160D01*
X107689401Y-69790599D01*
X107178170Y-69279368D01*
X107217000Y-69084154D01*
X107217000Y-69031846D01*
X107115379Y-68520964D01*
X106825988Y-68087858D01*
X106392882Y-67798467D01*
X105882000Y-67696846D01*
X105371118Y-67798467D01*
X104938012Y-68087858D01*
X104648621Y-68520964D01*
X104612000Y-68705070D01*
X104575379Y-68520964D01*
X104285988Y-68087858D01*
X103852882Y-67798467D01*
X103342000Y-67696846D01*
X102831118Y-67798467D01*
X102722107Y-67871305D01*
X99291401Y-64440599D01*
X99044839Y-64275852D01*
X98754000Y-64218000D01*
X93124279Y-64218000D01*
X93001090Y-64026559D01*
X92931289Y-63978866D01*
X92988441Y-63942090D01*
X93133431Y-63729890D01*
X93184440Y-63478000D01*
X93184440Y-63215559D01*
X105261942Y-63215559D01*
X105352183Y-63431816D01*
X105914422Y-63530754D01*
X106411817Y-63431816D01*
X106502058Y-63215559D01*
X106367499Y-63081000D01*
X110297000Y-63081000D01*
X110297000Y-64331000D01*
X110587034Y-65043100D01*
X111127499Y-65590003D01*
X111566569Y-65774983D01*
X111859000Y-65694645D01*
X111859000Y-63081000D01*
X112605000Y-63081000D01*
X112605000Y-65694645D01*
X112897431Y-65774983D01*
X113336501Y-65590003D01*
X113876966Y-65043100D01*
X114167000Y-64331000D01*
X114167000Y-63081000D01*
X112605000Y-63081000D01*
X111859000Y-63081000D01*
X110297000Y-63081000D01*
X106367499Y-63081000D01*
X105882000Y-62595502D01*
X105261942Y-63215559D01*
X93184440Y-63215559D01*
X93184440Y-62478000D01*
X93140162Y-62242683D01*
X93048620Y-62100422D01*
X104419246Y-62100422D01*
X104518184Y-62597817D01*
X104734441Y-62688058D01*
X105354498Y-62068000D01*
X106409502Y-62068000D01*
X107029559Y-62688058D01*
X107245816Y-62597817D01*
X107344754Y-62035578D01*
X107245816Y-61538183D01*
X107029559Y-61447942D01*
X106409502Y-62068000D01*
X105354498Y-62068000D01*
X104734441Y-61447942D01*
X104518184Y-61538183D01*
X104419246Y-62100422D01*
X93048620Y-62100422D01*
X93001090Y-62026559D01*
X92788890Y-61881569D01*
X92672000Y-61857898D01*
X92672000Y-60920441D01*
X105261942Y-60920441D01*
X105882000Y-61540498D01*
X106502058Y-60920441D01*
X106411817Y-60704184D01*
X105849578Y-60605246D01*
X105352183Y-60704184D01*
X105261942Y-60920441D01*
X92672000Y-60920441D01*
X92672000Y-58268000D01*
X104247000Y-58268000D01*
X104371457Y-58893687D01*
X104725880Y-59424120D01*
X105256313Y-59778543D01*
X105882000Y-59903000D01*
X111051402Y-59903000D01*
X110587034Y-60372900D01*
X110297000Y-61085000D01*
X110297000Y-62335000D01*
X111859000Y-62335000D01*
X111859000Y-62315000D01*
X112605000Y-62315000D01*
X112605000Y-62335000D01*
X114167000Y-62335000D01*
X114167000Y-61085000D01*
X113876966Y-60372900D01*
X113412598Y-59903000D01*
X113973406Y-59903000D01*
X114174500Y-59943000D01*
X116044760Y-59943000D01*
X116597000Y-60495239D01*
X116597000Y-60681465D01*
X116444293Y-60910008D01*
X116297000Y-61650500D01*
X116297000Y-63765500D01*
X116444293Y-64505992D01*
X116863748Y-65133752D01*
X117491508Y-65553207D01*
X118232000Y-65700500D01*
X118972492Y-65553207D01*
X119600252Y-65133752D01*
X120019707Y-64505992D01*
X120167000Y-63765500D01*
X120167000Y-61650500D01*
X120019707Y-60910008D01*
X119867000Y-60681465D01*
X119867000Y-59818005D01*
X119867001Y-59818000D01*
X119742543Y-59192313D01*
X119565535Y-58927401D01*
X119388120Y-58661880D01*
X119388117Y-58661878D01*
X118097930Y-57371690D01*
X118077207Y-57267508D01*
X117657752Y-56639748D01*
X117029992Y-56220293D01*
X116289500Y-56073000D01*
X114174500Y-56073000D01*
X113434008Y-56220293D01*
X112816347Y-56633000D01*
X105882000Y-56633000D01*
X105256313Y-56757457D01*
X104725880Y-57111880D01*
X104371457Y-57642313D01*
X104247000Y-58268000D01*
X92672000Y-58268000D01*
X92672000Y-55088000D01*
X92614148Y-54797160D01*
X92449401Y-54550599D01*
X91976774Y-54077972D01*
X91977231Y-53553617D01*
X91774418Y-53062771D01*
X91399204Y-52686902D01*
X90908713Y-52483232D01*
X90377617Y-52482769D01*
X89886771Y-52685582D01*
X89510902Y-53060796D01*
X89371909Y-53395527D01*
X89234418Y-53062771D01*
X88859204Y-52686902D01*
X88368713Y-52483232D01*
X87837617Y-52482769D01*
X87346771Y-52685582D01*
X86970902Y-53060796D01*
X86831909Y-53395527D01*
X86694418Y-53062771D01*
X86319204Y-52686902D01*
X85828713Y-52483232D01*
X85297617Y-52482769D01*
X84806771Y-52685582D01*
X84430902Y-53060796D01*
X84291909Y-53395527D01*
X84154418Y-53062771D01*
X83779204Y-52686902D01*
X83288713Y-52483232D01*
X82757617Y-52482769D01*
X82266771Y-52685582D01*
X81890902Y-53060796D01*
X81751909Y-53395527D01*
X81614418Y-53062771D01*
X81239204Y-52686902D01*
X80748713Y-52483232D01*
X80217617Y-52482769D01*
X79726771Y-52685582D01*
X79350902Y-53060796D01*
X79211909Y-53395527D01*
X79074418Y-53062771D01*
X78699204Y-52686902D01*
X78208713Y-52483232D01*
X77677617Y-52482769D01*
X77186771Y-52685582D01*
X76810902Y-53060796D01*
X76671909Y-53395527D01*
X76534418Y-53062771D01*
X76159204Y-52686902D01*
X75668713Y-52483232D01*
X75137617Y-52482769D01*
X74646771Y-52685582D01*
X74270902Y-53060796D01*
X74131909Y-53395527D01*
X73994418Y-53062771D01*
X73619204Y-52686902D01*
X73128713Y-52483232D01*
X72597617Y-52482769D01*
X72106771Y-52685582D01*
X71730902Y-53060796D01*
X71527232Y-53551287D01*
X71526769Y-54082383D01*
X71729582Y-54573229D01*
X72104796Y-54949098D01*
X72252813Y-55010560D01*
X72162000Y-55010560D01*
X71926683Y-55054838D01*
X71710559Y-55193910D01*
X71565569Y-55406110D01*
X71514560Y-55658000D01*
X71514560Y-56630638D01*
X71054599Y-57090599D01*
X70889852Y-57337161D01*
X70832000Y-57628000D01*
X70832000Y-58045962D01*
X70731683Y-58064838D01*
X70515559Y-58203910D01*
X70370569Y-58416110D01*
X70319560Y-58668000D01*
X70319560Y-59668000D01*
X70363838Y-59903317D01*
X70502910Y-60119441D01*
X70572711Y-60167134D01*
X70515559Y-60203910D01*
X70370569Y-60416110D01*
X70319560Y-60668000D01*
X70319560Y-61668000D01*
X70363838Y-61903317D01*
X70502910Y-62119441D01*
X70715110Y-62264431D01*
X70832000Y-62288102D01*
X70832000Y-63409198D01*
X70515198Y-63726000D01*
X63972000Y-63726000D01*
X63729414Y-63774254D01*
X63681160Y-63783852D01*
X63434599Y-63948599D01*
X59511893Y-67871305D01*
X59402882Y-67798467D01*
X58892000Y-67696846D01*
X58381118Y-67798467D01*
X57948012Y-68087858D01*
X57658621Y-68520964D01*
X57625993Y-68684998D01*
X57491863Y-68684998D01*
X57569720Y-68510769D01*
X57267610Y-68086423D01*
X56899226Y-67840310D01*
X56702000Y-67935029D01*
X56702000Y-68708000D01*
X56745000Y-68708000D01*
X56745000Y-69408000D01*
X56702000Y-69408000D01*
X56702000Y-70180971D01*
X56899226Y-70275690D01*
X57267610Y-70029577D01*
X57569720Y-69605231D01*
X57491863Y-69431002D01*
X57625993Y-69431002D01*
X57658621Y-69595036D01*
X57948012Y-70028142D01*
X58381118Y-70317533D01*
X58892000Y-70419154D01*
X59402882Y-70317533D01*
X59404266Y-70316608D01*
X59402000Y-70328000D01*
X59402000Y-73120811D01*
X59214198Y-73042828D01*
X59018077Y-72911785D01*
X58622000Y-72832999D01*
X58621995Y-72833000D01*
X57410026Y-72833000D01*
X57515327Y-72727698D01*
X57612000Y-72494309D01*
X57612000Y-72276750D01*
X57453250Y-72118000D01*
X56664500Y-72118000D01*
X56664500Y-72261000D01*
X56039500Y-72261000D01*
X56039500Y-72118000D01*
X55250750Y-72118000D01*
X55092000Y-72276750D01*
X55092000Y-72494309D01*
X55188673Y-72727698D01*
X55329910Y-72868936D01*
X55275559Y-72903910D01*
X55130569Y-73116110D01*
X55079560Y-73368000D01*
X55079560Y-74368000D01*
X55123838Y-74603317D01*
X55262910Y-74819441D01*
X55475110Y-74964431D01*
X55727000Y-75015440D01*
X56977000Y-75015440D01*
X57212317Y-74971162D01*
X57318244Y-74903000D01*
X58051933Y-74903000D01*
X58248235Y-75099645D01*
X58665244Y-75272803D01*
X59116775Y-75273197D01*
X59296095Y-75199103D01*
X59130843Y-75364355D01*
X58892000Y-75316846D01*
X58381118Y-75418467D01*
X57948012Y-75707858D01*
X57699440Y-76079874D01*
X57699440Y-75978000D01*
X57655162Y-75742683D01*
X57516090Y-75526559D01*
X57303890Y-75381569D01*
X57052000Y-75330560D01*
X55652000Y-75330560D01*
X55416683Y-75374838D01*
X55200559Y-75513910D01*
X55055569Y-75726110D01*
X55004560Y-75978000D01*
X55004560Y-77378000D01*
X55048838Y-77613317D01*
X55187910Y-77829441D01*
X55400110Y-77974431D01*
X55652000Y-78025440D01*
X57052000Y-78025440D01*
X57287317Y-77981162D01*
X57503441Y-77842090D01*
X57648431Y-77629890D01*
X57699440Y-77378000D01*
X57699440Y-77276126D01*
X57948012Y-77648142D01*
X58381118Y-77937533D01*
X58892000Y-78039154D01*
X59402882Y-77937533D01*
X59835988Y-77648142D01*
X60125379Y-77215036D01*
X60162000Y-77030930D01*
X60198621Y-77215036D01*
X60488012Y-77648142D01*
X60921118Y-77937533D01*
X61432000Y-78039154D01*
X61942882Y-77937533D01*
X62375988Y-77648142D01*
X62665379Y-77215036D01*
X62702000Y-77030930D01*
X62738621Y-77215036D01*
X63028012Y-77648142D01*
X63461118Y-77937533D01*
X63972000Y-78039154D01*
X64482882Y-77937533D01*
X64915988Y-77648142D01*
X65205379Y-77215036D01*
X65242000Y-77030930D01*
X65278621Y-77215036D01*
X65568012Y-77648142D01*
X66001118Y-77937533D01*
X66512000Y-78039154D01*
X67022882Y-77937533D01*
X67455988Y-77648142D01*
X67745379Y-77215036D01*
X67782000Y-77030930D01*
X67818621Y-77215036D01*
X68108012Y-77648142D01*
X68541118Y-77937533D01*
X69052000Y-78039154D01*
X69562882Y-77937533D01*
X69995988Y-77648142D01*
X70285379Y-77215036D01*
X70322000Y-77030930D01*
X70358621Y-77215036D01*
X70648012Y-77648142D01*
X71081118Y-77937533D01*
X71592000Y-78039154D01*
X72102882Y-77937533D01*
X72535988Y-77648142D01*
X72825379Y-77215036D01*
X72862000Y-77030930D01*
X72898621Y-77215036D01*
X73188012Y-77648142D01*
X73621118Y-77937533D01*
X74132000Y-78039154D01*
X74642882Y-77937533D01*
X75075988Y-77648142D01*
X75365379Y-77215036D01*
X75402000Y-77030930D01*
X75438621Y-77215036D01*
X75728012Y-77648142D01*
X76161118Y-77937533D01*
X76672000Y-78039154D01*
X77182882Y-77937533D01*
X77615988Y-77648142D01*
X77905379Y-77215036D01*
X77942000Y-77030930D01*
X77978621Y-77215036D01*
X78268012Y-77648142D01*
X78701118Y-77937533D01*
X79212000Y-78039154D01*
X79722882Y-77937533D01*
X80155988Y-77648142D01*
X80445379Y-77215036D01*
X80547000Y-76704154D01*
X80547000Y-76651846D01*
X80445379Y-76140964D01*
X80155988Y-75707858D01*
X79722882Y-75418467D01*
X79212000Y-75316846D01*
X78701118Y-75418467D01*
X78268012Y-75707858D01*
X77978621Y-76140964D01*
X77942000Y-76325070D01*
X77905379Y-76140964D01*
X77615988Y-75707858D01*
X77432000Y-75584922D01*
X77432000Y-74452802D01*
X77522027Y-74362775D01*
X79981803Y-74362775D01*
X80154233Y-74780086D01*
X80473235Y-75099645D01*
X80890244Y-75272803D01*
X81341775Y-75273197D01*
X81759086Y-75100767D01*
X81957198Y-74903000D01*
X82055203Y-74903000D01*
X82145110Y-74964431D01*
X82397000Y-75015440D01*
X83647000Y-75015440D01*
X83882317Y-74971162D01*
X84098441Y-74832090D01*
X84243431Y-74619890D01*
X84294440Y-74368000D01*
X84294440Y-73368000D01*
X84250162Y-73132683D01*
X84111090Y-72916559D01*
X84042994Y-72870031D01*
X84185327Y-72727698D01*
X84282000Y-72494309D01*
X84282000Y-72276750D01*
X84123250Y-72118000D01*
X83334500Y-72118000D01*
X83334500Y-72261000D01*
X82709500Y-72261000D01*
X82709500Y-72118000D01*
X81920750Y-72118000D01*
X81762000Y-72276750D01*
X81762000Y-72494309D01*
X81858673Y-72727698D01*
X81963974Y-72833000D01*
X81387005Y-72833000D01*
X81387000Y-72832999D01*
X81030513Y-72903910D01*
X80990923Y-72911785D01*
X80793902Y-73043429D01*
X80474914Y-73175233D01*
X80155355Y-73494235D01*
X79982197Y-73911244D01*
X79981803Y-74362775D01*
X77522027Y-74362775D01*
X80643111Y-71241691D01*
X81762000Y-71241691D01*
X81762000Y-71459250D01*
X81920750Y-71618000D01*
X82709500Y-71618000D01*
X82709500Y-70891750D01*
X83334500Y-70891750D01*
X83334500Y-71618000D01*
X84123250Y-71618000D01*
X84282000Y-71459250D01*
X84282000Y-71241691D01*
X84185327Y-71008302D01*
X84006699Y-70829673D01*
X83773310Y-70733000D01*
X83493250Y-70733000D01*
X83334500Y-70891750D01*
X82709500Y-70891750D01*
X82550750Y-70733000D01*
X82270690Y-70733000D01*
X82037301Y-70829673D01*
X81858673Y-71008302D01*
X81762000Y-71241691D01*
X80643111Y-71241691D01*
X81654401Y-70230401D01*
X81819148Y-69983840D01*
X81874765Y-69704235D01*
X82106390Y-70029577D01*
X82474774Y-70275690D01*
X82672000Y-70180971D01*
X82672000Y-69408000D01*
X82629000Y-69408000D01*
X82629000Y-68708000D01*
X82672000Y-68708000D01*
X82672000Y-68665000D01*
X83372000Y-68665000D01*
X83372000Y-68708000D01*
X83415000Y-68708000D01*
X83415000Y-69408000D01*
X83372000Y-69408000D01*
X83372000Y-70180971D01*
X83569226Y-70275690D01*
X83937610Y-70029577D01*
X84239720Y-69605231D01*
X84161863Y-69431002D01*
X84295993Y-69431002D01*
X84328621Y-69595036D01*
X84618012Y-70028142D01*
X85051118Y-70317533D01*
X85562000Y-70419154D01*
X85691879Y-70393319D01*
X85024599Y-71060599D01*
X84859852Y-71307161D01*
X84802000Y-71598000D01*
X84802000Y-75584922D01*
X84618012Y-75707858D01*
X84369440Y-76079874D01*
X84369440Y-75978000D01*
X84325162Y-75742683D01*
X84186090Y-75526559D01*
X83973890Y-75381569D01*
X83722000Y-75330560D01*
X82322000Y-75330560D01*
X82086683Y-75374838D01*
X81870559Y-75513910D01*
X81725569Y-75726110D01*
X81674560Y-75978000D01*
X81674560Y-77378000D01*
X81718838Y-77613317D01*
X81857910Y-77829441D01*
X82070110Y-77974431D01*
X82322000Y-78025440D01*
X83722000Y-78025440D01*
X83957317Y-77981162D01*
X84173441Y-77842090D01*
X84318431Y-77629890D01*
X84369440Y-77378000D01*
X84369440Y-77276126D01*
X84618012Y-77648142D01*
X85051118Y-77937533D01*
X85562000Y-78039154D01*
X86072882Y-77937533D01*
X86505988Y-77648142D01*
X86795379Y-77215036D01*
X86832000Y-77030930D01*
X86868621Y-77215036D01*
X87158012Y-77648142D01*
X87591118Y-77937533D01*
X88102000Y-78039154D01*
X88456496Y-77968640D01*
X88437162Y-78015201D01*
X88436838Y-78387167D01*
X88578883Y-78730943D01*
X88612000Y-78764118D01*
X88612000Y-80498292D01*
X88102000Y-80396846D01*
X87591118Y-80498467D01*
X87158012Y-80787858D01*
X86868621Y-81220964D01*
X86832000Y-81405070D01*
X86795379Y-81220964D01*
X86505988Y-80787858D01*
X86072882Y-80498467D01*
X85562000Y-80396846D01*
X85051118Y-80498467D01*
X84618012Y-80787858D01*
X84328621Y-81220964D01*
X84295993Y-81384998D01*
X84161863Y-81384998D01*
X84239720Y-81210769D01*
X83937610Y-80786423D01*
X83569226Y-80540310D01*
X83372000Y-80635029D01*
X83372000Y-81408000D01*
X83415000Y-81408000D01*
X83415000Y-82108000D01*
X83372000Y-82108000D01*
X83372000Y-82880971D01*
X83569226Y-82975690D01*
X83937610Y-82729577D01*
X84239720Y-82305231D01*
X84161863Y-82131002D01*
X84295993Y-82131002D01*
X84328621Y-82295036D01*
X84618012Y-82728142D01*
X84802000Y-82851078D01*
X84802000Y-83983198D01*
X84282000Y-84503198D01*
X84282000Y-84194998D01*
X84246252Y-84194998D01*
X84282000Y-84159250D01*
X84282000Y-83941691D01*
X84185327Y-83708302D01*
X84006699Y-83529673D01*
X83773310Y-83433000D01*
X83493250Y-83433000D01*
X83334500Y-83591750D01*
X83334500Y-84318000D01*
X83415000Y-84318000D01*
X83415000Y-84818000D01*
X83334500Y-84818000D01*
X83334500Y-84961000D01*
X82709500Y-84961000D01*
X82709500Y-84818000D01*
X82629000Y-84818000D01*
X82629000Y-84318000D01*
X82709500Y-84318000D01*
X82709500Y-83591750D01*
X82550750Y-83433000D01*
X82512000Y-83433000D01*
X82512000Y-82957812D01*
X82672000Y-82880971D01*
X82672000Y-82108000D01*
X82629000Y-82108000D01*
X82629000Y-81408000D01*
X82672000Y-81408000D01*
X82672000Y-80635029D01*
X82512000Y-80558188D01*
X82512000Y-79780463D01*
X82544192Y-79748327D01*
X82686838Y-79404799D01*
X82687162Y-79032833D01*
X82545117Y-78689057D01*
X82282327Y-78425808D01*
X81938799Y-78283162D01*
X81566833Y-78282838D01*
X81223057Y-78424883D01*
X80959808Y-78687673D01*
X80817162Y-79031201D01*
X80816838Y-79403167D01*
X80958883Y-79746943D01*
X80992000Y-79780118D01*
X80992000Y-83475198D01*
X79972000Y-84495198D01*
X79972000Y-82851078D01*
X80155988Y-82728142D01*
X80445379Y-82295036D01*
X80547000Y-81784154D01*
X80547000Y-81731846D01*
X80445379Y-81220964D01*
X80155988Y-80787858D01*
X79722882Y-80498467D01*
X79212000Y-80396846D01*
X78877022Y-80463477D01*
X78877162Y-80302833D01*
X78735117Y-79959057D01*
X78472327Y-79695808D01*
X78128799Y-79553162D01*
X77756833Y-79552838D01*
X77413057Y-79694883D01*
X77149808Y-79957673D01*
X77007162Y-80301201D01*
X77007021Y-80463486D01*
X76672000Y-80396846D01*
X76161118Y-80498467D01*
X75728012Y-80787858D01*
X75438621Y-81220964D01*
X75402000Y-81405070D01*
X75365379Y-81220964D01*
X75075988Y-80787858D01*
X74642882Y-80498467D01*
X74132000Y-80396846D01*
X73621118Y-80498467D01*
X73188012Y-80787858D01*
X72898621Y-81220964D01*
X72862000Y-81405070D01*
X72825379Y-81220964D01*
X72535988Y-80787858D01*
X72102882Y-80498467D01*
X71592000Y-80396846D01*
X71081118Y-80498467D01*
X70648012Y-80787858D01*
X70358621Y-81220964D01*
X70322000Y-81405070D01*
X70285379Y-81220964D01*
X69995988Y-80787858D01*
X69562882Y-80498467D01*
X69052000Y-80396846D01*
X68541118Y-80498467D01*
X68108012Y-80787858D01*
X67818621Y-81220964D01*
X67782000Y-81405070D01*
X67745379Y-81220964D01*
X67455988Y-80787858D01*
X67022882Y-80498467D01*
X66512000Y-80396846D01*
X66001118Y-80498467D01*
X65568012Y-80787858D01*
X65278621Y-81220964D01*
X65242000Y-81405070D01*
X65205379Y-81220964D01*
X64915988Y-80787858D01*
X64482882Y-80498467D01*
X63972000Y-80396846D01*
X63461118Y-80498467D01*
X63028012Y-80787858D01*
X62738621Y-81220964D01*
X62702000Y-81405070D01*
X62665379Y-81220964D01*
X62375988Y-80787858D01*
X61942882Y-80498467D01*
X61432000Y-80396846D01*
X60921118Y-80498467D01*
X60488012Y-80787858D01*
X60198621Y-81220964D01*
X60162000Y-81405070D01*
X60125379Y-81220964D01*
X59835988Y-80787858D01*
X59402882Y-80498467D01*
X58892000Y-80396846D01*
X58381118Y-80498467D01*
X57948012Y-80787858D01*
X57658621Y-81220964D01*
X57625993Y-81384998D01*
X57491863Y-81384998D01*
X57569720Y-81210769D01*
X57267610Y-80786423D01*
X56899226Y-80540310D01*
X56702000Y-80635029D01*
X56702000Y-81408000D01*
X56745000Y-81408000D01*
X56745000Y-82108000D01*
X56702000Y-82108000D01*
X56702000Y-82880971D01*
X56899226Y-82975690D01*
X57267610Y-82729577D01*
X57569720Y-82305231D01*
X57491863Y-82131002D01*
X57625993Y-82131002D01*
X57658621Y-82295036D01*
X57948012Y-82728142D01*
X58381118Y-83017533D01*
X58892000Y-83119154D01*
X59402882Y-83017533D01*
X59835988Y-82728142D01*
X60125379Y-82295036D01*
X60162000Y-82110930D01*
X60198621Y-82295036D01*
X60488012Y-82728142D01*
X60672000Y-82851078D01*
X60672000Y-85253198D01*
X59792080Y-86133118D01*
X59535765Y-85876355D01*
X59214198Y-85742828D01*
X59018077Y-85611785D01*
X58622000Y-85532999D01*
X58621995Y-85533000D01*
X57410026Y-85533000D01*
X57515327Y-85427698D01*
X57612000Y-85194309D01*
X57612000Y-84976750D01*
X57453250Y-84818000D01*
X56664500Y-84818000D01*
X56664500Y-84961000D01*
X56039500Y-84961000D01*
X56039500Y-84818000D01*
X55250750Y-84818000D01*
X55092000Y-84976750D01*
X55092000Y-85194309D01*
X55188673Y-85427698D01*
X55329910Y-85568936D01*
X55275559Y-85603910D01*
X55130569Y-85816110D01*
X55079560Y-86068000D01*
X55079560Y-87068000D01*
X55123838Y-87303317D01*
X55262910Y-87519441D01*
X55475110Y-87664431D01*
X55727000Y-87715440D01*
X56977000Y-87715440D01*
X57212317Y-87671162D01*
X57318244Y-87603000D01*
X58051933Y-87603000D01*
X58220272Y-87771634D01*
X58189852Y-87817161D01*
X58132000Y-88108000D01*
X58132000Y-88284922D01*
X57948012Y-88407858D01*
X57699440Y-88779874D01*
X57699440Y-88678000D01*
X57655162Y-88442683D01*
X57516090Y-88226559D01*
X57303890Y-88081569D01*
X57052000Y-88030560D01*
X55652000Y-88030560D01*
X55416683Y-88074838D01*
X55200559Y-88213910D01*
X55055569Y-88426110D01*
X55004560Y-88678000D01*
X55004560Y-90078000D01*
X55048838Y-90313317D01*
X55187910Y-90529441D01*
X55400110Y-90674431D01*
X55652000Y-90725440D01*
X57052000Y-90725440D01*
X57287317Y-90681162D01*
X57503441Y-90542090D01*
X57648431Y-90329890D01*
X57699440Y-90078000D01*
X57699440Y-89976126D01*
X57948012Y-90348142D01*
X58132000Y-90471078D01*
X58132000Y-91793000D01*
X55082000Y-91793000D01*
X54791161Y-91850852D01*
X54544599Y-92015599D01*
X53909599Y-92650599D01*
X53744852Y-92897161D01*
X53687000Y-93188000D01*
X50764000Y-93188000D01*
X50764000Y-83941691D01*
X55092000Y-83941691D01*
X55092000Y-84159250D01*
X55250750Y-84318000D01*
X56039500Y-84318000D01*
X56039500Y-83591750D01*
X56664500Y-83591750D01*
X56664500Y-84318000D01*
X57453250Y-84318000D01*
X57612000Y-84159250D01*
X57612000Y-83941691D01*
X57515327Y-83708302D01*
X57336699Y-83529673D01*
X57103310Y-83433000D01*
X56823250Y-83433000D01*
X56664500Y-83591750D01*
X56039500Y-83591750D01*
X55880750Y-83433000D01*
X55600690Y-83433000D01*
X55367301Y-83529673D01*
X55188673Y-83708302D01*
X55092000Y-83941691D01*
X50764000Y-83941691D01*
X50764000Y-82305231D01*
X55134280Y-82305231D01*
X55436390Y-82729577D01*
X55804774Y-82975690D01*
X56002000Y-82880971D01*
X56002000Y-82108000D01*
X55222416Y-82108000D01*
X55134280Y-82305231D01*
X50764000Y-82305231D01*
X50764000Y-81210769D01*
X55134280Y-81210769D01*
X55222416Y-81408000D01*
X56002000Y-81408000D01*
X56002000Y-80635029D01*
X55804774Y-80540310D01*
X55436390Y-80786423D01*
X55134280Y-81210769D01*
X50764000Y-81210769D01*
X50764000Y-71241691D01*
X55092000Y-71241691D01*
X55092000Y-71459250D01*
X55250750Y-71618000D01*
X56039500Y-71618000D01*
X56039500Y-70891750D01*
X56664500Y-70891750D01*
X56664500Y-71618000D01*
X57453250Y-71618000D01*
X57612000Y-71459250D01*
X57612000Y-71241691D01*
X57515327Y-71008302D01*
X57336699Y-70829673D01*
X57103310Y-70733000D01*
X56823250Y-70733000D01*
X56664500Y-70891750D01*
X56039500Y-70891750D01*
X55880750Y-70733000D01*
X55600690Y-70733000D01*
X55367301Y-70829673D01*
X55188673Y-71008302D01*
X55092000Y-71241691D01*
X50764000Y-71241691D01*
X50764000Y-69605231D01*
X55134280Y-69605231D01*
X55436390Y-70029577D01*
X55804774Y-70275690D01*
X56002000Y-70180971D01*
X56002000Y-69408000D01*
X55222416Y-69408000D01*
X55134280Y-69605231D01*
X50764000Y-69605231D01*
X50764000Y-68510769D01*
X55134280Y-68510769D01*
X55222416Y-68708000D01*
X56002000Y-68708000D01*
X56002000Y-67935029D01*
X55804774Y-67840310D01*
X55436390Y-68086423D01*
X55134280Y-68510769D01*
X50764000Y-68510769D01*
X50764000Y-60220606D01*
X51959606Y-59025000D01*
X56987000Y-59025000D01*
X57036410Y-59014994D01*
X57076803Y-58987803D01*
X58981803Y-57082803D01*
X59009666Y-57040789D01*
X59019000Y-56993000D01*
X59019000Y-51965606D01*
X60214606Y-50770000D01*
X115989394Y-50770000D01*
X117185000Y-51965606D01*
X117185000Y-51965606D01*
G37*
X117185000Y-51965606D02*
X117185000Y-55723000D01*
X117195006Y-55772410D01*
X117222197Y-55812803D01*
X120397197Y-58987803D01*
X120439211Y-59015666D01*
X120487000Y-59025000D01*
X124244394Y-59025000D01*
X125265000Y-60045606D01*
X125265000Y-132045394D01*
X124244394Y-133066000D01*
X119852000Y-133066000D01*
X119802590Y-133076006D01*
X119762197Y-133103197D01*
X117222197Y-135643197D01*
X117194334Y-135685211D01*
X117185000Y-135733000D01*
X117185000Y-140125394D01*
X116045394Y-141265000D01*
X60158606Y-141265000D01*
X59019000Y-140125394D01*
X59019000Y-135733000D01*
X59008994Y-135683590D01*
X58971336Y-135633830D01*
X57020821Y-134073418D01*
X57622000Y-134193000D01*
X58247687Y-134068543D01*
X58778120Y-133714120D01*
X59132543Y-133183687D01*
X59257000Y-132558000D01*
X59257000Y-108428000D01*
X59132543Y-107802313D01*
X58778120Y-107271880D01*
X58247687Y-106917457D01*
X57622000Y-106793000D01*
X56996313Y-106917457D01*
X56465880Y-107271880D01*
X56111457Y-107802313D01*
X55987000Y-108428000D01*
X55987000Y-132558000D01*
X56111457Y-133183687D01*
X56344356Y-133532246D01*
X55796336Y-133093830D01*
X55751503Y-133070777D01*
X55717000Y-133066000D01*
X51959606Y-133066000D01*
X50764000Y-131870394D01*
X50764000Y-130488000D01*
X52364560Y-130488000D01*
X52364560Y-132088000D01*
X52408838Y-132323317D01*
X52547910Y-132539441D01*
X52760110Y-132684431D01*
X53012000Y-132735440D01*
X54612000Y-132735440D01*
X54847317Y-132691162D01*
X55063441Y-132552090D01*
X55208431Y-132339890D01*
X55259440Y-132088000D01*
X55259440Y-130488000D01*
X55215162Y-130252683D01*
X55076090Y-130036559D01*
X54863890Y-129891569D01*
X54725646Y-129863574D01*
X55027824Y-129561923D01*
X55246750Y-129034691D01*
X55247248Y-128463813D01*
X55029243Y-127936200D01*
X54625923Y-127532176D01*
X54495785Y-127478138D01*
X54623800Y-127425243D01*
X55027824Y-127021923D01*
X55246750Y-126494691D01*
X55247248Y-125923813D01*
X55029243Y-125396200D01*
X54625923Y-124992176D01*
X54495785Y-124938138D01*
X54623800Y-124885243D01*
X55027824Y-124481923D01*
X55246750Y-123954691D01*
X55247248Y-123383813D01*
X55029243Y-122856200D01*
X54625923Y-122452176D01*
X54495785Y-122398138D01*
X54623800Y-122345243D01*
X55027824Y-121941923D01*
X55246750Y-121414691D01*
X55247248Y-120843813D01*
X55029243Y-120316200D01*
X54625923Y-119912176D01*
X54495785Y-119858138D01*
X54623800Y-119805243D01*
X55027824Y-119401923D01*
X55246750Y-118874691D01*
X55247248Y-118303813D01*
X55029243Y-117776200D01*
X54625923Y-117372176D01*
X54397873Y-117277481D01*
X54432058Y-117195559D01*
X53812000Y-116575502D01*
X53191942Y-117195559D01*
X53226100Y-117277417D01*
X53000200Y-117370757D01*
X52596176Y-117774077D01*
X52377250Y-118301309D01*
X52376752Y-118872187D01*
X52594757Y-119399800D01*
X52998077Y-119803824D01*
X53128215Y-119857862D01*
X53000200Y-119910757D01*
X52596176Y-120314077D01*
X52377250Y-120841309D01*
X52376752Y-121412187D01*
X52594757Y-121939800D01*
X52998077Y-122343824D01*
X53128215Y-122397862D01*
X53000200Y-122450757D01*
X52596176Y-122854077D01*
X52377250Y-123381309D01*
X52376752Y-123952187D01*
X52594757Y-124479800D01*
X52998077Y-124883824D01*
X53128215Y-124937862D01*
X53000200Y-124990757D01*
X52596176Y-125394077D01*
X52377250Y-125921309D01*
X52376752Y-126492187D01*
X52594757Y-127019800D01*
X52998077Y-127423824D01*
X53128215Y-127477862D01*
X53000200Y-127530757D01*
X52596176Y-127934077D01*
X52377250Y-128461309D01*
X52376752Y-129032187D01*
X52594757Y-129559800D01*
X52896688Y-129862258D01*
X52776683Y-129884838D01*
X52560559Y-130023910D01*
X52415569Y-130236110D01*
X52364560Y-130488000D01*
X50764000Y-130488000D01*
X50764000Y-116080422D01*
X52349246Y-116080422D01*
X52448184Y-116577817D01*
X52664441Y-116668058D01*
X53284498Y-116048000D01*
X54339502Y-116048000D01*
X54959559Y-116668058D01*
X55175816Y-116577817D01*
X55274754Y-116015578D01*
X55175816Y-115518183D01*
X54959559Y-115427942D01*
X54339502Y-116048000D01*
X53284498Y-116048000D01*
X52664441Y-115427942D01*
X52448184Y-115518183D01*
X52349246Y-116080422D01*
X50764000Y-116080422D01*
X50764000Y-114655559D01*
X53191942Y-114655559D01*
X53243035Y-114778000D01*
X53191942Y-114900441D01*
X53812000Y-115520498D01*
X54432058Y-114900441D01*
X54380965Y-114778000D01*
X54432058Y-114655559D01*
X53812000Y-114035502D01*
X53191942Y-114655559D01*
X50764000Y-114655559D01*
X50764000Y-113540422D01*
X52349246Y-113540422D01*
X52448184Y-114037817D01*
X52664441Y-114128058D01*
X53284498Y-113508000D01*
X54339502Y-113508000D01*
X54959559Y-114128058D01*
X55175816Y-114037817D01*
X55274754Y-113475578D01*
X55175816Y-112978183D01*
X54959559Y-112887942D01*
X54339502Y-113508000D01*
X53284498Y-113508000D01*
X52664441Y-112887942D01*
X52448184Y-112978183D01*
X52349246Y-113540422D01*
X50764000Y-113540422D01*
X50764000Y-108712187D01*
X52376752Y-108712187D01*
X52594757Y-109239800D01*
X52998077Y-109643824D01*
X53128215Y-109697862D01*
X53000200Y-109750757D01*
X52596176Y-110154077D01*
X52377250Y-110681309D01*
X52376752Y-111252187D01*
X52594757Y-111779800D01*
X52998077Y-112183824D01*
X53226127Y-112278519D01*
X53191942Y-112360441D01*
X53812000Y-112980498D01*
X54432058Y-112360441D01*
X54397900Y-112278583D01*
X54623800Y-112185243D01*
X55027824Y-111781923D01*
X55246750Y-111254691D01*
X55247248Y-110683813D01*
X55029243Y-110156200D01*
X54625923Y-109752176D01*
X54495785Y-109698138D01*
X54623800Y-109645243D01*
X55027824Y-109241923D01*
X55246750Y-108714691D01*
X55247248Y-108143813D01*
X55029243Y-107616200D01*
X54625923Y-107212176D01*
X54098691Y-106993250D01*
X53527813Y-106992752D01*
X53000200Y-107210757D01*
X52596176Y-107614077D01*
X52377250Y-108141309D01*
X52376752Y-108712187D01*
X50764000Y-108712187D01*
X50764000Y-93188000D01*
X53687000Y-93188000D01*
X53687000Y-102713000D01*
X53744852Y-103003839D01*
X53909599Y-103250401D01*
X55814599Y-105155401D01*
X56061161Y-105320148D01*
X56352000Y-105378000D01*
X57307198Y-105378000D01*
X62831879Y-110902681D01*
X62702000Y-110876846D01*
X62191118Y-110978467D01*
X61758012Y-111267858D01*
X61468621Y-111700964D01*
X61367000Y-112211846D01*
X61367000Y-112264154D01*
X61468621Y-112775036D01*
X61758012Y-113208142D01*
X62191118Y-113497533D01*
X62702000Y-113599154D01*
X63212000Y-113497708D01*
X63212000Y-118598292D01*
X62702000Y-118496846D01*
X62191118Y-118598467D01*
X61758012Y-118887858D01*
X61468621Y-119320964D01*
X61367000Y-119831846D01*
X61367000Y-119884154D01*
X61468621Y-120395036D01*
X61758012Y-120828142D01*
X62191118Y-121117533D01*
X62243739Y-121128000D01*
X62191118Y-121138467D01*
X61758012Y-121427858D01*
X61468621Y-121860964D01*
X61367000Y-122371846D01*
X61367000Y-122424154D01*
X61468621Y-122935036D01*
X61758012Y-123368142D01*
X62191118Y-123657533D01*
X62702000Y-123759154D01*
X63212882Y-123657533D01*
X63645988Y-123368142D01*
X63935379Y-122935036D01*
X63972000Y-122750930D01*
X64008621Y-122935036D01*
X64298012Y-123368142D01*
X64482000Y-123491078D01*
X64482000Y-127169537D01*
X64449808Y-127201673D01*
X64307162Y-127545201D01*
X64306838Y-127917167D01*
X64448883Y-128260943D01*
X64711673Y-128524192D01*
X65055201Y-128666838D01*
X65191172Y-128666956D01*
X64731118Y-128758467D01*
X64298012Y-129047858D01*
X64008621Y-129480964D01*
X63972000Y-129665070D01*
X63935379Y-129480964D01*
X63645988Y-129047858D01*
X63212882Y-128758467D01*
X62702000Y-128656846D01*
X62191118Y-128758467D01*
X61758012Y-129047858D01*
X61468621Y-129480964D01*
X61367000Y-129991846D01*
X61367000Y-130044154D01*
X61468621Y-130555036D01*
X61758012Y-130988142D01*
X62191118Y-131277533D01*
X62702000Y-131379154D01*
X63212882Y-131277533D01*
X63645988Y-130988142D01*
X63935379Y-130555036D01*
X63972000Y-130370930D01*
X64008621Y-130555036D01*
X64298012Y-130988142D01*
X64399347Y-131055851D01*
X62164599Y-133290599D01*
X61999852Y-133537161D01*
X61942000Y-133828000D01*
X61942000Y-137638000D01*
X61999852Y-137928839D01*
X62164599Y-138175401D01*
X62624560Y-138635362D01*
X62624560Y-139608000D01*
X62668838Y-139843317D01*
X62807910Y-140059441D01*
X63020110Y-140204431D01*
X63272000Y-140255440D01*
X64672000Y-140255440D01*
X64907317Y-140211162D01*
X65123441Y-140072090D01*
X65268431Y-139859890D01*
X65319440Y-139608000D01*
X65319440Y-139517674D01*
X65379582Y-139663229D01*
X65754796Y-140039098D01*
X66245287Y-140242768D01*
X66776383Y-140243231D01*
X67267229Y-140040418D01*
X67643098Y-139665204D01*
X67782091Y-139330473D01*
X67919582Y-139663229D01*
X68294796Y-140039098D01*
X68785287Y-140242768D01*
X69316383Y-140243231D01*
X69807229Y-140040418D01*
X70183098Y-139665204D01*
X70322091Y-139330473D01*
X70459582Y-139663229D01*
X70834796Y-140039098D01*
X71325287Y-140242768D01*
X71856383Y-140243231D01*
X72347229Y-140040418D01*
X72723098Y-139665204D01*
X72862091Y-139330473D01*
X72999582Y-139663229D01*
X73374796Y-140039098D01*
X73865287Y-140242768D01*
X74396383Y-140243231D01*
X74887229Y-140040418D01*
X75263098Y-139665204D01*
X75402091Y-139330473D01*
X75539582Y-139663229D01*
X75914796Y-140039098D01*
X76405287Y-140242768D01*
X76936383Y-140243231D01*
X77427229Y-140040418D01*
X77803098Y-139665204D01*
X77942091Y-139330473D01*
X78079582Y-139663229D01*
X78454796Y-140039098D01*
X78945287Y-140242768D01*
X79476383Y-140243231D01*
X79967229Y-140040418D01*
X80343098Y-139665204D01*
X80482091Y-139330473D01*
X80619582Y-139663229D01*
X80994796Y-140039098D01*
X81485287Y-140242768D01*
X82016383Y-140243231D01*
X82507229Y-140040418D01*
X82883098Y-139665204D01*
X83086768Y-139174713D01*
X83087231Y-138643617D01*
X82884418Y-138152771D01*
X82509204Y-137776902D01*
X82174473Y-137637909D01*
X82507229Y-137500418D01*
X82883098Y-137125204D01*
X83086768Y-136634713D01*
X83087231Y-136103617D01*
X82884418Y-135612771D01*
X82512000Y-135239703D01*
X82512000Y-134142802D01*
X84829401Y-131825401D01*
X84994148Y-131578840D01*
X85033868Y-131379154D01*
X85052000Y-131288000D01*
X85052000Y-121763000D01*
X84994148Y-121472161D01*
X84994148Y-121472160D01*
X84829401Y-121225599D01*
X84152623Y-120548821D01*
X84255379Y-120395036D01*
X84357000Y-119884154D01*
X84357000Y-119831846D01*
X84255379Y-119320964D01*
X83965988Y-118887858D01*
X83532882Y-118598467D01*
X83022000Y-118496846D01*
X82512000Y-118598292D01*
X82512000Y-113585440D01*
X83722000Y-113585440D01*
X83957317Y-113541162D01*
X84173441Y-113402090D01*
X84318431Y-113189890D01*
X84369440Y-112938000D01*
X84369440Y-111538000D01*
X84325162Y-111302683D01*
X84186090Y-111086559D01*
X83973890Y-110941569D01*
X83782000Y-110902710D01*
X83782000Y-107085463D01*
X83814192Y-107053327D01*
X83956838Y-106709799D01*
X83957162Y-106337833D01*
X83815117Y-105994057D01*
X83552327Y-105730808D01*
X83208799Y-105588162D01*
X82836833Y-105587838D01*
X82493057Y-105729883D01*
X82229808Y-105992673D01*
X82105378Y-106292332D01*
X81938799Y-106223162D01*
X81566833Y-106222838D01*
X81223057Y-106364883D01*
X80959808Y-106627673D01*
X80835378Y-106927332D01*
X80668799Y-106858162D01*
X80296833Y-106857838D01*
X79953057Y-106999883D01*
X79689808Y-107262673D01*
X79565378Y-107562332D01*
X79398799Y-107493162D01*
X79026833Y-107492838D01*
X78683057Y-107634883D01*
X78419808Y-107897673D01*
X78295378Y-108197332D01*
X78128799Y-108128162D01*
X77756833Y-108127838D01*
X77413057Y-108269883D01*
X77149808Y-108532673D01*
X77025378Y-108832332D01*
X76858799Y-108763162D01*
X76486833Y-108762838D01*
X76143057Y-108904883D01*
X75879808Y-109167673D01*
X75755378Y-109467332D01*
X75588799Y-109398162D01*
X75216833Y-109397838D01*
X74892000Y-109532056D01*
X74892000Y-106202802D01*
X77209401Y-103885401D01*
X77374148Y-103638840D01*
X77383746Y-103590586D01*
X77432000Y-103348000D01*
X77432000Y-103171078D01*
X77615988Y-103048142D01*
X77905379Y-102615036D01*
X77942000Y-102430930D01*
X77978621Y-102615036D01*
X78268012Y-103048142D01*
X78701118Y-103337533D01*
X79212000Y-103439154D01*
X79722882Y-103337533D01*
X80155988Y-103048142D01*
X80445379Y-102615036D01*
X80547000Y-102104154D01*
X80547000Y-102051846D01*
X80445379Y-101540964D01*
X80155988Y-101107858D01*
X79722882Y-100818467D01*
X79212000Y-100716846D01*
X78701118Y-100818467D01*
X78268012Y-101107858D01*
X77978621Y-101540964D01*
X77942000Y-101725070D01*
X77905379Y-101540964D01*
X77615988Y-101107858D01*
X77432000Y-100984922D01*
X77432000Y-98582802D01*
X78479401Y-97535401D01*
X78644148Y-97288840D01*
X78702000Y-96998000D01*
X78702000Y-96641691D01*
X81762000Y-96641691D01*
X81762000Y-96859250D01*
X81920750Y-97018000D01*
X82709500Y-97018000D01*
X82709500Y-96291750D01*
X82550750Y-96133000D01*
X82270690Y-96133000D01*
X82037301Y-96229673D01*
X81858673Y-96408302D01*
X81762000Y-96641691D01*
X78702000Y-96641691D01*
X78702000Y-95717708D01*
X79212000Y-95819154D01*
X79722882Y-95717533D01*
X80155988Y-95428142D01*
X80438566Y-95005231D01*
X81804280Y-95005231D01*
X82106390Y-95429577D01*
X82474774Y-95675690D01*
X82672000Y-95580971D01*
X82672000Y-94808000D01*
X81892416Y-94808000D01*
X81804280Y-95005231D01*
X80438566Y-95005231D01*
X80445379Y-94995036D01*
X80547000Y-94484154D01*
X80547000Y-94431846D01*
X80445379Y-93920964D01*
X80155988Y-93487858D01*
X79972000Y-93364922D01*
X79972000Y-92232802D01*
X81019401Y-91185401D01*
X81184148Y-90938840D01*
X81242000Y-90648000D01*
X81242000Y-89434802D01*
X81674560Y-89867362D01*
X81674560Y-90078000D01*
X81718838Y-90313317D01*
X81857910Y-90529441D01*
X82070110Y-90674431D01*
X82262000Y-90713290D01*
X82262000Y-92553000D01*
X82319852Y-92843839D01*
X82484599Y-93090401D01*
X82648998Y-93254800D01*
X82648998Y-93323982D01*
X82474774Y-93240310D01*
X82106390Y-93486423D01*
X81804280Y-93910769D01*
X81892416Y-94108000D01*
X82672000Y-94108000D01*
X82672000Y-94065000D01*
X83372000Y-94065000D01*
X83372000Y-94108000D01*
X83415000Y-94108000D01*
X83415000Y-94808000D01*
X83372000Y-94808000D01*
X83372000Y-95580971D01*
X83532000Y-95657812D01*
X83532000Y-96133000D01*
X83493250Y-96133000D01*
X83334500Y-96291750D01*
X83334500Y-97018000D01*
X83415000Y-97018000D01*
X83415000Y-97518000D01*
X83334500Y-97518000D01*
X83334500Y-97661000D01*
X82709500Y-97661000D01*
X82709500Y-97518000D01*
X81920750Y-97518000D01*
X81762000Y-97676750D01*
X81762000Y-97894309D01*
X81858673Y-98127698D01*
X81963974Y-98233000D01*
X81387005Y-98233000D01*
X81387000Y-98232999D01*
X81018362Y-98306327D01*
X80990923Y-98311785D01*
X80793902Y-98443429D01*
X80474914Y-98575233D01*
X80155355Y-98894235D01*
X79982197Y-99311244D01*
X79981803Y-99762775D01*
X80154233Y-100180086D01*
X80473235Y-100499645D01*
X80890244Y-100672803D01*
X81341775Y-100673197D01*
X81759086Y-100500767D01*
X81957198Y-100303000D01*
X82055203Y-100303000D01*
X82145110Y-100364431D01*
X82397000Y-100415440D01*
X82974758Y-100415440D01*
X82659638Y-100730560D01*
X82322000Y-100730560D01*
X82086683Y-100774838D01*
X81870559Y-100913910D01*
X81725569Y-101126110D01*
X81674560Y-101378000D01*
X81674560Y-102778000D01*
X81718838Y-103013317D01*
X81857910Y-103229441D01*
X82070110Y-103374431D01*
X82322000Y-103425440D01*
X83532000Y-103425440D01*
X83532000Y-104618000D01*
X83589852Y-104908839D01*
X83754599Y-105155401D01*
X87342000Y-108742802D01*
X87342000Y-110978292D01*
X86832000Y-110876846D01*
X86321118Y-110978467D01*
X85888012Y-111267858D01*
X85598621Y-111700964D01*
X85497000Y-112211846D01*
X85497000Y-112264154D01*
X85598621Y-112775036D01*
X85888012Y-113208142D01*
X86321118Y-113497533D01*
X86832000Y-113599154D01*
X87342000Y-113497708D01*
X87342000Y-118598292D01*
X86832000Y-118496846D01*
X86321118Y-118598467D01*
X85888012Y-118887858D01*
X85598621Y-119320964D01*
X85497000Y-119831846D01*
X85497000Y-119884154D01*
X85598621Y-120395036D01*
X85888012Y-120828142D01*
X86321118Y-121117533D01*
X86373739Y-121128000D01*
X86321118Y-121138467D01*
X85888012Y-121427858D01*
X85598621Y-121860964D01*
X85497000Y-122371846D01*
X85497000Y-122424154D01*
X85598621Y-122935036D01*
X85888012Y-123368142D01*
X86321118Y-123657533D01*
X86832000Y-123759154D01*
X87342882Y-123657533D01*
X87775988Y-123368142D01*
X88065379Y-122935036D01*
X88102000Y-122750930D01*
X88138621Y-122935036D01*
X88428012Y-123368142D01*
X88861118Y-123657533D01*
X89372000Y-123759154D01*
X89882000Y-123657708D01*
X89882000Y-128758292D01*
X89372000Y-128656846D01*
X88861118Y-128758467D01*
X88428012Y-129047858D01*
X88138621Y-129480964D01*
X88102000Y-129665070D01*
X88065379Y-129480964D01*
X87775988Y-129047858D01*
X87342882Y-128758467D01*
X86832000Y-128656846D01*
X86321118Y-128758467D01*
X85888012Y-129047858D01*
X85598621Y-129480964D01*
X85497000Y-129991846D01*
X85497000Y-130044154D01*
X85598621Y-130555036D01*
X85888012Y-130988142D01*
X86321118Y-131277533D01*
X86832000Y-131379154D01*
X87342882Y-131277533D01*
X87775988Y-130988142D01*
X88065379Y-130555036D01*
X88102000Y-130370930D01*
X88138621Y-130555036D01*
X88428012Y-130988142D01*
X88612000Y-131111078D01*
X88612000Y-136368000D01*
X88669852Y-136658839D01*
X88834599Y-136905401D01*
X90564560Y-138635362D01*
X90564560Y-139608000D01*
X90608838Y-139843317D01*
X90747910Y-140059441D01*
X90960110Y-140204431D01*
X91212000Y-140255440D01*
X92612000Y-140255440D01*
X92847317Y-140211162D01*
X93063441Y-140072090D01*
X93208431Y-139859890D01*
X93259440Y-139608000D01*
X93259440Y-139517674D01*
X93319582Y-139663229D01*
X93694796Y-140039098D01*
X94185287Y-140242768D01*
X94716383Y-140243231D01*
X95207229Y-140040418D01*
X95583098Y-139665204D01*
X95722091Y-139330473D01*
X95859582Y-139663229D01*
X96234796Y-140039098D01*
X96725287Y-140242768D01*
X97256383Y-140243231D01*
X97747229Y-140040418D01*
X98123098Y-139665204D01*
X98262091Y-139330473D01*
X98399582Y-139663229D01*
X98774796Y-140039098D01*
X99265287Y-140242768D01*
X99796383Y-140243231D01*
X100287229Y-140040418D01*
X100663098Y-139665204D01*
X100802091Y-139330473D01*
X100939582Y-139663229D01*
X101314796Y-140039098D01*
X101805287Y-140242768D01*
X102336383Y-140243231D01*
X102827229Y-140040418D01*
X103203098Y-139665204D01*
X103342091Y-139330473D01*
X103479582Y-139663229D01*
X103854796Y-140039098D01*
X104345287Y-140242768D01*
X104876383Y-140243231D01*
X105367229Y-140040418D01*
X105743098Y-139665204D01*
X105882091Y-139330473D01*
X106019582Y-139663229D01*
X106394796Y-140039098D01*
X106885287Y-140242768D01*
X107416383Y-140243231D01*
X107907229Y-140040418D01*
X108283098Y-139665204D01*
X108422091Y-139330473D01*
X108559582Y-139663229D01*
X108934796Y-140039098D01*
X109425287Y-140242768D01*
X109956383Y-140243231D01*
X110447229Y-140040418D01*
X110823098Y-139665204D01*
X111026768Y-139174713D01*
X111027231Y-138643617D01*
X110824418Y-138152771D01*
X110449204Y-137776902D01*
X110114473Y-137637909D01*
X110447229Y-137500418D01*
X110823098Y-137125204D01*
X111026768Y-136634713D01*
X111027231Y-136103617D01*
X110824418Y-135612771D01*
X110452000Y-135239703D01*
X110452000Y-132558000D01*
X110394148Y-132267161D01*
X110394148Y-132267160D01*
X110229401Y-132020599D01*
X109182000Y-130973198D01*
X109182000Y-121763000D01*
X109124148Y-121472161D01*
X109124148Y-121472160D01*
X108959401Y-121225599D01*
X108282623Y-120548821D01*
X108385379Y-120395036D01*
X108487000Y-119884154D01*
X108487000Y-119831846D01*
X108385379Y-119320964D01*
X108095988Y-118887858D01*
X107662882Y-118598467D01*
X107152000Y-118496846D01*
X106642000Y-118598292D01*
X106642000Y-113585440D01*
X107852000Y-113585440D01*
X108087317Y-113541162D01*
X108303441Y-113402090D01*
X108448431Y-113189890D01*
X108499440Y-112938000D01*
X108499440Y-111538000D01*
X108455162Y-111302683D01*
X108316090Y-111086559D01*
X108103890Y-110941569D01*
X107912000Y-110902710D01*
X107912000Y-107085463D01*
X107944192Y-107053327D01*
X108086838Y-106709799D01*
X108087162Y-106337833D01*
X107945117Y-105994057D01*
X107682327Y-105730808D01*
X107338799Y-105588162D01*
X106966833Y-105587838D01*
X106623057Y-105729883D01*
X106359808Y-105992673D01*
X106235378Y-106292332D01*
X106068799Y-106223162D01*
X105696833Y-106222838D01*
X105353057Y-106364883D01*
X105089808Y-106627673D01*
X104965378Y-106927332D01*
X104798799Y-106858162D01*
X104426833Y-106857838D01*
X104083057Y-106999883D01*
X103819808Y-107262673D01*
X103695378Y-107562332D01*
X103528799Y-107493162D01*
X103156833Y-107492838D01*
X102813057Y-107634883D01*
X102549808Y-107897673D01*
X102425378Y-108197332D01*
X102258799Y-108128162D01*
X101886833Y-108127838D01*
X101543057Y-108269883D01*
X101279808Y-108532673D01*
X101155378Y-108832332D01*
X100988799Y-108763162D01*
X100616833Y-108762838D01*
X100273057Y-108904883D01*
X100009808Y-109167673D01*
X99885378Y-109467332D01*
X99718799Y-109398162D01*
X99346833Y-109397838D01*
X99022000Y-109532056D01*
X99022000Y-108742802D01*
X103879401Y-103885401D01*
X104044148Y-103638839D01*
X104102000Y-103348000D01*
X104102000Y-103171078D01*
X104285988Y-103048142D01*
X104575379Y-102615036D01*
X104612000Y-102430930D01*
X104648621Y-102615036D01*
X104938012Y-103048142D01*
X105371118Y-103337533D01*
X105882000Y-103439154D01*
X106392882Y-103337533D01*
X106825988Y-103048142D01*
X107115379Y-102615036D01*
X107217000Y-102104154D01*
X107217000Y-102051846D01*
X107115379Y-101540964D01*
X106825988Y-101107858D01*
X106392882Y-100818467D01*
X105882000Y-100716846D01*
X105371118Y-100818467D01*
X104938012Y-101107858D01*
X104648621Y-101540964D01*
X104612000Y-101725070D01*
X104575379Y-101540964D01*
X104285988Y-101107858D01*
X104184653Y-101040149D01*
X107689401Y-97535401D01*
X107854148Y-97288839D01*
X107912000Y-96998000D01*
X107912000Y-93696000D01*
X107854148Y-93405161D01*
X107854148Y-93405160D01*
X107833060Y-93373600D01*
X107833162Y-93256833D01*
X107691117Y-92913057D01*
X107458291Y-92679824D01*
X107690192Y-92448327D01*
X107832838Y-92104799D01*
X107832941Y-91986579D01*
X107854148Y-91954840D01*
X107912000Y-91664000D01*
X107912000Y-74138000D01*
X109327000Y-74138000D01*
X109327000Y-124938000D01*
X109451457Y-125563687D01*
X109805880Y-126094120D01*
X110336313Y-126448543D01*
X110962000Y-126573000D01*
X111587687Y-126448543D01*
X112118120Y-126094120D01*
X112472543Y-125563687D01*
X112597000Y-124938000D01*
X112597000Y-95135802D01*
X113758000Y-96296802D01*
X113758000Y-117064000D01*
X113815852Y-117354839D01*
X113980599Y-117601401D01*
X114628744Y-118249546D01*
X114607250Y-118301309D01*
X114606752Y-118872187D01*
X114824757Y-119399800D01*
X115228077Y-119803824D01*
X115358215Y-119857862D01*
X115230200Y-119910757D01*
X114826176Y-120314077D01*
X114607250Y-120841309D01*
X114606752Y-121412187D01*
X114824757Y-121939800D01*
X115228077Y-122343824D01*
X115358215Y-122397862D01*
X115230200Y-122450757D01*
X114826176Y-122854077D01*
X114607250Y-123381309D01*
X114606752Y-123952187D01*
X114824757Y-124479800D01*
X115228077Y-124883824D01*
X115358215Y-124937862D01*
X115230200Y-124990757D01*
X114826176Y-125394077D01*
X114607250Y-125921309D01*
X114606752Y-126492187D01*
X114824757Y-127019800D01*
X115228077Y-127423824D01*
X115358215Y-127477862D01*
X115230200Y-127530757D01*
X114826176Y-127934077D01*
X114607250Y-128461309D01*
X114606752Y-129032187D01*
X114824757Y-129559800D01*
X115126688Y-129862258D01*
X115006683Y-129884838D01*
X114790559Y-130023910D01*
X114645569Y-130236110D01*
X114594560Y-130488000D01*
X114594560Y-132088000D01*
X114638838Y-132323317D01*
X114777910Y-132539441D01*
X114990110Y-132684431D01*
X115242000Y-132735440D01*
X116842000Y-132735440D01*
X117077317Y-132691162D01*
X117293441Y-132552090D01*
X117438431Y-132339890D01*
X117489440Y-132088000D01*
X117489440Y-130915362D01*
X120262401Y-128142401D01*
X120427148Y-127895839D01*
X120485000Y-127605000D01*
X120485000Y-93136250D01*
X120602000Y-93019250D01*
X120602000Y-92230500D01*
X121102000Y-92230500D01*
X121102000Y-93019250D01*
X121260750Y-93178000D01*
X121478309Y-93178000D01*
X121711698Y-93081327D01*
X121890327Y-92902699D01*
X121987000Y-92669310D01*
X121987000Y-92389250D01*
X121828250Y-92230500D01*
X121102000Y-92230500D01*
X120602000Y-92230500D01*
X120459000Y-92230500D01*
X120459000Y-91605500D01*
X120602000Y-91605500D01*
X120602000Y-90816750D01*
X121102000Y-90816750D01*
X121102000Y-91605500D01*
X121828250Y-91605500D01*
X121987000Y-91446750D01*
X121987000Y-91166690D01*
X121890327Y-90933301D01*
X121711698Y-90754673D01*
X121478309Y-90658000D01*
X121260750Y-90658000D01*
X121102000Y-90816750D01*
X120602000Y-90816750D01*
X120443250Y-90658000D01*
X120225691Y-90658000D01*
X119992302Y-90754673D01*
X119851064Y-90895910D01*
X119816090Y-90841559D01*
X119603890Y-90696569D01*
X119364491Y-90648090D01*
X119587317Y-90606162D01*
X119803441Y-90467090D01*
X119849969Y-90398994D01*
X119992302Y-90541327D01*
X120225691Y-90638000D01*
X120443250Y-90638000D01*
X120602000Y-90479250D01*
X120602000Y-89690500D01*
X121102000Y-89690500D01*
X121102000Y-90479250D01*
X121260750Y-90638000D01*
X121478309Y-90638000D01*
X121711698Y-90541327D01*
X121890327Y-90362699D01*
X121987000Y-90129310D01*
X121987000Y-89849250D01*
X121828250Y-89690500D01*
X121102000Y-89690500D01*
X120602000Y-89690500D01*
X120459000Y-89690500D01*
X120459000Y-89065500D01*
X120602000Y-89065500D01*
X120602000Y-88276750D01*
X121102000Y-88276750D01*
X121102000Y-89065500D01*
X121828250Y-89065500D01*
X121987000Y-88906750D01*
X121987000Y-88626690D01*
X121890327Y-88393301D01*
X121711698Y-88214673D01*
X121478309Y-88118000D01*
X121260750Y-88118000D01*
X121102000Y-88276750D01*
X120602000Y-88276750D01*
X120443250Y-88118000D01*
X120225691Y-88118000D01*
X119992302Y-88214673D01*
X119851064Y-88355910D01*
X119816090Y-88301559D01*
X119603890Y-88156569D01*
X119364491Y-88108090D01*
X119587317Y-88066162D01*
X119803441Y-87927090D01*
X119849969Y-87858994D01*
X119992302Y-88001327D01*
X120225691Y-88098000D01*
X120443250Y-88098000D01*
X120602000Y-87939250D01*
X120602000Y-87150500D01*
X121102000Y-87150500D01*
X121102000Y-87939250D01*
X121260750Y-88098000D01*
X121478309Y-88098000D01*
X121711698Y-88001327D01*
X121890327Y-87822699D01*
X121987000Y-87589310D01*
X121987000Y-87309250D01*
X121828250Y-87150500D01*
X121102000Y-87150500D01*
X120602000Y-87150500D01*
X120459000Y-87150500D01*
X120459000Y-86525500D01*
X120602000Y-86525500D01*
X120602000Y-85736750D01*
X121102000Y-85736750D01*
X121102000Y-86525500D01*
X121828250Y-86525500D01*
X121987000Y-86366750D01*
X121987000Y-86086690D01*
X121890327Y-85853301D01*
X121711698Y-85674673D01*
X121478309Y-85578000D01*
X121260750Y-85578000D01*
X121102000Y-85736750D01*
X120602000Y-85736750D01*
X120443250Y-85578000D01*
X120225691Y-85578000D01*
X119992302Y-85674673D01*
X119851064Y-85815910D01*
X119816090Y-85761559D01*
X119603890Y-85616569D01*
X119364491Y-85568090D01*
X119587317Y-85526162D01*
X119803441Y-85387090D01*
X119849969Y-85318994D01*
X119992302Y-85461327D01*
X120225691Y-85558000D01*
X120443250Y-85558000D01*
X120602000Y-85399250D01*
X120602000Y-84610500D01*
X121102000Y-84610500D01*
X121102000Y-85399250D01*
X121260750Y-85558000D01*
X121478309Y-85558000D01*
X121711698Y-85461327D01*
X121890327Y-85282699D01*
X121987000Y-85049310D01*
X121987000Y-84769250D01*
X121828250Y-84610500D01*
X121102000Y-84610500D01*
X120602000Y-84610500D01*
X120459000Y-84610500D01*
X120459000Y-83985500D01*
X120602000Y-83985500D01*
X120602000Y-83196750D01*
X121102000Y-83196750D01*
X121102000Y-83985500D01*
X121828250Y-83985500D01*
X121987000Y-83826750D01*
X121987000Y-83546690D01*
X121890327Y-83313301D01*
X121711698Y-83134673D01*
X121478309Y-83038000D01*
X121260750Y-83038000D01*
X121102000Y-83196750D01*
X120602000Y-83196750D01*
X120443250Y-83038000D01*
X120225691Y-83038000D01*
X119992302Y-83134673D01*
X119851064Y-83275910D01*
X119816090Y-83221559D01*
X119603890Y-83076569D01*
X119364491Y-83028090D01*
X119587317Y-82986162D01*
X119803441Y-82847090D01*
X119849969Y-82778994D01*
X119992302Y-82921327D01*
X120225691Y-83018000D01*
X120443250Y-83018000D01*
X120602000Y-82859250D01*
X120602000Y-82070500D01*
X121102000Y-82070500D01*
X121102000Y-82859250D01*
X121260750Y-83018000D01*
X121478309Y-83018000D01*
X121711698Y-82921327D01*
X121890327Y-82742699D01*
X121987000Y-82509310D01*
X121987000Y-82229250D01*
X121828250Y-82070500D01*
X121102000Y-82070500D01*
X120602000Y-82070500D01*
X120459000Y-82070500D01*
X120459000Y-81445500D01*
X120602000Y-81445500D01*
X120602000Y-80656750D01*
X121102000Y-80656750D01*
X121102000Y-81445500D01*
X121828250Y-81445500D01*
X121987000Y-81286750D01*
X121987000Y-81006690D01*
X121890327Y-80773301D01*
X121711698Y-80594673D01*
X121478309Y-80498000D01*
X121260750Y-80498000D01*
X121102000Y-80656750D01*
X120602000Y-80656750D01*
X120443250Y-80498000D01*
X120225691Y-80498000D01*
X119992302Y-80594673D01*
X119851064Y-80735910D01*
X119816090Y-80681559D01*
X119603890Y-80536569D01*
X119364491Y-80488090D01*
X119587317Y-80446162D01*
X119803441Y-80307090D01*
X119851134Y-80237289D01*
X119887910Y-80294441D01*
X120100110Y-80439431D01*
X120352000Y-80490440D01*
X121352000Y-80490440D01*
X121587317Y-80446162D01*
X121803441Y-80307090D01*
X121948431Y-80094890D01*
X121999440Y-79843000D01*
X121999440Y-78593000D01*
X121955162Y-78357683D01*
X121816090Y-78141559D01*
X121737000Y-78087519D01*
X121737000Y-77043005D01*
X121737001Y-77043000D01*
X121669634Y-76704326D01*
X121492567Y-76439326D01*
X121477790Y-76417210D01*
X121477787Y-76417208D01*
X121212790Y-76152210D01*
X121149839Y-76110148D01*
X120925675Y-75960367D01*
X120869484Y-75949190D01*
X120587000Y-75892999D01*
X120586995Y-75893000D01*
X117186171Y-75893000D01*
X116855923Y-75562176D01*
X116774069Y-75528187D01*
X116853800Y-75495243D01*
X117257824Y-75091923D01*
X117476750Y-74564691D01*
X117477248Y-73993813D01*
X117259243Y-73466200D01*
X116855923Y-73062176D01*
X116328691Y-72843250D01*
X115757813Y-72842752D01*
X115230200Y-73060757D01*
X114826176Y-73464077D01*
X114607250Y-73991309D01*
X114606752Y-74562187D01*
X114824757Y-75089800D01*
X115228077Y-75493824D01*
X115309931Y-75527813D01*
X115230200Y-75560757D01*
X114826176Y-75964077D01*
X114607250Y-76491309D01*
X114606752Y-77062187D01*
X114824757Y-77589800D01*
X115228077Y-77993824D01*
X115309931Y-78027813D01*
X115230200Y-78060757D01*
X114826176Y-78464077D01*
X114607250Y-78991309D01*
X114606752Y-79562187D01*
X114629049Y-79616149D01*
X112597000Y-81648198D01*
X112597000Y-74138000D01*
X112472543Y-73512313D01*
X112118120Y-72981880D01*
X111587687Y-72627457D01*
X110962000Y-72503000D01*
X110336313Y-72627457D01*
X109805880Y-72981880D01*
X109451457Y-73512313D01*
X109327000Y-74138000D01*
X107912000Y-74138000D01*
X107912000Y-70328000D01*
X107854148Y-70037161D01*
X107854148Y-70037160D01*
X107689401Y-69790599D01*
X107178170Y-69279368D01*
X107217000Y-69084154D01*
X107217000Y-69031846D01*
X107115379Y-68520964D01*
X106825988Y-68087858D01*
X106392882Y-67798467D01*
X105882000Y-67696846D01*
X105371118Y-67798467D01*
X104938012Y-68087858D01*
X104648621Y-68520964D01*
X104612000Y-68705070D01*
X104575379Y-68520964D01*
X104285988Y-68087858D01*
X103852882Y-67798467D01*
X103342000Y-67696846D01*
X102831118Y-67798467D01*
X102722107Y-67871305D01*
X99291401Y-64440599D01*
X99044839Y-64275852D01*
X98754000Y-64218000D01*
X93124279Y-64218000D01*
X93001090Y-64026559D01*
X92931289Y-63978866D01*
X92988441Y-63942090D01*
X93133431Y-63729890D01*
X93184440Y-63478000D01*
X93184440Y-63215559D01*
X105261942Y-63215559D01*
X105352183Y-63431816D01*
X105914422Y-63530754D01*
X106411817Y-63431816D01*
X106502058Y-63215559D01*
X106367499Y-63081000D01*
X110297000Y-63081000D01*
X110297000Y-64331000D01*
X110587034Y-65043100D01*
X111127499Y-65590003D01*
X111566569Y-65774983D01*
X111859000Y-65694645D01*
X111859000Y-63081000D01*
X112605000Y-63081000D01*
X112605000Y-65694645D01*
X112897431Y-65774983D01*
X113336501Y-65590003D01*
X113876966Y-65043100D01*
X114167000Y-64331000D01*
X114167000Y-63081000D01*
X112605000Y-63081000D01*
X111859000Y-63081000D01*
X110297000Y-63081000D01*
X106367499Y-63081000D01*
X105882000Y-62595502D01*
X105261942Y-63215559D01*
X93184440Y-63215559D01*
X93184440Y-62478000D01*
X93140162Y-62242683D01*
X93048620Y-62100422D01*
X104419246Y-62100422D01*
X104518184Y-62597817D01*
X104734441Y-62688058D01*
X105354498Y-62068000D01*
X106409502Y-62068000D01*
X107029559Y-62688058D01*
X107245816Y-62597817D01*
X107344754Y-62035578D01*
X107245816Y-61538183D01*
X107029559Y-61447942D01*
X106409502Y-62068000D01*
X105354498Y-62068000D01*
X104734441Y-61447942D01*
X104518184Y-61538183D01*
X104419246Y-62100422D01*
X93048620Y-62100422D01*
X93001090Y-62026559D01*
X92788890Y-61881569D01*
X92672000Y-61857898D01*
X92672000Y-60920441D01*
X105261942Y-60920441D01*
X105882000Y-61540498D01*
X106502058Y-60920441D01*
X106411817Y-60704184D01*
X105849578Y-60605246D01*
X105352183Y-60704184D01*
X105261942Y-60920441D01*
X92672000Y-60920441D01*
X92672000Y-58268000D01*
X104247000Y-58268000D01*
X104371457Y-58893687D01*
X104725880Y-59424120D01*
X105256313Y-59778543D01*
X105882000Y-59903000D01*
X111051402Y-59903000D01*
X110587034Y-60372900D01*
X110297000Y-61085000D01*
X110297000Y-62335000D01*
X111859000Y-62335000D01*
X111859000Y-62315000D01*
X112605000Y-62315000D01*
X112605000Y-62335000D01*
X114167000Y-62335000D01*
X114167000Y-61085000D01*
X113876966Y-60372900D01*
X113412598Y-59903000D01*
X113973406Y-59903000D01*
X114174500Y-59943000D01*
X116044760Y-59943000D01*
X116597000Y-60495239D01*
X116597000Y-60681465D01*
X116444293Y-60910008D01*
X116297000Y-61650500D01*
X116297000Y-63765500D01*
X116444293Y-64505992D01*
X116863748Y-65133752D01*
X117491508Y-65553207D01*
X118232000Y-65700500D01*
X118972492Y-65553207D01*
X119600252Y-65133752D01*
X120019707Y-64505992D01*
X120167000Y-63765500D01*
X120167000Y-61650500D01*
X120019707Y-60910008D01*
X119867000Y-60681465D01*
X119867000Y-59818005D01*
X119867001Y-59818000D01*
X119742543Y-59192313D01*
X119565535Y-58927401D01*
X119388120Y-58661880D01*
X119388117Y-58661878D01*
X118097930Y-57371690D01*
X118077207Y-57267508D01*
X117657752Y-56639748D01*
X117029992Y-56220293D01*
X116289500Y-56073000D01*
X114174500Y-56073000D01*
X113434008Y-56220293D01*
X112816347Y-56633000D01*
X105882000Y-56633000D01*
X105256313Y-56757457D01*
X104725880Y-57111880D01*
X104371457Y-57642313D01*
X104247000Y-58268000D01*
X92672000Y-58268000D01*
X92672000Y-55088000D01*
X92614148Y-54797160D01*
X92449401Y-54550599D01*
X91976774Y-54077972D01*
X91977231Y-53553617D01*
X91774418Y-53062771D01*
X91399204Y-52686902D01*
X90908713Y-52483232D01*
X90377617Y-52482769D01*
X89886771Y-52685582D01*
X89510902Y-53060796D01*
X89371909Y-53395527D01*
X89234418Y-53062771D01*
X88859204Y-52686902D01*
X88368713Y-52483232D01*
X87837617Y-52482769D01*
X87346771Y-52685582D01*
X86970902Y-53060796D01*
X86831909Y-53395527D01*
X86694418Y-53062771D01*
X86319204Y-52686902D01*
X85828713Y-52483232D01*
X85297617Y-52482769D01*
X84806771Y-52685582D01*
X84430902Y-53060796D01*
X84291909Y-53395527D01*
X84154418Y-53062771D01*
X83779204Y-52686902D01*
X83288713Y-52483232D01*
X82757617Y-52482769D01*
X82266771Y-52685582D01*
X81890902Y-53060796D01*
X81751909Y-53395527D01*
X81614418Y-53062771D01*
X81239204Y-52686902D01*
X80748713Y-52483232D01*
X80217617Y-52482769D01*
X79726771Y-52685582D01*
X79350902Y-53060796D01*
X79211909Y-53395527D01*
X79074418Y-53062771D01*
X78699204Y-52686902D01*
X78208713Y-52483232D01*
X77677617Y-52482769D01*
X77186771Y-52685582D01*
X76810902Y-53060796D01*
X76671909Y-53395527D01*
X76534418Y-53062771D01*
X76159204Y-52686902D01*
X75668713Y-52483232D01*
X75137617Y-52482769D01*
X74646771Y-52685582D01*
X74270902Y-53060796D01*
X74131909Y-53395527D01*
X73994418Y-53062771D01*
X73619204Y-52686902D01*
X73128713Y-52483232D01*
X72597617Y-52482769D01*
X72106771Y-52685582D01*
X71730902Y-53060796D01*
X71527232Y-53551287D01*
X71526769Y-54082383D01*
X71729582Y-54573229D01*
X72104796Y-54949098D01*
X72252813Y-55010560D01*
X72162000Y-55010560D01*
X71926683Y-55054838D01*
X71710559Y-55193910D01*
X71565569Y-55406110D01*
X71514560Y-55658000D01*
X71514560Y-56630638D01*
X71054599Y-57090599D01*
X70889852Y-57337161D01*
X70832000Y-57628000D01*
X70832000Y-58045962D01*
X70731683Y-58064838D01*
X70515559Y-58203910D01*
X70370569Y-58416110D01*
X70319560Y-58668000D01*
X70319560Y-59668000D01*
X70363838Y-59903317D01*
X70502910Y-60119441D01*
X70572711Y-60167134D01*
X70515559Y-60203910D01*
X70370569Y-60416110D01*
X70319560Y-60668000D01*
X70319560Y-61668000D01*
X70363838Y-61903317D01*
X70502910Y-62119441D01*
X70715110Y-62264431D01*
X70832000Y-62288102D01*
X70832000Y-63409198D01*
X70515198Y-63726000D01*
X63972000Y-63726000D01*
X63729414Y-63774254D01*
X63681160Y-63783852D01*
X63434599Y-63948599D01*
X59511893Y-67871305D01*
X59402882Y-67798467D01*
X58892000Y-67696846D01*
X58381118Y-67798467D01*
X57948012Y-68087858D01*
X57658621Y-68520964D01*
X57625993Y-68684998D01*
X57491863Y-68684998D01*
X57569720Y-68510769D01*
X57267610Y-68086423D01*
X56899226Y-67840310D01*
X56702000Y-67935029D01*
X56702000Y-68708000D01*
X56745000Y-68708000D01*
X56745000Y-69408000D01*
X56702000Y-69408000D01*
X56702000Y-70180971D01*
X56899226Y-70275690D01*
X57267610Y-70029577D01*
X57569720Y-69605231D01*
X57491863Y-69431002D01*
X57625993Y-69431002D01*
X57658621Y-69595036D01*
X57948012Y-70028142D01*
X58381118Y-70317533D01*
X58892000Y-70419154D01*
X59402882Y-70317533D01*
X59404266Y-70316608D01*
X59402000Y-70328000D01*
X59402000Y-73120811D01*
X59214198Y-73042828D01*
X59018077Y-72911785D01*
X58622000Y-72832999D01*
X58621995Y-72833000D01*
X57410026Y-72833000D01*
X57515327Y-72727698D01*
X57612000Y-72494309D01*
X57612000Y-72276750D01*
X57453250Y-72118000D01*
X56664500Y-72118000D01*
X56664500Y-72261000D01*
X56039500Y-72261000D01*
X56039500Y-72118000D01*
X55250750Y-72118000D01*
X55092000Y-72276750D01*
X55092000Y-72494309D01*
X55188673Y-72727698D01*
X55329910Y-72868936D01*
X55275559Y-72903910D01*
X55130569Y-73116110D01*
X55079560Y-73368000D01*
X55079560Y-74368000D01*
X55123838Y-74603317D01*
X55262910Y-74819441D01*
X55475110Y-74964431D01*
X55727000Y-75015440D01*
X56977000Y-75015440D01*
X57212317Y-74971162D01*
X57318244Y-74903000D01*
X58051933Y-74903000D01*
X58248235Y-75099645D01*
X58665244Y-75272803D01*
X59116775Y-75273197D01*
X59296095Y-75199103D01*
X59130843Y-75364355D01*
X58892000Y-75316846D01*
X58381118Y-75418467D01*
X57948012Y-75707858D01*
X57699440Y-76079874D01*
X57699440Y-75978000D01*
X57655162Y-75742683D01*
X57516090Y-75526559D01*
X57303890Y-75381569D01*
X57052000Y-75330560D01*
X55652000Y-75330560D01*
X55416683Y-75374838D01*
X55200559Y-75513910D01*
X55055569Y-75726110D01*
X55004560Y-75978000D01*
X55004560Y-77378000D01*
X55048838Y-77613317D01*
X55187910Y-77829441D01*
X55400110Y-77974431D01*
X55652000Y-78025440D01*
X57052000Y-78025440D01*
X57287317Y-77981162D01*
X57503441Y-77842090D01*
X57648431Y-77629890D01*
X57699440Y-77378000D01*
X57699440Y-77276126D01*
X57948012Y-77648142D01*
X58381118Y-77937533D01*
X58892000Y-78039154D01*
X59402882Y-77937533D01*
X59835988Y-77648142D01*
X60125379Y-77215036D01*
X60162000Y-77030930D01*
X60198621Y-77215036D01*
X60488012Y-77648142D01*
X60921118Y-77937533D01*
X61432000Y-78039154D01*
X61942882Y-77937533D01*
X62375988Y-77648142D01*
X62665379Y-77215036D01*
X62702000Y-77030930D01*
X62738621Y-77215036D01*
X63028012Y-77648142D01*
X63461118Y-77937533D01*
X63972000Y-78039154D01*
X64482882Y-77937533D01*
X64915988Y-77648142D01*
X65205379Y-77215036D01*
X65242000Y-77030930D01*
X65278621Y-77215036D01*
X65568012Y-77648142D01*
X66001118Y-77937533D01*
X66512000Y-78039154D01*
X67022882Y-77937533D01*
X67455988Y-77648142D01*
X67745379Y-77215036D01*
X67782000Y-77030930D01*
X67818621Y-77215036D01*
X68108012Y-77648142D01*
X68541118Y-77937533D01*
X69052000Y-78039154D01*
X69562882Y-77937533D01*
X69995988Y-77648142D01*
X70285379Y-77215036D01*
X70322000Y-77030930D01*
X70358621Y-77215036D01*
X70648012Y-77648142D01*
X71081118Y-77937533D01*
X71592000Y-78039154D01*
X72102882Y-77937533D01*
X72535988Y-77648142D01*
X72825379Y-77215036D01*
X72862000Y-77030930D01*
X72898621Y-77215036D01*
X73188012Y-77648142D01*
X73621118Y-77937533D01*
X74132000Y-78039154D01*
X74642882Y-77937533D01*
X75075988Y-77648142D01*
X75365379Y-77215036D01*
X75402000Y-77030930D01*
X75438621Y-77215036D01*
X75728012Y-77648142D01*
X76161118Y-77937533D01*
X76672000Y-78039154D01*
X77182882Y-77937533D01*
X77615988Y-77648142D01*
X77905379Y-77215036D01*
X77942000Y-77030930D01*
X77978621Y-77215036D01*
X78268012Y-77648142D01*
X78701118Y-77937533D01*
X79212000Y-78039154D01*
X79722882Y-77937533D01*
X80155988Y-77648142D01*
X80445379Y-77215036D01*
X80547000Y-76704154D01*
X80547000Y-76651846D01*
X80445379Y-76140964D01*
X80155988Y-75707858D01*
X79722882Y-75418467D01*
X79212000Y-75316846D01*
X78701118Y-75418467D01*
X78268012Y-75707858D01*
X77978621Y-76140964D01*
X77942000Y-76325070D01*
X77905379Y-76140964D01*
X77615988Y-75707858D01*
X77432000Y-75584922D01*
X77432000Y-74452802D01*
X77522027Y-74362775D01*
X79981803Y-74362775D01*
X80154233Y-74780086D01*
X80473235Y-75099645D01*
X80890244Y-75272803D01*
X81341775Y-75273197D01*
X81759086Y-75100767D01*
X81957198Y-74903000D01*
X82055203Y-74903000D01*
X82145110Y-74964431D01*
X82397000Y-75015440D01*
X83647000Y-75015440D01*
X83882317Y-74971162D01*
X84098441Y-74832090D01*
X84243431Y-74619890D01*
X84294440Y-74368000D01*
X84294440Y-73368000D01*
X84250162Y-73132683D01*
X84111090Y-72916559D01*
X84042994Y-72870031D01*
X84185327Y-72727698D01*
X84282000Y-72494309D01*
X84282000Y-72276750D01*
X84123250Y-72118000D01*
X83334500Y-72118000D01*
X83334500Y-72261000D01*
X82709500Y-72261000D01*
X82709500Y-72118000D01*
X81920750Y-72118000D01*
X81762000Y-72276750D01*
X81762000Y-72494309D01*
X81858673Y-72727698D01*
X81963974Y-72833000D01*
X81387005Y-72833000D01*
X81387000Y-72832999D01*
X81030513Y-72903910D01*
X80990923Y-72911785D01*
X80793902Y-73043429D01*
X80474914Y-73175233D01*
X80155355Y-73494235D01*
X79982197Y-73911244D01*
X79981803Y-74362775D01*
X77522027Y-74362775D01*
X80643111Y-71241691D01*
X81762000Y-71241691D01*
X81762000Y-71459250D01*
X81920750Y-71618000D01*
X82709500Y-71618000D01*
X82709500Y-70891750D01*
X83334500Y-70891750D01*
X83334500Y-71618000D01*
X84123250Y-71618000D01*
X84282000Y-71459250D01*
X84282000Y-71241691D01*
X84185327Y-71008302D01*
X84006699Y-70829673D01*
X83773310Y-70733000D01*
X83493250Y-70733000D01*
X83334500Y-70891750D01*
X82709500Y-70891750D01*
X82550750Y-70733000D01*
X82270690Y-70733000D01*
X82037301Y-70829673D01*
X81858673Y-71008302D01*
X81762000Y-71241691D01*
X80643111Y-71241691D01*
X81654401Y-70230401D01*
X81819148Y-69983840D01*
X81874765Y-69704235D01*
X82106390Y-70029577D01*
X82474774Y-70275690D01*
X82672000Y-70180971D01*
X82672000Y-69408000D01*
X82629000Y-69408000D01*
X82629000Y-68708000D01*
X82672000Y-68708000D01*
X82672000Y-68665000D01*
X83372000Y-68665000D01*
X83372000Y-68708000D01*
X83415000Y-68708000D01*
X83415000Y-69408000D01*
X83372000Y-69408000D01*
X83372000Y-70180971D01*
X83569226Y-70275690D01*
X83937610Y-70029577D01*
X84239720Y-69605231D01*
X84161863Y-69431002D01*
X84295993Y-69431002D01*
X84328621Y-69595036D01*
X84618012Y-70028142D01*
X85051118Y-70317533D01*
X85562000Y-70419154D01*
X85691879Y-70393319D01*
X85024599Y-71060599D01*
X84859852Y-71307161D01*
X84802000Y-71598000D01*
X84802000Y-75584922D01*
X84618012Y-75707858D01*
X84369440Y-76079874D01*
X84369440Y-75978000D01*
X84325162Y-75742683D01*
X84186090Y-75526559D01*
X83973890Y-75381569D01*
X83722000Y-75330560D01*
X82322000Y-75330560D01*
X82086683Y-75374838D01*
X81870559Y-75513910D01*
X81725569Y-75726110D01*
X81674560Y-75978000D01*
X81674560Y-77378000D01*
X81718838Y-77613317D01*
X81857910Y-77829441D01*
X82070110Y-77974431D01*
X82322000Y-78025440D01*
X83722000Y-78025440D01*
X83957317Y-77981162D01*
X84173441Y-77842090D01*
X84318431Y-77629890D01*
X84369440Y-77378000D01*
X84369440Y-77276126D01*
X84618012Y-77648142D01*
X85051118Y-77937533D01*
X85562000Y-78039154D01*
X86072882Y-77937533D01*
X86505988Y-77648142D01*
X86795379Y-77215036D01*
X86832000Y-77030930D01*
X86868621Y-77215036D01*
X87158012Y-77648142D01*
X87591118Y-77937533D01*
X88102000Y-78039154D01*
X88456496Y-77968640D01*
X88437162Y-78015201D01*
X88436838Y-78387167D01*
X88578883Y-78730943D01*
X88612000Y-78764118D01*
X88612000Y-80498292D01*
X88102000Y-80396846D01*
X87591118Y-80498467D01*
X87158012Y-80787858D01*
X86868621Y-81220964D01*
X86832000Y-81405070D01*
X86795379Y-81220964D01*
X86505988Y-80787858D01*
X86072882Y-80498467D01*
X85562000Y-80396846D01*
X85051118Y-80498467D01*
X84618012Y-80787858D01*
X84328621Y-81220964D01*
X84295993Y-81384998D01*
X84161863Y-81384998D01*
X84239720Y-81210769D01*
X83937610Y-80786423D01*
X83569226Y-80540310D01*
X83372000Y-80635029D01*
X83372000Y-81408000D01*
X83415000Y-81408000D01*
X83415000Y-82108000D01*
X83372000Y-82108000D01*
X83372000Y-82880971D01*
X83569226Y-82975690D01*
X83937610Y-82729577D01*
X84239720Y-82305231D01*
X84161863Y-82131002D01*
X84295993Y-82131002D01*
X84328621Y-82295036D01*
X84618012Y-82728142D01*
X84802000Y-82851078D01*
X84802000Y-83983198D01*
X84282000Y-84503198D01*
X84282000Y-84194998D01*
X84246252Y-84194998D01*
X84282000Y-84159250D01*
X84282000Y-83941691D01*
X84185327Y-83708302D01*
X84006699Y-83529673D01*
X83773310Y-83433000D01*
X83493250Y-83433000D01*
X83334500Y-83591750D01*
X83334500Y-84318000D01*
X83415000Y-84318000D01*
X83415000Y-84818000D01*
X83334500Y-84818000D01*
X83334500Y-84961000D01*
X82709500Y-84961000D01*
X82709500Y-84818000D01*
X82629000Y-84818000D01*
X82629000Y-84318000D01*
X82709500Y-84318000D01*
X82709500Y-83591750D01*
X82550750Y-83433000D01*
X82512000Y-83433000D01*
X82512000Y-82957812D01*
X82672000Y-82880971D01*
X82672000Y-82108000D01*
X82629000Y-82108000D01*
X82629000Y-81408000D01*
X82672000Y-81408000D01*
X82672000Y-80635029D01*
X82512000Y-80558188D01*
X82512000Y-79780463D01*
X82544192Y-79748327D01*
X82686838Y-79404799D01*
X82687162Y-79032833D01*
X82545117Y-78689057D01*
X82282327Y-78425808D01*
X81938799Y-78283162D01*
X81566833Y-78282838D01*
X81223057Y-78424883D01*
X80959808Y-78687673D01*
X80817162Y-79031201D01*
X80816838Y-79403167D01*
X80958883Y-79746943D01*
X80992000Y-79780118D01*
X80992000Y-83475198D01*
X79972000Y-84495198D01*
X79972000Y-82851078D01*
X80155988Y-82728142D01*
X80445379Y-82295036D01*
X80547000Y-81784154D01*
X80547000Y-81731846D01*
X80445379Y-81220964D01*
X80155988Y-80787858D01*
X79722882Y-80498467D01*
X79212000Y-80396846D01*
X78877022Y-80463477D01*
X78877162Y-80302833D01*
X78735117Y-79959057D01*
X78472327Y-79695808D01*
X78128799Y-79553162D01*
X77756833Y-79552838D01*
X77413057Y-79694883D01*
X77149808Y-79957673D01*
X77007162Y-80301201D01*
X77007021Y-80463486D01*
X76672000Y-80396846D01*
X76161118Y-80498467D01*
X75728012Y-80787858D01*
X75438621Y-81220964D01*
X75402000Y-81405070D01*
X75365379Y-81220964D01*
X75075988Y-80787858D01*
X74642882Y-80498467D01*
X74132000Y-80396846D01*
X73621118Y-80498467D01*
X73188012Y-80787858D01*
X72898621Y-81220964D01*
X72862000Y-81405070D01*
X72825379Y-81220964D01*
X72535988Y-80787858D01*
X72102882Y-80498467D01*
X71592000Y-80396846D01*
X71081118Y-80498467D01*
X70648012Y-80787858D01*
X70358621Y-81220964D01*
X70322000Y-81405070D01*
X70285379Y-81220964D01*
X69995988Y-80787858D01*
X69562882Y-80498467D01*
X69052000Y-80396846D01*
X68541118Y-80498467D01*
X68108012Y-80787858D01*
X67818621Y-81220964D01*
X67782000Y-81405070D01*
X67745379Y-81220964D01*
X67455988Y-80787858D01*
X67022882Y-80498467D01*
X66512000Y-80396846D01*
X66001118Y-80498467D01*
X65568012Y-80787858D01*
X65278621Y-81220964D01*
X65242000Y-81405070D01*
X65205379Y-81220964D01*
X64915988Y-80787858D01*
X64482882Y-80498467D01*
X63972000Y-80396846D01*
X63461118Y-80498467D01*
X63028012Y-80787858D01*
X62738621Y-81220964D01*
X62702000Y-81405070D01*
X62665379Y-81220964D01*
X62375988Y-80787858D01*
X61942882Y-80498467D01*
X61432000Y-80396846D01*
X60921118Y-80498467D01*
X60488012Y-80787858D01*
X60198621Y-81220964D01*
X60162000Y-81405070D01*
X60125379Y-81220964D01*
X59835988Y-80787858D01*
X59402882Y-80498467D01*
X58892000Y-80396846D01*
X58381118Y-80498467D01*
X57948012Y-80787858D01*
X57658621Y-81220964D01*
X57625993Y-81384998D01*
X57491863Y-81384998D01*
X57569720Y-81210769D01*
X57267610Y-80786423D01*
X56899226Y-80540310D01*
X56702000Y-80635029D01*
X56702000Y-81408000D01*
X56745000Y-81408000D01*
X56745000Y-82108000D01*
X56702000Y-82108000D01*
X56702000Y-82880971D01*
X56899226Y-82975690D01*
X57267610Y-82729577D01*
X57569720Y-82305231D01*
X57491863Y-82131002D01*
X57625993Y-82131002D01*
X57658621Y-82295036D01*
X57948012Y-82728142D01*
X58381118Y-83017533D01*
X58892000Y-83119154D01*
X59402882Y-83017533D01*
X59835988Y-82728142D01*
X60125379Y-82295036D01*
X60162000Y-82110930D01*
X60198621Y-82295036D01*
X60488012Y-82728142D01*
X60672000Y-82851078D01*
X60672000Y-85253198D01*
X59792080Y-86133118D01*
X59535765Y-85876355D01*
X59214198Y-85742828D01*
X59018077Y-85611785D01*
X58622000Y-85532999D01*
X58621995Y-85533000D01*
X57410026Y-85533000D01*
X57515327Y-85427698D01*
X57612000Y-85194309D01*
X57612000Y-84976750D01*
X57453250Y-84818000D01*
X56664500Y-84818000D01*
X56664500Y-84961000D01*
X56039500Y-84961000D01*
X56039500Y-84818000D01*
X55250750Y-84818000D01*
X55092000Y-84976750D01*
X55092000Y-85194309D01*
X55188673Y-85427698D01*
X55329910Y-85568936D01*
X55275559Y-85603910D01*
X55130569Y-85816110D01*
X55079560Y-86068000D01*
X55079560Y-87068000D01*
X55123838Y-87303317D01*
X55262910Y-87519441D01*
X55475110Y-87664431D01*
X55727000Y-87715440D01*
X56977000Y-87715440D01*
X57212317Y-87671162D01*
X57318244Y-87603000D01*
X58051933Y-87603000D01*
X58220272Y-87771634D01*
X58189852Y-87817161D01*
X58132000Y-88108000D01*
X58132000Y-88284922D01*
X57948012Y-88407858D01*
X57699440Y-88779874D01*
X57699440Y-88678000D01*
X57655162Y-88442683D01*
X57516090Y-88226559D01*
X57303890Y-88081569D01*
X57052000Y-88030560D01*
X55652000Y-88030560D01*
X55416683Y-88074838D01*
X55200559Y-88213910D01*
X55055569Y-88426110D01*
X55004560Y-88678000D01*
X55004560Y-90078000D01*
X55048838Y-90313317D01*
X55187910Y-90529441D01*
X55400110Y-90674431D01*
X55652000Y-90725440D01*
X57052000Y-90725440D01*
X57287317Y-90681162D01*
X57503441Y-90542090D01*
X57648431Y-90329890D01*
X57699440Y-90078000D01*
X57699440Y-89976126D01*
X57948012Y-90348142D01*
X58132000Y-90471078D01*
X58132000Y-91793000D01*
X55082000Y-91793000D01*
X54791161Y-91850852D01*
X54544599Y-92015599D01*
X53909599Y-92650599D01*
X53744852Y-92897161D01*
X53687000Y-93188000D01*
X50764000Y-93188000D01*
X50764000Y-83941691D01*
X55092000Y-83941691D01*
X55092000Y-84159250D01*
X55250750Y-84318000D01*
X56039500Y-84318000D01*
X56039500Y-83591750D01*
X56664500Y-83591750D01*
X56664500Y-84318000D01*
X57453250Y-84318000D01*
X57612000Y-84159250D01*
X57612000Y-83941691D01*
X57515327Y-83708302D01*
X57336699Y-83529673D01*
X57103310Y-83433000D01*
X56823250Y-83433000D01*
X56664500Y-83591750D01*
X56039500Y-83591750D01*
X55880750Y-83433000D01*
X55600690Y-83433000D01*
X55367301Y-83529673D01*
X55188673Y-83708302D01*
X55092000Y-83941691D01*
X50764000Y-83941691D01*
X50764000Y-82305231D01*
X55134280Y-82305231D01*
X55436390Y-82729577D01*
X55804774Y-82975690D01*
X56002000Y-82880971D01*
X56002000Y-82108000D01*
X55222416Y-82108000D01*
X55134280Y-82305231D01*
X50764000Y-82305231D01*
X50764000Y-81210769D01*
X55134280Y-81210769D01*
X55222416Y-81408000D01*
X56002000Y-81408000D01*
X56002000Y-80635029D01*
X55804774Y-80540310D01*
X55436390Y-80786423D01*
X55134280Y-81210769D01*
X50764000Y-81210769D01*
X50764000Y-71241691D01*
X55092000Y-71241691D01*
X55092000Y-71459250D01*
X55250750Y-71618000D01*
X56039500Y-71618000D01*
X56039500Y-70891750D01*
X56664500Y-70891750D01*
X56664500Y-71618000D01*
X57453250Y-71618000D01*
X57612000Y-71459250D01*
X57612000Y-71241691D01*
X57515327Y-71008302D01*
X57336699Y-70829673D01*
X57103310Y-70733000D01*
X56823250Y-70733000D01*
X56664500Y-70891750D01*
X56039500Y-70891750D01*
X55880750Y-70733000D01*
X55600690Y-70733000D01*
X55367301Y-70829673D01*
X55188673Y-71008302D01*
X55092000Y-71241691D01*
X50764000Y-71241691D01*
X50764000Y-69605231D01*
X55134280Y-69605231D01*
X55436390Y-70029577D01*
X55804774Y-70275690D01*
X56002000Y-70180971D01*
X56002000Y-69408000D01*
X55222416Y-69408000D01*
X55134280Y-69605231D01*
X50764000Y-69605231D01*
X50764000Y-68510769D01*
X55134280Y-68510769D01*
X55222416Y-68708000D01*
X56002000Y-68708000D01*
X56002000Y-67935029D01*
X55804774Y-67840310D01*
X55436390Y-68086423D01*
X55134280Y-68510769D01*
X50764000Y-68510769D01*
X50764000Y-60220606D01*
X51959606Y-59025000D01*
X56987000Y-59025000D01*
X57036410Y-59014994D01*
X57076803Y-58987803D01*
X58981803Y-57082803D01*
X59009666Y-57040789D01*
X59019000Y-56993000D01*
X59019000Y-51965606D01*
X60214606Y-50770000D01*
X115989394Y-50770000D01*
X117185000Y-51965606D01*
G36*
X56702000Y-94108000D02*
X56745000Y-94108000D01*
X56745000Y-94808000D01*
X56702000Y-94808000D01*
X56702000Y-95580971D01*
X56899226Y-95675690D01*
X57267610Y-95429577D01*
X57569720Y-95005231D01*
X57491863Y-94831002D01*
X57625993Y-94831002D01*
X57658621Y-94995036D01*
X57948012Y-95428142D01*
X58381118Y-95717533D01*
X58892000Y-95819154D01*
X59134719Y-95770874D01*
X59078998Y-96051002D01*
X59078998Y-98352491D01*
X59018077Y-98311785D01*
X58622000Y-98232999D01*
X58621995Y-98233000D01*
X57410026Y-98233000D01*
X57515327Y-98127698D01*
X57612000Y-97894309D01*
X57612000Y-97676750D01*
X57453250Y-97518000D01*
X56664500Y-97518000D01*
X56664500Y-97661000D01*
X56039500Y-97661000D01*
X56039500Y-97518000D01*
X55959000Y-97518000D01*
X55959000Y-97018000D01*
X56039500Y-97018000D01*
X56039500Y-96291750D01*
X56664500Y-96291750D01*
X56664500Y-97018000D01*
X57453250Y-97018000D01*
X57612000Y-96859250D01*
X57612000Y-96641691D01*
X57515327Y-96408302D01*
X57336699Y-96229673D01*
X57103310Y-96133000D01*
X56823250Y-96133000D01*
X56664500Y-96291750D01*
X56039500Y-96291750D01*
X55880750Y-96133000D01*
X55600690Y-96133000D01*
X55367301Y-96229673D01*
X55207000Y-96389975D01*
X55207000Y-95107374D01*
X55436390Y-95429577D01*
X55804774Y-95675690D01*
X56002000Y-95580971D01*
X56002000Y-94808000D01*
X55959000Y-94808000D01*
X55959000Y-94108000D01*
X56002000Y-94108000D01*
X56002000Y-94065000D01*
X56702000Y-94065000D01*
X56702000Y-94108000D01*
X56702000Y-94108000D01*
G37*
X56702000Y-94108000D02*
X56745000Y-94108000D01*
X56745000Y-94808000D01*
X56702000Y-94808000D01*
X56702000Y-95580971D01*
X56899226Y-95675690D01*
X57267610Y-95429577D01*
X57569720Y-95005231D01*
X57491863Y-94831002D01*
X57625993Y-94831002D01*
X57658621Y-94995036D01*
X57948012Y-95428142D01*
X58381118Y-95717533D01*
X58892000Y-95819154D01*
X59134719Y-95770874D01*
X59078998Y-96051002D01*
X59078998Y-98352491D01*
X59018077Y-98311785D01*
X58622000Y-98232999D01*
X58621995Y-98233000D01*
X57410026Y-98233000D01*
X57515327Y-98127698D01*
X57612000Y-97894309D01*
X57612000Y-97676750D01*
X57453250Y-97518000D01*
X56664500Y-97518000D01*
X56664500Y-97661000D01*
X56039500Y-97661000D01*
X56039500Y-97518000D01*
X55959000Y-97518000D01*
X55959000Y-97018000D01*
X56039500Y-97018000D01*
X56039500Y-96291750D01*
X56664500Y-96291750D01*
X56664500Y-97018000D01*
X57453250Y-97018000D01*
X57612000Y-96859250D01*
X57612000Y-96641691D01*
X57515327Y-96408302D01*
X57336699Y-96229673D01*
X57103310Y-96133000D01*
X56823250Y-96133000D01*
X56664500Y-96291750D01*
X56039500Y-96291750D01*
X55880750Y-96133000D01*
X55600690Y-96133000D01*
X55367301Y-96229673D01*
X55207000Y-96389975D01*
X55207000Y-95107374D01*
X55436390Y-95429577D01*
X55804774Y-95675690D01*
X56002000Y-95580971D01*
X56002000Y-94808000D01*
X55959000Y-94808000D01*
X55959000Y-94108000D01*
X56002000Y-94108000D01*
X56002000Y-94065000D01*
X56702000Y-94065000D01*
X56702000Y-94108000D01*
G36*
X116552000Y-116002214D02*
X116552000Y-116093786D01*
X116056142Y-116589644D01*
X116042000Y-116575502D01*
X116027858Y-116589644D01*
X115500356Y-116062142D01*
X115514498Y-116048000D01*
X115500356Y-116033858D01*
X116027858Y-115506356D01*
X116042000Y-115520498D01*
X116056142Y-115506356D01*
X116552000Y-116002214D01*
X116552000Y-116002214D01*
G37*
X116552000Y-116002214D02*
X116552000Y-116093786D01*
X116056142Y-116589644D01*
X116042000Y-116575502D01*
X116027858Y-116589644D01*
X115500356Y-116062142D01*
X115514498Y-116048000D01*
X115500356Y-116033858D01*
X116027858Y-115506356D01*
X116042000Y-115520498D01*
X116056142Y-115506356D01*
X116552000Y-116002214D01*
G36*
X116552000Y-113462214D02*
X116552000Y-113553786D01*
X116056142Y-114049644D01*
X116042000Y-114035502D01*
X116027858Y-114049644D01*
X115500356Y-113522142D01*
X115514498Y-113508000D01*
X115500356Y-113493858D01*
X116027858Y-112966356D01*
X116042000Y-112980498D01*
X116056142Y-112966356D01*
X116552000Y-113462214D01*
X116552000Y-113462214D01*
G37*
X116552000Y-113462214D02*
X116552000Y-113553786D01*
X116056142Y-114049644D01*
X116042000Y-114035502D01*
X116027858Y-114049644D01*
X115500356Y-113522142D01*
X115514498Y-113508000D01*
X115500356Y-113493858D01*
X116027858Y-112966356D01*
X116042000Y-112980498D01*
X116056142Y-112966356D01*
X116552000Y-113462214D01*
G36*
X116415000Y-104245000D02*
X116435000Y-104245000D01*
X116435000Y-104991000D01*
X116415000Y-104991000D01*
X116415000Y-105944250D01*
X116552000Y-106081250D01*
X116552000Y-107085976D01*
X116328691Y-106993250D01*
X115757813Y-106992752D01*
X115278000Y-107191006D01*
X115278000Y-106103000D01*
X115510250Y-106103000D01*
X115669000Y-105944250D01*
X115669000Y-104991000D01*
X115649000Y-104991000D01*
X115649000Y-104245000D01*
X115669000Y-104245000D01*
X115669000Y-104225000D01*
X116415000Y-104225000D01*
X116415000Y-104245000D01*
X116415000Y-104245000D01*
G37*
X116415000Y-104245000D02*
X116435000Y-104245000D01*
X116435000Y-104991000D01*
X116415000Y-104991000D01*
X116415000Y-105944250D01*
X116552000Y-106081250D01*
X116552000Y-107085976D01*
X116328691Y-106993250D01*
X115757813Y-106992752D01*
X115278000Y-107191006D01*
X115278000Y-106103000D01*
X115510250Y-106103000D01*
X115669000Y-105944250D01*
X115669000Y-104991000D01*
X115649000Y-104991000D01*
X115649000Y-104245000D01*
X115669000Y-104245000D01*
X115669000Y-104225000D01*
X116415000Y-104225000D01*
X116415000Y-104245000D01*
G36*
X116552000Y-102032214D02*
X116552000Y-102123786D01*
X116056142Y-102619644D01*
X116042000Y-102605502D01*
X116027858Y-102619644D01*
X115500356Y-102092142D01*
X115514498Y-102078000D01*
X115500356Y-102063858D01*
X116027858Y-101536356D01*
X116042000Y-101550498D01*
X116056142Y-101536356D01*
X116552000Y-102032214D01*
X116552000Y-102032214D01*
G37*
X116552000Y-102032214D02*
X116552000Y-102123786D01*
X116056142Y-102619644D01*
X116042000Y-102605502D01*
X116027858Y-102619644D01*
X115500356Y-102092142D01*
X115514498Y-102078000D01*
X115500356Y-102063858D01*
X116027858Y-101536356D01*
X116042000Y-101550498D01*
X116056142Y-101536356D01*
X116552000Y-102032214D01*
M02*
