M48
;DRILL file {KiCad 4.0.7} date 05/27/21 16:34:55
;FORMAT={-:-/ absolute / metric / decimal}
FMAT,2
METRIC,TZ
T1C0.300
T2C0.500
T3C0.800
T4C0.900
T5C1.000
%
G90
G05
M71
T1
X64.607Y-110.333
X65.242Y-127.732
X65.877Y-109.698
X67.147Y-109.063
X68.417Y-108.428
X69.687Y-107.793
X70.957Y-107.158
X72.227Y-106.523
X75.402Y-110.333
X76.672Y-91.41
X76.672Y-109.698
X77.942Y-80.488
X77.942Y-109.063
X79.212Y-108.428
X80.482Y-107.793
X81.752Y-79.218
X81.752Y-107.158
X83.022Y-106.523
X84.292Y-92.553
X85.562Y-91.41
X88.61Y-91.156
X89.372Y-78.202
X90.007Y-110.333
X91.277Y-109.698
X92.547Y-109.063
X93.817Y-108.428
X95.087Y-107.793
X96.357Y-107.158
X98.897Y-106.523
X99.532Y-110.333
X100.802Y-109.698
X102.072Y-109.063
X103.342Y-108.428
X104.612Y-107.793
X105.12Y-92.426
X105.882Y-107.158
X106.898Y-91.918
X106.898Y-93.442
X107.152Y-106.523
T2
X58.892Y-74.138
X58.892Y-86.838
X58.892Y-99.538
X81.117Y-74.138
X81.117Y-86.838
X81.117Y-99.538
T3
X56.352Y-69.058
X56.352Y-76.678
X56.352Y-81.758
X56.352Y-89.378
X56.352Y-94.458
X56.352Y-102.078
X58.892Y-69.058
X58.892Y-76.678
X58.892Y-81.758
X58.892Y-89.378
X58.892Y-94.458
X58.892Y-102.078
X61.432Y-69.058
X61.432Y-76.678
X61.432Y-81.758
X61.432Y-89.378
X61.432Y-94.458
X61.432Y-102.078
X62.702Y-112.238
X62.702Y-119.858
X62.702Y-122.398
X62.702Y-130.018
X63.972Y-69.058
X63.972Y-76.678
X63.972Y-81.758
X63.972Y-89.378
X63.972Y-94.458
X63.972Y-102.078
X65.242Y-112.238
X65.242Y-119.858
X65.242Y-122.398
X65.242Y-130.018
X66.512Y-69.058
X66.512Y-76.678
X66.512Y-81.758
X66.512Y-89.378
X66.512Y-94.458
X66.512Y-102.078
X67.782Y-112.238
X67.782Y-119.858
X67.782Y-122.398
X67.782Y-130.018
X69.052Y-69.058
X69.052Y-76.678
X69.052Y-81.758
X69.052Y-89.378
X69.052Y-94.458
X69.052Y-102.078
X70.322Y-112.238
X70.322Y-119.858
X70.322Y-122.398
X70.322Y-130.018
X71.592Y-69.058
X71.592Y-76.678
X71.592Y-81.758
X71.592Y-89.378
X71.592Y-94.458
X71.592Y-102.078
X72.862Y-112.238
X72.862Y-119.858
X72.862Y-122.398
X72.862Y-130.018
X74.132Y-69.058
X74.132Y-76.678
X74.132Y-81.758
X74.132Y-89.378
X74.132Y-94.458
X74.132Y-102.078
X75.402Y-112.238
X75.402Y-119.858
X75.402Y-122.398
X75.402Y-130.018
X76.672Y-69.058
X76.672Y-76.678
X76.672Y-81.758
X76.672Y-89.378
X76.672Y-94.458
X76.672Y-102.078
X77.942Y-112.238
X77.942Y-119.858
X77.942Y-122.398
X77.942Y-130.018
X79.212Y-69.058
X79.212Y-76.678
X79.212Y-81.758
X79.212Y-89.378
X79.212Y-94.458
X79.212Y-102.078
X80.482Y-112.238
X80.482Y-119.858
X80.482Y-122.398
X80.482Y-130.018
X83.022Y-69.058
X83.022Y-76.678
X83.022Y-81.758
X83.022Y-89.378
X83.022Y-94.458
X83.022Y-102.078
X83.022Y-112.238
X83.022Y-119.858
X83.022Y-122.398
X83.022Y-130.018
X85.562Y-69.058
X85.562Y-76.678
X85.562Y-81.758
X85.562Y-89.378
X85.562Y-94.458
X85.562Y-102.078
X86.832Y-112.238
X86.832Y-119.858
X86.832Y-122.398
X86.832Y-130.018
X88.102Y-69.058
X88.102Y-76.678
X88.102Y-81.758
X88.102Y-89.378
X88.102Y-94.458
X88.102Y-102.078
X89.372Y-112.238
X89.372Y-119.858
X89.372Y-122.398
X89.372Y-130.018
X90.642Y-69.058
X90.642Y-76.678
X90.642Y-81.758
X90.642Y-89.378
X90.642Y-94.458
X90.642Y-102.078
X91.912Y-112.238
X91.912Y-119.858
X91.912Y-122.398
X91.912Y-130.018
X93.182Y-69.058
X93.182Y-76.678
X93.182Y-81.758
X93.182Y-89.378
X93.182Y-94.458
X93.182Y-102.078
X94.452Y-112.238
X94.452Y-119.858
X94.452Y-122.398
X94.452Y-130.018
X95.722Y-69.058
X95.722Y-76.678
X95.722Y-81.758
X95.722Y-89.378
X95.722Y-94.458
X95.722Y-102.078
X96.992Y-112.238
X96.992Y-119.858
X96.992Y-122.398
X96.992Y-130.018
X98.262Y-69.058
X98.262Y-76.678
X98.262Y-81.758
X98.262Y-89.378
X98.262Y-94.458
X98.262Y-102.078
X99.532Y-112.238
X99.532Y-119.858
X99.532Y-122.398
X99.532Y-130.018
X100.802Y-69.058
X100.802Y-76.678
X100.802Y-81.758
X100.802Y-89.378
X100.802Y-94.458
X100.802Y-102.078
X102.072Y-112.238
X102.072Y-119.858
X102.072Y-122.398
X102.072Y-130.018
X103.342Y-69.058
X103.342Y-76.678
X103.342Y-81.758
X103.342Y-89.378
X103.342Y-94.458
X103.342Y-102.078
X104.612Y-112.238
X104.612Y-119.858
X104.612Y-122.398
X104.612Y-130.018
X105.882Y-58.268
X105.882Y-62.068
X105.882Y-69.058
X105.882Y-76.678
X105.882Y-81.758
X105.882Y-89.378
X105.882Y-94.458
X105.882Y-102.078
X107.152Y-112.238
X107.152Y-119.858
X107.152Y-122.398
X107.152Y-130.018
X108.422Y-71.598
X108.422Y-84.298
X108.422Y-96.998
T4
X63.972Y-136.368
X63.972Y-138.908
X66.512Y-136.368
X66.512Y-138.908
X69.052Y-136.368
X69.052Y-138.908
X71.592Y-136.368
X71.592Y-138.908
X72.862Y-53.818
X72.862Y-56.358
X74.132Y-136.368
X74.132Y-138.908
X75.402Y-53.818
X75.402Y-56.358
X76.672Y-136.368
X76.672Y-138.908
X77.942Y-53.818
X77.942Y-56.358
X79.212Y-136.368
X79.212Y-138.908
X80.482Y-53.818
X80.482Y-56.358
X81.752Y-136.368
X81.752Y-138.908
X83.022Y-53.818
X83.022Y-56.358
X85.562Y-53.818
X85.562Y-56.358
X88.102Y-53.818
X88.102Y-56.358
X90.642Y-53.818
X90.642Y-56.358
X91.912Y-136.368
X91.912Y-138.908
X94.452Y-136.368
X94.452Y-138.908
X96.992Y-136.368
X96.992Y-138.908
X99.532Y-136.368
X99.532Y-138.908
X102.072Y-136.368
X102.072Y-138.908
X104.612Y-136.368
X104.612Y-138.908
X107.152Y-136.368
X107.152Y-138.908
X109.692Y-136.368
X109.692Y-138.908
T5
X53.812Y-108.428
X53.812Y-110.968
X53.812Y-113.508
X53.812Y-116.048
X53.812Y-118.588
X53.812Y-121.128
X53.812Y-123.668
X53.812Y-126.208
X53.812Y-128.748
X53.812Y-131.288
X57.622Y-108.428
X57.622Y-112.238
X57.622Y-124.938
X57.622Y-132.558
X110.962Y-74.138
X110.962Y-76.678
X110.962Y-86.838
X110.962Y-99.538
X110.962Y-114.778
X110.962Y-124.938
X116.042Y-74.278
X116.042Y-76.778
X116.042Y-79.278
X116.042Y-81.778
X116.042Y-84.278
X116.042Y-86.778
X116.042Y-89.278
X116.042Y-91.778
X116.042Y-96.998
X116.042Y-99.538
X116.042Y-102.078
X116.042Y-104.618
X116.042Y-108.428
X116.042Y-110.968
X116.042Y-113.508
X116.042Y-116.048
X116.042Y-118.588
X116.042Y-121.128
X116.042Y-123.668
X116.042Y-126.208
X116.042Y-128.748
X116.042Y-131.288
X121.122Y-102.078
X121.122Y-104.618
X121.122Y-113.508
X121.122Y-116.048
T5
X112.232Y-63.958G85X112.232Y-61.458
G05
X116.482Y-58.008G85X113.982Y-58.008
G05
X118.232Y-63.958G85X118.232Y-61.458
G05
T0
M30
