G04 #@! TF.FileFunction,Soldermask,Top*
%FSLAX46Y46*%
G04 Gerber Fmt 4.6, Leading zero omitted, Abs format (unit mm)*
G04 Created by KiCad (PCBNEW 4.0.7) date 05/27/21 16:34:53*
%MOMM*%
%LPD*%
G01*
G04 APERTURE LIST*
%ADD10C,0.100000*%
%ADD11C,0.500000*%
%ADD12C,3.900000*%
%ADD13R,1.800000X1.800000*%
%ADD14C,1.800000*%
%ADD15C,2.000000*%
%ADD16O,3.000000X5.500000*%
%ADD17O,3.000000X5.000000*%
%ADD18O,5.000000X3.000000*%
%ADD19R,2.000000X2.000000*%
%ADD20O,1.800000X1.800000*%
%ADD21R,1.400000X1.650000*%
%ADD22R,2.100000X2.100000*%
%ADD23C,2.100000*%
G04 APERTURE END LIST*
D10*
D11*
X124000000Y-50000000D02*
X52000000Y-50000000D01*
X126000000Y-52000000D02*
X124000000Y-50000000D01*
X126000000Y-140000000D02*
X126000000Y-52000000D01*
X124000000Y-142000000D02*
X126000000Y-140000000D01*
X52000000Y-142000000D02*
X124000000Y-142000000D01*
X50000000Y-140000000D02*
X52000000Y-142000000D01*
X50000000Y-52000000D02*
X50000000Y-140000000D01*
X52000000Y-50000000D02*
X50000000Y-52000000D01*
D12*
X54000000Y-54000000D03*
X122000000Y-54000000D03*
X122000000Y-138000000D03*
X54000000Y-138000000D03*
D13*
X63972000Y-138908000D03*
D14*
X63972000Y-136368000D03*
X66512000Y-138908000D03*
X66512000Y-136368000D03*
X69052000Y-138908000D03*
X69052000Y-136368000D03*
X71592000Y-138908000D03*
X71592000Y-136368000D03*
X74132000Y-138908000D03*
X74132000Y-136368000D03*
X76672000Y-138908000D03*
X76672000Y-136368000D03*
X79212000Y-138908000D03*
X79212000Y-136368000D03*
X81752000Y-138908000D03*
X81752000Y-136368000D03*
D13*
X91912000Y-138908000D03*
D14*
X91912000Y-136368000D03*
X94452000Y-138908000D03*
X94452000Y-136368000D03*
X96992000Y-138908000D03*
X96992000Y-136368000D03*
X99532000Y-138908000D03*
X99532000Y-136368000D03*
X102072000Y-138908000D03*
X102072000Y-136368000D03*
X104612000Y-138908000D03*
X104612000Y-136368000D03*
X107152000Y-138908000D03*
X107152000Y-136368000D03*
X109692000Y-138908000D03*
X109692000Y-136368000D03*
D13*
X72862000Y-56358000D03*
D14*
X72862000Y-53818000D03*
X75402000Y-56358000D03*
X75402000Y-53818000D03*
X77942000Y-56358000D03*
X77942000Y-53818000D03*
X80482000Y-56358000D03*
X80482000Y-53818000D03*
X83022000Y-56358000D03*
X83022000Y-53818000D03*
X85562000Y-56358000D03*
X85562000Y-53818000D03*
X88102000Y-56358000D03*
X88102000Y-53818000D03*
X90642000Y-56358000D03*
X90642000Y-53818000D03*
D15*
X105882000Y-62068000D03*
X105882000Y-58268000D03*
D16*
X112232000Y-62708000D03*
D17*
X118232000Y-62708000D03*
D18*
X115232000Y-58008000D03*
D19*
X116042000Y-91778000D03*
D15*
X116042000Y-89278000D03*
X116042000Y-86778000D03*
X116042000Y-84278000D03*
X116042000Y-81778000D03*
X116042000Y-79278000D03*
X116042000Y-76778000D03*
X116042000Y-74278000D03*
D19*
X116042000Y-131288000D03*
D15*
X116042000Y-128748000D03*
X116042000Y-126208000D03*
X116042000Y-123668000D03*
X116042000Y-121128000D03*
X116042000Y-118588000D03*
X116042000Y-116048000D03*
X116042000Y-113508000D03*
X116042000Y-110968000D03*
X116042000Y-108428000D03*
X53812000Y-121128000D03*
X53812000Y-118588000D03*
X53812000Y-116048000D03*
X53812000Y-113508000D03*
X53812000Y-110968000D03*
X53812000Y-108428000D03*
X53812000Y-123668000D03*
X53812000Y-126208000D03*
X53812000Y-128748000D03*
D19*
X53812000Y-131288000D03*
D13*
X83022000Y-122398000D03*
D20*
X65242000Y-130018000D03*
X80482000Y-122398000D03*
X67782000Y-130018000D03*
X77942000Y-122398000D03*
X70322000Y-130018000D03*
X75402000Y-122398000D03*
X72862000Y-130018000D03*
X72862000Y-122398000D03*
X75402000Y-130018000D03*
X70322000Y-122398000D03*
X77942000Y-130018000D03*
X67782000Y-122398000D03*
X80482000Y-130018000D03*
X65242000Y-122398000D03*
X83022000Y-130018000D03*
X62702000Y-122398000D03*
X62702000Y-130018000D03*
D13*
X83022000Y-112238000D03*
D20*
X65242000Y-119858000D03*
X80482000Y-112238000D03*
X67782000Y-119858000D03*
X77942000Y-112238000D03*
X70322000Y-119858000D03*
X75402000Y-112238000D03*
X72862000Y-119858000D03*
X72862000Y-112238000D03*
X75402000Y-119858000D03*
X70322000Y-112238000D03*
X77942000Y-119858000D03*
X67782000Y-112238000D03*
X80482000Y-119858000D03*
X65242000Y-112238000D03*
X83022000Y-119858000D03*
X62702000Y-112238000D03*
X62702000Y-119858000D03*
D13*
X107152000Y-122398000D03*
D20*
X89372000Y-130018000D03*
X104612000Y-122398000D03*
X91912000Y-130018000D03*
X102072000Y-122398000D03*
X94452000Y-130018000D03*
X99532000Y-122398000D03*
X96992000Y-130018000D03*
X96992000Y-122398000D03*
X99532000Y-130018000D03*
X94452000Y-122398000D03*
X102072000Y-130018000D03*
X91912000Y-122398000D03*
X104612000Y-130018000D03*
X89372000Y-122398000D03*
X107152000Y-130018000D03*
X86832000Y-122398000D03*
X86832000Y-130018000D03*
D13*
X107152000Y-112238000D03*
D20*
X89372000Y-119858000D03*
X104612000Y-112238000D03*
X91912000Y-119858000D03*
X102072000Y-112238000D03*
X94452000Y-119858000D03*
X99532000Y-112238000D03*
X96992000Y-119858000D03*
X96992000Y-112238000D03*
X99532000Y-119858000D03*
X94452000Y-112238000D03*
X102072000Y-119858000D03*
X91912000Y-112238000D03*
X104612000Y-119858000D03*
X89372000Y-112238000D03*
X107152000Y-119858000D03*
X86832000Y-112238000D03*
X86832000Y-119858000D03*
D13*
X56352000Y-102078000D03*
D20*
X74132000Y-94458000D03*
X58892000Y-102078000D03*
X71592000Y-94458000D03*
X61432000Y-102078000D03*
X69052000Y-94458000D03*
X63972000Y-102078000D03*
X66512000Y-94458000D03*
X66512000Y-102078000D03*
X63972000Y-94458000D03*
X69052000Y-102078000D03*
X61432000Y-94458000D03*
X71592000Y-102078000D03*
X58892000Y-94458000D03*
X74132000Y-102078000D03*
X56352000Y-94458000D03*
X76672000Y-102078000D03*
X79212000Y-102078000D03*
X79212000Y-94458000D03*
X76672000Y-94458000D03*
D13*
X56352000Y-89378000D03*
D20*
X74132000Y-81758000D03*
X58892000Y-89378000D03*
X71592000Y-81758000D03*
X61432000Y-89378000D03*
X69052000Y-81758000D03*
X63972000Y-89378000D03*
X66512000Y-81758000D03*
X66512000Y-89378000D03*
X63972000Y-81758000D03*
X69052000Y-89378000D03*
X61432000Y-81758000D03*
X71592000Y-89378000D03*
X58892000Y-81758000D03*
X74132000Y-89378000D03*
X56352000Y-81758000D03*
X76672000Y-89378000D03*
X79212000Y-89378000D03*
X79212000Y-81758000D03*
X76672000Y-81758000D03*
D13*
X83022000Y-102078000D03*
D20*
X100802000Y-94458000D03*
X85562000Y-102078000D03*
X98262000Y-94458000D03*
X88102000Y-102078000D03*
X95722000Y-94458000D03*
X90642000Y-102078000D03*
X93182000Y-94458000D03*
X93182000Y-102078000D03*
X90642000Y-94458000D03*
X95722000Y-102078000D03*
X88102000Y-94458000D03*
X98262000Y-102078000D03*
X85562000Y-94458000D03*
X100802000Y-102078000D03*
X83022000Y-94458000D03*
X103342000Y-102078000D03*
X105882000Y-102078000D03*
X105882000Y-94458000D03*
X103342000Y-94458000D03*
D13*
X83022000Y-89378000D03*
D20*
X100802000Y-81758000D03*
X85562000Y-89378000D03*
X98262000Y-81758000D03*
X88102000Y-89378000D03*
X95722000Y-81758000D03*
X90642000Y-89378000D03*
X93182000Y-81758000D03*
X93182000Y-89378000D03*
X90642000Y-81758000D03*
X95722000Y-89378000D03*
X88102000Y-81758000D03*
X98262000Y-89378000D03*
X85562000Y-81758000D03*
X100802000Y-89378000D03*
X83022000Y-81758000D03*
X103342000Y-89378000D03*
X105882000Y-89378000D03*
X105882000Y-81758000D03*
X103342000Y-81758000D03*
D13*
X56352000Y-76678000D03*
D20*
X74132000Y-69058000D03*
X58892000Y-76678000D03*
X71592000Y-69058000D03*
X61432000Y-76678000D03*
X69052000Y-69058000D03*
X63972000Y-76678000D03*
X66512000Y-69058000D03*
X66512000Y-76678000D03*
X63972000Y-69058000D03*
X69052000Y-76678000D03*
X61432000Y-69058000D03*
X71592000Y-76678000D03*
X58892000Y-69058000D03*
X74132000Y-76678000D03*
X56352000Y-69058000D03*
X76672000Y-76678000D03*
X79212000Y-76678000D03*
X79212000Y-69058000D03*
X76672000Y-69058000D03*
D13*
X83022000Y-76678000D03*
D20*
X100802000Y-69058000D03*
X85562000Y-76678000D03*
X98262000Y-69058000D03*
X88102000Y-76678000D03*
X95722000Y-69058000D03*
X90642000Y-76678000D03*
X93182000Y-69058000D03*
X93182000Y-76678000D03*
X90642000Y-69058000D03*
X95722000Y-76678000D03*
X88102000Y-69058000D03*
X98262000Y-76678000D03*
X85562000Y-69058000D03*
X100802000Y-76678000D03*
X83022000Y-69058000D03*
X103342000Y-76678000D03*
X105882000Y-76678000D03*
X105882000Y-69058000D03*
X103342000Y-69058000D03*
D21*
X116312000Y-70328000D03*
X118312000Y-70328000D03*
X120757000Y-70328000D03*
X122757000Y-70328000D03*
D22*
X116042000Y-104618000D03*
D23*
X116042000Y-102078000D03*
X116042000Y-99538000D03*
X116042000Y-96998000D03*
M02*
