G04 #@! TF.FileFunction,Legend,Bot*
%FSLAX46Y46*%
G04 Gerber Fmt 4.6, Leading zero omitted, Abs format (unit mm)*
G04 Created by KiCad (PCBNEW 4.0.7) date 05/27/21 16:34:53*
%MOMM*%
%LPD*%
G01*
G04 APERTURE LIST*
%ADD10C,0.100000*%
%ADD11C,0.300000*%
%ADD12C,0.150000*%
G04 APERTURE END LIST*
D10*
D11*
X82172000Y-86568000D02*
X82172000Y-84568000D01*
X83872000Y-84568000D02*
X83872000Y-86568000D01*
X55502000Y-99268000D02*
X55502000Y-97268000D01*
X57202000Y-97268000D02*
X57202000Y-99268000D01*
X55502000Y-86568000D02*
X55502000Y-84568000D01*
X57202000Y-84568000D02*
X57202000Y-86568000D01*
X82172000Y-99268000D02*
X82172000Y-97268000D01*
X83872000Y-97268000D02*
X83872000Y-99268000D01*
X55502000Y-73868000D02*
X55502000Y-71868000D01*
X57202000Y-71868000D02*
X57202000Y-73868000D01*
X82172000Y-73868000D02*
X82172000Y-71868000D01*
X83872000Y-71868000D02*
X83872000Y-73868000D01*
X70742000Y-61168000D02*
X70742000Y-59168000D01*
X72442000Y-59168000D02*
X72442000Y-61168000D01*
X72012000Y-64978000D02*
X72012000Y-62978000D01*
X73712000Y-62978000D02*
X73712000Y-64978000D01*
X73282000Y-61168000D02*
X73282000Y-59168000D01*
X74982000Y-59168000D02*
X74982000Y-61168000D01*
X74552000Y-64978000D02*
X74552000Y-62978000D01*
X76252000Y-62978000D02*
X76252000Y-64978000D01*
X75822000Y-61168000D02*
X75822000Y-59168000D01*
X77522000Y-59168000D02*
X77522000Y-61168000D01*
X77092000Y-64978000D02*
X77092000Y-62978000D01*
X78792000Y-62978000D02*
X78792000Y-64978000D01*
X78362000Y-61168000D02*
X78362000Y-59168000D01*
X80062000Y-59168000D02*
X80062000Y-61168000D01*
X79632000Y-64978000D02*
X79632000Y-62978000D01*
X81332000Y-62978000D02*
X81332000Y-64978000D01*
X82172000Y-61168000D02*
X82172000Y-59168000D01*
X83872000Y-59168000D02*
X83872000Y-61168000D01*
X83442000Y-64978000D02*
X83442000Y-62978000D01*
X85142000Y-62978000D02*
X85142000Y-64978000D01*
X84712000Y-61168000D02*
X84712000Y-59168000D01*
X86412000Y-59168000D02*
X86412000Y-61168000D01*
X85982000Y-64978000D02*
X85982000Y-62978000D01*
X87682000Y-62978000D02*
X87682000Y-64978000D01*
X87252000Y-61168000D02*
X87252000Y-59168000D01*
X88952000Y-59168000D02*
X88952000Y-61168000D01*
X88522000Y-64978000D02*
X88522000Y-62978000D01*
X90222000Y-62978000D02*
X90222000Y-64978000D01*
X89792000Y-61168000D02*
X89792000Y-59168000D01*
X91492000Y-59168000D02*
X91492000Y-61168000D01*
X91062000Y-64978000D02*
X91062000Y-62978000D01*
X92762000Y-62978000D02*
X92762000Y-64978000D01*
X120852000Y-92768000D02*
X118852000Y-92768000D01*
X118852000Y-91068000D02*
X120852000Y-91068000D01*
X120852000Y-90228000D02*
X118852000Y-90228000D01*
X118852000Y-88528000D02*
X120852000Y-88528000D01*
X120852000Y-87688000D02*
X118852000Y-87688000D01*
X118852000Y-85988000D02*
X120852000Y-85988000D01*
X120852000Y-85148000D02*
X118852000Y-85148000D01*
X118852000Y-83448000D02*
X120852000Y-83448000D01*
X120852000Y-82608000D02*
X118852000Y-82608000D01*
X118852000Y-80908000D02*
X120852000Y-80908000D01*
X120852000Y-80068000D02*
X118852000Y-80068000D01*
X118852000Y-78368000D02*
X120852000Y-78368000D01*
D12*
X85474666Y-85925143D02*
X85522285Y-85972762D01*
X85665142Y-86020381D01*
X85760380Y-86020381D01*
X85903238Y-85972762D01*
X85998476Y-85877524D01*
X86046095Y-85782286D01*
X86093714Y-85591810D01*
X86093714Y-85448952D01*
X86046095Y-85258476D01*
X85998476Y-85163238D01*
X85903238Y-85068000D01*
X85760380Y-85020381D01*
X85665142Y-85020381D01*
X85522285Y-85068000D01*
X85474666Y-85115619D01*
X84522285Y-86020381D02*
X85093714Y-86020381D01*
X84808000Y-86020381D02*
X84808000Y-85020381D01*
X84903238Y-85163238D01*
X84998476Y-85258476D01*
X85093714Y-85306095D01*
X58804666Y-98371143D02*
X58852285Y-98418762D01*
X58995142Y-98466381D01*
X59090380Y-98466381D01*
X59233238Y-98418762D01*
X59328476Y-98323524D01*
X59376095Y-98228286D01*
X59423714Y-98037810D01*
X59423714Y-97894952D01*
X59376095Y-97704476D01*
X59328476Y-97609238D01*
X59233238Y-97514000D01*
X59090380Y-97466381D01*
X58995142Y-97466381D01*
X58852285Y-97514000D01*
X58804666Y-97561619D01*
X58423714Y-97561619D02*
X58376095Y-97514000D01*
X58280857Y-97466381D01*
X58042761Y-97466381D01*
X57947523Y-97514000D01*
X57899904Y-97561619D01*
X57852285Y-97656857D01*
X57852285Y-97752095D01*
X57899904Y-97894952D01*
X58471333Y-98466381D01*
X57852285Y-98466381D01*
X58804666Y-85925143D02*
X58852285Y-85972762D01*
X58995142Y-86020381D01*
X59090380Y-86020381D01*
X59233238Y-85972762D01*
X59328476Y-85877524D01*
X59376095Y-85782286D01*
X59423714Y-85591810D01*
X59423714Y-85448952D01*
X59376095Y-85258476D01*
X59328476Y-85163238D01*
X59233238Y-85068000D01*
X59090380Y-85020381D01*
X58995142Y-85020381D01*
X58852285Y-85068000D01*
X58804666Y-85115619D01*
X58471333Y-85020381D02*
X57852285Y-85020381D01*
X58185619Y-85401333D01*
X58042761Y-85401333D01*
X57947523Y-85448952D01*
X57899904Y-85496571D01*
X57852285Y-85591810D01*
X57852285Y-85829905D01*
X57899904Y-85925143D01*
X57947523Y-85972762D01*
X58042761Y-86020381D01*
X58328476Y-86020381D01*
X58423714Y-85972762D01*
X58471333Y-85925143D01*
X85474666Y-98625143D02*
X85522285Y-98672762D01*
X85665142Y-98720381D01*
X85760380Y-98720381D01*
X85903238Y-98672762D01*
X85998476Y-98577524D01*
X86046095Y-98482286D01*
X86093714Y-98291810D01*
X86093714Y-98148952D01*
X86046095Y-97958476D01*
X85998476Y-97863238D01*
X85903238Y-97768000D01*
X85760380Y-97720381D01*
X85665142Y-97720381D01*
X85522285Y-97768000D01*
X85474666Y-97815619D01*
X84617523Y-98053714D02*
X84617523Y-98720381D01*
X84855619Y-97672762D02*
X85093714Y-98387048D01*
X84474666Y-98387048D01*
X58804666Y-73225143D02*
X58852285Y-73272762D01*
X58995142Y-73320381D01*
X59090380Y-73320381D01*
X59233238Y-73272762D01*
X59328476Y-73177524D01*
X59376095Y-73082286D01*
X59423714Y-72891810D01*
X59423714Y-72748952D01*
X59376095Y-72558476D01*
X59328476Y-72463238D01*
X59233238Y-72368000D01*
X59090380Y-72320381D01*
X58995142Y-72320381D01*
X58852285Y-72368000D01*
X58804666Y-72415619D01*
X57899904Y-72320381D02*
X58376095Y-72320381D01*
X58423714Y-72796571D01*
X58376095Y-72748952D01*
X58280857Y-72701333D01*
X58042761Y-72701333D01*
X57947523Y-72748952D01*
X57899904Y-72796571D01*
X57852285Y-72891810D01*
X57852285Y-73129905D01*
X57899904Y-73225143D01*
X57947523Y-73272762D01*
X58042761Y-73320381D01*
X58280857Y-73320381D01*
X58376095Y-73272762D01*
X58423714Y-73225143D01*
X85474666Y-73225143D02*
X85522285Y-73272762D01*
X85665142Y-73320381D01*
X85760380Y-73320381D01*
X85903238Y-73272762D01*
X85998476Y-73177524D01*
X86046095Y-73082286D01*
X86093714Y-72891810D01*
X86093714Y-72748952D01*
X86046095Y-72558476D01*
X85998476Y-72463238D01*
X85903238Y-72368000D01*
X85760380Y-72320381D01*
X85665142Y-72320381D01*
X85522285Y-72368000D01*
X85474666Y-72415619D01*
X84617523Y-72320381D02*
X84808000Y-72320381D01*
X84903238Y-72368000D01*
X84950857Y-72415619D01*
X85046095Y-72558476D01*
X85093714Y-72748952D01*
X85093714Y-73129905D01*
X85046095Y-73225143D01*
X84998476Y-73272762D01*
X84903238Y-73320381D01*
X84712761Y-73320381D01*
X84617523Y-73272762D01*
X84569904Y-73225143D01*
X84522285Y-73129905D01*
X84522285Y-72891810D01*
X84569904Y-72796571D01*
X84617523Y-72748952D01*
X84712761Y-72701333D01*
X84903238Y-72701333D01*
X84998476Y-72748952D01*
X85046095Y-72796571D01*
X85093714Y-72891810D01*
X71758666Y-58334381D02*
X72092000Y-57858190D01*
X72330095Y-58334381D02*
X72330095Y-57334381D01*
X71949142Y-57334381D01*
X71853904Y-57382000D01*
X71806285Y-57429619D01*
X71758666Y-57524857D01*
X71758666Y-57667714D01*
X71806285Y-57762952D01*
X71853904Y-57810571D01*
X71949142Y-57858190D01*
X72330095Y-57858190D01*
X70806285Y-58334381D02*
X71377714Y-58334381D01*
X71092000Y-58334381D02*
X71092000Y-57334381D01*
X71187238Y-57477238D01*
X71282476Y-57572476D01*
X71377714Y-57620095D01*
X73028666Y-66970381D02*
X73362000Y-66494190D01*
X73600095Y-66970381D02*
X73600095Y-65970381D01*
X73219142Y-65970381D01*
X73123904Y-66018000D01*
X73076285Y-66065619D01*
X73028666Y-66160857D01*
X73028666Y-66303714D01*
X73076285Y-66398952D01*
X73123904Y-66446571D01*
X73219142Y-66494190D01*
X73600095Y-66494190D01*
X72647714Y-66065619D02*
X72600095Y-66018000D01*
X72504857Y-65970381D01*
X72266761Y-65970381D01*
X72171523Y-66018000D01*
X72123904Y-66065619D01*
X72076285Y-66160857D01*
X72076285Y-66256095D01*
X72123904Y-66398952D01*
X72695333Y-66970381D01*
X72076285Y-66970381D01*
X74298666Y-58334381D02*
X74632000Y-57858190D01*
X74870095Y-58334381D02*
X74870095Y-57334381D01*
X74489142Y-57334381D01*
X74393904Y-57382000D01*
X74346285Y-57429619D01*
X74298666Y-57524857D01*
X74298666Y-57667714D01*
X74346285Y-57762952D01*
X74393904Y-57810571D01*
X74489142Y-57858190D01*
X74870095Y-57858190D01*
X73965333Y-57334381D02*
X73346285Y-57334381D01*
X73679619Y-57715333D01*
X73536761Y-57715333D01*
X73441523Y-57762952D01*
X73393904Y-57810571D01*
X73346285Y-57905810D01*
X73346285Y-58143905D01*
X73393904Y-58239143D01*
X73441523Y-58286762D01*
X73536761Y-58334381D01*
X73822476Y-58334381D01*
X73917714Y-58286762D01*
X73965333Y-58239143D01*
X75568666Y-66970381D02*
X75902000Y-66494190D01*
X76140095Y-66970381D02*
X76140095Y-65970381D01*
X75759142Y-65970381D01*
X75663904Y-66018000D01*
X75616285Y-66065619D01*
X75568666Y-66160857D01*
X75568666Y-66303714D01*
X75616285Y-66398952D01*
X75663904Y-66446571D01*
X75759142Y-66494190D01*
X76140095Y-66494190D01*
X74711523Y-66303714D02*
X74711523Y-66970381D01*
X74949619Y-65922762D02*
X75187714Y-66637048D01*
X74568666Y-66637048D01*
X76838666Y-58334381D02*
X77172000Y-57858190D01*
X77410095Y-58334381D02*
X77410095Y-57334381D01*
X77029142Y-57334381D01*
X76933904Y-57382000D01*
X76886285Y-57429619D01*
X76838666Y-57524857D01*
X76838666Y-57667714D01*
X76886285Y-57762952D01*
X76933904Y-57810571D01*
X77029142Y-57858190D01*
X77410095Y-57858190D01*
X75933904Y-57334381D02*
X76410095Y-57334381D01*
X76457714Y-57810571D01*
X76410095Y-57762952D01*
X76314857Y-57715333D01*
X76076761Y-57715333D01*
X75981523Y-57762952D01*
X75933904Y-57810571D01*
X75886285Y-57905810D01*
X75886285Y-58143905D01*
X75933904Y-58239143D01*
X75981523Y-58286762D01*
X76076761Y-58334381D01*
X76314857Y-58334381D01*
X76410095Y-58286762D01*
X76457714Y-58239143D01*
X78108666Y-66970381D02*
X78442000Y-66494190D01*
X78680095Y-66970381D02*
X78680095Y-65970381D01*
X78299142Y-65970381D01*
X78203904Y-66018000D01*
X78156285Y-66065619D01*
X78108666Y-66160857D01*
X78108666Y-66303714D01*
X78156285Y-66398952D01*
X78203904Y-66446571D01*
X78299142Y-66494190D01*
X78680095Y-66494190D01*
X77251523Y-65970381D02*
X77442000Y-65970381D01*
X77537238Y-66018000D01*
X77584857Y-66065619D01*
X77680095Y-66208476D01*
X77727714Y-66398952D01*
X77727714Y-66779905D01*
X77680095Y-66875143D01*
X77632476Y-66922762D01*
X77537238Y-66970381D01*
X77346761Y-66970381D01*
X77251523Y-66922762D01*
X77203904Y-66875143D01*
X77156285Y-66779905D01*
X77156285Y-66541810D01*
X77203904Y-66446571D01*
X77251523Y-66398952D01*
X77346761Y-66351333D01*
X77537238Y-66351333D01*
X77632476Y-66398952D01*
X77680095Y-66446571D01*
X77727714Y-66541810D01*
X79378666Y-58334381D02*
X79712000Y-57858190D01*
X79950095Y-58334381D02*
X79950095Y-57334381D01*
X79569142Y-57334381D01*
X79473904Y-57382000D01*
X79426285Y-57429619D01*
X79378666Y-57524857D01*
X79378666Y-57667714D01*
X79426285Y-57762952D01*
X79473904Y-57810571D01*
X79569142Y-57858190D01*
X79950095Y-57858190D01*
X79045333Y-57334381D02*
X78378666Y-57334381D01*
X78807238Y-58334381D01*
X80648666Y-66970381D02*
X80982000Y-66494190D01*
X81220095Y-66970381D02*
X81220095Y-65970381D01*
X80839142Y-65970381D01*
X80743904Y-66018000D01*
X80696285Y-66065619D01*
X80648666Y-66160857D01*
X80648666Y-66303714D01*
X80696285Y-66398952D01*
X80743904Y-66446571D01*
X80839142Y-66494190D01*
X81220095Y-66494190D01*
X80077238Y-66398952D02*
X80172476Y-66351333D01*
X80220095Y-66303714D01*
X80267714Y-66208476D01*
X80267714Y-66160857D01*
X80220095Y-66065619D01*
X80172476Y-66018000D01*
X80077238Y-65970381D01*
X79886761Y-65970381D01*
X79791523Y-66018000D01*
X79743904Y-66065619D01*
X79696285Y-66160857D01*
X79696285Y-66208476D01*
X79743904Y-66303714D01*
X79791523Y-66351333D01*
X79886761Y-66398952D01*
X80077238Y-66398952D01*
X80172476Y-66446571D01*
X80220095Y-66494190D01*
X80267714Y-66589429D01*
X80267714Y-66779905D01*
X80220095Y-66875143D01*
X80172476Y-66922762D01*
X80077238Y-66970381D01*
X79886761Y-66970381D01*
X79791523Y-66922762D01*
X79743904Y-66875143D01*
X79696285Y-66779905D01*
X79696285Y-66589429D01*
X79743904Y-66494190D01*
X79791523Y-66446571D01*
X79886761Y-66398952D01*
X83188666Y-58334381D02*
X83522000Y-57858190D01*
X83760095Y-58334381D02*
X83760095Y-57334381D01*
X83379142Y-57334381D01*
X83283904Y-57382000D01*
X83236285Y-57429619D01*
X83188666Y-57524857D01*
X83188666Y-57667714D01*
X83236285Y-57762952D01*
X83283904Y-57810571D01*
X83379142Y-57858190D01*
X83760095Y-57858190D01*
X82712476Y-58334381D02*
X82522000Y-58334381D01*
X82426761Y-58286762D01*
X82379142Y-58239143D01*
X82283904Y-58096286D01*
X82236285Y-57905810D01*
X82236285Y-57524857D01*
X82283904Y-57429619D01*
X82331523Y-57382000D01*
X82426761Y-57334381D01*
X82617238Y-57334381D01*
X82712476Y-57382000D01*
X82760095Y-57429619D01*
X82807714Y-57524857D01*
X82807714Y-57762952D01*
X82760095Y-57858190D01*
X82712476Y-57905810D01*
X82617238Y-57953429D01*
X82426761Y-57953429D01*
X82331523Y-57905810D01*
X82283904Y-57858190D01*
X82236285Y-57762952D01*
X84426857Y-66970381D02*
X84760191Y-66494190D01*
X84998286Y-66970381D02*
X84998286Y-65970381D01*
X84617333Y-65970381D01*
X84522095Y-66018000D01*
X84474476Y-66065619D01*
X84426857Y-66160857D01*
X84426857Y-66303714D01*
X84474476Y-66398952D01*
X84522095Y-66446571D01*
X84617333Y-66494190D01*
X84998286Y-66494190D01*
X83474476Y-66970381D02*
X84045905Y-66970381D01*
X83760191Y-66970381D02*
X83760191Y-65970381D01*
X83855429Y-66113238D01*
X83950667Y-66208476D01*
X84045905Y-66256095D01*
X82855429Y-65970381D02*
X82760190Y-65970381D01*
X82664952Y-66018000D01*
X82617333Y-66065619D01*
X82569714Y-66160857D01*
X82522095Y-66351333D01*
X82522095Y-66589429D01*
X82569714Y-66779905D01*
X82617333Y-66875143D01*
X82664952Y-66922762D01*
X82760190Y-66970381D01*
X82855429Y-66970381D01*
X82950667Y-66922762D01*
X82998286Y-66875143D01*
X83045905Y-66779905D01*
X83093524Y-66589429D01*
X83093524Y-66351333D01*
X83045905Y-66160857D01*
X82998286Y-66065619D01*
X82950667Y-66018000D01*
X82855429Y-65970381D01*
X86204857Y-58334381D02*
X86538191Y-57858190D01*
X86776286Y-58334381D02*
X86776286Y-57334381D01*
X86395333Y-57334381D01*
X86300095Y-57382000D01*
X86252476Y-57429619D01*
X86204857Y-57524857D01*
X86204857Y-57667714D01*
X86252476Y-57762952D01*
X86300095Y-57810571D01*
X86395333Y-57858190D01*
X86776286Y-57858190D01*
X85252476Y-58334381D02*
X85823905Y-58334381D01*
X85538191Y-58334381D02*
X85538191Y-57334381D01*
X85633429Y-57477238D01*
X85728667Y-57572476D01*
X85823905Y-57620095D01*
X84300095Y-58334381D02*
X84871524Y-58334381D01*
X84585810Y-58334381D02*
X84585810Y-57334381D01*
X84681048Y-57477238D01*
X84776286Y-57572476D01*
X84871524Y-57620095D01*
X87220857Y-66970381D02*
X87554191Y-66494190D01*
X87792286Y-66970381D02*
X87792286Y-65970381D01*
X87411333Y-65970381D01*
X87316095Y-66018000D01*
X87268476Y-66065619D01*
X87220857Y-66160857D01*
X87220857Y-66303714D01*
X87268476Y-66398952D01*
X87316095Y-66446571D01*
X87411333Y-66494190D01*
X87792286Y-66494190D01*
X86268476Y-66970381D02*
X86839905Y-66970381D01*
X86554191Y-66970381D02*
X86554191Y-65970381D01*
X86649429Y-66113238D01*
X86744667Y-66208476D01*
X86839905Y-66256095D01*
X85887524Y-66065619D02*
X85839905Y-66018000D01*
X85744667Y-65970381D01*
X85506571Y-65970381D01*
X85411333Y-66018000D01*
X85363714Y-66065619D01*
X85316095Y-66160857D01*
X85316095Y-66256095D01*
X85363714Y-66398952D01*
X85935143Y-66970381D01*
X85316095Y-66970381D01*
X88998857Y-58334381D02*
X89332191Y-57858190D01*
X89570286Y-58334381D02*
X89570286Y-57334381D01*
X89189333Y-57334381D01*
X89094095Y-57382000D01*
X89046476Y-57429619D01*
X88998857Y-57524857D01*
X88998857Y-57667714D01*
X89046476Y-57762952D01*
X89094095Y-57810571D01*
X89189333Y-57858190D01*
X89570286Y-57858190D01*
X88046476Y-58334381D02*
X88617905Y-58334381D01*
X88332191Y-58334381D02*
X88332191Y-57334381D01*
X88427429Y-57477238D01*
X88522667Y-57572476D01*
X88617905Y-57620095D01*
X87713143Y-57334381D02*
X87094095Y-57334381D01*
X87427429Y-57715333D01*
X87284571Y-57715333D01*
X87189333Y-57762952D01*
X87141714Y-57810571D01*
X87094095Y-57905810D01*
X87094095Y-58143905D01*
X87141714Y-58239143D01*
X87189333Y-58286762D01*
X87284571Y-58334381D01*
X87570286Y-58334381D01*
X87665524Y-58286762D01*
X87713143Y-58239143D01*
X90014857Y-66970381D02*
X90348191Y-66494190D01*
X90586286Y-66970381D02*
X90586286Y-65970381D01*
X90205333Y-65970381D01*
X90110095Y-66018000D01*
X90062476Y-66065619D01*
X90014857Y-66160857D01*
X90014857Y-66303714D01*
X90062476Y-66398952D01*
X90110095Y-66446571D01*
X90205333Y-66494190D01*
X90586286Y-66494190D01*
X89062476Y-66970381D02*
X89633905Y-66970381D01*
X89348191Y-66970381D02*
X89348191Y-65970381D01*
X89443429Y-66113238D01*
X89538667Y-66208476D01*
X89633905Y-66256095D01*
X88205333Y-66303714D02*
X88205333Y-66970381D01*
X88443429Y-65922762D02*
X88681524Y-66637048D01*
X88062476Y-66637048D01*
X91792857Y-58334381D02*
X92126191Y-57858190D01*
X92364286Y-58334381D02*
X92364286Y-57334381D01*
X91983333Y-57334381D01*
X91888095Y-57382000D01*
X91840476Y-57429619D01*
X91792857Y-57524857D01*
X91792857Y-57667714D01*
X91840476Y-57762952D01*
X91888095Y-57810571D01*
X91983333Y-57858190D01*
X92364286Y-57858190D01*
X90840476Y-58334381D02*
X91411905Y-58334381D01*
X91126191Y-58334381D02*
X91126191Y-57334381D01*
X91221429Y-57477238D01*
X91316667Y-57572476D01*
X91411905Y-57620095D01*
X89935714Y-57334381D02*
X90411905Y-57334381D01*
X90459524Y-57810571D01*
X90411905Y-57762952D01*
X90316667Y-57715333D01*
X90078571Y-57715333D01*
X89983333Y-57762952D01*
X89935714Y-57810571D01*
X89888095Y-57905810D01*
X89888095Y-58143905D01*
X89935714Y-58239143D01*
X89983333Y-58286762D01*
X90078571Y-58334381D01*
X90316667Y-58334381D01*
X90411905Y-58286762D01*
X90459524Y-58239143D01*
X92808857Y-66970381D02*
X93142191Y-66494190D01*
X93380286Y-66970381D02*
X93380286Y-65970381D01*
X92999333Y-65970381D01*
X92904095Y-66018000D01*
X92856476Y-66065619D01*
X92808857Y-66160857D01*
X92808857Y-66303714D01*
X92856476Y-66398952D01*
X92904095Y-66446571D01*
X92999333Y-66494190D01*
X93380286Y-66494190D01*
X91856476Y-66970381D02*
X92427905Y-66970381D01*
X92142191Y-66970381D02*
X92142191Y-65970381D01*
X92237429Y-66113238D01*
X92332667Y-66208476D01*
X92427905Y-66256095D01*
X90999333Y-65970381D02*
X91189810Y-65970381D01*
X91285048Y-66018000D01*
X91332667Y-66065619D01*
X91427905Y-66208476D01*
X91475524Y-66398952D01*
X91475524Y-66779905D01*
X91427905Y-66875143D01*
X91380286Y-66922762D01*
X91285048Y-66970381D01*
X91094571Y-66970381D01*
X90999333Y-66922762D01*
X90951714Y-66875143D01*
X90904095Y-66779905D01*
X90904095Y-66541810D01*
X90951714Y-66446571D01*
X90999333Y-66398952D01*
X91094571Y-66351333D01*
X91285048Y-66351333D01*
X91380286Y-66398952D01*
X91427905Y-66446571D01*
X91475524Y-66541810D01*
X123796857Y-92370381D02*
X124130191Y-91894190D01*
X124368286Y-92370381D02*
X124368286Y-91370381D01*
X123987333Y-91370381D01*
X123892095Y-91418000D01*
X123844476Y-91465619D01*
X123796857Y-91560857D01*
X123796857Y-91703714D01*
X123844476Y-91798952D01*
X123892095Y-91846571D01*
X123987333Y-91894190D01*
X124368286Y-91894190D01*
X122844476Y-92370381D02*
X123415905Y-92370381D01*
X123130191Y-92370381D02*
X123130191Y-91370381D01*
X123225429Y-91513238D01*
X123320667Y-91608476D01*
X123415905Y-91656095D01*
X122273048Y-91798952D02*
X122368286Y-91751333D01*
X122415905Y-91703714D01*
X122463524Y-91608476D01*
X122463524Y-91560857D01*
X122415905Y-91465619D01*
X122368286Y-91418000D01*
X122273048Y-91370381D01*
X122082571Y-91370381D01*
X121987333Y-91418000D01*
X121939714Y-91465619D01*
X121892095Y-91560857D01*
X121892095Y-91608476D01*
X121939714Y-91703714D01*
X121987333Y-91751333D01*
X122082571Y-91798952D01*
X122273048Y-91798952D01*
X122368286Y-91846571D01*
X122415905Y-91894190D01*
X122463524Y-91989429D01*
X122463524Y-92179905D01*
X122415905Y-92275143D01*
X122368286Y-92322762D01*
X122273048Y-92370381D01*
X122082571Y-92370381D01*
X121987333Y-92322762D01*
X121939714Y-92275143D01*
X121892095Y-92179905D01*
X121892095Y-91989429D01*
X121939714Y-91894190D01*
X121987333Y-91846571D01*
X122082571Y-91798952D01*
X123796857Y-89830381D02*
X124130191Y-89354190D01*
X124368286Y-89830381D02*
X124368286Y-88830381D01*
X123987333Y-88830381D01*
X123892095Y-88878000D01*
X123844476Y-88925619D01*
X123796857Y-89020857D01*
X123796857Y-89163714D01*
X123844476Y-89258952D01*
X123892095Y-89306571D01*
X123987333Y-89354190D01*
X124368286Y-89354190D01*
X122844476Y-89830381D02*
X123415905Y-89830381D01*
X123130191Y-89830381D02*
X123130191Y-88830381D01*
X123225429Y-88973238D01*
X123320667Y-89068476D01*
X123415905Y-89116095D01*
X122368286Y-89830381D02*
X122177810Y-89830381D01*
X122082571Y-89782762D01*
X122034952Y-89735143D01*
X121939714Y-89592286D01*
X121892095Y-89401810D01*
X121892095Y-89020857D01*
X121939714Y-88925619D01*
X121987333Y-88878000D01*
X122082571Y-88830381D01*
X122273048Y-88830381D01*
X122368286Y-88878000D01*
X122415905Y-88925619D01*
X122463524Y-89020857D01*
X122463524Y-89258952D01*
X122415905Y-89354190D01*
X122368286Y-89401810D01*
X122273048Y-89449429D01*
X122082571Y-89449429D01*
X121987333Y-89401810D01*
X121939714Y-89354190D01*
X121892095Y-89258952D01*
X123796857Y-87290381D02*
X124130191Y-86814190D01*
X124368286Y-87290381D02*
X124368286Y-86290381D01*
X123987333Y-86290381D01*
X123892095Y-86338000D01*
X123844476Y-86385619D01*
X123796857Y-86480857D01*
X123796857Y-86623714D01*
X123844476Y-86718952D01*
X123892095Y-86766571D01*
X123987333Y-86814190D01*
X124368286Y-86814190D01*
X123415905Y-86385619D02*
X123368286Y-86338000D01*
X123273048Y-86290381D01*
X123034952Y-86290381D01*
X122939714Y-86338000D01*
X122892095Y-86385619D01*
X122844476Y-86480857D01*
X122844476Y-86576095D01*
X122892095Y-86718952D01*
X123463524Y-87290381D01*
X122844476Y-87290381D01*
X122225429Y-86290381D02*
X122130190Y-86290381D01*
X122034952Y-86338000D01*
X121987333Y-86385619D01*
X121939714Y-86480857D01*
X121892095Y-86671333D01*
X121892095Y-86909429D01*
X121939714Y-87099905D01*
X121987333Y-87195143D01*
X122034952Y-87242762D01*
X122130190Y-87290381D01*
X122225429Y-87290381D01*
X122320667Y-87242762D01*
X122368286Y-87195143D01*
X122415905Y-87099905D01*
X122463524Y-86909429D01*
X122463524Y-86671333D01*
X122415905Y-86480857D01*
X122368286Y-86385619D01*
X122320667Y-86338000D01*
X122225429Y-86290381D01*
X123796857Y-84750381D02*
X124130191Y-84274190D01*
X124368286Y-84750381D02*
X124368286Y-83750381D01*
X123987333Y-83750381D01*
X123892095Y-83798000D01*
X123844476Y-83845619D01*
X123796857Y-83940857D01*
X123796857Y-84083714D01*
X123844476Y-84178952D01*
X123892095Y-84226571D01*
X123987333Y-84274190D01*
X124368286Y-84274190D01*
X123415905Y-83845619D02*
X123368286Y-83798000D01*
X123273048Y-83750381D01*
X123034952Y-83750381D01*
X122939714Y-83798000D01*
X122892095Y-83845619D01*
X122844476Y-83940857D01*
X122844476Y-84036095D01*
X122892095Y-84178952D01*
X123463524Y-84750381D01*
X122844476Y-84750381D01*
X121892095Y-84750381D02*
X122463524Y-84750381D01*
X122177810Y-84750381D02*
X122177810Y-83750381D01*
X122273048Y-83893238D01*
X122368286Y-83988476D01*
X122463524Y-84036095D01*
X124050857Y-82210381D02*
X124384191Y-81734190D01*
X124622286Y-82210381D02*
X124622286Y-81210381D01*
X124241333Y-81210381D01*
X124146095Y-81258000D01*
X124098476Y-81305619D01*
X124050857Y-81400857D01*
X124050857Y-81543714D01*
X124098476Y-81638952D01*
X124146095Y-81686571D01*
X124241333Y-81734190D01*
X124622286Y-81734190D01*
X123669905Y-81305619D02*
X123622286Y-81258000D01*
X123527048Y-81210381D01*
X123288952Y-81210381D01*
X123193714Y-81258000D01*
X123146095Y-81305619D01*
X123098476Y-81400857D01*
X123098476Y-81496095D01*
X123146095Y-81638952D01*
X123717524Y-82210381D01*
X123098476Y-82210381D01*
X122717524Y-81305619D02*
X122669905Y-81258000D01*
X122574667Y-81210381D01*
X122336571Y-81210381D01*
X122241333Y-81258000D01*
X122193714Y-81305619D01*
X122146095Y-81400857D01*
X122146095Y-81496095D01*
X122193714Y-81638952D01*
X122765143Y-82210381D01*
X122146095Y-82210381D01*
X124050857Y-79670381D02*
X124384191Y-79194190D01*
X124622286Y-79670381D02*
X124622286Y-78670381D01*
X124241333Y-78670381D01*
X124146095Y-78718000D01*
X124098476Y-78765619D01*
X124050857Y-78860857D01*
X124050857Y-79003714D01*
X124098476Y-79098952D01*
X124146095Y-79146571D01*
X124241333Y-79194190D01*
X124622286Y-79194190D01*
X123669905Y-78765619D02*
X123622286Y-78718000D01*
X123527048Y-78670381D01*
X123288952Y-78670381D01*
X123193714Y-78718000D01*
X123146095Y-78765619D01*
X123098476Y-78860857D01*
X123098476Y-78956095D01*
X123146095Y-79098952D01*
X123717524Y-79670381D01*
X123098476Y-79670381D01*
X122765143Y-78670381D02*
X122146095Y-78670381D01*
X122479429Y-79051333D01*
X122336571Y-79051333D01*
X122241333Y-79098952D01*
X122193714Y-79146571D01*
X122146095Y-79241810D01*
X122146095Y-79479905D01*
X122193714Y-79575143D01*
X122241333Y-79622762D01*
X122336571Y-79670381D01*
X122622286Y-79670381D01*
X122717524Y-79622762D01*
X122765143Y-79575143D01*
M02*
