%TF.GenerationSoftware,KiCad,Pcbnew,(5.1.12)-1*%
%TF.CreationDate,2022-11-09T13:17:00+09:00*%
%TF.ProjectId,2212_PHOTO_DIODE_PRE_AMP,32323132-5f50-4484-9f54-4f5f44494f44,0*%
%TF.SameCoordinates,Original*%
%TF.FileFunction,Legend,Bot*%
%TF.FilePolarity,Positive*%
%FSLAX46Y46*%
G04 Gerber Fmt 4.6, Leading zero omitted, Abs format (unit mm)*
G04 Created by KiCad (PCBNEW (5.1.12)-1) date 2022-11-09 13:17:00*
%MOMM*%
%LPD*%
G01*
G04 APERTURE LIST*
%ADD10C,0.300000*%
%ADD11C,0.200000*%
%ADD12C,0.150000*%
G04 APERTURE END LIST*
D10*
%TO.C,IC2*%
X138135000Y-86005000D02*
X138135000Y-82905000D01*
X142535000Y-86005000D02*
X138135000Y-86005000D01*
X142535000Y-82905000D02*
X142535000Y-86005000D01*
X138135000Y-82905000D02*
X142535000Y-82905000D01*
X143129000Y-83566000D02*
G75*
G03*
X143129000Y-83566000I-254000J0D01*
G01*
%TO.C,C2*%
X146185000Y-73775000D02*
X147185000Y-73775000D01*
X147185000Y-72275000D02*
X146185000Y-72275000D01*
%TO.C,C3*%
X145550000Y-91555000D02*
X146550000Y-91555000D01*
X146550000Y-90055000D02*
X145550000Y-90055000D01*
%TO.C,C4*%
X141490000Y-67826000D02*
X141490000Y-68826000D01*
X142990000Y-68826000D02*
X142990000Y-67826000D01*
%TO.C,C5*%
X146550000Y-82435000D02*
X145550000Y-82435000D01*
X145550000Y-83935000D02*
X146550000Y-83935000D01*
%TO.C,C6*%
X144280000Y-98540000D02*
X145280000Y-98540000D01*
X145280000Y-97040000D02*
X144280000Y-97040000D01*
%TO.C,C7*%
X144280000Y-110605000D02*
X145280000Y-110605000D01*
X145280000Y-109105000D02*
X144280000Y-109105000D01*
%TO.C,C8*%
X141740000Y-73775000D02*
X142740000Y-73775000D01*
X142740000Y-72275000D02*
X141740000Y-72275000D01*
%TO.C,C9*%
X141740000Y-91555000D02*
X142740000Y-91555000D01*
X142740000Y-90055000D02*
X141740000Y-90055000D01*
%TO.C,C10*%
X135370000Y-69080000D02*
X135370000Y-68080000D01*
X133870000Y-68080000D02*
X133870000Y-69080000D01*
%TO.C,C11*%
X137275000Y-84955000D02*
X137275000Y-83955000D01*
X135775000Y-83955000D02*
X135775000Y-84955000D01*
%TO.C,IC1*%
X136230000Y-70130000D02*
X136230000Y-67030000D01*
X140630000Y-70130000D02*
X136230000Y-70130000D01*
X140630000Y-67030000D02*
X140630000Y-70130000D01*
X136230000Y-67030000D02*
X140630000Y-67030000D01*
X141224000Y-67691000D02*
G75*
G03*
X141224000Y-67691000I-254000J0D01*
G01*
%TO.C,R1*%
X143930000Y-70850000D02*
X143930000Y-68850000D01*
X145630000Y-68850000D02*
X145630000Y-70850000D01*
%TO.C,R2*%
X144685000Y-84875000D02*
X146685000Y-84875000D01*
X146685000Y-86575000D02*
X144685000Y-86575000D01*
%TO.C,R3*%
X138215000Y-73390000D02*
X138215000Y-71390000D01*
X139915000Y-71390000D02*
X139915000Y-73390000D01*
%TO.C,R4*%
X138215000Y-89900000D02*
X138215000Y-87900000D01*
X139915000Y-87900000D02*
X139915000Y-89900000D01*
%TO.C,IC2*%
D11*
X140676190Y-82240380D02*
X140676190Y-81240380D01*
X139628571Y-82145142D02*
X139676190Y-82192761D01*
X139819047Y-82240380D01*
X139914285Y-82240380D01*
X140057142Y-82192761D01*
X140152380Y-82097523D01*
X140200000Y-82002285D01*
X140247619Y-81811809D01*
X140247619Y-81668952D01*
X140200000Y-81478476D01*
X140152380Y-81383238D01*
X140057142Y-81288000D01*
X139914285Y-81240380D01*
X139819047Y-81240380D01*
X139676190Y-81288000D01*
X139628571Y-81335619D01*
X139247619Y-81335619D02*
X139200000Y-81288000D01*
X139104761Y-81240380D01*
X138866666Y-81240380D01*
X138771428Y-81288000D01*
X138723809Y-81335619D01*
X138676190Y-81430857D01*
X138676190Y-81526095D01*
X138723809Y-81668952D01*
X139295238Y-82240380D01*
X138676190Y-82240380D01*
%TO.C,C2*%
D12*
X148248666Y-75033142D02*
X148296285Y-75080761D01*
X148439142Y-75128380D01*
X148534380Y-75128380D01*
X148677238Y-75080761D01*
X148772476Y-74985523D01*
X148820095Y-74890285D01*
X148867714Y-74699809D01*
X148867714Y-74556952D01*
X148820095Y-74366476D01*
X148772476Y-74271238D01*
X148677238Y-74176000D01*
X148534380Y-74128380D01*
X148439142Y-74128380D01*
X148296285Y-74176000D01*
X148248666Y-74223619D01*
X147867714Y-74223619D02*
X147820095Y-74176000D01*
X147724857Y-74128380D01*
X147486761Y-74128380D01*
X147391523Y-74176000D01*
X147343904Y-74223619D01*
X147296285Y-74318857D01*
X147296285Y-74414095D01*
X147343904Y-74556952D01*
X147915333Y-75128380D01*
X147296285Y-75128380D01*
%TO.C,C3*%
X146216666Y-92813142D02*
X146264285Y-92860761D01*
X146407142Y-92908380D01*
X146502380Y-92908380D01*
X146645238Y-92860761D01*
X146740476Y-92765523D01*
X146788095Y-92670285D01*
X146835714Y-92479809D01*
X146835714Y-92336952D01*
X146788095Y-92146476D01*
X146740476Y-92051238D01*
X146645238Y-91956000D01*
X146502380Y-91908380D01*
X146407142Y-91908380D01*
X146264285Y-91956000D01*
X146216666Y-92003619D01*
X145883333Y-91908380D02*
X145264285Y-91908380D01*
X145597619Y-92289333D01*
X145454761Y-92289333D01*
X145359523Y-92336952D01*
X145311904Y-92384571D01*
X145264285Y-92479809D01*
X145264285Y-92717904D01*
X145311904Y-92813142D01*
X145359523Y-92860761D01*
X145454761Y-92908380D01*
X145740476Y-92908380D01*
X145835714Y-92860761D01*
X145883333Y-92813142D01*
%TO.C,C4*%
D11*
X141390666Y-66651142D02*
X141438285Y-66698761D01*
X141581142Y-66746380D01*
X141676380Y-66746380D01*
X141819238Y-66698761D01*
X141914476Y-66603523D01*
X141962095Y-66508285D01*
X142009714Y-66317809D01*
X142009714Y-66174952D01*
X141962095Y-65984476D01*
X141914476Y-65889238D01*
X141819238Y-65794000D01*
X141676380Y-65746380D01*
X141581142Y-65746380D01*
X141438285Y-65794000D01*
X141390666Y-65841619D01*
X140533523Y-66079714D02*
X140533523Y-66746380D01*
X140771619Y-65698761D02*
X141009714Y-66413047D01*
X140390666Y-66413047D01*
%TO.C,C5*%
D12*
X147994666Y-82145142D02*
X148042285Y-82192761D01*
X148185142Y-82240380D01*
X148280380Y-82240380D01*
X148423238Y-82192761D01*
X148518476Y-82097523D01*
X148566095Y-82002285D01*
X148613714Y-81811809D01*
X148613714Y-81668952D01*
X148566095Y-81478476D01*
X148518476Y-81383238D01*
X148423238Y-81288000D01*
X148280380Y-81240380D01*
X148185142Y-81240380D01*
X148042285Y-81288000D01*
X147994666Y-81335619D01*
X147089904Y-81240380D02*
X147566095Y-81240380D01*
X147613714Y-81716571D01*
X147566095Y-81668952D01*
X147470857Y-81621333D01*
X147232761Y-81621333D01*
X147137523Y-81668952D01*
X147089904Y-81716571D01*
X147042285Y-81811809D01*
X147042285Y-82049904D01*
X147089904Y-82145142D01*
X147137523Y-82192761D01*
X147232761Y-82240380D01*
X147470857Y-82240380D01*
X147566095Y-82192761D01*
X147613714Y-82145142D01*
%TO.C,C6*%
X144946666Y-99925142D02*
X144994285Y-99972761D01*
X145137142Y-100020380D01*
X145232380Y-100020380D01*
X145375238Y-99972761D01*
X145470476Y-99877523D01*
X145518095Y-99782285D01*
X145565714Y-99591809D01*
X145565714Y-99448952D01*
X145518095Y-99258476D01*
X145470476Y-99163238D01*
X145375238Y-99068000D01*
X145232380Y-99020380D01*
X145137142Y-99020380D01*
X144994285Y-99068000D01*
X144946666Y-99115619D01*
X144089523Y-99020380D02*
X144280000Y-99020380D01*
X144375238Y-99068000D01*
X144422857Y-99115619D01*
X144518095Y-99258476D01*
X144565714Y-99448952D01*
X144565714Y-99829904D01*
X144518095Y-99925142D01*
X144470476Y-99972761D01*
X144375238Y-100020380D01*
X144184761Y-100020380D01*
X144089523Y-99972761D01*
X144041904Y-99925142D01*
X143994285Y-99829904D01*
X143994285Y-99591809D01*
X144041904Y-99496571D01*
X144089523Y-99448952D01*
X144184761Y-99401333D01*
X144375238Y-99401333D01*
X144470476Y-99448952D01*
X144518095Y-99496571D01*
X144565714Y-99591809D01*
%TO.C,C7*%
X144946666Y-112117142D02*
X144994285Y-112164761D01*
X145137142Y-112212380D01*
X145232380Y-112212380D01*
X145375238Y-112164761D01*
X145470476Y-112069523D01*
X145518095Y-111974285D01*
X145565714Y-111783809D01*
X145565714Y-111640952D01*
X145518095Y-111450476D01*
X145470476Y-111355238D01*
X145375238Y-111260000D01*
X145232380Y-111212380D01*
X145137142Y-111212380D01*
X144994285Y-111260000D01*
X144946666Y-111307619D01*
X144613333Y-111212380D02*
X143946666Y-111212380D01*
X144375238Y-112212380D01*
%TO.C,C8*%
X141898666Y-75033142D02*
X141946285Y-75080761D01*
X142089142Y-75128380D01*
X142184380Y-75128380D01*
X142327238Y-75080761D01*
X142422476Y-74985523D01*
X142470095Y-74890285D01*
X142517714Y-74699809D01*
X142517714Y-74556952D01*
X142470095Y-74366476D01*
X142422476Y-74271238D01*
X142327238Y-74176000D01*
X142184380Y-74128380D01*
X142089142Y-74128380D01*
X141946285Y-74176000D01*
X141898666Y-74223619D01*
X141327238Y-74556952D02*
X141422476Y-74509333D01*
X141470095Y-74461714D01*
X141517714Y-74366476D01*
X141517714Y-74318857D01*
X141470095Y-74223619D01*
X141422476Y-74176000D01*
X141327238Y-74128380D01*
X141136761Y-74128380D01*
X141041523Y-74176000D01*
X140993904Y-74223619D01*
X140946285Y-74318857D01*
X140946285Y-74366476D01*
X140993904Y-74461714D01*
X141041523Y-74509333D01*
X141136761Y-74556952D01*
X141327238Y-74556952D01*
X141422476Y-74604571D01*
X141470095Y-74652190D01*
X141517714Y-74747428D01*
X141517714Y-74937904D01*
X141470095Y-75033142D01*
X141422476Y-75080761D01*
X141327238Y-75128380D01*
X141136761Y-75128380D01*
X141041523Y-75080761D01*
X140993904Y-75033142D01*
X140946285Y-74937904D01*
X140946285Y-74747428D01*
X140993904Y-74652190D01*
X141041523Y-74604571D01*
X141136761Y-74556952D01*
%TO.C,C9*%
X142406666Y-92813142D02*
X142454285Y-92860761D01*
X142597142Y-92908380D01*
X142692380Y-92908380D01*
X142835238Y-92860761D01*
X142930476Y-92765523D01*
X142978095Y-92670285D01*
X143025714Y-92479809D01*
X143025714Y-92336952D01*
X142978095Y-92146476D01*
X142930476Y-92051238D01*
X142835238Y-91956000D01*
X142692380Y-91908380D01*
X142597142Y-91908380D01*
X142454285Y-91956000D01*
X142406666Y-92003619D01*
X141930476Y-92908380D02*
X141740000Y-92908380D01*
X141644761Y-92860761D01*
X141597142Y-92813142D01*
X141501904Y-92670285D01*
X141454285Y-92479809D01*
X141454285Y-92098857D01*
X141501904Y-92003619D01*
X141549523Y-91956000D01*
X141644761Y-91908380D01*
X141835238Y-91908380D01*
X141930476Y-91956000D01*
X141978095Y-92003619D01*
X142025714Y-92098857D01*
X142025714Y-92336952D01*
X141978095Y-92432190D01*
X141930476Y-92479809D01*
X141835238Y-92527428D01*
X141644761Y-92527428D01*
X141549523Y-92479809D01*
X141501904Y-92432190D01*
X141454285Y-92336952D01*
%TO.C,C10*%
D11*
X135262857Y-66397142D02*
X135310476Y-66444761D01*
X135453333Y-66492380D01*
X135548571Y-66492380D01*
X135691428Y-66444761D01*
X135786666Y-66349523D01*
X135834285Y-66254285D01*
X135881904Y-66063809D01*
X135881904Y-65920952D01*
X135834285Y-65730476D01*
X135786666Y-65635238D01*
X135691428Y-65540000D01*
X135548571Y-65492380D01*
X135453333Y-65492380D01*
X135310476Y-65540000D01*
X135262857Y-65587619D01*
X134310476Y-66492380D02*
X134881904Y-66492380D01*
X134596190Y-66492380D02*
X134596190Y-65492380D01*
X134691428Y-65635238D01*
X134786666Y-65730476D01*
X134881904Y-65778095D01*
X133691428Y-65492380D02*
X133596190Y-65492380D01*
X133500952Y-65540000D01*
X133453333Y-65587619D01*
X133405714Y-65682857D01*
X133358095Y-65873333D01*
X133358095Y-66111428D01*
X133405714Y-66301904D01*
X133453333Y-66397142D01*
X133500952Y-66444761D01*
X133596190Y-66492380D01*
X133691428Y-66492380D01*
X133786666Y-66444761D01*
X133834285Y-66397142D01*
X133881904Y-66301904D01*
X133929523Y-66111428D01*
X133929523Y-65873333D01*
X133881904Y-65682857D01*
X133834285Y-65587619D01*
X133786666Y-65540000D01*
X133691428Y-65492380D01*
%TO.C,C11*%
D12*
X137167857Y-82272142D02*
X137215476Y-82319761D01*
X137358333Y-82367380D01*
X137453571Y-82367380D01*
X137596428Y-82319761D01*
X137691666Y-82224523D01*
X137739285Y-82129285D01*
X137786904Y-81938809D01*
X137786904Y-81795952D01*
X137739285Y-81605476D01*
X137691666Y-81510238D01*
X137596428Y-81415000D01*
X137453571Y-81367380D01*
X137358333Y-81367380D01*
X137215476Y-81415000D01*
X137167857Y-81462619D01*
X136215476Y-82367380D02*
X136786904Y-82367380D01*
X136501190Y-82367380D02*
X136501190Y-81367380D01*
X136596428Y-81510238D01*
X136691666Y-81605476D01*
X136786904Y-81653095D01*
X135263095Y-82367380D02*
X135834523Y-82367380D01*
X135548809Y-82367380D02*
X135548809Y-81367380D01*
X135644047Y-81510238D01*
X135739285Y-81605476D01*
X135834523Y-81653095D01*
%TO.C,IC1*%
D11*
X138771190Y-66492380D02*
X138771190Y-65492380D01*
X137723571Y-66397142D02*
X137771190Y-66444761D01*
X137914047Y-66492380D01*
X138009285Y-66492380D01*
X138152142Y-66444761D01*
X138247380Y-66349523D01*
X138295000Y-66254285D01*
X138342619Y-66063809D01*
X138342619Y-65920952D01*
X138295000Y-65730476D01*
X138247380Y-65635238D01*
X138152142Y-65540000D01*
X138009285Y-65492380D01*
X137914047Y-65492380D01*
X137771190Y-65540000D01*
X137723571Y-65587619D01*
X136771190Y-66492380D02*
X137342619Y-66492380D01*
X137056904Y-66492380D02*
X137056904Y-65492380D01*
X137152142Y-65635238D01*
X137247380Y-65730476D01*
X137342619Y-65778095D01*
%TO.C,R1*%
X146978666Y-69794380D02*
X147312000Y-69318190D01*
X147550095Y-69794380D02*
X147550095Y-68794380D01*
X147169142Y-68794380D01*
X147073904Y-68842000D01*
X147026285Y-68889619D01*
X146978666Y-68984857D01*
X146978666Y-69127714D01*
X147026285Y-69222952D01*
X147073904Y-69270571D01*
X147169142Y-69318190D01*
X147550095Y-69318190D01*
X146026285Y-69794380D02*
X146597714Y-69794380D01*
X146312000Y-69794380D02*
X146312000Y-68794380D01*
X146407238Y-68937238D01*
X146502476Y-69032476D01*
X146597714Y-69080095D01*
%TO.C,R2*%
D12*
X145708666Y-88082380D02*
X146042000Y-87606190D01*
X146280095Y-88082380D02*
X146280095Y-87082380D01*
X145899142Y-87082380D01*
X145803904Y-87130000D01*
X145756285Y-87177619D01*
X145708666Y-87272857D01*
X145708666Y-87415714D01*
X145756285Y-87510952D01*
X145803904Y-87558571D01*
X145899142Y-87606190D01*
X146280095Y-87606190D01*
X145327714Y-87177619D02*
X145280095Y-87130000D01*
X145184857Y-87082380D01*
X144946761Y-87082380D01*
X144851523Y-87130000D01*
X144803904Y-87177619D01*
X144756285Y-87272857D01*
X144756285Y-87368095D01*
X144803904Y-87510952D01*
X145375333Y-88082380D01*
X144756285Y-88082380D01*
%TO.C,R3*%
X136691666Y-72842380D02*
X137025000Y-72366190D01*
X137263095Y-72842380D02*
X137263095Y-71842380D01*
X136882142Y-71842380D01*
X136786904Y-71890000D01*
X136739285Y-71937619D01*
X136691666Y-72032857D01*
X136691666Y-72175714D01*
X136739285Y-72270952D01*
X136786904Y-72318571D01*
X136882142Y-72366190D01*
X137263095Y-72366190D01*
X136358333Y-71842380D02*
X135739285Y-71842380D01*
X136072619Y-72223333D01*
X135929761Y-72223333D01*
X135834523Y-72270952D01*
X135786904Y-72318571D01*
X135739285Y-72413809D01*
X135739285Y-72651904D01*
X135786904Y-72747142D01*
X135834523Y-72794761D01*
X135929761Y-72842380D01*
X136215476Y-72842380D01*
X136310714Y-72794761D01*
X136358333Y-72747142D01*
%TO.C,R4*%
X139358666Y-92400380D02*
X139692000Y-91924190D01*
X139930095Y-92400380D02*
X139930095Y-91400380D01*
X139549142Y-91400380D01*
X139453904Y-91448000D01*
X139406285Y-91495619D01*
X139358666Y-91590857D01*
X139358666Y-91733714D01*
X139406285Y-91828952D01*
X139453904Y-91876571D01*
X139549142Y-91924190D01*
X139930095Y-91924190D01*
X138501523Y-91733714D02*
X138501523Y-92400380D01*
X138739619Y-91352761D02*
X138977714Y-92067047D01*
X138358666Y-92067047D01*
%TD*%
M02*
