M48
; DRILL file {KiCad (5.1.12)-1} date 11/09/22 13:17:01
; FORMAT={-:-/ absolute / inch / decimal}
; #@! TF.CreationDate,2022-11-09T13:17:01+09:00
; #@! TF.GenerationSoftware,Kicad,Pcbnew,(5.1.12)-1
; #@! TF.FileFunction,Plated,1,2,PTH
FMAT,2
INCH
T1C0.0197
T2C0.0315
T3C0.0354
T4C0.0394
%
G90
G05
T1
X2.2Y-2.4
X2.2Y-2.7
X2.2Y-3.1
X2.2Y-3.4
X2.2Y-4.1
X2.2Y-4.6
X2.2Y-5.0
X2.6Y-2.5
X2.6Y-2.7
X2.6Y-3.0
X2.6Y-3.5
X2.6Y-3.9
X2.9Y-2.5
X2.9Y-2.7
X2.9Y-3.0
X2.9Y-3.5
X2.9Y-3.9
X3.25Y-5.55
X3.25Y-5.75
X3.275Y-2.275
X3.275Y-3.15
X3.275Y-4.025
X3.6Y-5.55
X3.6Y-5.75
X3.625Y-3.25
X3.625Y-4.125
X3.675Y-2.375
X3.95Y-5.55
X3.95Y-5.75
X3.975Y-4.9
X4.125Y-2.275
X4.125Y-3.15
X4.125Y-4.025
X4.3Y-5.55
X4.3Y-5.75
X4.325Y-5.0
X4.475Y-2.375
X4.475Y-3.25
X4.475Y-4.125
X4.575Y-4.4
X4.6Y-5.55
X4.6Y-5.75
X4.7Y-2.2
X4.7Y-2.5
X4.7Y-2.8
X4.7Y-3.8
X4.7Y-4.1
X4.7Y-4.4
X4.7Y-4.7
X4.825Y-3.3
X4.85Y-4.9
X4.9Y-5.75
X5.0Y-2.2
X5.0Y-2.5
X5.0Y-2.8
X5.0Y-3.8
X5.0Y-4.1
X5.0Y-4.4
X5.0Y-4.7
X5.1Y-2.9
X5.1Y-3.75
X5.15Y-2.15
X5.2Y-5.0
X5.2Y-5.55
X5.2Y-5.75
X5.375Y-5.275
X5.39Y-2.89
X5.41Y-3.54
X5.5Y-2.6
X5.57Y-3.22
T2
X2.4Y-2.275
X2.4Y-3.15
X2.4Y-4.025
X2.4Y-4.9
X2.4008Y-4.75
X2.45Y-2.0758
X2.45Y-2.1742
X2.45Y-5.3008
X2.45Y-5.3992
X2.45Y-5.6008
X2.45Y-5.6992
X2.4992Y-4.75
X2.5Y-2.375
X2.5Y-3.25
X2.5Y-4.125
X2.5008Y-4.4
X2.5992Y-4.4
X2.65Y-2.85
X2.65Y-3.725
X2.65Y-4.6
X2.725Y-2.0758
X2.725Y-2.1742
X2.725Y-2.375
X2.75Y-2.85
X2.75Y-3.725
X2.75Y-4.6
X2.85Y-2.85
X2.85Y-3.725
X2.85Y-4.6
X2.95Y-2.175
X2.95Y-2.85
X2.95Y-3.05
X2.95Y-3.725
X2.95Y-3.925
X2.95Y-4.6
X2.95Y-5.3008
X2.95Y-5.3992
X2.95Y-5.6008
X2.95Y-5.6992
X3.05Y-2.275
X3.05Y-2.85
X3.05Y-3.15
X3.05Y-3.725
X3.05Y-4.025
X3.05Y-4.6
X3.1242Y-5.3008
X3.15Y-2.175
X3.15Y-2.85
X3.15Y-3.05
X3.15Y-3.725
X3.15Y-3.925
X3.15Y-4.6
X3.25Y-2.85
X3.25Y-3.725
X3.25Y-4.6
X3.325Y-2.175
X3.325Y-2.475
X3.325Y-3.05
X3.325Y-3.35
X3.325Y-3.925
X3.325Y-4.225
X3.35Y-2.85
X3.35Y-3.725
X3.35Y-4.6
X3.375Y-5.475
X3.425Y-2.175
X3.425Y-2.475
X3.425Y-3.05
X3.425Y-3.35
X3.425Y-3.925
X3.425Y-4.225
X3.45Y-2.85
X3.45Y-3.725
X3.45Y-4.6
X3.475Y-5.475
X3.525Y-2.175
X3.525Y-2.475
X3.525Y-3.05
X3.525Y-3.35
X3.525Y-3.925
X3.525Y-4.225
X3.55Y-2.85
X3.55Y-3.725
X3.55Y-4.6
X3.575Y-5.475
X3.625Y-2.175
X3.625Y-2.475
X3.625Y-3.05
X3.625Y-3.35
X3.625Y-3.925
X3.625Y-4.225
X3.625Y-4.8
X3.65Y-2.85
X3.65Y-3.725
X3.65Y-4.6
X3.675Y-5.475
X3.725Y-4.9
X3.75Y-2.85
X3.75Y-3.725
X3.75Y-4.6
X3.775Y-5.475
X3.8Y-2.175
X3.8Y-3.05
X3.8Y-3.925
X3.825Y-4.8
X3.85Y-2.85
X3.85Y-3.725
X3.85Y-4.6
X3.875Y-5.475
X3.9Y-2.275
X3.9Y-3.15
X3.9Y-4.025
X3.95Y-2.85
X3.95Y-3.725
X3.95Y-4.6
X3.975Y-5.475
X4.0Y-2.175
X4.0Y-3.05
X4.0Y-3.925
X4.025Y-4.8
X4.025Y-5.1
X4.075Y-5.475
X4.125Y-4.8
X4.125Y-5.1
X4.175Y-2.175
X4.175Y-2.475
X4.175Y-3.05
X4.175Y-3.35
X4.175Y-3.925
X4.175Y-4.225
X4.175Y-5.475
X4.225Y-4.8
X4.225Y-5.1
X4.275Y-2.175
X4.275Y-2.475
X4.275Y-3.05
X4.275Y-3.35
X4.275Y-3.925
X4.275Y-4.225
X4.275Y-5.475
X4.325Y-4.8
X4.325Y-5.1
X4.375Y-2.175
X4.375Y-2.475
X4.375Y-3.05
X4.375Y-3.35
X4.375Y-3.925
X4.375Y-4.225
X4.375Y-5.475
X4.475Y-2.175
X4.475Y-2.475
X4.475Y-3.05
X4.475Y-3.35
X4.475Y-3.925
X4.475Y-4.225
X4.475Y-5.475
X4.5Y-4.8
X4.575Y-5.475
X4.6Y-4.9
X4.675Y-5.475
X4.7Y-4.8
X4.9Y-4.8
X4.9Y-5.1
X5.0Y-4.8
X5.0Y-5.1
X5.1Y-4.8
X5.1Y-5.1
X5.1008Y-4.55
X5.1992Y-4.55
X5.2Y-2.67
X5.2Y-3.29
X5.2Y-3.94
X5.2Y-4.41
X5.2Y-4.8
X5.2Y-5.1
X5.2008Y-2.5
X5.2992Y-2.5
X5.375Y-2.125
X5.475Y-2.125
X5.6087Y-2.7953
X5.6087Y-3.4646
X5.6087Y-3.937
X5.6087Y-4.4094
X5.7087Y-4.037
X5.7087Y-4.5094
X5.725Y-4.8008
X5.725Y-4.8992
X5.8087Y-2.7953
X5.8087Y-3.4646
X5.8087Y-3.937
X5.8087Y-4.4094
T3
X3.325Y-2.6
X3.325Y-2.7
X3.325Y-3.475
X3.325Y-3.575
X3.325Y-4.35
X3.325Y-4.45
X3.425Y-2.6
X3.425Y-2.7
X3.425Y-3.475
X3.425Y-3.575
X3.425Y-4.35
X3.425Y-4.45
X3.525Y-2.6
X3.525Y-2.7
X3.525Y-3.475
X3.525Y-3.575
X3.525Y-4.35
X3.525Y-4.45
X4.025Y-5.225
X4.025Y-5.325
X4.075Y-2.6
X4.075Y-2.7
X4.075Y-3.475
X4.075Y-3.575
X4.075Y-4.35
X4.075Y-4.45
X4.125Y-5.225
X4.125Y-5.325
X4.175Y-2.6
X4.175Y-2.7
X4.175Y-3.475
X4.175Y-3.575
X4.175Y-4.35
X4.175Y-4.45
X4.225Y-5.225
X4.225Y-5.325
X4.275Y-2.6
X4.275Y-2.7
X4.275Y-3.475
X4.275Y-3.575
X4.275Y-4.35
X4.275Y-4.45
X4.8Y-5.225
X4.8Y-5.325
X4.9Y-5.225
X4.9Y-5.325
X5.0Y-5.225
X5.0Y-5.325
T4
X2.15Y-2.8508
X2.15Y-2.9492
X2.15Y-3.7258
X2.15Y-3.8242
X2.15Y-4.3508
X2.15Y-4.4492
X2.15Y-4.7508
X2.15Y-4.8492
X2.15Y-5.1524
X2.15Y-5.2508
X2.15Y-5.3492
X2.15Y-5.4476
X2.4Y-5.1
X2.7Y-5.2
X2.7Y-5.4
X2.7Y-5.6
X2.7Y-5.8
X2.8Y-5.0
X2.825Y-3.4
X2.825Y-4.25
X3.075Y-2.675
X3.075Y-3.55
X3.075Y-4.425
X3.2Y-5.1
X3.75Y-5.3
X3.825Y-2.675
X3.825Y-3.55
X3.825Y-4.425
X4.55Y-5.3
X4.675Y-3.05
X4.675Y-3.575
X4.9Y-2.35
X4.9Y-2.65
X4.9Y-3.95
X4.9Y-4.3
X5.4Y-3.05
X5.4Y-3.7
X5.4Y-4.15
X5.4Y-4.6
T0
M30
