G04 #@! TF.FileFunction,Copper,L2,Bot,Signal*
%FSLAX46Y46*%
G04 Gerber Fmt 4.6, Leading zero omitted, Abs format (unit mm)*
G04 Created by KiCad (PCBNEW 4.0.7) date 05/27/21 16:33:05*
%MOMM*%
%LPD*%
G01*
G04 APERTURE LIST*
%ADD10C,0.100000*%
%ADD11R,1.400000X1.400000*%
%ADD12C,1.400000*%
%ADD13C,0.600000*%
%ADD14C,0.250000*%
G04 APERTURE END LIST*
D10*
D11*
X63972000Y-138908000D03*
D12*
X63972000Y-136368000D03*
X66512000Y-138908000D03*
X66512000Y-136368000D03*
X69052000Y-138908000D03*
X69052000Y-136368000D03*
X71592000Y-138908000D03*
X71592000Y-136368000D03*
X74132000Y-138908000D03*
X74132000Y-136368000D03*
X76672000Y-138908000D03*
X76672000Y-136368000D03*
X79212000Y-138908000D03*
X79212000Y-136368000D03*
X81752000Y-138908000D03*
X81752000Y-136368000D03*
D11*
X91912000Y-138908000D03*
D12*
X91912000Y-136368000D03*
X94452000Y-138908000D03*
X94452000Y-136368000D03*
X96992000Y-138908000D03*
X96992000Y-136368000D03*
X99532000Y-138908000D03*
X99532000Y-136368000D03*
X102072000Y-138908000D03*
X102072000Y-136368000D03*
X104612000Y-138908000D03*
X104612000Y-136368000D03*
X107152000Y-138908000D03*
X107152000Y-136368000D03*
X109692000Y-138908000D03*
X109692000Y-136368000D03*
D11*
X72862000Y-56358000D03*
D12*
X72862000Y-53818000D03*
X75402000Y-56358000D03*
X75402000Y-53818000D03*
X77942000Y-56358000D03*
X77942000Y-53818000D03*
X80482000Y-56358000D03*
X80482000Y-53818000D03*
X83022000Y-56358000D03*
X83022000Y-53818000D03*
X85562000Y-56358000D03*
X85562000Y-53818000D03*
X88102000Y-56358000D03*
X88102000Y-53818000D03*
X90642000Y-56358000D03*
X90642000Y-53818000D03*
D11*
X60110000Y-91250000D03*
D12*
X62650000Y-91250000D03*
X65190000Y-91250000D03*
X67730000Y-91250000D03*
X70270000Y-91250000D03*
X72810000Y-91250000D03*
X75350000Y-91250000D03*
X77890000Y-91250000D03*
X77890000Y-62750000D03*
X75350000Y-62750000D03*
X72810000Y-62750000D03*
X70270000Y-62750000D03*
X67730000Y-62750000D03*
X65190000Y-62750000D03*
X62650000Y-62750000D03*
X60110000Y-62750000D03*
D11*
X60110000Y-129250000D03*
D12*
X62650000Y-129250000D03*
X65190000Y-129250000D03*
X67730000Y-129250000D03*
X70270000Y-129250000D03*
X72810000Y-129250000D03*
X75350000Y-129250000D03*
X77890000Y-129250000D03*
X77890000Y-100750000D03*
X75350000Y-100750000D03*
X72810000Y-100750000D03*
X70270000Y-100750000D03*
X67730000Y-100750000D03*
X65190000Y-100750000D03*
X62650000Y-100750000D03*
X60110000Y-100750000D03*
D11*
X98110000Y-91250000D03*
D12*
X100650000Y-91250000D03*
X103190000Y-91250000D03*
X105730000Y-91250000D03*
X108270000Y-91250000D03*
X110810000Y-91250000D03*
X113350000Y-91250000D03*
X115890000Y-91250000D03*
X115890000Y-62750000D03*
X113350000Y-62750000D03*
X110810000Y-62750000D03*
X108270000Y-62750000D03*
X105730000Y-62750000D03*
X103190000Y-62750000D03*
X100650000Y-62750000D03*
X98110000Y-62750000D03*
D11*
X98110000Y-129250000D03*
D12*
X100650000Y-129250000D03*
X103190000Y-129250000D03*
X105730000Y-129250000D03*
X108270000Y-129250000D03*
X110810000Y-129250000D03*
X113350000Y-129250000D03*
X115890000Y-129250000D03*
X115890000Y-100750000D03*
X113350000Y-100750000D03*
X110810000Y-100750000D03*
X108270000Y-100750000D03*
X105730000Y-100750000D03*
X103190000Y-100750000D03*
X100650000Y-100750000D03*
X98110000Y-100750000D03*
D13*
X75402000Y-67280000D03*
X57876000Y-67280000D03*
X57876000Y-134844000D03*
X72862000Y-68042000D03*
X58638000Y-68042000D03*
X58638000Y-134082000D03*
X74132000Y-66518000D03*
X61432000Y-133320000D03*
X76672000Y-103602000D03*
X75148000Y-132558000D03*
X77942000Y-131542000D03*
X81244000Y-102078000D03*
X81244000Y-134844000D03*
X80482000Y-130780000D03*
X79212000Y-102840000D03*
X83022000Y-104364000D03*
X82006000Y-105126000D03*
X105628000Y-67280000D03*
X93182000Y-67280000D03*
X91912000Y-92934000D03*
X95722000Y-93696000D03*
X113248000Y-68804000D03*
X94452000Y-68804000D03*
X99532000Y-94458000D03*
X110708000Y-68042000D03*
X96738000Y-68042000D03*
X91150000Y-134844000D03*
X98008000Y-66518000D03*
X91150000Y-66518000D03*
X114518000Y-134082000D03*
X110962000Y-134844000D03*
X108422000Y-134844000D03*
X107152000Y-102332000D03*
X111978000Y-103094000D03*
X109692000Y-103856000D03*
X72862000Y-60930000D03*
X103088000Y-65756000D03*
X72862000Y-89124000D03*
X108168000Y-64994000D03*
X70322000Y-57882000D03*
X74132000Y-57882000D03*
X58638000Y-58644000D03*
X98008000Y-86838000D03*
X60162000Y-86838000D03*
X113248000Y-89124000D03*
X75402000Y-89124000D03*
X80482000Y-87600000D03*
X100548000Y-87600000D03*
X62702000Y-87600000D03*
X78450000Y-88362000D03*
X108168000Y-88362000D03*
X70322000Y-88362000D03*
X83022000Y-99030000D03*
X81752000Y-97506000D03*
X103088000Y-97506000D03*
X85562000Y-66518000D03*
X79212000Y-66518000D03*
X84292000Y-98268000D03*
X108168000Y-98268000D03*
X88102000Y-124684000D03*
X98008000Y-124684000D03*
X59908000Y-124684000D03*
X86832000Y-68042000D03*
X76672000Y-68042000D03*
X113502000Y-126970000D03*
X75402000Y-126970000D03*
X89626000Y-125446000D03*
X62448000Y-125446000D03*
X100548000Y-125446000D03*
X90388000Y-126208000D03*
X108168000Y-126208000D03*
D14*
X63972000Y-138908000D02*
X65242000Y-137638000D01*
X67730000Y-64538000D02*
X67730000Y-62750000D01*
X66512000Y-65756000D02*
X67730000Y-64538000D01*
X66512000Y-132304000D02*
X66512000Y-65756000D01*
X65242000Y-133574000D02*
X66512000Y-132304000D01*
X65242000Y-137638000D02*
X65242000Y-133574000D01*
X63972000Y-136368000D02*
X63972000Y-94458000D01*
X65190000Y-93240000D02*
X65190000Y-91250000D01*
X63972000Y-94458000D02*
X65190000Y-93240000D01*
X66512000Y-138908000D02*
X67782000Y-137638000D01*
X67730000Y-93136000D02*
X67730000Y-91250000D01*
X69052000Y-94458000D02*
X67730000Y-93136000D01*
X69052000Y-132304000D02*
X69052000Y-94458000D01*
X67782000Y-133574000D02*
X69052000Y-132304000D01*
X67782000Y-137638000D02*
X67782000Y-133574000D01*
X57876000Y-134844000D02*
X57876000Y-67280000D01*
X75402000Y-67280000D02*
X75350000Y-67280000D01*
X75350000Y-67280000D02*
X75350000Y-62750000D01*
X69052000Y-138908000D02*
X70322000Y-137638000D01*
X72810000Y-92732000D02*
X72810000Y-91250000D01*
X71592000Y-93950000D02*
X72810000Y-92732000D01*
X71592000Y-132304000D02*
X71592000Y-93950000D01*
X70322000Y-133574000D02*
X71592000Y-132304000D01*
X70322000Y-137638000D02*
X70322000Y-133574000D01*
X72810000Y-67990000D02*
X72810000Y-62750000D01*
X72862000Y-68042000D02*
X72810000Y-67990000D01*
X58638000Y-134082000D02*
X58638000Y-68042000D01*
X71592000Y-138908000D02*
X72862000Y-137638000D01*
X74132000Y-132304000D02*
X74132000Y-66518000D01*
X72862000Y-133574000D02*
X74132000Y-132304000D01*
X72862000Y-137638000D02*
X72862000Y-133574000D01*
X60110000Y-64688000D02*
X60110000Y-62750000D01*
X61432000Y-66010000D02*
X60110000Y-64688000D01*
X61432000Y-133320000D02*
X61432000Y-66010000D01*
X74132000Y-138908000D02*
X75402000Y-137638000D01*
X76672000Y-132304000D02*
X76672000Y-103602000D01*
X75402000Y-133574000D02*
X76672000Y-132304000D01*
X75402000Y-137638000D02*
X75402000Y-133574000D01*
X74132000Y-136368000D02*
X74132000Y-133574000D01*
X74132000Y-133574000D02*
X75148000Y-132558000D01*
X76672000Y-138908000D02*
X77942000Y-137638000D01*
X77942000Y-137638000D02*
X77942000Y-131542000D01*
X81244000Y-134844000D02*
X81244000Y-102078000D01*
X79212000Y-138908000D02*
X80482000Y-137638000D01*
X80482000Y-137638000D02*
X80482000Y-130780000D01*
X79212000Y-136368000D02*
X79212000Y-102840000D01*
X81752000Y-138908000D02*
X83022000Y-137638000D01*
X83022000Y-137638000D02*
X83022000Y-104364000D01*
X81752000Y-136368000D02*
X81752000Y-135352000D01*
X82006000Y-135098000D02*
X82006000Y-105126000D01*
X81752000Y-135352000D02*
X82006000Y-135098000D01*
X91912000Y-138908000D02*
X93182000Y-137638000D01*
X105730000Y-67178000D02*
X105730000Y-62750000D01*
X105628000Y-67280000D02*
X105730000Y-67178000D01*
X93182000Y-137638000D02*
X93182000Y-67280000D01*
X91912000Y-136368000D02*
X91912000Y-92934000D01*
X94452000Y-138908000D02*
X95722000Y-137638000D01*
X95722000Y-137638000D02*
X95722000Y-93696000D01*
X94452000Y-136368000D02*
X94452000Y-68804000D01*
X113350000Y-68702000D02*
X113350000Y-62750000D01*
X113248000Y-68804000D02*
X113350000Y-68702000D01*
X96992000Y-138908000D02*
X98262000Y-137638000D01*
X99532000Y-131034000D02*
X99532000Y-94458000D01*
X98262000Y-132304000D02*
X99532000Y-131034000D01*
X98262000Y-137638000D02*
X98262000Y-132304000D01*
X96992000Y-136368000D02*
X96992000Y-135606000D01*
X110810000Y-67940000D02*
X110810000Y-62750000D01*
X110708000Y-68042000D02*
X110810000Y-67940000D01*
X96738000Y-135352000D02*
X96738000Y-68042000D01*
X96992000Y-135606000D02*
X96738000Y-135352000D01*
X99532000Y-138908000D02*
X100802000Y-137638000D01*
X100650000Y-65096000D02*
X100650000Y-62750000D01*
X101818000Y-66264000D02*
X100650000Y-65096000D01*
X101818000Y-131034000D02*
X101818000Y-66264000D01*
X100802000Y-132050000D02*
X101818000Y-131034000D01*
X100802000Y-137638000D02*
X100802000Y-132050000D01*
X91150000Y-66518000D02*
X91150000Y-134844000D01*
X98110000Y-66416000D02*
X98110000Y-62750000D01*
X98008000Y-66518000D02*
X98110000Y-66416000D01*
X102072000Y-138908000D02*
X103342000Y-137638000D01*
X105730000Y-101976000D02*
X105730000Y-100750000D01*
X104358000Y-103348000D02*
X105730000Y-101976000D01*
X104358000Y-131034000D02*
X104358000Y-103348000D01*
X103342000Y-132050000D02*
X104358000Y-131034000D01*
X103342000Y-137638000D02*
X103342000Y-132050000D01*
X102072000Y-136368000D02*
X102072000Y-132050000D01*
X103190000Y-130932000D02*
X103190000Y-129250000D01*
X102072000Y-132050000D02*
X103190000Y-130932000D01*
X104612000Y-138908000D02*
X105882000Y-137638000D01*
X105882000Y-137638000D02*
X105882000Y-129402000D01*
X105882000Y-129402000D02*
X105730000Y-129250000D01*
X113350000Y-104212000D02*
X113350000Y-100750000D01*
X114518000Y-105380000D02*
X113350000Y-104212000D01*
X114518000Y-134082000D02*
X114518000Y-105380000D01*
X107152000Y-138908000D02*
X108422000Y-137638000D01*
X110810000Y-134692000D02*
X110810000Y-129250000D01*
X110962000Y-134844000D02*
X110810000Y-134692000D01*
X108422000Y-137638000D02*
X108422000Y-134844000D01*
X107152000Y-136368000D02*
X107152000Y-102332000D01*
X111978000Y-136622000D02*
X111978000Y-103094000D01*
X109692000Y-138908000D02*
X111978000Y-136622000D01*
X109692000Y-136368000D02*
X109692000Y-103856000D01*
X72862000Y-60930000D02*
X72862000Y-56358000D01*
X65190000Y-62750000D02*
X65190000Y-61490000D01*
X65190000Y-61490000D02*
X72862000Y-53818000D01*
X103190000Y-62750000D02*
X103190000Y-65654000D01*
X103190000Y-65654000D02*
X103088000Y-65756000D01*
X75402000Y-56358000D02*
X75402000Y-60168000D01*
X73624000Y-88362000D02*
X72862000Y-89124000D01*
X73624000Y-67026000D02*
X73624000Y-88362000D01*
X73370000Y-66772000D02*
X73624000Y-67026000D01*
X73370000Y-64486000D02*
X73370000Y-66772000D01*
X74132000Y-63724000D02*
X73370000Y-64486000D01*
X74132000Y-61438000D02*
X74132000Y-63724000D01*
X75402000Y-60168000D02*
X74132000Y-61438000D01*
X108270000Y-62750000D02*
X108270000Y-64892000D01*
X108270000Y-64892000D02*
X108168000Y-64994000D01*
X75402000Y-53818000D02*
X74132000Y-55088000D01*
X70270000Y-57934000D02*
X70270000Y-62750000D01*
X70322000Y-57882000D02*
X70270000Y-57934000D01*
X74132000Y-55088000D02*
X74132000Y-57882000D01*
X60162000Y-66518000D02*
X60162000Y-86838000D01*
X58638000Y-64994000D02*
X60162000Y-66518000D01*
X58638000Y-58644000D02*
X58638000Y-64994000D01*
X60110000Y-91250000D02*
X60110000Y-86890000D01*
X98110000Y-86940000D02*
X98110000Y-91250000D01*
X98008000Y-86838000D02*
X98110000Y-86940000D01*
X60110000Y-86890000D02*
X60162000Y-86838000D01*
X77942000Y-53818000D02*
X76672000Y-55088000D01*
X75402000Y-68296000D02*
X75402000Y-89124000D01*
X76672000Y-67026000D02*
X75402000Y-68296000D01*
X76672000Y-55088000D02*
X76672000Y-67026000D01*
X75350000Y-91250000D02*
X75350000Y-89176000D01*
X113350000Y-89226000D02*
X113350000Y-91250000D01*
X113248000Y-89124000D02*
X113350000Y-89226000D01*
X75350000Y-89176000D02*
X75402000Y-89124000D01*
X80482000Y-56358000D02*
X80482000Y-87600000D01*
X62650000Y-91250000D02*
X62650000Y-87652000D01*
X100650000Y-87702000D02*
X100650000Y-91250000D01*
X100548000Y-87600000D02*
X100650000Y-87702000D01*
X62650000Y-87652000D02*
X62702000Y-87600000D01*
X80482000Y-53818000D02*
X79212000Y-55088000D01*
X78450000Y-64486000D02*
X78450000Y-88362000D01*
X79212000Y-63724000D02*
X78450000Y-64486000D01*
X79212000Y-55088000D02*
X79212000Y-63724000D01*
X70270000Y-91250000D02*
X70270000Y-88414000D01*
X108270000Y-88464000D02*
X108270000Y-91250000D01*
X108168000Y-88362000D02*
X108270000Y-88464000D01*
X70270000Y-88414000D02*
X70322000Y-88362000D01*
X83022000Y-56358000D02*
X83022000Y-99030000D01*
X83022000Y-53818000D02*
X81752000Y-55088000D01*
X81752000Y-55088000D02*
X81752000Y-97506000D01*
X103190000Y-97608000D02*
X103190000Y-100750000D01*
X103088000Y-97506000D02*
X103190000Y-97608000D01*
X77890000Y-129250000D02*
X77890000Y-103146000D01*
X85562000Y-66518000D02*
X85562000Y-56358000D01*
X79212000Y-101824000D02*
X79212000Y-66518000D01*
X77890000Y-103146000D02*
X79212000Y-101824000D01*
X85562000Y-53818000D02*
X84292000Y-55088000D01*
X84292000Y-55088000D02*
X84292000Y-98268000D01*
X108270000Y-98370000D02*
X108270000Y-100750000D01*
X108168000Y-98268000D02*
X108270000Y-98370000D01*
X88102000Y-56358000D02*
X88102000Y-124684000D01*
X60110000Y-129250000D02*
X60110000Y-124886000D01*
X98110000Y-124786000D02*
X98110000Y-129250000D01*
X98008000Y-124684000D02*
X98110000Y-124786000D01*
X60110000Y-124886000D02*
X59908000Y-124684000D01*
X75402000Y-126970000D02*
X75402000Y-103094000D01*
X86832000Y-55088000D02*
X88102000Y-53818000D01*
X86832000Y-68042000D02*
X86832000Y-55088000D01*
X76672000Y-101824000D02*
X76672000Y-68042000D01*
X75402000Y-103094000D02*
X76672000Y-101824000D01*
X75350000Y-129250000D02*
X75350000Y-127022000D01*
X113350000Y-127122000D02*
X113350000Y-129250000D01*
X113502000Y-126970000D02*
X113350000Y-127122000D01*
X75350000Y-127022000D02*
X75402000Y-126970000D01*
X89626000Y-65502000D02*
X89626000Y-125446000D01*
X90642000Y-64486000D02*
X90642000Y-56358000D01*
X89626000Y-65502000D02*
X90642000Y-64486000D01*
X62650000Y-129250000D02*
X62650000Y-125648000D01*
X62650000Y-125648000D02*
X62448000Y-125446000D01*
X100650000Y-125548000D02*
X100650000Y-129250000D01*
X100548000Y-125446000D02*
X100650000Y-125548000D01*
X90388000Y-66010000D02*
X90388000Y-126208000D01*
X91912000Y-55088000D02*
X90642000Y-53818000D01*
X91912000Y-64486000D02*
X91912000Y-55088000D01*
X90388000Y-66010000D02*
X91912000Y-64486000D01*
X108270000Y-126310000D02*
X108270000Y-129250000D01*
X108168000Y-126208000D02*
X108270000Y-126310000D01*
M02*
