M48
;DRILL file {KiCad 4.0.7} date 05/27/21 16:33:07
;FORMAT={-:-/ absolute / metric / decimal}
FMAT,2
METRIC,TZ
T1C0.300
T2C0.900
%
G90
G05
M71
T1
X57.876Y-67.28
X57.876Y-134.844
X58.638Y-58.644
X58.638Y-68.042
X58.638Y-134.082
X59.908Y-124.684
X60.162Y-86.838
X61.432Y-133.32
X62.448Y-125.446
X62.702Y-87.6
X70.322Y-57.882
X70.322Y-88.362
X72.862Y-60.93
X72.862Y-68.042
X72.862Y-89.124
X74.132Y-57.882
X74.132Y-66.518
X75.148Y-132.558
X75.402Y-67.28
X75.402Y-89.124
X75.402Y-126.97
X76.672Y-68.042
X76.672Y-103.602
X77.942Y-131.542
X78.45Y-88.362
X79.212Y-66.518
X79.212Y-102.84
X80.482Y-87.6
X80.482Y-130.78
X81.244Y-102.078
X81.244Y-134.844
X81.752Y-97.506
X82.006Y-105.126
X83.022Y-99.03
X83.022Y-104.364
X84.292Y-98.268
X85.562Y-66.518
X86.832Y-68.042
X88.102Y-124.684
X89.626Y-125.446
X90.388Y-126.208
X91.15Y-66.518
X91.15Y-134.844
X91.912Y-92.934
X93.182Y-67.28
X94.452Y-68.804
X95.722Y-93.696
X96.738Y-68.042
X98.008Y-66.518
X98.008Y-86.838
X98.008Y-124.684
X99.532Y-94.458
X100.548Y-87.6
X100.548Y-125.446
X103.088Y-65.756
X103.088Y-97.506
X105.628Y-67.28
X107.152Y-102.332
X108.168Y-64.994
X108.168Y-88.362
X108.168Y-98.268
X108.168Y-126.208
X108.422Y-134.844
X109.692Y-103.856
X110.708Y-68.042
X110.962Y-134.844
X111.978Y-103.094
X113.248Y-68.804
X113.248Y-89.124
X113.502Y-126.97
X114.518Y-134.082
T2
X60.11Y-62.75
X60.11Y-91.25
X60.11Y-100.75
X60.11Y-129.25
X62.65Y-62.75
X62.65Y-91.25
X62.65Y-100.75
X62.65Y-129.25
X63.972Y-136.368
X63.972Y-138.908
X65.19Y-62.75
X65.19Y-91.25
X65.19Y-100.75
X65.19Y-129.25
X66.512Y-136.368
X66.512Y-138.908
X67.73Y-62.75
X67.73Y-91.25
X67.73Y-100.75
X67.73Y-129.25
X69.052Y-136.368
X69.052Y-138.908
X70.27Y-62.75
X70.27Y-91.25
X70.27Y-100.75
X70.27Y-129.25
X71.592Y-136.368
X71.592Y-138.908
X72.81Y-62.75
X72.81Y-91.25
X72.81Y-100.75
X72.81Y-129.25
X72.862Y-53.818
X72.862Y-56.358
X74.132Y-136.368
X74.132Y-138.908
X75.35Y-62.75
X75.35Y-91.25
X75.35Y-100.75
X75.35Y-129.25
X75.402Y-53.818
X75.402Y-56.358
X76.672Y-136.368
X76.672Y-138.908
X77.89Y-62.75
X77.89Y-91.25
X77.89Y-100.75
X77.89Y-129.25
X77.942Y-53.818
X77.942Y-56.358
X79.212Y-136.368
X79.212Y-138.908
X80.482Y-53.818
X80.482Y-56.358
X81.752Y-136.368
X81.752Y-138.908
X83.022Y-53.818
X83.022Y-56.358
X85.562Y-53.818
X85.562Y-56.358
X88.102Y-53.818
X88.102Y-56.358
X90.642Y-53.818
X90.642Y-56.358
X91.912Y-136.368
X91.912Y-138.908
X94.452Y-136.368
X94.452Y-138.908
X96.992Y-136.368
X96.992Y-138.908
X98.11Y-62.75
X98.11Y-91.25
X98.11Y-100.75
X98.11Y-129.25
X99.532Y-136.368
X99.532Y-138.908
X100.65Y-62.75
X100.65Y-91.25
X100.65Y-100.75
X100.65Y-129.25
X102.072Y-136.368
X102.072Y-138.908
X103.19Y-62.75
X103.19Y-91.25
X103.19Y-100.75
X103.19Y-129.25
X104.612Y-136.368
X104.612Y-138.908
X105.73Y-62.75
X105.73Y-91.25
X105.73Y-100.75
X105.73Y-129.25
X107.152Y-136.368
X107.152Y-138.908
X108.27Y-62.75
X108.27Y-91.25
X108.27Y-100.75
X108.27Y-129.25
X109.692Y-136.368
X109.692Y-138.908
X110.81Y-62.75
X110.81Y-91.25
X110.81Y-100.75
X110.81Y-129.25
X113.35Y-62.75
X113.35Y-91.25
X113.35Y-100.75
X113.35Y-129.25
X115.89Y-62.75
X115.89Y-91.25
X115.89Y-100.75
X115.89Y-129.25
T0
M30
