G04 #@! TF.FileFunction,Soldermask,Bot*
%FSLAX46Y46*%
G04 Gerber Fmt 4.6, Leading zero omitted, Abs format (unit mm)*
G04 Created by KiCad (PCBNEW 4.0.7) date 06/22/21 16:10:00*
%MOMM*%
%LPD*%
G01*
G04 APERTURE LIST*
%ADD10C,0.100000*%
%ADD11C,0.500000*%
%ADD12C,3.900000*%
%ADD13C,2.000000*%
%ADD14R,2.000000X2.000000*%
%ADD15R,1.400000X1.400000*%
%ADD16O,5.500000X3.000000*%
%ADD17O,5.000000X3.000000*%
%ADD18O,3.000000X5.000000*%
%ADD19R,1.800000X1.800000*%
%ADD20C,1.800000*%
%ADD21C,2.100000*%
G04 APERTURE END LIST*
D10*
D11*
X124000000Y-50000000D02*
X52000000Y-50000000D01*
X126000000Y-52000000D02*
X124000000Y-50000000D01*
X126000000Y-140000000D02*
X126000000Y-52000000D01*
X124000000Y-142000000D02*
X126000000Y-140000000D01*
X52000000Y-142000000D02*
X124000000Y-142000000D01*
X50000000Y-140000000D02*
X52000000Y-142000000D01*
X50000000Y-52000000D02*
X50000000Y-140000000D01*
X52000000Y-50000000D02*
X50000000Y-52000000D01*
D12*
X54000000Y-54000000D03*
X122000000Y-54000000D03*
X122000000Y-138000000D03*
X54000000Y-138000000D03*
D13*
X53812000Y-121128000D03*
X53812000Y-118588000D03*
X53812000Y-116048000D03*
X53812000Y-113508000D03*
X53812000Y-110968000D03*
X53812000Y-108428000D03*
X53812000Y-123668000D03*
X53812000Y-126208000D03*
X53812000Y-128748000D03*
D14*
X53812000Y-131288000D03*
D13*
X72862000Y-134468000D03*
X72862000Y-138268000D03*
D15*
X96522000Y-63343000D03*
X94922000Y-63343000D03*
X96522000Y-55723000D03*
X94922000Y-55723000D03*
D16*
X62702000Y-127478000D03*
D17*
X62702000Y-133478000D03*
D18*
X67402000Y-130478000D03*
D19*
X74132000Y-52548000D03*
D20*
X74132000Y-55088000D03*
X74132000Y-57628000D03*
X74132000Y-60168000D03*
X74132000Y-62708000D03*
X74132000Y-65248000D03*
X74132000Y-67788000D03*
X74132000Y-70328000D03*
X74132000Y-72868000D03*
X74132000Y-75408000D03*
X74132000Y-77948000D03*
X74132000Y-80488000D03*
X74132000Y-83028000D03*
X74132000Y-85568000D03*
X74132000Y-88108000D03*
X74132000Y-90648000D03*
X74132000Y-93188000D03*
X74132000Y-95728000D03*
X74132000Y-98268000D03*
X99532000Y-98268000D03*
X99532000Y-95728000D03*
X99532000Y-93188000D03*
X99532000Y-90648000D03*
X99532000Y-88108000D03*
X99532000Y-85568000D03*
X99532000Y-83028000D03*
X99532000Y-80488000D03*
X99532000Y-77948000D03*
X99532000Y-75408000D03*
X99532000Y-72868000D03*
X99532000Y-70328000D03*
X99532000Y-67788000D03*
X99532000Y-65248000D03*
X99532000Y-62708000D03*
X99532000Y-60168000D03*
X99532000Y-57628000D03*
X99532000Y-55088000D03*
X99532000Y-52548000D03*
D19*
X61432000Y-79218000D03*
D20*
X61432000Y-81758000D03*
X61432000Y-84298000D03*
X61432000Y-86838000D03*
X61432000Y-89378000D03*
X61432000Y-91918000D03*
X61432000Y-94458000D03*
X61432000Y-96998000D03*
D19*
X61432000Y-102078000D03*
D20*
X61432000Y-104618000D03*
X61432000Y-107158000D03*
X61432000Y-109698000D03*
X61432000Y-112238000D03*
X61432000Y-114778000D03*
D19*
X109692000Y-114778000D03*
D20*
X109692000Y-112238000D03*
X109692000Y-109698000D03*
X109692000Y-107158000D03*
X109692000Y-104618000D03*
X109692000Y-102078000D03*
X109692000Y-99538000D03*
X109692000Y-96998000D03*
D19*
X109692000Y-92934000D03*
D20*
X109692000Y-90394000D03*
X109692000Y-87854000D03*
X109692000Y-85314000D03*
X109692000Y-82774000D03*
X109692000Y-80234000D03*
X109692000Y-77694000D03*
X109692000Y-75154000D03*
X109692000Y-72614000D03*
X109692000Y-70074000D03*
D15*
X94922000Y-65248000D03*
X96522000Y-65248000D03*
X94922000Y-57628000D03*
X96522000Y-57628000D03*
X65712000Y-102078000D03*
X67312000Y-102078000D03*
X65712000Y-104618000D03*
X67312000Y-104618000D03*
X65712000Y-107158000D03*
X67312000Y-107158000D03*
X65712000Y-109698000D03*
X67312000Y-109698000D03*
X112994000Y-129294000D03*
X112994000Y-127694000D03*
X110962000Y-129294000D03*
X110962000Y-127694000D03*
X106644000Y-129294000D03*
X106644000Y-127694000D03*
X104612000Y-129294000D03*
X104612000Y-127694000D03*
D21*
X118872000Y-71038000D03*
X118872000Y-64538000D03*
X123372000Y-71038000D03*
X123372000Y-64538000D03*
X118872000Y-105328000D03*
X118872000Y-98828000D03*
X123372000Y-105328000D03*
X123372000Y-98828000D03*
X118872000Y-93898000D03*
X118872000Y-87398000D03*
X123372000Y-93898000D03*
X123372000Y-87398000D03*
X118872000Y-82468000D03*
X118872000Y-75968000D03*
X123372000Y-82468000D03*
X123372000Y-75968000D03*
D13*
X72862000Y-128748000D03*
X79212000Y-122398000D03*
X123662000Y-60168000D03*
D19*
X79212000Y-127478000D03*
D20*
X81752000Y-127478000D03*
X84292000Y-127478000D03*
X86832000Y-127478000D03*
X79212000Y-130018000D03*
X81752000Y-130018000D03*
X84292000Y-130018000D03*
X86832000Y-130018000D03*
D19*
X90642000Y-127478000D03*
D20*
X93182000Y-127478000D03*
X95722000Y-127478000D03*
X98262000Y-127478000D03*
X90642000Y-130018000D03*
X93182000Y-130018000D03*
X95722000Y-130018000D03*
X98262000Y-130018000D03*
X98262000Y-132558000D03*
D13*
X53812000Y-93883000D03*
X53812000Y-96383000D03*
X53812000Y-98883000D03*
X53812000Y-101383000D03*
D14*
X53812000Y-91383000D03*
D13*
X53812000Y-103883000D03*
D19*
X56987000Y-72868000D03*
D20*
X54987000Y-72868000D03*
D19*
X51907000Y-69058000D03*
D20*
X54447000Y-69058000D03*
X56987000Y-69058000D03*
D19*
X54447000Y-79853000D03*
D20*
X56987000Y-79853000D03*
D19*
X54447000Y-77313000D03*
D20*
X56987000Y-77313000D03*
D13*
X55082000Y-84933000D03*
X52542000Y-84933000D03*
D15*
X59997000Y-69058000D03*
X61597000Y-69058000D03*
X59997000Y-76678000D03*
X61597000Y-76678000D03*
X57622000Y-84463000D03*
X57622000Y-82863000D03*
M02*
