G04 #@! TF.FileFunction,Legend,Bot*
%FSLAX46Y46*%
G04 Gerber Fmt 4.6, Leading zero omitted, Abs format (unit mm)*
G04 Created by KiCad (PCBNEW 4.0.7) date 06/22/21 16:10:00*
%MOMM*%
%LPD*%
G01*
G04 APERTURE LIST*
%ADD10C,0.100000*%
%ADD11C,0.300000*%
%ADD12C,0.150000*%
G04 APERTURE END LIST*
D10*
D11*
X96222000Y-62593000D02*
X95222000Y-62593000D01*
X95222000Y-64093000D02*
X96222000Y-64093000D01*
X96222000Y-54973000D02*
X95222000Y-54973000D01*
X95222000Y-56473000D02*
X96222000Y-56473000D01*
X95222000Y-65998000D02*
X96222000Y-65998000D01*
X96222000Y-64498000D02*
X95222000Y-64498000D01*
X95222000Y-58378000D02*
X96222000Y-58378000D01*
X96222000Y-56878000D02*
X95222000Y-56878000D01*
X66012000Y-102828000D02*
X67012000Y-102828000D01*
X67012000Y-101328000D02*
X66012000Y-101328000D01*
X66012000Y-105368000D02*
X67012000Y-105368000D01*
X67012000Y-103868000D02*
X66012000Y-103868000D01*
X66012000Y-107908000D02*
X67012000Y-107908000D01*
X67012000Y-106408000D02*
X66012000Y-106408000D01*
X66012000Y-110448000D02*
X67012000Y-110448000D01*
X67012000Y-108948000D02*
X66012000Y-108948000D01*
X113744000Y-128994000D02*
X113744000Y-127994000D01*
X112244000Y-127994000D02*
X112244000Y-128994000D01*
X111712000Y-128994000D02*
X111712000Y-127994000D01*
X110212000Y-127994000D02*
X110212000Y-128994000D01*
X107394000Y-128994000D02*
X107394000Y-127994000D01*
X105894000Y-127994000D02*
X105894000Y-128994000D01*
X105362000Y-128994000D02*
X105362000Y-127994000D01*
X103862000Y-127994000D02*
X103862000Y-128994000D01*
X60297000Y-69808000D02*
X61297000Y-69808000D01*
X61297000Y-68308000D02*
X60297000Y-68308000D01*
X60297000Y-77428000D02*
X61297000Y-77428000D01*
X61297000Y-75928000D02*
X60297000Y-75928000D01*
X58372000Y-84163000D02*
X58372000Y-83163000D01*
X56872000Y-83163000D02*
X56872000Y-84163000D01*
D12*
X95888666Y-61922143D02*
X95936285Y-61969762D01*
X96079142Y-62017381D01*
X96174380Y-62017381D01*
X96317238Y-61969762D01*
X96412476Y-61874524D01*
X96460095Y-61779286D01*
X96507714Y-61588810D01*
X96507714Y-61445952D01*
X96460095Y-61255476D01*
X96412476Y-61160238D01*
X96317238Y-61065000D01*
X96174380Y-61017381D01*
X96079142Y-61017381D01*
X95936285Y-61065000D01*
X95888666Y-61112619D01*
X95507714Y-61112619D02*
X95460095Y-61065000D01*
X95364857Y-61017381D01*
X95126761Y-61017381D01*
X95031523Y-61065000D01*
X94983904Y-61112619D01*
X94936285Y-61207857D01*
X94936285Y-61303095D01*
X94983904Y-61445952D01*
X95555333Y-62017381D01*
X94936285Y-62017381D01*
X95888666Y-54302143D02*
X95936285Y-54349762D01*
X96079142Y-54397381D01*
X96174380Y-54397381D01*
X96317238Y-54349762D01*
X96412476Y-54254524D01*
X96460095Y-54159286D01*
X96507714Y-53968810D01*
X96507714Y-53825952D01*
X96460095Y-53635476D01*
X96412476Y-53540238D01*
X96317238Y-53445000D01*
X96174380Y-53397381D01*
X96079142Y-53397381D01*
X95936285Y-53445000D01*
X95888666Y-53492619D01*
X95555333Y-53397381D02*
X94936285Y-53397381D01*
X95269619Y-53778333D01*
X95126761Y-53778333D01*
X95031523Y-53825952D01*
X94983904Y-53873571D01*
X94936285Y-53968810D01*
X94936285Y-54206905D01*
X94983904Y-54302143D01*
X95031523Y-54349762D01*
X95126761Y-54397381D01*
X95412476Y-54397381D01*
X95507714Y-54349762D01*
X95555333Y-54302143D01*
X95888666Y-67478381D02*
X96222000Y-67002190D01*
X96460095Y-67478381D02*
X96460095Y-66478381D01*
X96079142Y-66478381D01*
X95983904Y-66526000D01*
X95936285Y-66573619D01*
X95888666Y-66668857D01*
X95888666Y-66811714D01*
X95936285Y-66906952D01*
X95983904Y-66954571D01*
X96079142Y-67002190D01*
X96460095Y-67002190D01*
X94936285Y-67478381D02*
X95507714Y-67478381D01*
X95222000Y-67478381D02*
X95222000Y-66478381D01*
X95317238Y-66621238D01*
X95412476Y-66716476D01*
X95507714Y-66764095D01*
X95888666Y-59858381D02*
X96222000Y-59382190D01*
X96460095Y-59858381D02*
X96460095Y-58858381D01*
X96079142Y-58858381D01*
X95983904Y-58906000D01*
X95936285Y-58953619D01*
X95888666Y-59048857D01*
X95888666Y-59191714D01*
X95936285Y-59286952D01*
X95983904Y-59334571D01*
X96079142Y-59382190D01*
X96460095Y-59382190D01*
X95507714Y-58953619D02*
X95460095Y-58906000D01*
X95364857Y-58858381D01*
X95126761Y-58858381D01*
X95031523Y-58906000D01*
X94983904Y-58953619D01*
X94936285Y-59048857D01*
X94936285Y-59144095D01*
X94983904Y-59286952D01*
X95555333Y-59858381D01*
X94936285Y-59858381D01*
X63884666Y-102784381D02*
X64218000Y-102308190D01*
X64456095Y-102784381D02*
X64456095Y-101784381D01*
X64075142Y-101784381D01*
X63979904Y-101832000D01*
X63932285Y-101879619D01*
X63884666Y-101974857D01*
X63884666Y-102117714D01*
X63932285Y-102212952D01*
X63979904Y-102260571D01*
X64075142Y-102308190D01*
X64456095Y-102308190D01*
X62979904Y-101784381D02*
X63456095Y-101784381D01*
X63503714Y-102260571D01*
X63456095Y-102212952D01*
X63360857Y-102165333D01*
X63122761Y-102165333D01*
X63027523Y-102212952D01*
X62979904Y-102260571D01*
X62932285Y-102355810D01*
X62932285Y-102593905D01*
X62979904Y-102689143D01*
X63027523Y-102736762D01*
X63122761Y-102784381D01*
X63360857Y-102784381D01*
X63456095Y-102736762D01*
X63503714Y-102689143D01*
X63884666Y-105070381D02*
X64218000Y-104594190D01*
X64456095Y-105070381D02*
X64456095Y-104070381D01*
X64075142Y-104070381D01*
X63979904Y-104118000D01*
X63932285Y-104165619D01*
X63884666Y-104260857D01*
X63884666Y-104403714D01*
X63932285Y-104498952D01*
X63979904Y-104546571D01*
X64075142Y-104594190D01*
X64456095Y-104594190D01*
X63027523Y-104070381D02*
X63218000Y-104070381D01*
X63313238Y-104118000D01*
X63360857Y-104165619D01*
X63456095Y-104308476D01*
X63503714Y-104498952D01*
X63503714Y-104879905D01*
X63456095Y-104975143D01*
X63408476Y-105022762D01*
X63313238Y-105070381D01*
X63122761Y-105070381D01*
X63027523Y-105022762D01*
X62979904Y-104975143D01*
X62932285Y-104879905D01*
X62932285Y-104641810D01*
X62979904Y-104546571D01*
X63027523Y-104498952D01*
X63122761Y-104451333D01*
X63313238Y-104451333D01*
X63408476Y-104498952D01*
X63456095Y-104546571D01*
X63503714Y-104641810D01*
X63884666Y-107610381D02*
X64218000Y-107134190D01*
X64456095Y-107610381D02*
X64456095Y-106610381D01*
X64075142Y-106610381D01*
X63979904Y-106658000D01*
X63932285Y-106705619D01*
X63884666Y-106800857D01*
X63884666Y-106943714D01*
X63932285Y-107038952D01*
X63979904Y-107086571D01*
X64075142Y-107134190D01*
X64456095Y-107134190D01*
X63551333Y-106610381D02*
X62884666Y-106610381D01*
X63313238Y-107610381D01*
X63884666Y-110150381D02*
X64218000Y-109674190D01*
X64456095Y-110150381D02*
X64456095Y-109150381D01*
X64075142Y-109150381D01*
X63979904Y-109198000D01*
X63932285Y-109245619D01*
X63884666Y-109340857D01*
X63884666Y-109483714D01*
X63932285Y-109578952D01*
X63979904Y-109626571D01*
X64075142Y-109674190D01*
X64456095Y-109674190D01*
X63313238Y-109578952D02*
X63408476Y-109531333D01*
X63456095Y-109483714D01*
X63503714Y-109388476D01*
X63503714Y-109340857D01*
X63456095Y-109245619D01*
X63408476Y-109198000D01*
X63313238Y-109150381D01*
X63122761Y-109150381D01*
X63027523Y-109198000D01*
X62979904Y-109245619D01*
X62932285Y-109340857D01*
X62932285Y-109388476D01*
X62979904Y-109483714D01*
X63027523Y-109531333D01*
X63122761Y-109578952D01*
X63313238Y-109578952D01*
X63408476Y-109626571D01*
X63456095Y-109674190D01*
X63503714Y-109769429D01*
X63503714Y-109959905D01*
X63456095Y-110055143D01*
X63408476Y-110102762D01*
X63313238Y-110150381D01*
X63122761Y-110150381D01*
X63027523Y-110102762D01*
X62979904Y-110055143D01*
X62932285Y-109959905D01*
X62932285Y-109769429D01*
X62979904Y-109674190D01*
X63027523Y-109626571D01*
X63122761Y-109578952D01*
X113573381Y-131121334D02*
X113097190Y-130788000D01*
X113573381Y-130549905D02*
X112573381Y-130549905D01*
X112573381Y-130930858D01*
X112621000Y-131026096D01*
X112668619Y-131073715D01*
X112763857Y-131121334D01*
X112906714Y-131121334D01*
X113001952Y-131073715D01*
X113049571Y-131026096D01*
X113097190Y-130930858D01*
X113097190Y-130549905D01*
X113573381Y-131597524D02*
X113573381Y-131788000D01*
X113525762Y-131883239D01*
X113478143Y-131930858D01*
X113335286Y-132026096D01*
X113144810Y-132073715D01*
X112763857Y-132073715D01*
X112668619Y-132026096D01*
X112621000Y-131978477D01*
X112573381Y-131883239D01*
X112573381Y-131692762D01*
X112621000Y-131597524D01*
X112668619Y-131549905D01*
X112763857Y-131502286D01*
X113001952Y-131502286D01*
X113097190Y-131549905D01*
X113144810Y-131597524D01*
X113192429Y-131692762D01*
X113192429Y-131883239D01*
X113144810Y-131978477D01*
X113097190Y-132026096D01*
X113001952Y-132073715D01*
X111541381Y-131153143D02*
X111065190Y-130819809D01*
X111541381Y-130581714D02*
X110541381Y-130581714D01*
X110541381Y-130962667D01*
X110589000Y-131057905D01*
X110636619Y-131105524D01*
X110731857Y-131153143D01*
X110874714Y-131153143D01*
X110969952Y-131105524D01*
X111017571Y-131057905D01*
X111065190Y-130962667D01*
X111065190Y-130581714D01*
X111541381Y-132105524D02*
X111541381Y-131534095D01*
X111541381Y-131819809D02*
X110541381Y-131819809D01*
X110684238Y-131724571D01*
X110779476Y-131629333D01*
X110827095Y-131534095D01*
X110541381Y-132724571D02*
X110541381Y-132819810D01*
X110589000Y-132915048D01*
X110636619Y-132962667D01*
X110731857Y-133010286D01*
X110922333Y-133057905D01*
X111160429Y-133057905D01*
X111350905Y-133010286D01*
X111446143Y-132962667D01*
X111493762Y-132915048D01*
X111541381Y-132819810D01*
X111541381Y-132724571D01*
X111493762Y-132629333D01*
X111446143Y-132581714D01*
X111350905Y-132534095D01*
X111160429Y-132486476D01*
X110922333Y-132486476D01*
X110731857Y-132534095D01*
X110636619Y-132581714D01*
X110589000Y-132629333D01*
X110541381Y-132724571D01*
X107096381Y-131153143D02*
X106620190Y-130819809D01*
X107096381Y-130581714D02*
X106096381Y-130581714D01*
X106096381Y-130962667D01*
X106144000Y-131057905D01*
X106191619Y-131105524D01*
X106286857Y-131153143D01*
X106429714Y-131153143D01*
X106524952Y-131105524D01*
X106572571Y-131057905D01*
X106620190Y-130962667D01*
X106620190Y-130581714D01*
X107096381Y-132105524D02*
X107096381Y-131534095D01*
X107096381Y-131819809D02*
X106096381Y-131819809D01*
X106239238Y-131724571D01*
X106334476Y-131629333D01*
X106382095Y-131534095D01*
X107096381Y-133057905D02*
X107096381Y-132486476D01*
X107096381Y-132772190D02*
X106096381Y-132772190D01*
X106239238Y-132676952D01*
X106334476Y-132581714D01*
X106382095Y-132486476D01*
X105064381Y-131153143D02*
X104588190Y-130819809D01*
X105064381Y-130581714D02*
X104064381Y-130581714D01*
X104064381Y-130962667D01*
X104112000Y-131057905D01*
X104159619Y-131105524D01*
X104254857Y-131153143D01*
X104397714Y-131153143D01*
X104492952Y-131105524D01*
X104540571Y-131057905D01*
X104588190Y-130962667D01*
X104588190Y-130581714D01*
X105064381Y-132105524D02*
X105064381Y-131534095D01*
X105064381Y-131819809D02*
X104064381Y-131819809D01*
X104207238Y-131724571D01*
X104302476Y-131629333D01*
X104350095Y-131534095D01*
X104159619Y-132486476D02*
X104112000Y-132534095D01*
X104064381Y-132629333D01*
X104064381Y-132867429D01*
X104112000Y-132962667D01*
X104159619Y-133010286D01*
X104254857Y-133057905D01*
X104350095Y-133057905D01*
X104492952Y-133010286D01*
X105064381Y-132438857D01*
X105064381Y-133057905D01*
X61312857Y-71542381D02*
X61646191Y-71066190D01*
X61884286Y-71542381D02*
X61884286Y-70542381D01*
X61503333Y-70542381D01*
X61408095Y-70590000D01*
X61360476Y-70637619D01*
X61312857Y-70732857D01*
X61312857Y-70875714D01*
X61360476Y-70970952D01*
X61408095Y-71018571D01*
X61503333Y-71066190D01*
X61884286Y-71066190D01*
X60360476Y-71542381D02*
X60931905Y-71542381D01*
X60646191Y-71542381D02*
X60646191Y-70542381D01*
X60741429Y-70685238D01*
X60836667Y-70780476D01*
X60931905Y-70828095D01*
X60027143Y-70542381D02*
X59408095Y-70542381D01*
X59741429Y-70923333D01*
X59598571Y-70923333D01*
X59503333Y-70970952D01*
X59455714Y-71018571D01*
X59408095Y-71113810D01*
X59408095Y-71351905D01*
X59455714Y-71447143D01*
X59503333Y-71494762D01*
X59598571Y-71542381D01*
X59884286Y-71542381D01*
X59979524Y-71494762D01*
X60027143Y-71447143D01*
X61566857Y-75352381D02*
X61900191Y-74876190D01*
X62138286Y-75352381D02*
X62138286Y-74352381D01*
X61757333Y-74352381D01*
X61662095Y-74400000D01*
X61614476Y-74447619D01*
X61566857Y-74542857D01*
X61566857Y-74685714D01*
X61614476Y-74780952D01*
X61662095Y-74828571D01*
X61757333Y-74876190D01*
X62138286Y-74876190D01*
X60614476Y-75352381D02*
X61185905Y-75352381D01*
X60900191Y-75352381D02*
X60900191Y-74352381D01*
X60995429Y-74495238D01*
X61090667Y-74590476D01*
X61185905Y-74638095D01*
X59757333Y-74685714D02*
X59757333Y-75352381D01*
X59995429Y-74304762D02*
X60233524Y-75019048D01*
X59614476Y-75019048D01*
X58264857Y-86528381D02*
X58598191Y-86052190D01*
X58836286Y-86528381D02*
X58836286Y-85528381D01*
X58455333Y-85528381D01*
X58360095Y-85576000D01*
X58312476Y-85623619D01*
X58264857Y-85718857D01*
X58264857Y-85861714D01*
X58312476Y-85956952D01*
X58360095Y-86004571D01*
X58455333Y-86052190D01*
X58836286Y-86052190D01*
X57312476Y-86528381D02*
X57883905Y-86528381D01*
X57598191Y-86528381D02*
X57598191Y-85528381D01*
X57693429Y-85671238D01*
X57788667Y-85766476D01*
X57883905Y-85814095D01*
X56407714Y-85528381D02*
X56883905Y-85528381D01*
X56931524Y-86004571D01*
X56883905Y-85956952D01*
X56788667Y-85909333D01*
X56550571Y-85909333D01*
X56455333Y-85956952D01*
X56407714Y-86004571D01*
X56360095Y-86099810D01*
X56360095Y-86337905D01*
X56407714Y-86433143D01*
X56455333Y-86480762D01*
X56550571Y-86528381D01*
X56788667Y-86528381D01*
X56883905Y-86480762D01*
X56931524Y-86433143D01*
M02*
