G04 #@! TF.FileFunction,Legend,Top*
%FSLAX46Y46*%
G04 Gerber Fmt 4.6, Leading zero omitted, Abs format (unit mm)*
G04 Created by KiCad (PCBNEW 4.0.7) date 06/22/21 16:10:00*
%MOMM*%
%LPD*%
G01*
G04 APERTURE LIST*
%ADD10C,0.100000*%
%ADD11C,0.150000*%
%ADD12C,0.200000*%
%ADD13C,0.300000*%
%ADD14C,0.120000*%
G04 APERTURE END LIST*
D10*
D11*
X115312000Y-107610381D02*
X115312000Y-106610381D01*
X115978666Y-106610381D02*
X116169143Y-106610381D01*
X116264381Y-106658000D01*
X116359619Y-106753238D01*
X116407238Y-106943714D01*
X116407238Y-107277048D01*
X116359619Y-107467524D01*
X116264381Y-107562762D01*
X116169143Y-107610381D01*
X115978666Y-107610381D01*
X115883428Y-107562762D01*
X115788190Y-107467524D01*
X115740571Y-107277048D01*
X115740571Y-106943714D01*
X115788190Y-106753238D01*
X115883428Y-106658000D01*
X115978666Y-106610381D01*
X117359619Y-107610381D02*
X116788190Y-107610381D01*
X117073904Y-107610381D02*
X117073904Y-106610381D01*
X116978666Y-106753238D01*
X116883428Y-106848476D01*
X116788190Y-106896095D01*
X117692952Y-106610381D02*
X118312000Y-106610381D01*
X117978666Y-106991333D01*
X118121524Y-106991333D01*
X118216762Y-107038952D01*
X118264381Y-107086571D01*
X118312000Y-107181810D01*
X118312000Y-107419905D01*
X118264381Y-107515143D01*
X118216762Y-107562762D01*
X118121524Y-107610381D01*
X117835809Y-107610381D01*
X117740571Y-107562762D01*
X117692952Y-107515143D01*
X119454857Y-106562762D02*
X118597714Y-107848476D01*
X115185000Y-96180381D02*
X115185000Y-95180381D01*
X115851666Y-95180381D02*
X116042143Y-95180381D01*
X116137381Y-95228000D01*
X116232619Y-95323238D01*
X116280238Y-95513714D01*
X116280238Y-95847048D01*
X116232619Y-96037524D01*
X116137381Y-96132762D01*
X116042143Y-96180381D01*
X115851666Y-96180381D01*
X115756428Y-96132762D01*
X115661190Y-96037524D01*
X115613571Y-95847048D01*
X115613571Y-95513714D01*
X115661190Y-95323238D01*
X115756428Y-95228000D01*
X115851666Y-95180381D01*
X117232619Y-96180381D02*
X116661190Y-96180381D01*
X116946904Y-96180381D02*
X116946904Y-95180381D01*
X116851666Y-95323238D01*
X116756428Y-95418476D01*
X116661190Y-95466095D01*
X118137381Y-95180381D02*
X117661190Y-95180381D01*
X117613571Y-95656571D01*
X117661190Y-95608952D01*
X117756428Y-95561333D01*
X117994524Y-95561333D01*
X118089762Y-95608952D01*
X118137381Y-95656571D01*
X118185000Y-95751810D01*
X118185000Y-95989905D01*
X118137381Y-96085143D01*
X118089762Y-96132762D01*
X117994524Y-96180381D01*
X117756428Y-96180381D01*
X117661190Y-96132762D01*
X117613571Y-96085143D01*
X119327857Y-95132762D02*
X118470714Y-96418476D01*
X115439000Y-84750381D02*
X115439000Y-83750381D01*
X116105666Y-83750381D02*
X116296143Y-83750381D01*
X116391381Y-83798000D01*
X116486619Y-83893238D01*
X116534238Y-84083714D01*
X116534238Y-84417048D01*
X116486619Y-84607524D01*
X116391381Y-84702762D01*
X116296143Y-84750381D01*
X116105666Y-84750381D01*
X116010428Y-84702762D01*
X115915190Y-84607524D01*
X115867571Y-84417048D01*
X115867571Y-84083714D01*
X115915190Y-83893238D01*
X116010428Y-83798000D01*
X116105666Y-83750381D01*
X117486619Y-84750381D02*
X116915190Y-84750381D01*
X117200904Y-84750381D02*
X117200904Y-83750381D01*
X117105666Y-83893238D01*
X117010428Y-83988476D01*
X116915190Y-84036095D01*
X118343762Y-83750381D02*
X118153285Y-83750381D01*
X118058047Y-83798000D01*
X118010428Y-83845619D01*
X117915190Y-83988476D01*
X117867571Y-84178952D01*
X117867571Y-84559905D01*
X117915190Y-84655143D01*
X117962809Y-84702762D01*
X118058047Y-84750381D01*
X118248524Y-84750381D01*
X118343762Y-84702762D01*
X118391381Y-84655143D01*
X118439000Y-84559905D01*
X118439000Y-84321810D01*
X118391381Y-84226571D01*
X118343762Y-84178952D01*
X118248524Y-84131333D01*
X118058047Y-84131333D01*
X117962809Y-84178952D01*
X117915190Y-84226571D01*
X117867571Y-84321810D01*
X119581857Y-83702762D02*
X118724714Y-84988476D01*
X116296191Y-73320381D02*
X116296191Y-72320381D01*
X116962857Y-72320381D02*
X117153334Y-72320381D01*
X117248572Y-72368000D01*
X117343810Y-72463238D01*
X117391429Y-72653714D01*
X117391429Y-72987048D01*
X117343810Y-73177524D01*
X117248572Y-73272762D01*
X117153334Y-73320381D01*
X116962857Y-73320381D01*
X116867619Y-73272762D01*
X116772381Y-73177524D01*
X116724762Y-72987048D01*
X116724762Y-72653714D01*
X116772381Y-72463238D01*
X116867619Y-72368000D01*
X116962857Y-72320381D01*
X118010476Y-72320381D02*
X118105715Y-72320381D01*
X118200953Y-72368000D01*
X118248572Y-72415619D01*
X118296191Y-72510857D01*
X118343810Y-72701333D01*
X118343810Y-72939429D01*
X118296191Y-73129905D01*
X118248572Y-73225143D01*
X118200953Y-73272762D01*
X118105715Y-73320381D01*
X118010476Y-73320381D01*
X117915238Y-73272762D01*
X117867619Y-73225143D01*
X117820000Y-73129905D01*
X117772381Y-72939429D01*
X117772381Y-72701333D01*
X117820000Y-72510857D01*
X117867619Y-72415619D01*
X117915238Y-72368000D01*
X118010476Y-72320381D01*
X119486667Y-72272762D02*
X118629524Y-73558476D01*
X65861286Y-101355762D02*
X65004143Y-102641476D01*
X66194619Y-102403381D02*
X66194619Y-101403381D01*
X66861285Y-101403381D02*
X67051762Y-101403381D01*
X67147000Y-101451000D01*
X67242238Y-101546238D01*
X67289857Y-101736714D01*
X67289857Y-102070048D01*
X67242238Y-102260524D01*
X67147000Y-102355762D01*
X67051762Y-102403381D01*
X66861285Y-102403381D01*
X66766047Y-102355762D01*
X66670809Y-102260524D01*
X66623190Y-102070048D01*
X66623190Y-101736714D01*
X66670809Y-101546238D01*
X66766047Y-101451000D01*
X66861285Y-101403381D01*
X67623190Y-101403381D02*
X68242238Y-101403381D01*
X67908904Y-101784333D01*
X68051762Y-101784333D01*
X68147000Y-101831952D01*
X68194619Y-101879571D01*
X68242238Y-101974810D01*
X68242238Y-102212905D01*
X68194619Y-102308143D01*
X68147000Y-102355762D01*
X68051762Y-102403381D01*
X67766047Y-102403381D01*
X67670809Y-102355762D01*
X67623190Y-102308143D01*
X69099381Y-101736714D02*
X69099381Y-102403381D01*
X68861285Y-101355762D02*
X68623190Y-102070048D01*
X69242238Y-102070048D01*
X65861286Y-104022762D02*
X65004143Y-105308476D01*
X66194619Y-105070381D02*
X66194619Y-104070381D01*
X66861285Y-104070381D02*
X67051762Y-104070381D01*
X67147000Y-104118000D01*
X67242238Y-104213238D01*
X67289857Y-104403714D01*
X67289857Y-104737048D01*
X67242238Y-104927524D01*
X67147000Y-105022762D01*
X67051762Y-105070381D01*
X66861285Y-105070381D01*
X66766047Y-105022762D01*
X66670809Y-104927524D01*
X66623190Y-104737048D01*
X66623190Y-104403714D01*
X66670809Y-104213238D01*
X66766047Y-104118000D01*
X66861285Y-104070381D01*
X67623190Y-104070381D02*
X68242238Y-104070381D01*
X67908904Y-104451333D01*
X68051762Y-104451333D01*
X68147000Y-104498952D01*
X68194619Y-104546571D01*
X68242238Y-104641810D01*
X68242238Y-104879905D01*
X68194619Y-104975143D01*
X68147000Y-105022762D01*
X68051762Y-105070381D01*
X67766047Y-105070381D01*
X67670809Y-105022762D01*
X67623190Y-104975143D01*
X69147000Y-104070381D02*
X68670809Y-104070381D01*
X68623190Y-104546571D01*
X68670809Y-104498952D01*
X68766047Y-104451333D01*
X69004143Y-104451333D01*
X69099381Y-104498952D01*
X69147000Y-104546571D01*
X69194619Y-104641810D01*
X69194619Y-104879905D01*
X69147000Y-104975143D01*
X69099381Y-105022762D01*
X69004143Y-105070381D01*
X68766047Y-105070381D01*
X68670809Y-105022762D01*
X68623190Y-104975143D01*
X66139000Y-106562762D02*
X65281857Y-107848476D01*
X66329476Y-106610381D02*
X66662809Y-107610381D01*
X66996143Y-106610381D01*
X67329476Y-107610381D02*
X67329476Y-106610381D01*
X67710429Y-106610381D01*
X67805667Y-106658000D01*
X67853286Y-106705619D01*
X67900905Y-106800857D01*
X67900905Y-106943714D01*
X67853286Y-107038952D01*
X67805667Y-107086571D01*
X67710429Y-107134190D01*
X67329476Y-107134190D01*
X65988191Y-108721762D02*
X65131048Y-110007476D01*
X66178667Y-108769381D02*
X66512000Y-109769381D01*
X66845334Y-108769381D01*
X67178667Y-109769381D02*
X67178667Y-108769381D01*
X67750096Y-109769381D01*
X67750096Y-108769381D01*
X101651476Y-75606381D02*
X101651476Y-74606381D01*
X102222905Y-75606381D01*
X102222905Y-74606381D01*
X103270524Y-75511143D02*
X103222905Y-75558762D01*
X103080048Y-75606381D01*
X102984810Y-75606381D01*
X102841952Y-75558762D01*
X102746714Y-75463524D01*
X102699095Y-75368286D01*
X102651476Y-75177810D01*
X102651476Y-75034952D01*
X102699095Y-74844476D01*
X102746714Y-74749238D01*
X102841952Y-74654000D01*
X102984810Y-74606381D01*
X103080048Y-74606381D01*
X103222905Y-74654000D01*
X103270524Y-74701619D01*
X104413381Y-74558762D02*
X103556238Y-75844476D01*
X102866000Y-110277381D02*
X102866000Y-109277381D01*
X103532666Y-109277381D02*
X103723143Y-109277381D01*
X103818381Y-109325000D01*
X103913619Y-109420238D01*
X103961238Y-109610714D01*
X103961238Y-109944048D01*
X103913619Y-110134524D01*
X103818381Y-110229762D01*
X103723143Y-110277381D01*
X103532666Y-110277381D01*
X103437428Y-110229762D01*
X103342190Y-110134524D01*
X103294571Y-109944048D01*
X103294571Y-109610714D01*
X103342190Y-109420238D01*
X103437428Y-109325000D01*
X103532666Y-109277381D01*
X104342190Y-109372619D02*
X104389809Y-109325000D01*
X104485047Y-109277381D01*
X104723143Y-109277381D01*
X104818381Y-109325000D01*
X104866000Y-109372619D01*
X104913619Y-109467857D01*
X104913619Y-109563095D01*
X104866000Y-109705952D01*
X104294571Y-110277381D01*
X104913619Y-110277381D01*
X105246952Y-109277381D02*
X105913619Y-109277381D01*
X105485047Y-110277381D01*
X107008857Y-109229762D02*
X106151714Y-110515476D01*
X102961191Y-107483381D02*
X102961191Y-106483381D01*
X103627857Y-106483381D02*
X103818334Y-106483381D01*
X103913572Y-106531000D01*
X104008810Y-106626238D01*
X104056429Y-106816714D01*
X104056429Y-107150048D01*
X104008810Y-107340524D01*
X103913572Y-107435762D01*
X103818334Y-107483381D01*
X103627857Y-107483381D01*
X103532619Y-107435762D01*
X103437381Y-107340524D01*
X103389762Y-107150048D01*
X103389762Y-106816714D01*
X103437381Y-106626238D01*
X103532619Y-106531000D01*
X103627857Y-106483381D01*
X104913572Y-106816714D02*
X104913572Y-107483381D01*
X104675476Y-106435762D02*
X104437381Y-107150048D01*
X105056429Y-107150048D01*
X106151667Y-106435762D02*
X105294524Y-107721476D01*
X101850000Y-105324381D02*
X101850000Y-104324381D01*
X102516666Y-104324381D02*
X102707143Y-104324381D01*
X102802381Y-104372000D01*
X102897619Y-104467238D01*
X102945238Y-104657714D01*
X102945238Y-104991048D01*
X102897619Y-105181524D01*
X102802381Y-105276762D01*
X102707143Y-105324381D01*
X102516666Y-105324381D01*
X102421428Y-105276762D01*
X102326190Y-105181524D01*
X102278571Y-104991048D01*
X102278571Y-104657714D01*
X102326190Y-104467238D01*
X102421428Y-104372000D01*
X102516666Y-104324381D01*
X103897619Y-105324381D02*
X103326190Y-105324381D01*
X103611904Y-105324381D02*
X103611904Y-104324381D01*
X103516666Y-104467238D01*
X103421428Y-104562476D01*
X103326190Y-104610095D01*
X104230952Y-104324381D02*
X104850000Y-104324381D01*
X104516666Y-104705333D01*
X104659524Y-104705333D01*
X104754762Y-104752952D01*
X104802381Y-104800571D01*
X104850000Y-104895810D01*
X104850000Y-105133905D01*
X104802381Y-105229143D01*
X104754762Y-105276762D01*
X104659524Y-105324381D01*
X104373809Y-105324381D01*
X104278571Y-105276762D01*
X104230952Y-105229143D01*
X105992857Y-104276762D02*
X105135714Y-105562476D01*
X103247000Y-102149381D02*
X103247000Y-101149381D01*
X103913666Y-101149381D02*
X104104143Y-101149381D01*
X104199381Y-101197000D01*
X104294619Y-101292238D01*
X104342238Y-101482714D01*
X104342238Y-101816048D01*
X104294619Y-102006524D01*
X104199381Y-102101762D01*
X104104143Y-102149381D01*
X103913666Y-102149381D01*
X103818428Y-102101762D01*
X103723190Y-102006524D01*
X103675571Y-101816048D01*
X103675571Y-101482714D01*
X103723190Y-101292238D01*
X103818428Y-101197000D01*
X103913666Y-101149381D01*
X105294619Y-102149381D02*
X104723190Y-102149381D01*
X105008904Y-102149381D02*
X105008904Y-101149381D01*
X104913666Y-101292238D01*
X104818428Y-101387476D01*
X104723190Y-101435095D01*
X106151762Y-101482714D02*
X106151762Y-102149381D01*
X105913666Y-101101762D02*
X105675571Y-101816048D01*
X106294619Y-101816048D01*
X107389857Y-101101762D02*
X106532714Y-102387476D01*
X102231000Y-99990381D02*
X102231000Y-98990381D01*
X102897666Y-98990381D02*
X103088143Y-98990381D01*
X103183381Y-99038000D01*
X103278619Y-99133238D01*
X103326238Y-99323714D01*
X103326238Y-99657048D01*
X103278619Y-99847524D01*
X103183381Y-99942762D01*
X103088143Y-99990381D01*
X102897666Y-99990381D01*
X102802428Y-99942762D01*
X102707190Y-99847524D01*
X102659571Y-99657048D01*
X102659571Y-99323714D01*
X102707190Y-99133238D01*
X102802428Y-99038000D01*
X102897666Y-98990381D01*
X104278619Y-99990381D02*
X103707190Y-99990381D01*
X103992904Y-99990381D02*
X103992904Y-98990381D01*
X103897666Y-99133238D01*
X103802428Y-99228476D01*
X103707190Y-99276095D01*
X105183381Y-98990381D02*
X104707190Y-98990381D01*
X104659571Y-99466571D01*
X104707190Y-99418952D01*
X104802428Y-99371333D01*
X105040524Y-99371333D01*
X105135762Y-99418952D01*
X105183381Y-99466571D01*
X105231000Y-99561810D01*
X105231000Y-99799905D01*
X105183381Y-99895143D01*
X105135762Y-99942762D01*
X105040524Y-99990381D01*
X104802428Y-99990381D01*
X104707190Y-99942762D01*
X104659571Y-99895143D01*
X106373857Y-98942762D02*
X105516714Y-100228476D01*
X102231000Y-97323381D02*
X102231000Y-96323381D01*
X102897666Y-96323381D02*
X103088143Y-96323381D01*
X103183381Y-96371000D01*
X103278619Y-96466238D01*
X103326238Y-96656714D01*
X103326238Y-96990048D01*
X103278619Y-97180524D01*
X103183381Y-97275762D01*
X103088143Y-97323381D01*
X102897666Y-97323381D01*
X102802428Y-97275762D01*
X102707190Y-97180524D01*
X102659571Y-96990048D01*
X102659571Y-96656714D01*
X102707190Y-96466238D01*
X102802428Y-96371000D01*
X102897666Y-96323381D01*
X104278619Y-97323381D02*
X103707190Y-97323381D01*
X103992904Y-97323381D02*
X103992904Y-96323381D01*
X103897666Y-96466238D01*
X103802428Y-96561476D01*
X103707190Y-96609095D01*
X105135762Y-96323381D02*
X104945285Y-96323381D01*
X104850047Y-96371000D01*
X104802428Y-96418619D01*
X104707190Y-96561476D01*
X104659571Y-96751952D01*
X104659571Y-97132905D01*
X104707190Y-97228143D01*
X104754809Y-97275762D01*
X104850047Y-97323381D01*
X105040524Y-97323381D01*
X105135762Y-97275762D01*
X105183381Y-97228143D01*
X105231000Y-97132905D01*
X105231000Y-96894810D01*
X105183381Y-96799571D01*
X105135762Y-96751952D01*
X105040524Y-96704333D01*
X104850047Y-96704333D01*
X104754809Y-96751952D01*
X104707190Y-96799571D01*
X104659571Y-96894810D01*
X106373857Y-96275762D02*
X105516714Y-97561476D01*
X102104000Y-93259381D02*
X102104000Y-92259381D01*
X102770666Y-92259381D02*
X102961143Y-92259381D01*
X103056381Y-92307000D01*
X103151619Y-92402238D01*
X103199238Y-92592714D01*
X103199238Y-92926048D01*
X103151619Y-93116524D01*
X103056381Y-93211762D01*
X102961143Y-93259381D01*
X102770666Y-93259381D01*
X102675428Y-93211762D01*
X102580190Y-93116524D01*
X102532571Y-92926048D01*
X102532571Y-92592714D01*
X102580190Y-92402238D01*
X102675428Y-92307000D01*
X102770666Y-92259381D01*
X104151619Y-93259381D02*
X103580190Y-93259381D01*
X103865904Y-93259381D02*
X103865904Y-92259381D01*
X103770666Y-92402238D01*
X103675428Y-92497476D01*
X103580190Y-92545095D01*
X104484952Y-92259381D02*
X105151619Y-92259381D01*
X104723047Y-93259381D01*
X106246857Y-92211762D02*
X105389714Y-93497476D01*
X102104000Y-90846381D02*
X102104000Y-89846381D01*
X102770666Y-89846381D02*
X102961143Y-89846381D01*
X103056381Y-89894000D01*
X103151619Y-89989238D01*
X103199238Y-90179714D01*
X103199238Y-90513048D01*
X103151619Y-90703524D01*
X103056381Y-90798762D01*
X102961143Y-90846381D01*
X102770666Y-90846381D01*
X102675428Y-90798762D01*
X102580190Y-90703524D01*
X102532571Y-90513048D01*
X102532571Y-90179714D01*
X102580190Y-89989238D01*
X102675428Y-89894000D01*
X102770666Y-89846381D01*
X103580190Y-89941619D02*
X103627809Y-89894000D01*
X103723047Y-89846381D01*
X103961143Y-89846381D01*
X104056381Y-89894000D01*
X104104000Y-89941619D01*
X104151619Y-90036857D01*
X104151619Y-90132095D01*
X104104000Y-90274952D01*
X103532571Y-90846381D01*
X104151619Y-90846381D01*
X105008762Y-89846381D02*
X104818285Y-89846381D01*
X104723047Y-89894000D01*
X104675428Y-89941619D01*
X104580190Y-90084476D01*
X104532571Y-90274952D01*
X104532571Y-90655905D01*
X104580190Y-90751143D01*
X104627809Y-90798762D01*
X104723047Y-90846381D01*
X104913524Y-90846381D01*
X105008762Y-90798762D01*
X105056381Y-90751143D01*
X105104000Y-90655905D01*
X105104000Y-90417810D01*
X105056381Y-90322571D01*
X105008762Y-90274952D01*
X104913524Y-90227333D01*
X104723047Y-90227333D01*
X104627809Y-90274952D01*
X104580190Y-90322571D01*
X104532571Y-90417810D01*
X106246857Y-89798762D02*
X105389714Y-91084476D01*
X102104000Y-88306381D02*
X102104000Y-87306381D01*
X102770666Y-87306381D02*
X102961143Y-87306381D01*
X103056381Y-87354000D01*
X103151619Y-87449238D01*
X103199238Y-87639714D01*
X103199238Y-87973048D01*
X103151619Y-88163524D01*
X103056381Y-88258762D01*
X102961143Y-88306381D01*
X102770666Y-88306381D01*
X102675428Y-88258762D01*
X102580190Y-88163524D01*
X102532571Y-87973048D01*
X102532571Y-87639714D01*
X102580190Y-87449238D01*
X102675428Y-87354000D01*
X102770666Y-87306381D01*
X103580190Y-87401619D02*
X103627809Y-87354000D01*
X103723047Y-87306381D01*
X103961143Y-87306381D01*
X104056381Y-87354000D01*
X104104000Y-87401619D01*
X104151619Y-87496857D01*
X104151619Y-87592095D01*
X104104000Y-87734952D01*
X103532571Y-88306381D01*
X104151619Y-88306381D01*
X105056381Y-87306381D02*
X104580190Y-87306381D01*
X104532571Y-87782571D01*
X104580190Y-87734952D01*
X104675428Y-87687333D01*
X104913524Y-87687333D01*
X105008762Y-87734952D01*
X105056381Y-87782571D01*
X105104000Y-87877810D01*
X105104000Y-88115905D01*
X105056381Y-88211143D01*
X105008762Y-88258762D01*
X104913524Y-88306381D01*
X104675428Y-88306381D01*
X104580190Y-88258762D01*
X104532571Y-88211143D01*
X106246857Y-87258762D02*
X105389714Y-88544476D01*
X101977000Y-86401381D02*
X101977000Y-85401381D01*
X102643666Y-85401381D02*
X102834143Y-85401381D01*
X102929381Y-85449000D01*
X103024619Y-85544238D01*
X103072238Y-85734714D01*
X103072238Y-86068048D01*
X103024619Y-86258524D01*
X102929381Y-86353762D01*
X102834143Y-86401381D01*
X102643666Y-86401381D01*
X102548428Y-86353762D01*
X102453190Y-86258524D01*
X102405571Y-86068048D01*
X102405571Y-85734714D01*
X102453190Y-85544238D01*
X102548428Y-85449000D01*
X102643666Y-85401381D01*
X103453190Y-85496619D02*
X103500809Y-85449000D01*
X103596047Y-85401381D01*
X103834143Y-85401381D01*
X103929381Y-85449000D01*
X103977000Y-85496619D01*
X104024619Y-85591857D01*
X104024619Y-85687095D01*
X103977000Y-85829952D01*
X103405571Y-86401381D01*
X104024619Y-86401381D01*
X104357952Y-85401381D02*
X104977000Y-85401381D01*
X104643666Y-85782333D01*
X104786524Y-85782333D01*
X104881762Y-85829952D01*
X104929381Y-85877571D01*
X104977000Y-85972810D01*
X104977000Y-86210905D01*
X104929381Y-86306143D01*
X104881762Y-86353762D01*
X104786524Y-86401381D01*
X104500809Y-86401381D01*
X104405571Y-86353762D01*
X104357952Y-86306143D01*
X106119857Y-85353762D02*
X105262714Y-86639476D01*
X102104000Y-83226381D02*
X102104000Y-82226381D01*
X102770666Y-82226381D02*
X102961143Y-82226381D01*
X103056381Y-82274000D01*
X103151619Y-82369238D01*
X103199238Y-82559714D01*
X103199238Y-82893048D01*
X103151619Y-83083524D01*
X103056381Y-83178762D01*
X102961143Y-83226381D01*
X102770666Y-83226381D01*
X102675428Y-83178762D01*
X102580190Y-83083524D01*
X102532571Y-82893048D01*
X102532571Y-82559714D01*
X102580190Y-82369238D01*
X102675428Y-82274000D01*
X102770666Y-82226381D01*
X104151619Y-83226381D02*
X103580190Y-83226381D01*
X103865904Y-83226381D02*
X103865904Y-82226381D01*
X103770666Y-82369238D01*
X103675428Y-82464476D01*
X103580190Y-82512095D01*
X104627809Y-83226381D02*
X104818285Y-83226381D01*
X104913524Y-83178762D01*
X104961143Y-83131143D01*
X105056381Y-82988286D01*
X105104000Y-82797810D01*
X105104000Y-82416857D01*
X105056381Y-82321619D01*
X105008762Y-82274000D01*
X104913524Y-82226381D01*
X104723047Y-82226381D01*
X104627809Y-82274000D01*
X104580190Y-82321619D01*
X104532571Y-82416857D01*
X104532571Y-82654952D01*
X104580190Y-82750190D01*
X104627809Y-82797810D01*
X104723047Y-82845429D01*
X104913524Y-82845429D01*
X105008762Y-82797810D01*
X105056381Y-82750190D01*
X105104000Y-82654952D01*
X106246857Y-82178762D02*
X105389714Y-83464476D01*
X102231000Y-80178381D02*
X102231000Y-79178381D01*
X102897666Y-79178381D02*
X103088143Y-79178381D01*
X103183381Y-79226000D01*
X103278619Y-79321238D01*
X103326238Y-79511714D01*
X103326238Y-79845048D01*
X103278619Y-80035524D01*
X103183381Y-80130762D01*
X103088143Y-80178381D01*
X102897666Y-80178381D01*
X102802428Y-80130762D01*
X102707190Y-80035524D01*
X102659571Y-79845048D01*
X102659571Y-79511714D01*
X102707190Y-79321238D01*
X102802428Y-79226000D01*
X102897666Y-79178381D01*
X104278619Y-80178381D02*
X103707190Y-80178381D01*
X103992904Y-80178381D02*
X103992904Y-79178381D01*
X103897666Y-79321238D01*
X103802428Y-79416476D01*
X103707190Y-79464095D01*
X104850047Y-79606952D02*
X104754809Y-79559333D01*
X104707190Y-79511714D01*
X104659571Y-79416476D01*
X104659571Y-79368857D01*
X104707190Y-79273619D01*
X104754809Y-79226000D01*
X104850047Y-79178381D01*
X105040524Y-79178381D01*
X105135762Y-79226000D01*
X105183381Y-79273619D01*
X105231000Y-79368857D01*
X105231000Y-79416476D01*
X105183381Y-79511714D01*
X105135762Y-79559333D01*
X105040524Y-79606952D01*
X104850047Y-79606952D01*
X104754809Y-79654571D01*
X104707190Y-79702190D01*
X104659571Y-79797429D01*
X104659571Y-79987905D01*
X104707190Y-80083143D01*
X104754809Y-80130762D01*
X104850047Y-80178381D01*
X105040524Y-80178381D01*
X105135762Y-80130762D01*
X105183381Y-80083143D01*
X105231000Y-79987905D01*
X105231000Y-79797429D01*
X105183381Y-79702190D01*
X105135762Y-79654571D01*
X105040524Y-79606952D01*
X106373857Y-79130762D02*
X105516714Y-80416476D01*
X101469000Y-72177381D02*
X101469000Y-71177381D01*
X102135666Y-71177381D02*
X102326143Y-71177381D01*
X102421381Y-71225000D01*
X102516619Y-71320238D01*
X102564238Y-71510714D01*
X102564238Y-71844048D01*
X102516619Y-72034524D01*
X102421381Y-72129762D01*
X102326143Y-72177381D01*
X102135666Y-72177381D01*
X102040428Y-72129762D01*
X101945190Y-72034524D01*
X101897571Y-71844048D01*
X101897571Y-71510714D01*
X101945190Y-71320238D01*
X102040428Y-71225000D01*
X102135666Y-71177381D01*
X102945190Y-71272619D02*
X102992809Y-71225000D01*
X103088047Y-71177381D01*
X103326143Y-71177381D01*
X103421381Y-71225000D01*
X103469000Y-71272619D01*
X103516619Y-71367857D01*
X103516619Y-71463095D01*
X103469000Y-71605952D01*
X102897571Y-72177381D01*
X103516619Y-72177381D01*
X104469000Y-72177381D02*
X103897571Y-72177381D01*
X104183285Y-72177381D02*
X104183285Y-71177381D01*
X104088047Y-71320238D01*
X103992809Y-71415476D01*
X103897571Y-71463095D01*
X105611857Y-71129762D02*
X104754714Y-72415476D01*
X101469000Y-69891381D02*
X101469000Y-68891381D01*
X102135666Y-68891381D02*
X102326143Y-68891381D01*
X102421381Y-68939000D01*
X102516619Y-69034238D01*
X102564238Y-69224714D01*
X102564238Y-69558048D01*
X102516619Y-69748524D01*
X102421381Y-69843762D01*
X102326143Y-69891381D01*
X102135666Y-69891381D01*
X102040428Y-69843762D01*
X101945190Y-69748524D01*
X101897571Y-69558048D01*
X101897571Y-69224714D01*
X101945190Y-69034238D01*
X102040428Y-68939000D01*
X102135666Y-68891381D01*
X102945190Y-68986619D02*
X102992809Y-68939000D01*
X103088047Y-68891381D01*
X103326143Y-68891381D01*
X103421381Y-68939000D01*
X103469000Y-68986619D01*
X103516619Y-69081857D01*
X103516619Y-69177095D01*
X103469000Y-69319952D01*
X102897571Y-69891381D01*
X103516619Y-69891381D01*
X103897571Y-68986619D02*
X103945190Y-68939000D01*
X104040428Y-68891381D01*
X104278524Y-68891381D01*
X104373762Y-68939000D01*
X104421381Y-68986619D01*
X104469000Y-69081857D01*
X104469000Y-69177095D01*
X104421381Y-69319952D01*
X103849952Y-69891381D01*
X104469000Y-69891381D01*
X105611857Y-68843762D02*
X104754714Y-70129476D01*
X65520238Y-112690381D02*
X65520238Y-111690381D01*
X66186904Y-111690381D02*
X66377381Y-111690381D01*
X66472619Y-111738000D01*
X66567857Y-111833238D01*
X66615476Y-112023714D01*
X66615476Y-112357048D01*
X66567857Y-112547524D01*
X66472619Y-112642762D01*
X66377381Y-112690381D01*
X66186904Y-112690381D01*
X66091666Y-112642762D01*
X65996428Y-112547524D01*
X65948809Y-112357048D01*
X65948809Y-112023714D01*
X65996428Y-111833238D01*
X66091666Y-111738000D01*
X66186904Y-111690381D01*
X66996428Y-111785619D02*
X67044047Y-111738000D01*
X67139285Y-111690381D01*
X67377381Y-111690381D01*
X67472619Y-111738000D01*
X67520238Y-111785619D01*
X67567857Y-111880857D01*
X67567857Y-111976095D01*
X67520238Y-112118952D01*
X66948809Y-112690381D01*
X67567857Y-112690381D01*
X68520238Y-112690381D02*
X67948809Y-112690381D01*
X68234523Y-112690381D02*
X68234523Y-111690381D01*
X68139285Y-111833238D01*
X68044047Y-111928476D01*
X67948809Y-111976095D01*
X69663095Y-111642762D02*
X68805952Y-112928476D01*
X69948809Y-112642762D02*
X70091666Y-112690381D01*
X70329762Y-112690381D01*
X70425000Y-112642762D01*
X70472619Y-112595143D01*
X70520238Y-112499905D01*
X70520238Y-112404667D01*
X70472619Y-112309429D01*
X70425000Y-112261810D01*
X70329762Y-112214190D01*
X70139285Y-112166571D01*
X70044047Y-112118952D01*
X69996428Y-112071333D01*
X69948809Y-111976095D01*
X69948809Y-111880857D01*
X69996428Y-111785619D01*
X70044047Y-111738000D01*
X70139285Y-111690381D01*
X70377381Y-111690381D01*
X70520238Y-111738000D01*
X70948809Y-112690381D02*
X70948809Y-111690381D01*
X71186904Y-111690381D01*
X71329762Y-111738000D01*
X71425000Y-111833238D01*
X71472619Y-111928476D01*
X71520238Y-112118952D01*
X71520238Y-112261810D01*
X71472619Y-112452286D01*
X71425000Y-112547524D01*
X71329762Y-112642762D01*
X71186904Y-112690381D01*
X70948809Y-112690381D01*
X71901190Y-112404667D02*
X72377381Y-112404667D01*
X71805952Y-112690381D02*
X72139285Y-111690381D01*
X72472619Y-112690381D01*
X65417048Y-115230381D02*
X65417048Y-114230381D01*
X66083714Y-114230381D02*
X66274191Y-114230381D01*
X66369429Y-114278000D01*
X66464667Y-114373238D01*
X66512286Y-114563714D01*
X66512286Y-114897048D01*
X66464667Y-115087524D01*
X66369429Y-115182762D01*
X66274191Y-115230381D01*
X66083714Y-115230381D01*
X65988476Y-115182762D01*
X65893238Y-115087524D01*
X65845619Y-114897048D01*
X65845619Y-114563714D01*
X65893238Y-114373238D01*
X65988476Y-114278000D01*
X66083714Y-114230381D01*
X66893238Y-114325619D02*
X66940857Y-114278000D01*
X67036095Y-114230381D01*
X67274191Y-114230381D01*
X67369429Y-114278000D01*
X67417048Y-114325619D01*
X67464667Y-114420857D01*
X67464667Y-114516095D01*
X67417048Y-114658952D01*
X66845619Y-115230381D01*
X67464667Y-115230381D01*
X67845619Y-114325619D02*
X67893238Y-114278000D01*
X67988476Y-114230381D01*
X68226572Y-114230381D01*
X68321810Y-114278000D01*
X68369429Y-114325619D01*
X68417048Y-114420857D01*
X68417048Y-114516095D01*
X68369429Y-114658952D01*
X67798000Y-115230381D01*
X68417048Y-115230381D01*
X69559905Y-114182762D02*
X68702762Y-115468476D01*
X69845619Y-115182762D02*
X69988476Y-115230381D01*
X70226572Y-115230381D01*
X70321810Y-115182762D01*
X70369429Y-115135143D01*
X70417048Y-115039905D01*
X70417048Y-114944667D01*
X70369429Y-114849429D01*
X70321810Y-114801810D01*
X70226572Y-114754190D01*
X70036095Y-114706571D01*
X69940857Y-114658952D01*
X69893238Y-114611333D01*
X69845619Y-114516095D01*
X69845619Y-114420857D01*
X69893238Y-114325619D01*
X69940857Y-114278000D01*
X70036095Y-114230381D01*
X70274191Y-114230381D01*
X70417048Y-114278000D01*
X71417048Y-115135143D02*
X71369429Y-115182762D01*
X71226572Y-115230381D01*
X71131334Y-115230381D01*
X70988476Y-115182762D01*
X70893238Y-115087524D01*
X70845619Y-114992286D01*
X70798000Y-114801810D01*
X70798000Y-114658952D01*
X70845619Y-114468476D01*
X70893238Y-114373238D01*
X70988476Y-114278000D01*
X71131334Y-114230381D01*
X71226572Y-114230381D01*
X71369429Y-114278000D01*
X71417048Y-114325619D01*
X72321810Y-115230381D02*
X71845619Y-115230381D01*
X71845619Y-114230381D01*
X58519381Y-123485429D02*
X59281286Y-123485429D01*
X58900334Y-123866381D02*
X58900334Y-123104476D01*
X60233667Y-122866381D02*
X59757476Y-122866381D01*
X59709857Y-123342571D01*
X59757476Y-123294952D01*
X59852714Y-123247333D01*
X60090810Y-123247333D01*
X60186048Y-123294952D01*
X60233667Y-123342571D01*
X60281286Y-123437810D01*
X60281286Y-123675905D01*
X60233667Y-123771143D01*
X60186048Y-123818762D01*
X60090810Y-123866381D01*
X59852714Y-123866381D01*
X59757476Y-123818762D01*
X59709857Y-123771143D01*
X60567000Y-122866381D02*
X60900333Y-123866381D01*
X61233667Y-122866381D01*
X62519381Y-122866381D02*
X62709858Y-122866381D01*
X62805096Y-122914000D01*
X62900334Y-123009238D01*
X62947953Y-123199714D01*
X62947953Y-123533048D01*
X62900334Y-123723524D01*
X62805096Y-123818762D01*
X62709858Y-123866381D01*
X62519381Y-123866381D01*
X62424143Y-123818762D01*
X62328905Y-123723524D01*
X62281286Y-123533048D01*
X62281286Y-123199714D01*
X62328905Y-123009238D01*
X62424143Y-122914000D01*
X62519381Y-122866381D01*
X63376524Y-123866381D02*
X63376524Y-122866381D01*
X63947953Y-123866381D01*
X63947953Y-122866381D01*
X64900334Y-123866381D02*
X64424143Y-123866381D01*
X64424143Y-122866381D01*
X65424143Y-123390190D02*
X65424143Y-123866381D01*
X65090810Y-122866381D02*
X65424143Y-123390190D01*
X65757477Y-122866381D01*
X94896762Y-125549143D02*
X94849143Y-125596762D01*
X94706286Y-125644381D01*
X94611048Y-125644381D01*
X94468190Y-125596762D01*
X94372952Y-125501524D01*
X94325333Y-125406286D01*
X94277714Y-125215810D01*
X94277714Y-125072952D01*
X94325333Y-124882476D01*
X94372952Y-124787238D01*
X94468190Y-124692000D01*
X94611048Y-124644381D01*
X94706286Y-124644381D01*
X94849143Y-124692000D01*
X94896762Y-124739619D01*
X95896762Y-125549143D02*
X95849143Y-125596762D01*
X95706286Y-125644381D01*
X95611048Y-125644381D01*
X95468190Y-125596762D01*
X95372952Y-125501524D01*
X95325333Y-125406286D01*
X95277714Y-125215810D01*
X95277714Y-125072952D01*
X95325333Y-124882476D01*
X95372952Y-124787238D01*
X95468190Y-124692000D01*
X95611048Y-124644381D01*
X95706286Y-124644381D01*
X95849143Y-124692000D01*
X95896762Y-124739619D01*
X96277714Y-125596762D02*
X96420571Y-125644381D01*
X96658667Y-125644381D01*
X96753905Y-125596762D01*
X96801524Y-125549143D01*
X96849143Y-125453905D01*
X96849143Y-125358667D01*
X96801524Y-125263429D01*
X96753905Y-125215810D01*
X96658667Y-125168190D01*
X96468190Y-125120571D01*
X96372952Y-125072952D01*
X96325333Y-125025333D01*
X96277714Y-124930095D01*
X96277714Y-124834857D01*
X96325333Y-124739619D01*
X96372952Y-124692000D01*
X96468190Y-124644381D01*
X96706286Y-124644381D01*
X96849143Y-124692000D01*
X97420571Y-125072952D02*
X97325333Y-125025333D01*
X97277714Y-124977714D01*
X97230095Y-124882476D01*
X97230095Y-124834857D01*
X97277714Y-124739619D01*
X97325333Y-124692000D01*
X97420571Y-124644381D01*
X97611048Y-124644381D01*
X97706286Y-124692000D01*
X97753905Y-124739619D01*
X97801524Y-124834857D01*
X97801524Y-124882476D01*
X97753905Y-124977714D01*
X97706286Y-125025333D01*
X97611048Y-125072952D01*
X97420571Y-125072952D01*
X97325333Y-125120571D01*
X97277714Y-125168190D01*
X97230095Y-125263429D01*
X97230095Y-125453905D01*
X97277714Y-125549143D01*
X97325333Y-125596762D01*
X97420571Y-125644381D01*
X97611048Y-125644381D01*
X97706286Y-125596762D01*
X97753905Y-125549143D01*
X97801524Y-125453905D01*
X97801524Y-125263429D01*
X97753905Y-125168190D01*
X97706286Y-125120571D01*
X97611048Y-125072952D01*
X98753905Y-125644381D02*
X98182476Y-125644381D01*
X98468190Y-125644381D02*
X98468190Y-124644381D01*
X98372952Y-124787238D01*
X98277714Y-124882476D01*
X98182476Y-124930095D01*
X99706286Y-125644381D02*
X99134857Y-125644381D01*
X99420571Y-125644381D02*
X99420571Y-124644381D01*
X99325333Y-124787238D01*
X99230095Y-124882476D01*
X99134857Y-124930095D01*
X82800048Y-125120571D02*
X82942905Y-125168190D01*
X82990524Y-125215810D01*
X83038143Y-125311048D01*
X83038143Y-125453905D01*
X82990524Y-125549143D01*
X82942905Y-125596762D01*
X82847667Y-125644381D01*
X82466714Y-125644381D01*
X82466714Y-124644381D01*
X82800048Y-124644381D01*
X82895286Y-124692000D01*
X82942905Y-124739619D01*
X82990524Y-124834857D01*
X82990524Y-124930095D01*
X82942905Y-125025333D01*
X82895286Y-125072952D01*
X82800048Y-125120571D01*
X82466714Y-125120571D01*
X83466714Y-125644381D02*
X83466714Y-124644381D01*
X83800048Y-125358667D01*
X84133381Y-124644381D01*
X84133381Y-125644381D01*
X84609571Y-125120571D02*
X84942905Y-125120571D01*
X85085762Y-125644381D02*
X84609571Y-125644381D01*
X84609571Y-124644381D01*
X85085762Y-124644381D01*
X85942905Y-124644381D02*
X85752428Y-124644381D01*
X85657190Y-124692000D01*
X85609571Y-124739619D01*
X85514333Y-124882476D01*
X85466714Y-125072952D01*
X85466714Y-125453905D01*
X85514333Y-125549143D01*
X85561952Y-125596762D01*
X85657190Y-125644381D01*
X85847667Y-125644381D01*
X85942905Y-125596762D01*
X85990524Y-125549143D01*
X86038143Y-125453905D01*
X86038143Y-125215810D01*
X85990524Y-125120571D01*
X85942905Y-125072952D01*
X85847667Y-125025333D01*
X85657190Y-125025333D01*
X85561952Y-125072952D01*
X85514333Y-125120571D01*
X85466714Y-125215810D01*
X86609571Y-125072952D02*
X86514333Y-125025333D01*
X86466714Y-124977714D01*
X86419095Y-124882476D01*
X86419095Y-124834857D01*
X86466714Y-124739619D01*
X86514333Y-124692000D01*
X86609571Y-124644381D01*
X86800048Y-124644381D01*
X86895286Y-124692000D01*
X86942905Y-124739619D01*
X86990524Y-124834857D01*
X86990524Y-124882476D01*
X86942905Y-124977714D01*
X86895286Y-125025333D01*
X86800048Y-125072952D01*
X86609571Y-125072952D01*
X86514333Y-125120571D01*
X86466714Y-125168190D01*
X86419095Y-125263429D01*
X86419095Y-125453905D01*
X86466714Y-125549143D01*
X86514333Y-125596762D01*
X86609571Y-125644381D01*
X86800048Y-125644381D01*
X86895286Y-125596762D01*
X86942905Y-125549143D01*
X86990524Y-125453905D01*
X86990524Y-125263429D01*
X86942905Y-125168190D01*
X86895286Y-125120571D01*
X86800048Y-125072952D01*
X87609571Y-124644381D02*
X87704810Y-124644381D01*
X87800048Y-124692000D01*
X87847667Y-124739619D01*
X87895286Y-124834857D01*
X87942905Y-125025333D01*
X87942905Y-125263429D01*
X87895286Y-125453905D01*
X87847667Y-125549143D01*
X87800048Y-125596762D01*
X87704810Y-125644381D01*
X87609571Y-125644381D01*
X87514333Y-125596762D01*
X87466714Y-125549143D01*
X87419095Y-125453905D01*
X87371476Y-125263429D01*
X87371476Y-125025333D01*
X87419095Y-124834857D01*
X87466714Y-124739619D01*
X87514333Y-124692000D01*
X87609571Y-124644381D01*
X119090096Y-60430000D02*
X118994858Y-60382381D01*
X118852001Y-60382381D01*
X118709143Y-60430000D01*
X118613905Y-60525238D01*
X118566286Y-60620476D01*
X118518667Y-60810952D01*
X118518667Y-60953810D01*
X118566286Y-61144286D01*
X118613905Y-61239524D01*
X118709143Y-61334762D01*
X118852001Y-61382381D01*
X118947239Y-61382381D01*
X119090096Y-61334762D01*
X119137715Y-61287143D01*
X119137715Y-60953810D01*
X118947239Y-60953810D01*
X119566286Y-61382381D02*
X119566286Y-60382381D01*
X120137715Y-61382381D01*
X120137715Y-60382381D01*
X120613905Y-61382381D02*
X120613905Y-60382381D01*
X120852000Y-60382381D01*
X120994858Y-60430000D01*
X121090096Y-60525238D01*
X121137715Y-60620476D01*
X121185334Y-60810952D01*
X121185334Y-60953810D01*
X121137715Y-61144286D01*
X121090096Y-61239524D01*
X120994858Y-61334762D01*
X120852000Y-61382381D01*
X120613905Y-61382381D01*
D12*
X122646000Y-124938000D02*
X124170000Y-124938000D01*
X123662000Y-125446000D02*
X123662000Y-124430000D01*
X123662000Y-124938000D02*
X123154000Y-125446000D01*
X123154000Y-124430000D02*
X123662000Y-124938000D01*
X123154000Y-125446000D02*
X123154000Y-124430000D01*
D11*
X68671048Y-133137429D02*
X69432953Y-133137429D01*
X69052001Y-133518381D02*
X69052001Y-132756476D01*
X71576286Y-131359429D02*
X72338191Y-131359429D01*
X71957239Y-131740381D02*
X71957239Y-130978476D01*
X73290572Y-130740381D02*
X72814381Y-130740381D01*
X72766762Y-131216571D01*
X72814381Y-131168952D01*
X72909619Y-131121333D01*
X73147715Y-131121333D01*
X73242953Y-131168952D01*
X73290572Y-131216571D01*
X73338191Y-131311810D01*
X73338191Y-131549905D01*
X73290572Y-131645143D01*
X73242953Y-131692762D01*
X73147715Y-131740381D01*
X72909619Y-131740381D01*
X72814381Y-131692762D01*
X72766762Y-131645143D01*
X73623905Y-130740381D02*
X73957238Y-131740381D01*
X74290572Y-130740381D01*
X74894096Y-122406000D02*
X74798858Y-122358381D01*
X74656001Y-122358381D01*
X74513143Y-122406000D01*
X74417905Y-122501238D01*
X74370286Y-122596476D01*
X74322667Y-122786952D01*
X74322667Y-122929810D01*
X74370286Y-123120286D01*
X74417905Y-123215524D01*
X74513143Y-123310762D01*
X74656001Y-123358381D01*
X74751239Y-123358381D01*
X74894096Y-123310762D01*
X74941715Y-123263143D01*
X74941715Y-122929810D01*
X74751239Y-122929810D01*
X75370286Y-123358381D02*
X75370286Y-122358381D01*
X75941715Y-123358381D01*
X75941715Y-122358381D01*
X76417905Y-123358381D02*
X76417905Y-122358381D01*
X76656000Y-122358381D01*
X76798858Y-122406000D01*
X76894096Y-122501238D01*
X76941715Y-122596476D01*
X76989334Y-122786952D01*
X76989334Y-122929810D01*
X76941715Y-123120286D01*
X76894096Y-123215524D01*
X76798858Y-123310762D01*
X76656000Y-123358381D01*
X76417905Y-123358381D01*
D13*
X116090095Y-118119714D02*
X116375809Y-118262571D01*
X116471048Y-118405429D01*
X116566286Y-118691143D01*
X116566286Y-119119714D01*
X116471048Y-119405429D01*
X116375809Y-119548286D01*
X116185333Y-119691143D01*
X115423428Y-119691143D01*
X115423428Y-116691143D01*
X116090095Y-116691143D01*
X116280571Y-116834000D01*
X116375809Y-116976857D01*
X116471048Y-117262571D01*
X116471048Y-117548286D01*
X116375809Y-117834000D01*
X116280571Y-117976857D01*
X116090095Y-118119714D01*
X115423428Y-118119714D01*
X117804381Y-116691143D02*
X118185333Y-116691143D01*
X118375809Y-116834000D01*
X118566286Y-117119714D01*
X118661524Y-117691143D01*
X118661524Y-118691143D01*
X118566286Y-119262571D01*
X118375809Y-119548286D01*
X118185333Y-119691143D01*
X117804381Y-119691143D01*
X117613905Y-119548286D01*
X117423428Y-119262571D01*
X117328190Y-118691143D01*
X117328190Y-117691143D01*
X117423428Y-117119714D01*
X117613905Y-116834000D01*
X117804381Y-116691143D01*
X119423428Y-118834000D02*
X120375809Y-118834000D01*
X119232952Y-119691143D02*
X119899619Y-116691143D01*
X120566286Y-119691143D01*
X122375810Y-119691143D02*
X121709143Y-118262571D01*
X121232952Y-119691143D02*
X121232952Y-116691143D01*
X121994857Y-116691143D01*
X122185333Y-116834000D01*
X122280572Y-116976857D01*
X122375810Y-117262571D01*
X122375810Y-117691143D01*
X122280572Y-117976857D01*
X122185333Y-118119714D01*
X121994857Y-118262571D01*
X121232952Y-118262571D01*
X123232952Y-119691143D02*
X123232952Y-116691143D01*
X123709143Y-116691143D01*
X123994857Y-116834000D01*
X124185333Y-117119714D01*
X124280572Y-117405429D01*
X124375810Y-117976857D01*
X124375810Y-118405429D01*
X124280572Y-118976857D01*
X124185333Y-119262571D01*
X123994857Y-119548286D01*
X123709143Y-119691143D01*
X123232952Y-119691143D01*
X115534285Y-115627143D02*
X115534285Y-112627143D01*
X116010476Y-112627143D01*
X116296190Y-112770000D01*
X116486666Y-113055714D01*
X116581905Y-113341429D01*
X116677143Y-113912857D01*
X116677143Y-114341429D01*
X116581905Y-114912857D01*
X116486666Y-115198571D01*
X116296190Y-115484286D01*
X116010476Y-115627143D01*
X115534285Y-115627143D01*
X117534285Y-114055714D02*
X118200952Y-114055714D01*
X118486666Y-115627143D02*
X117534285Y-115627143D01*
X117534285Y-112627143D01*
X118486666Y-112627143D01*
X119058095Y-112627143D02*
X119724762Y-115627143D01*
X120391429Y-112627143D01*
X115439047Y-109991714D02*
X116105714Y-109991714D01*
X116391428Y-111563143D02*
X115439047Y-111563143D01*
X115439047Y-108563143D01*
X116391428Y-108563143D01*
X117153333Y-111420286D02*
X117439048Y-111563143D01*
X117915238Y-111563143D01*
X118105714Y-111420286D01*
X118200952Y-111277429D01*
X118296191Y-110991714D01*
X118296191Y-110706000D01*
X118200952Y-110420286D01*
X118105714Y-110277429D01*
X117915238Y-110134571D01*
X117534286Y-109991714D01*
X117343810Y-109848857D01*
X117248571Y-109706000D01*
X117153333Y-109420286D01*
X117153333Y-109134571D01*
X117248571Y-108848857D01*
X117343810Y-108706000D01*
X117534286Y-108563143D01*
X118010476Y-108563143D01*
X118296191Y-108706000D01*
X119153333Y-111563143D02*
X119153333Y-108563143D01*
X119915238Y-108563143D01*
X120105714Y-108706000D01*
X120200953Y-108848857D01*
X120296191Y-109134571D01*
X120296191Y-109563143D01*
X120200953Y-109848857D01*
X120105714Y-109991714D01*
X119915238Y-110134571D01*
X119153333Y-110134571D01*
D12*
X58000000Y-54000000D02*
G75*
G03X58000000Y-54000000I-4000000J0D01*
G01*
X58000000Y-138000000D02*
G75*
G03X58000000Y-138000000I-4000000J0D01*
G01*
X126000000Y-138000000D02*
G75*
G03X126000000Y-138000000I-4000000J0D01*
G01*
X126000000Y-54000000D02*
G75*
G03X126000000Y-54000000I-4000000J0D01*
G01*
D13*
X49772000Y-108428000D02*
X43772000Y-108428000D01*
X49772000Y-110968000D02*
X43772000Y-110968000D01*
X49772000Y-113508000D02*
X43772000Y-113508000D01*
X49772000Y-116048000D02*
X43772000Y-116048000D01*
X49772000Y-118588000D02*
X43772000Y-118588000D01*
X49772000Y-121128000D02*
X43772000Y-121128000D01*
X49772000Y-123668000D02*
X43772000Y-123668000D01*
X49772000Y-126208000D02*
X43772000Y-126208000D01*
X49772000Y-128748000D02*
X43772000Y-128748000D01*
X49772000Y-131288000D02*
X43772000Y-131288000D01*
X52312000Y-132558000D02*
X52312000Y-107158000D01*
X52312000Y-107158000D02*
X49772000Y-107158000D01*
X49772000Y-107158000D02*
X49772000Y-132558000D01*
X49772000Y-132558000D02*
X52312000Y-132558000D01*
X71462000Y-140268000D02*
X74162000Y-140268000D01*
X74862000Y-139968000D02*
X70862000Y-139968000D01*
X70462000Y-139668000D02*
X75262000Y-139668000D01*
X70062000Y-139368000D02*
X71762000Y-139368000D01*
X69862000Y-139168000D02*
X71762000Y-139168000D01*
X69662000Y-138868000D02*
X71762000Y-138868000D01*
X69362000Y-138568000D02*
X71762000Y-138568000D01*
X69262000Y-138268000D02*
X71762000Y-138268000D01*
X73962000Y-139368000D02*
X75662000Y-139368000D01*
X73962000Y-139168000D02*
X75862000Y-139168000D01*
X73962000Y-138868000D02*
X76162000Y-138868000D01*
X73962000Y-138568000D02*
X76362000Y-138568000D01*
X76562000Y-138268000D02*
X73962000Y-138268000D01*
X76762000Y-137668000D02*
X73962000Y-137668000D01*
X68962000Y-137668000D02*
X71762000Y-137668000D01*
X76862000Y-137368000D02*
X73962000Y-137368000D01*
X73962000Y-137368000D02*
X73962000Y-139368000D01*
X73962000Y-139368000D02*
X71762000Y-139368000D01*
X71762000Y-139368000D02*
X71762000Y-137368000D01*
X71762000Y-137368000D02*
X68862000Y-137368000D01*
X76562000Y-137968000D02*
X73962000Y-137968000D01*
X71762000Y-137968000D02*
X69062000Y-137968000D01*
X76987000Y-136368000D02*
G75*
G03X76987000Y-136368000I-4125000J0D01*
G01*
X113717000Y-121493000D02*
X113717000Y-119493000D01*
X112017000Y-119493000D02*
X112017000Y-121493000D01*
X58102000Y-136478000D02*
X67302000Y-136478000D01*
X67302000Y-132478000D02*
X67302000Y-141278000D01*
X67302000Y-141278000D02*
X58102000Y-141278000D01*
X65702000Y-126578000D02*
X67302000Y-126578000D01*
X67302000Y-126578000D02*
X67302000Y-128478000D01*
X58102000Y-141278000D02*
X58102000Y-126578000D01*
X58102000Y-126578000D02*
X59702000Y-126578000D01*
X103822000Y-141238000D02*
X105662000Y-141238000D01*
X115062000Y-141238000D02*
X112832000Y-141238000D01*
X102672000Y-124728000D02*
X102672000Y-125238000D01*
X102992000Y-124728000D02*
X102672000Y-124728000D01*
X116902000Y-124728000D02*
X116902000Y-126638000D01*
X115372000Y-124728000D02*
X116902000Y-124728000D01*
X107557000Y-121993000D02*
X107057000Y-121993000D01*
X107057000Y-121993000D02*
X107057000Y-118993000D01*
X107057000Y-118993000D02*
X107557000Y-118993000D01*
X110557000Y-118993000D02*
X111057000Y-118993000D01*
X111057000Y-118993000D02*
X111057000Y-121993000D01*
X111057000Y-121993000D02*
X110557000Y-121993000D01*
X123162000Y-127363000D02*
X124162000Y-127363000D01*
X124162000Y-128863000D02*
X123162000Y-128863000D01*
X123162000Y-129903000D02*
X124162000Y-129903000D01*
X124162000Y-131403000D02*
X123162000Y-131403000D01*
X77832000Y-51278000D02*
X77832000Y-44928000D01*
X77832000Y-44928000D02*
X95832000Y-44928000D01*
X95832000Y-44928000D02*
X95832000Y-51278000D01*
X72862000Y-99538000D02*
X100802000Y-99538000D01*
X100802000Y-99538000D02*
X100802000Y-51278000D01*
X100802000Y-51278000D02*
X72862000Y-51278000D01*
X72862000Y-51278000D02*
X72862000Y-99538000D01*
X102232000Y-51278000D02*
X102232000Y-60278000D01*
X102232000Y-60278000D02*
X91732000Y-60278000D01*
X91732000Y-60278000D02*
X91732000Y-51278000D01*
X60892000Y-51278000D02*
X60892000Y-61278000D01*
X60892000Y-61278000D02*
X69892000Y-61278000D01*
X69892000Y-61278000D02*
X69892000Y-51278000D01*
X108422000Y-94204000D02*
X110962000Y-94204000D01*
X110962000Y-94204000D02*
X110962000Y-68804000D01*
X110962000Y-68804000D02*
X108422000Y-68804000D01*
X108422000Y-68804000D02*
X108422000Y-94204000D01*
X62702000Y-77948000D02*
X60162000Y-77948000D01*
X60162000Y-77948000D02*
X60162000Y-98268000D01*
X60162000Y-98268000D02*
X62702000Y-98268000D01*
X62702000Y-98268000D02*
X62702000Y-77948000D01*
X60162000Y-116048000D02*
X60162000Y-100808000D01*
X60162000Y-100808000D02*
X62702000Y-100808000D01*
X62702000Y-100808000D02*
X62702000Y-116048000D01*
X62702000Y-116048000D02*
X60162000Y-116048000D01*
X110962000Y-95728000D02*
X108422000Y-95728000D01*
X108422000Y-95728000D02*
X108422000Y-116048000D01*
X108422000Y-116048000D02*
X110962000Y-116048000D01*
X110962000Y-116048000D02*
X110962000Y-95728000D01*
X63972000Y-119858000D02*
X98262000Y-119858000D01*
X100802000Y-117318000D02*
X98262000Y-119858000D01*
X112232000Y-116048000D02*
X110962000Y-117318000D01*
X110962000Y-117318000D02*
X100802000Y-117318000D01*
X58892000Y-117318000D02*
X61432000Y-117318000D01*
X61432000Y-117318000D02*
X63972000Y-119858000D01*
X58892000Y-51278000D02*
X58892000Y-117278000D01*
X112232000Y-51278000D02*
X112232000Y-116008000D01*
X112232000Y-51278000D02*
X58892000Y-51278000D01*
X119352000Y-127363000D02*
X120352000Y-127363000D01*
X120352000Y-128863000D02*
X119352000Y-128863000D01*
X119352000Y-129903000D02*
X120352000Y-129903000D01*
X120352000Y-131403000D02*
X119352000Y-131403000D01*
X122122000Y-70788000D02*
X120122000Y-70788000D01*
X122122000Y-64788000D02*
X120122000Y-64788000D01*
X124122000Y-69788000D02*
X124122000Y-65788000D01*
X118122000Y-69788000D02*
X118122000Y-65788000D01*
X122122000Y-105078000D02*
X120122000Y-105078000D01*
X122122000Y-99078000D02*
X120122000Y-99078000D01*
X124122000Y-104078000D02*
X124122000Y-100078000D01*
X118122000Y-104078000D02*
X118122000Y-100078000D01*
X122122000Y-93648000D02*
X120122000Y-93648000D01*
X122122000Y-87648000D02*
X120122000Y-87648000D01*
X124122000Y-92648000D02*
X124122000Y-88648000D01*
X118122000Y-92648000D02*
X118122000Y-88648000D01*
X122122000Y-82218000D02*
X120122000Y-82218000D01*
X122122000Y-76218000D02*
X120122000Y-76218000D01*
X124122000Y-81218000D02*
X124122000Y-77218000D01*
X118122000Y-81218000D02*
X118122000Y-77218000D01*
X74512000Y-128748000D02*
G75*
G03X74512000Y-128748000I-1650000J0D01*
G01*
X80862000Y-122398000D02*
G75*
G03X80862000Y-122398000I-1650000J0D01*
G01*
X125312000Y-60168000D02*
G75*
G03X125312000Y-60168000I-1650000J0D01*
G01*
X77942000Y-126208000D02*
X77942000Y-141448000D01*
X77942000Y-141448000D02*
X88102000Y-141448000D01*
X88102000Y-141448000D02*
X88102000Y-126208000D01*
X88102000Y-126208000D02*
X77942000Y-126208000D01*
X89372000Y-126208000D02*
X89372000Y-141448000D01*
X89372000Y-141448000D02*
X99532000Y-141448000D01*
X99532000Y-141448000D02*
X99532000Y-126208000D01*
X99532000Y-126208000D02*
X89372000Y-126208000D01*
X56098000Y-102967000D02*
X55590000Y-102967000D01*
X55590000Y-102967000D02*
X55590000Y-104491000D01*
X55590000Y-104491000D02*
X56098000Y-104491000D01*
X56098000Y-90521000D02*
X55590000Y-90521000D01*
X55590000Y-90521000D02*
X55590000Y-92299000D01*
X55590000Y-92299000D02*
X56098000Y-92299000D01*
X56162000Y-88933000D02*
X50412000Y-88933000D01*
X50412000Y-88933000D02*
X50412000Y-106333000D01*
X50412000Y-106333000D02*
X56162000Y-106333000D01*
X56162000Y-106333000D02*
X56162000Y-88933000D01*
D14*
X55987000Y-75418000D02*
X55987000Y-70318000D01*
X55947000Y-75418000D02*
X55947000Y-73848000D01*
X55947000Y-71888000D02*
X55947000Y-70318000D01*
X55907000Y-75417000D02*
X55907000Y-73848000D01*
X55907000Y-71888000D02*
X55907000Y-70319000D01*
X55867000Y-75416000D02*
X55867000Y-73848000D01*
X55867000Y-71888000D02*
X55867000Y-70320000D01*
X55827000Y-75414000D02*
X55827000Y-73848000D01*
X55827000Y-71888000D02*
X55827000Y-70322000D01*
X55787000Y-75411000D02*
X55787000Y-73848000D01*
X55787000Y-71888000D02*
X55787000Y-70325000D01*
X55747000Y-75407000D02*
X55747000Y-73848000D01*
X55747000Y-71888000D02*
X55747000Y-70329000D01*
X55707000Y-75403000D02*
X55707000Y-73848000D01*
X55707000Y-71888000D02*
X55707000Y-70333000D01*
X55667000Y-75399000D02*
X55667000Y-73848000D01*
X55667000Y-71888000D02*
X55667000Y-70337000D01*
X55627000Y-75393000D02*
X55627000Y-73848000D01*
X55627000Y-71888000D02*
X55627000Y-70343000D01*
X55587000Y-75387000D02*
X55587000Y-73848000D01*
X55587000Y-71888000D02*
X55587000Y-70349000D01*
X55547000Y-75381000D02*
X55547000Y-73848000D01*
X55547000Y-71888000D02*
X55547000Y-70355000D01*
X55507000Y-75374000D02*
X55507000Y-73848000D01*
X55507000Y-71888000D02*
X55507000Y-70362000D01*
X55467000Y-75366000D02*
X55467000Y-73848000D01*
X55467000Y-71888000D02*
X55467000Y-70370000D01*
X55427000Y-75357000D02*
X55427000Y-73848000D01*
X55427000Y-71888000D02*
X55427000Y-70379000D01*
X55387000Y-75348000D02*
X55387000Y-73848000D01*
X55387000Y-71888000D02*
X55387000Y-70388000D01*
X55347000Y-75338000D02*
X55347000Y-73848000D01*
X55347000Y-71888000D02*
X55347000Y-70398000D01*
X55307000Y-75328000D02*
X55307000Y-73848000D01*
X55307000Y-71888000D02*
X55307000Y-70408000D01*
X55266000Y-75316000D02*
X55266000Y-73848000D01*
X55266000Y-71888000D02*
X55266000Y-70420000D01*
X55226000Y-75304000D02*
X55226000Y-73848000D01*
X55226000Y-71888000D02*
X55226000Y-70432000D01*
X55186000Y-75292000D02*
X55186000Y-73848000D01*
X55186000Y-71888000D02*
X55186000Y-70444000D01*
X55146000Y-75278000D02*
X55146000Y-73848000D01*
X55146000Y-71888000D02*
X55146000Y-70458000D01*
X55106000Y-75264000D02*
X55106000Y-73848000D01*
X55106000Y-71888000D02*
X55106000Y-70472000D01*
X55066000Y-75250000D02*
X55066000Y-73848000D01*
X55066000Y-71888000D02*
X55066000Y-70486000D01*
X55026000Y-75234000D02*
X55026000Y-73848000D01*
X55026000Y-71888000D02*
X55026000Y-70502000D01*
X54986000Y-75218000D02*
X54986000Y-73848000D01*
X54986000Y-71888000D02*
X54986000Y-70518000D01*
X54946000Y-75201000D02*
X54946000Y-73848000D01*
X54946000Y-71888000D02*
X54946000Y-70535000D01*
X54906000Y-75183000D02*
X54906000Y-73848000D01*
X54906000Y-71888000D02*
X54906000Y-70553000D01*
X54866000Y-75164000D02*
X54866000Y-73848000D01*
X54866000Y-71888000D02*
X54866000Y-70572000D01*
X54826000Y-75144000D02*
X54826000Y-73848000D01*
X54826000Y-71888000D02*
X54826000Y-70592000D01*
X54786000Y-75124000D02*
X54786000Y-73848000D01*
X54786000Y-71888000D02*
X54786000Y-70612000D01*
X54746000Y-75102000D02*
X54746000Y-73848000D01*
X54746000Y-71888000D02*
X54746000Y-70634000D01*
X54706000Y-75080000D02*
X54706000Y-73848000D01*
X54706000Y-71888000D02*
X54706000Y-70656000D01*
X54666000Y-75057000D02*
X54666000Y-73848000D01*
X54666000Y-71888000D02*
X54666000Y-70679000D01*
X54626000Y-75033000D02*
X54626000Y-73848000D01*
X54626000Y-71888000D02*
X54626000Y-70703000D01*
X54586000Y-75008000D02*
X54586000Y-73848000D01*
X54586000Y-71888000D02*
X54586000Y-70728000D01*
X54546000Y-74981000D02*
X54546000Y-73848000D01*
X54546000Y-71888000D02*
X54546000Y-70755000D01*
X54506000Y-74954000D02*
X54506000Y-73848000D01*
X54506000Y-71888000D02*
X54506000Y-70782000D01*
X54466000Y-74926000D02*
X54466000Y-73848000D01*
X54466000Y-71888000D02*
X54466000Y-70810000D01*
X54426000Y-74896000D02*
X54426000Y-73848000D01*
X54426000Y-71888000D02*
X54426000Y-70840000D01*
X54386000Y-74865000D02*
X54386000Y-73848000D01*
X54386000Y-71888000D02*
X54386000Y-70871000D01*
X54346000Y-74833000D02*
X54346000Y-73848000D01*
X54346000Y-71888000D02*
X54346000Y-70903000D01*
X54306000Y-74800000D02*
X54306000Y-73848000D01*
X54306000Y-71888000D02*
X54306000Y-70936000D01*
X54266000Y-74765000D02*
X54266000Y-73848000D01*
X54266000Y-71888000D02*
X54266000Y-70971000D01*
X54226000Y-74729000D02*
X54226000Y-73848000D01*
X54226000Y-71888000D02*
X54226000Y-71007000D01*
X54186000Y-74691000D02*
X54186000Y-73848000D01*
X54186000Y-71888000D02*
X54186000Y-71045000D01*
X54146000Y-74651000D02*
X54146000Y-73848000D01*
X54146000Y-71888000D02*
X54146000Y-71085000D01*
X54106000Y-74610000D02*
X54106000Y-73848000D01*
X54106000Y-71888000D02*
X54106000Y-71126000D01*
X54066000Y-74567000D02*
X54066000Y-73848000D01*
X54066000Y-71888000D02*
X54066000Y-71169000D01*
X54026000Y-74522000D02*
X54026000Y-73848000D01*
X54026000Y-71888000D02*
X54026000Y-71214000D01*
X53986000Y-74474000D02*
X53986000Y-71262000D01*
X53946000Y-74424000D02*
X53946000Y-71312000D01*
X53906000Y-74372000D02*
X53906000Y-71364000D01*
X53866000Y-74316000D02*
X53866000Y-71420000D01*
X53826000Y-74258000D02*
X53826000Y-71478000D01*
X53786000Y-74195000D02*
X53786000Y-71541000D01*
X53746000Y-74129000D02*
X53746000Y-71607000D01*
X53706000Y-74057000D02*
X53706000Y-71679000D01*
X53666000Y-73980000D02*
X53666000Y-71756000D01*
X53626000Y-73896000D02*
X53626000Y-71840000D01*
X53586000Y-73802000D02*
X53586000Y-71934000D01*
X53546000Y-73697000D02*
X53546000Y-72039000D01*
X53506000Y-73575000D02*
X53506000Y-72161000D01*
X53466000Y-73427000D02*
X53466000Y-72309000D01*
X53426000Y-73222000D02*
X53426000Y-72514000D01*
X59187000Y-72868000D02*
X57987000Y-72868000D01*
X58587000Y-73518000D02*
X58587000Y-72218000D01*
D13*
X53590137Y-73849400D02*
G75*
G03X58384436Y-73848000I2396863J981400D01*
G01*
X53590137Y-71886600D02*
G75*
G02X58384436Y-71888000I2396863J-981400D01*
G01*
D14*
X53590137Y-71886600D02*
G75*
G03X53589564Y-73848000I2396863J-981400D01*
G01*
D13*
X56352000Y-62073000D02*
G75*
G03X56352000Y-62073000I-1905000J0D01*
G01*
X51347000Y-59118000D02*
X51347000Y-65248000D01*
X51347000Y-65248000D02*
X57547000Y-65248000D01*
X57547000Y-65248000D02*
X57547000Y-59118000D01*
X57547000Y-59118000D02*
X51347000Y-59118000D01*
X56987000Y-67788000D02*
X56987000Y-66518000D01*
X56987000Y-66518000D02*
X55717000Y-66518000D01*
X55717000Y-66518000D02*
X55717000Y-65248000D01*
X54447000Y-65248000D02*
X54447000Y-67788000D01*
X51907000Y-66518000D02*
X53177000Y-66518000D01*
X53177000Y-66518000D02*
X53177000Y-65248000D01*
X51907000Y-67788000D02*
X51907000Y-66518000D01*
X53177000Y-78583000D02*
X53177000Y-81123000D01*
X53177000Y-81123000D02*
X55717000Y-81123000D01*
X55717000Y-81123000D02*
X58257000Y-81123000D01*
X58257000Y-81123000D02*
X58257000Y-78583000D01*
X58257000Y-78583000D02*
X55717000Y-78583000D01*
X53177000Y-78583000D02*
X55717000Y-78583000D01*
X55717000Y-78583000D02*
X55717000Y-81123000D01*
X53177000Y-76043000D02*
X53177000Y-78583000D01*
X53177000Y-78583000D02*
X55717000Y-78583000D01*
X55717000Y-78583000D02*
X58257000Y-78583000D01*
X58257000Y-78583000D02*
X58257000Y-76043000D01*
X58257000Y-76043000D02*
X55717000Y-76043000D01*
X53177000Y-76043000D02*
X55717000Y-76043000D01*
X55717000Y-76043000D02*
X55717000Y-78583000D01*
X53212000Y-87733000D02*
X54412000Y-88333000D01*
X54412000Y-88333000D02*
X54412000Y-87133000D01*
X54412000Y-87133000D02*
X53212000Y-87733000D01*
X53212000Y-88333000D02*
X53212000Y-87133000D01*
X56712000Y-84933000D02*
G75*
G03X56712000Y-84933000I-2900000J0D01*
G01*
D11*
X55153524Y-133677143D02*
X55105905Y-133724762D01*
X54963048Y-133772381D01*
X54867810Y-133772381D01*
X54724952Y-133724762D01*
X54629714Y-133629524D01*
X54582095Y-133534286D01*
X54534476Y-133343810D01*
X54534476Y-133200952D01*
X54582095Y-133010476D01*
X54629714Y-132915238D01*
X54724952Y-132820000D01*
X54867810Y-132772381D01*
X54963048Y-132772381D01*
X55105905Y-132820000D01*
X55153524Y-132867619D01*
X55582095Y-133772381D02*
X55582095Y-132772381D01*
X56153524Y-133772381D01*
X56153524Y-132772381D01*
X56534476Y-132772381D02*
X57201143Y-132772381D01*
X56772571Y-133772381D01*
X76251334Y-132661143D02*
X76203715Y-132708762D01*
X76060858Y-132756381D01*
X75965620Y-132756381D01*
X75822762Y-132708762D01*
X75727524Y-132613524D01*
X75679905Y-132518286D01*
X75632286Y-132327810D01*
X75632286Y-132184952D01*
X75679905Y-131994476D01*
X75727524Y-131899238D01*
X75822762Y-131804000D01*
X75965620Y-131756381D01*
X76060858Y-131756381D01*
X76203715Y-131804000D01*
X76251334Y-131851619D01*
X77203715Y-132756381D02*
X76632286Y-132756381D01*
X76918000Y-132756381D02*
X76918000Y-131756381D01*
X76822762Y-131899238D01*
X76727524Y-131994476D01*
X76632286Y-132042095D01*
X115113334Y-121993143D02*
X115065715Y-122040762D01*
X114922858Y-122088381D01*
X114827620Y-122088381D01*
X114684762Y-122040762D01*
X114589524Y-121945524D01*
X114541905Y-121850286D01*
X114494286Y-121659810D01*
X114494286Y-121516952D01*
X114541905Y-121326476D01*
X114589524Y-121231238D01*
X114684762Y-121136000D01*
X114827620Y-121088381D01*
X114922858Y-121088381D01*
X115065715Y-121136000D01*
X115113334Y-121183619D01*
X115970477Y-121421714D02*
X115970477Y-122088381D01*
X115732381Y-121040762D02*
X115494286Y-121755048D01*
X116113334Y-121755048D01*
X62011524Y-125041143D02*
X61963905Y-125088762D01*
X61821048Y-125136381D01*
X61725810Y-125136381D01*
X61582952Y-125088762D01*
X61487714Y-124993524D01*
X61440095Y-124898286D01*
X61392476Y-124707810D01*
X61392476Y-124564952D01*
X61440095Y-124374476D01*
X61487714Y-124279238D01*
X61582952Y-124184000D01*
X61725810Y-124136381D01*
X61821048Y-124136381D01*
X61963905Y-124184000D01*
X62011524Y-124231619D01*
X62440095Y-125136381D02*
X62440095Y-124136381D01*
X63011524Y-125136381D01*
X63011524Y-124136381D01*
X64011524Y-125136381D02*
X63440095Y-125136381D01*
X63725809Y-125136381D02*
X63725809Y-124136381D01*
X63630571Y-124279238D01*
X63535333Y-124374476D01*
X63440095Y-124422095D01*
X114335524Y-123517143D02*
X114287905Y-123564762D01*
X114145048Y-123612381D01*
X114049810Y-123612381D01*
X113906952Y-123564762D01*
X113811714Y-123469524D01*
X113764095Y-123374286D01*
X113716476Y-123183810D01*
X113716476Y-123040952D01*
X113764095Y-122850476D01*
X113811714Y-122755238D01*
X113906952Y-122660000D01*
X114049810Y-122612381D01*
X114145048Y-122612381D01*
X114287905Y-122660000D01*
X114335524Y-122707619D01*
X114764095Y-123612381D02*
X114764095Y-122612381D01*
X115335524Y-123612381D01*
X115335524Y-122612381D01*
X115716476Y-122612381D02*
X116335524Y-122612381D01*
X116002190Y-122993333D01*
X116145048Y-122993333D01*
X116240286Y-123040952D01*
X116287905Y-123088571D01*
X116335524Y-123183810D01*
X116335524Y-123421905D01*
X116287905Y-123517143D01*
X116240286Y-123564762D01*
X116145048Y-123612381D01*
X115859333Y-123612381D01*
X115764095Y-123564762D01*
X115716476Y-123517143D01*
X105715334Y-121834381D02*
X105239143Y-121834381D01*
X105239143Y-120834381D01*
X106572477Y-121834381D02*
X106001048Y-121834381D01*
X106286762Y-121834381D02*
X106286762Y-120834381D01*
X106191524Y-120977238D01*
X106096286Y-121072476D01*
X106001048Y-121120095D01*
X122542953Y-126914381D02*
X122066762Y-126914381D01*
X122066762Y-125914381D01*
X122876286Y-126390571D02*
X123209620Y-126390571D01*
X123352477Y-126914381D02*
X122876286Y-126914381D01*
X122876286Y-125914381D01*
X123352477Y-125914381D01*
X123781048Y-126914381D02*
X123781048Y-125914381D01*
X124019143Y-125914381D01*
X124162001Y-125962000D01*
X124257239Y-126057238D01*
X124304858Y-126152476D01*
X124352477Y-126342952D01*
X124352477Y-126485810D01*
X124304858Y-126676286D01*
X124257239Y-126771524D01*
X124162001Y-126866762D01*
X124019143Y-126914381D01*
X123781048Y-126914381D01*
X125304858Y-126914381D02*
X124733429Y-126914381D01*
X125019143Y-126914381D02*
X125019143Y-125914381D01*
X124923905Y-126057238D01*
X124828667Y-126152476D01*
X124733429Y-126200095D01*
X122542953Y-133010381D02*
X122066762Y-133010381D01*
X122066762Y-132010381D01*
X122876286Y-132486571D02*
X123209620Y-132486571D01*
X123352477Y-133010381D02*
X122876286Y-133010381D01*
X122876286Y-132010381D01*
X123352477Y-132010381D01*
X123781048Y-133010381D02*
X123781048Y-132010381D01*
X124019143Y-132010381D01*
X124162001Y-132058000D01*
X124257239Y-132153238D01*
X124304858Y-132248476D01*
X124352477Y-132438952D01*
X124352477Y-132581810D01*
X124304858Y-132772286D01*
X124257239Y-132867524D01*
X124162001Y-132962762D01*
X124019143Y-133010381D01*
X123781048Y-133010381D01*
X124733429Y-132105619D02*
X124781048Y-132058000D01*
X124876286Y-132010381D01*
X125114382Y-132010381D01*
X125209620Y-132058000D01*
X125257239Y-132105619D01*
X125304858Y-132200857D01*
X125304858Y-132296095D01*
X125257239Y-132438952D01*
X124685810Y-133010381D01*
X125304858Y-133010381D01*
X85093905Y-101768381D02*
X85093905Y-100768381D01*
X85474858Y-100768381D01*
X85570096Y-100816000D01*
X85617715Y-100863619D01*
X85665334Y-100958857D01*
X85665334Y-101101714D01*
X85617715Y-101196952D01*
X85570096Y-101244571D01*
X85474858Y-101292190D01*
X85093905Y-101292190D01*
X86665334Y-101673143D02*
X86617715Y-101720762D01*
X86474858Y-101768381D01*
X86379620Y-101768381D01*
X86236762Y-101720762D01*
X86141524Y-101625524D01*
X86093905Y-101530286D01*
X86046286Y-101339810D01*
X86046286Y-101196952D01*
X86093905Y-101006476D01*
X86141524Y-100911238D01*
X86236762Y-100816000D01*
X86379620Y-100768381D01*
X86474858Y-100768381D01*
X86617715Y-100816000D01*
X86665334Y-100863619D01*
X87427239Y-101244571D02*
X87570096Y-101292190D01*
X87617715Y-101339810D01*
X87665334Y-101435048D01*
X87665334Y-101577905D01*
X87617715Y-101673143D01*
X87570096Y-101720762D01*
X87474858Y-101768381D01*
X87093905Y-101768381D01*
X87093905Y-100768381D01*
X87427239Y-100768381D01*
X87522477Y-100816000D01*
X87570096Y-100863619D01*
X87617715Y-100958857D01*
X87617715Y-101054095D01*
X87570096Y-101149333D01*
X87522477Y-101196952D01*
X87427239Y-101244571D01*
X87093905Y-101244571D01*
X88617715Y-101768381D02*
X88046286Y-101768381D01*
X88332000Y-101768381D02*
X88332000Y-100768381D01*
X88236762Y-100911238D01*
X88141524Y-101006476D01*
X88046286Y-101054095D01*
X84585905Y-121834381D02*
X84585905Y-120834381D01*
X84966858Y-120834381D01*
X85062096Y-120882000D01*
X85109715Y-120929619D01*
X85157334Y-121024857D01*
X85157334Y-121167714D01*
X85109715Y-121262952D01*
X85062096Y-121310571D01*
X84966858Y-121358190D01*
X84585905Y-121358190D01*
X86157334Y-121739143D02*
X86109715Y-121786762D01*
X85966858Y-121834381D01*
X85871620Y-121834381D01*
X85728762Y-121786762D01*
X85633524Y-121691524D01*
X85585905Y-121596286D01*
X85538286Y-121405810D01*
X85538286Y-121262952D01*
X85585905Y-121072476D01*
X85633524Y-120977238D01*
X85728762Y-120882000D01*
X85871620Y-120834381D01*
X85966858Y-120834381D01*
X86109715Y-120882000D01*
X86157334Y-120929619D01*
X86919239Y-121310571D02*
X87062096Y-121358190D01*
X87109715Y-121405810D01*
X87157334Y-121501048D01*
X87157334Y-121643905D01*
X87109715Y-121739143D01*
X87062096Y-121786762D01*
X86966858Y-121834381D01*
X86585905Y-121834381D01*
X86585905Y-120834381D01*
X86919239Y-120834381D01*
X87014477Y-120882000D01*
X87062096Y-120929619D01*
X87109715Y-121024857D01*
X87109715Y-121120095D01*
X87062096Y-121215333D01*
X87014477Y-121262952D01*
X86919239Y-121310571D01*
X86585905Y-121310571D01*
X87538286Y-120929619D02*
X87585905Y-120882000D01*
X87681143Y-120834381D01*
X87919239Y-120834381D01*
X88014477Y-120882000D01*
X88062096Y-120929619D01*
X88109715Y-121024857D01*
X88109715Y-121120095D01*
X88062096Y-121262952D01*
X87490667Y-121834381D01*
X88109715Y-121834381D01*
X63337238Y-82210381D02*
X63337238Y-81210381D01*
X64003904Y-81210381D02*
X64194381Y-81210381D01*
X64289619Y-81258000D01*
X64384857Y-81353238D01*
X64432476Y-81543714D01*
X64432476Y-81877048D01*
X64384857Y-82067524D01*
X64289619Y-82162762D01*
X64194381Y-82210381D01*
X64003904Y-82210381D01*
X63908666Y-82162762D01*
X63813428Y-82067524D01*
X63765809Y-81877048D01*
X63765809Y-81543714D01*
X63813428Y-81353238D01*
X63908666Y-81258000D01*
X64003904Y-81210381D01*
X65432476Y-82210381D02*
X65099142Y-81734190D01*
X64861047Y-82210381D02*
X64861047Y-81210381D01*
X65242000Y-81210381D01*
X65337238Y-81258000D01*
X65384857Y-81305619D01*
X65432476Y-81400857D01*
X65432476Y-81543714D01*
X65384857Y-81638952D01*
X65337238Y-81686571D01*
X65242000Y-81734190D01*
X64861047Y-81734190D01*
X65861047Y-81686571D02*
X66194381Y-81686571D01*
X66337238Y-82210381D02*
X65861047Y-82210381D01*
X65861047Y-81210381D01*
X66337238Y-81210381D01*
X67099143Y-81686571D02*
X66765809Y-81686571D01*
X66765809Y-82210381D02*
X66765809Y-81210381D01*
X67242000Y-81210381D01*
X63860953Y-84750381D02*
X63527619Y-84274190D01*
X63289524Y-84750381D02*
X63289524Y-83750381D01*
X63670477Y-83750381D01*
X63765715Y-83798000D01*
X63813334Y-83845619D01*
X63860953Y-83940857D01*
X63860953Y-84083714D01*
X63813334Y-84178952D01*
X63765715Y-84226571D01*
X63670477Y-84274190D01*
X63289524Y-84274190D01*
X64289524Y-84226571D02*
X64622858Y-84226571D01*
X64765715Y-84750381D02*
X64289524Y-84750381D01*
X64289524Y-83750381D01*
X64765715Y-83750381D01*
X65146667Y-84702762D02*
X65289524Y-84750381D01*
X65527620Y-84750381D01*
X65622858Y-84702762D01*
X65670477Y-84655143D01*
X65718096Y-84559905D01*
X65718096Y-84464667D01*
X65670477Y-84369429D01*
X65622858Y-84321810D01*
X65527620Y-84274190D01*
X65337143Y-84226571D01*
X65241905Y-84178952D01*
X65194286Y-84131333D01*
X65146667Y-84036095D01*
X65146667Y-83940857D01*
X65194286Y-83845619D01*
X65241905Y-83798000D01*
X65337143Y-83750381D01*
X65575239Y-83750381D01*
X65718096Y-83798000D01*
X63257810Y-86290381D02*
X63876858Y-86290381D01*
X63543524Y-86671333D01*
X63686382Y-86671333D01*
X63781620Y-86718952D01*
X63829239Y-86766571D01*
X63876858Y-86861810D01*
X63876858Y-87099905D01*
X63829239Y-87195143D01*
X63781620Y-87242762D01*
X63686382Y-87290381D01*
X63400667Y-87290381D01*
X63305429Y-87242762D01*
X63257810Y-87195143D01*
X64305429Y-87195143D02*
X64353048Y-87242762D01*
X64305429Y-87290381D01*
X64257810Y-87242762D01*
X64305429Y-87195143D01*
X64305429Y-87290381D01*
X64686381Y-86290381D02*
X65305429Y-86290381D01*
X64972095Y-86671333D01*
X65114953Y-86671333D01*
X65210191Y-86718952D01*
X65257810Y-86766571D01*
X65305429Y-86861810D01*
X65305429Y-87099905D01*
X65257810Y-87195143D01*
X65210191Y-87242762D01*
X65114953Y-87290381D01*
X64829238Y-87290381D01*
X64734000Y-87242762D01*
X64686381Y-87195143D01*
X65591143Y-86290381D02*
X65924476Y-87290381D01*
X66257810Y-86290381D01*
X63781524Y-88830381D02*
X63305333Y-88830381D01*
X63257714Y-89306571D01*
X63305333Y-89258952D01*
X63400571Y-89211333D01*
X63638667Y-89211333D01*
X63733905Y-89258952D01*
X63781524Y-89306571D01*
X63829143Y-89401810D01*
X63829143Y-89639905D01*
X63781524Y-89735143D01*
X63733905Y-89782762D01*
X63638667Y-89830381D01*
X63400571Y-89830381D01*
X63305333Y-89782762D01*
X63257714Y-89735143D01*
X64114857Y-88830381D02*
X64448190Y-89830381D01*
X64781524Y-88830381D01*
X63718096Y-91418000D02*
X63622858Y-91370381D01*
X63480001Y-91370381D01*
X63337143Y-91418000D01*
X63241905Y-91513238D01*
X63194286Y-91608476D01*
X63146667Y-91798952D01*
X63146667Y-91941810D01*
X63194286Y-92132286D01*
X63241905Y-92227524D01*
X63337143Y-92322762D01*
X63480001Y-92370381D01*
X63575239Y-92370381D01*
X63718096Y-92322762D01*
X63765715Y-92275143D01*
X63765715Y-91941810D01*
X63575239Y-91941810D01*
X64194286Y-92370381D02*
X64194286Y-91370381D01*
X64765715Y-92370381D01*
X64765715Y-91370381D01*
X65241905Y-92370381D02*
X65241905Y-91370381D01*
X65480000Y-91370381D01*
X65622858Y-91418000D01*
X65718096Y-91513238D01*
X65765715Y-91608476D01*
X65813334Y-91798952D01*
X65813334Y-91941810D01*
X65765715Y-92132286D01*
X65718096Y-92227524D01*
X65622858Y-92322762D01*
X65480000Y-92370381D01*
X65241905Y-92370381D01*
X63718096Y-93958000D02*
X63622858Y-93910381D01*
X63480001Y-93910381D01*
X63337143Y-93958000D01*
X63241905Y-94053238D01*
X63194286Y-94148476D01*
X63146667Y-94338952D01*
X63146667Y-94481810D01*
X63194286Y-94672286D01*
X63241905Y-94767524D01*
X63337143Y-94862762D01*
X63480001Y-94910381D01*
X63575239Y-94910381D01*
X63718096Y-94862762D01*
X63765715Y-94815143D01*
X63765715Y-94481810D01*
X63575239Y-94481810D01*
X64194286Y-94910381D02*
X64194286Y-93910381D01*
X64765715Y-94910381D01*
X64765715Y-93910381D01*
X65241905Y-94910381D02*
X65241905Y-93910381D01*
X65480000Y-93910381D01*
X65622858Y-93958000D01*
X65718096Y-94053238D01*
X65765715Y-94148476D01*
X65813334Y-94338952D01*
X65813334Y-94481810D01*
X65765715Y-94672286D01*
X65718096Y-94767524D01*
X65622858Y-94862762D01*
X65480000Y-94910381D01*
X65241905Y-94910381D01*
X63130762Y-96450381D02*
X63464095Y-97450381D01*
X63797429Y-96450381D01*
X64130762Y-97450381D02*
X64130762Y-96450381D01*
X64606952Y-97450381D02*
X64606952Y-96450381D01*
X65178381Y-97450381D01*
X65178381Y-96450381D01*
X63257714Y-102244667D02*
X63733905Y-102244667D01*
X63162476Y-102530381D02*
X63495809Y-101530381D01*
X63829143Y-102530381D01*
X64352952Y-101530381D02*
X64448191Y-101530381D01*
X64543429Y-101578000D01*
X64591048Y-101625619D01*
X64638667Y-101720857D01*
X64686286Y-101911333D01*
X64686286Y-102149429D01*
X64638667Y-102339905D01*
X64591048Y-102435143D01*
X64543429Y-102482762D01*
X64448191Y-102530381D01*
X64352952Y-102530381D01*
X64257714Y-102482762D01*
X64210095Y-102435143D01*
X64162476Y-102339905D01*
X64114857Y-102149429D01*
X64114857Y-101911333D01*
X64162476Y-101720857D01*
X64210095Y-101625619D01*
X64257714Y-101578000D01*
X64352952Y-101530381D01*
X63257714Y-104784667D02*
X63733905Y-104784667D01*
X63162476Y-105070381D02*
X63495809Y-104070381D01*
X63829143Y-105070381D01*
X64686286Y-105070381D02*
X64114857Y-105070381D01*
X64400571Y-105070381D02*
X64400571Y-104070381D01*
X64305333Y-104213238D01*
X64210095Y-104308476D01*
X64114857Y-104356095D01*
X63257714Y-107324667D02*
X63733905Y-107324667D01*
X63162476Y-107610381D02*
X63495809Y-106610381D01*
X63829143Y-107610381D01*
X64114857Y-106705619D02*
X64162476Y-106658000D01*
X64257714Y-106610381D01*
X64495810Y-106610381D01*
X64591048Y-106658000D01*
X64638667Y-106705619D01*
X64686286Y-106800857D01*
X64686286Y-106896095D01*
X64638667Y-107038952D01*
X64067238Y-107610381D01*
X64686286Y-107610381D01*
X63257714Y-109610667D02*
X63733905Y-109610667D01*
X63162476Y-109896381D02*
X63495809Y-108896381D01*
X63829143Y-109896381D01*
X64067238Y-108896381D02*
X64686286Y-108896381D01*
X64352952Y-109277333D01*
X64495810Y-109277333D01*
X64591048Y-109324952D01*
X64638667Y-109372571D01*
X64686286Y-109467810D01*
X64686286Y-109705905D01*
X64638667Y-109801143D01*
X64591048Y-109848762D01*
X64495810Y-109896381D01*
X64210095Y-109896381D01*
X64114857Y-109848762D01*
X64067238Y-109801143D01*
X63257714Y-112404667D02*
X63733905Y-112404667D01*
X63162476Y-112690381D02*
X63495809Y-111690381D01*
X63829143Y-112690381D01*
X64591048Y-112023714D02*
X64591048Y-112690381D01*
X64352952Y-111642762D02*
X64114857Y-112357048D01*
X64733905Y-112357048D01*
X63257714Y-114944667D02*
X63733905Y-114944667D01*
X63162476Y-115230381D02*
X63495809Y-114230381D01*
X63829143Y-115230381D01*
X64638667Y-114230381D02*
X64162476Y-114230381D01*
X64114857Y-114706571D01*
X64162476Y-114658952D01*
X64257714Y-114611333D01*
X64495810Y-114611333D01*
X64591048Y-114658952D01*
X64638667Y-114706571D01*
X64686286Y-114801810D01*
X64686286Y-115039905D01*
X64638667Y-115135143D01*
X64591048Y-115182762D01*
X64495810Y-115230381D01*
X64257714Y-115230381D01*
X64162476Y-115182762D01*
X64114857Y-115135143D01*
X105120095Y-111944381D02*
X105691524Y-111944381D01*
X105405809Y-112944381D02*
X105405809Y-111944381D01*
X105929619Y-111944381D02*
X106596286Y-112944381D01*
X106596286Y-111944381D02*
X105929619Y-112944381D01*
X105715334Y-115230381D02*
X105382000Y-114754190D01*
X105143905Y-115230381D02*
X105143905Y-114230381D01*
X105524858Y-114230381D01*
X105620096Y-114278000D01*
X105667715Y-114325619D01*
X105715334Y-114420857D01*
X105715334Y-114563714D01*
X105667715Y-114658952D01*
X105620096Y-114706571D01*
X105524858Y-114754190D01*
X105143905Y-114754190D01*
X106048667Y-114230381D02*
X106715334Y-115230381D01*
X106715334Y-114230381D02*
X106048667Y-115230381D01*
X107612381Y-114230381D02*
X107707620Y-114230381D01*
X107802858Y-114278000D01*
X107850477Y-114325619D01*
X107898096Y-114420857D01*
X107945715Y-114611333D01*
X107945715Y-114849429D01*
X107898096Y-115039905D01*
X107850477Y-115135143D01*
X107802858Y-115182762D01*
X107707620Y-115230381D01*
X107612381Y-115230381D01*
X107517143Y-115182762D01*
X107469524Y-115135143D01*
X107421905Y-115039905D01*
X107374286Y-114849429D01*
X107374286Y-114611333D01*
X107421905Y-114420857D01*
X107469524Y-114325619D01*
X107517143Y-114278000D01*
X107612381Y-114230381D01*
X107945715Y-112690381D02*
X107374286Y-112690381D01*
X107660000Y-112690381D02*
X107660000Y-111690381D01*
X107564762Y-111833238D01*
X107469524Y-111928476D01*
X107374286Y-111976095D01*
X107374286Y-109245619D02*
X107421905Y-109198000D01*
X107517143Y-109150381D01*
X107755239Y-109150381D01*
X107850477Y-109198000D01*
X107898096Y-109245619D01*
X107945715Y-109340857D01*
X107945715Y-109436095D01*
X107898096Y-109578952D01*
X107326667Y-110150381D01*
X107945715Y-110150381D01*
X107326667Y-106610381D02*
X107945715Y-106610381D01*
X107612381Y-106991333D01*
X107755239Y-106991333D01*
X107850477Y-107038952D01*
X107898096Y-107086571D01*
X107945715Y-107181810D01*
X107945715Y-107419905D01*
X107898096Y-107515143D01*
X107850477Y-107562762D01*
X107755239Y-107610381D01*
X107469524Y-107610381D01*
X107374286Y-107562762D01*
X107326667Y-107515143D01*
X107850477Y-104403714D02*
X107850477Y-105070381D01*
X107612381Y-104022762D02*
X107374286Y-104737048D01*
X107993334Y-104737048D01*
X107898096Y-101530381D02*
X107421905Y-101530381D01*
X107374286Y-102006571D01*
X107421905Y-101958952D01*
X107517143Y-101911333D01*
X107755239Y-101911333D01*
X107850477Y-101958952D01*
X107898096Y-102006571D01*
X107945715Y-102101810D01*
X107945715Y-102339905D01*
X107898096Y-102435143D01*
X107850477Y-102482762D01*
X107755239Y-102530381D01*
X107517143Y-102530381D01*
X107421905Y-102482762D01*
X107374286Y-102435143D01*
X107850477Y-98990381D02*
X107660000Y-98990381D01*
X107564762Y-99038000D01*
X107517143Y-99085619D01*
X107421905Y-99228476D01*
X107374286Y-99418952D01*
X107374286Y-99799905D01*
X107421905Y-99895143D01*
X107469524Y-99942762D01*
X107564762Y-99990381D01*
X107755239Y-99990381D01*
X107850477Y-99942762D01*
X107898096Y-99895143D01*
X107945715Y-99799905D01*
X107945715Y-99561810D01*
X107898096Y-99466571D01*
X107850477Y-99418952D01*
X107755239Y-99371333D01*
X107564762Y-99371333D01*
X107469524Y-99418952D01*
X107421905Y-99466571D01*
X107374286Y-99561810D01*
X107326667Y-96450381D02*
X107993334Y-96450381D01*
X107564762Y-97450381D01*
X104770952Y-75320667D02*
X105247143Y-75320667D01*
X104675714Y-75606381D02*
X105009047Y-74606381D01*
X105342381Y-75606381D01*
X106247143Y-75606381D02*
X105913809Y-75130190D01*
X105675714Y-75606381D02*
X105675714Y-74606381D01*
X106056667Y-74606381D01*
X106151905Y-74654000D01*
X106199524Y-74701619D01*
X106247143Y-74796857D01*
X106247143Y-74939714D01*
X106199524Y-75034952D01*
X106151905Y-75082571D01*
X106056667Y-75130190D01*
X105675714Y-75130190D01*
X106675714Y-75082571D02*
X107009048Y-75082571D01*
X107151905Y-75606381D02*
X106675714Y-75606381D01*
X106675714Y-74606381D01*
X107151905Y-74606381D01*
X107913810Y-75082571D02*
X107580476Y-75082571D01*
X107580476Y-75606381D02*
X107580476Y-74606381D01*
X108056667Y-74606381D01*
X107564762Y-92814952D02*
X107469524Y-92767333D01*
X107421905Y-92719714D01*
X107374286Y-92624476D01*
X107374286Y-92576857D01*
X107421905Y-92481619D01*
X107469524Y-92434000D01*
X107564762Y-92386381D01*
X107755239Y-92386381D01*
X107850477Y-92434000D01*
X107898096Y-92481619D01*
X107945715Y-92576857D01*
X107945715Y-92624476D01*
X107898096Y-92719714D01*
X107850477Y-92767333D01*
X107755239Y-92814952D01*
X107564762Y-92814952D01*
X107469524Y-92862571D01*
X107421905Y-92910190D01*
X107374286Y-93005429D01*
X107374286Y-93195905D01*
X107421905Y-93291143D01*
X107469524Y-93338762D01*
X107564762Y-93386381D01*
X107755239Y-93386381D01*
X107850477Y-93338762D01*
X107898096Y-93291143D01*
X107945715Y-93195905D01*
X107945715Y-93005429D01*
X107898096Y-92910190D01*
X107850477Y-92862571D01*
X107755239Y-92814952D01*
X107469524Y-90846381D02*
X107660000Y-90846381D01*
X107755239Y-90798762D01*
X107802858Y-90751143D01*
X107898096Y-90608286D01*
X107945715Y-90417810D01*
X107945715Y-90036857D01*
X107898096Y-89941619D01*
X107850477Y-89894000D01*
X107755239Y-89846381D01*
X107564762Y-89846381D01*
X107469524Y-89894000D01*
X107421905Y-89941619D01*
X107374286Y-90036857D01*
X107374286Y-90274952D01*
X107421905Y-90370190D01*
X107469524Y-90417810D01*
X107564762Y-90465429D01*
X107755239Y-90465429D01*
X107850477Y-90417810D01*
X107898096Y-90370190D01*
X107945715Y-90274952D01*
X106961524Y-88306381D02*
X106390095Y-88306381D01*
X106675809Y-88306381D02*
X106675809Y-87306381D01*
X106580571Y-87449238D01*
X106485333Y-87544476D01*
X106390095Y-87592095D01*
X107580571Y-87306381D02*
X107675810Y-87306381D01*
X107771048Y-87354000D01*
X107818667Y-87401619D01*
X107866286Y-87496857D01*
X107913905Y-87687333D01*
X107913905Y-87925429D01*
X107866286Y-88115905D01*
X107818667Y-88211143D01*
X107771048Y-88258762D01*
X107675810Y-88306381D01*
X107580571Y-88306381D01*
X107485333Y-88258762D01*
X107437714Y-88211143D01*
X107390095Y-88115905D01*
X107342476Y-87925429D01*
X107342476Y-87687333D01*
X107390095Y-87496857D01*
X107437714Y-87401619D01*
X107485333Y-87354000D01*
X107580571Y-87306381D01*
X106961524Y-85766381D02*
X106390095Y-85766381D01*
X106675809Y-85766381D02*
X106675809Y-84766381D01*
X106580571Y-84909238D01*
X106485333Y-85004476D01*
X106390095Y-85052095D01*
X107913905Y-85766381D02*
X107342476Y-85766381D01*
X107628190Y-85766381D02*
X107628190Y-84766381D01*
X107532952Y-84909238D01*
X107437714Y-85004476D01*
X107342476Y-85052095D01*
X106961524Y-83226381D02*
X106390095Y-83226381D01*
X106675809Y-83226381D02*
X106675809Y-82226381D01*
X106580571Y-82369238D01*
X106485333Y-82464476D01*
X106390095Y-82512095D01*
X107342476Y-82321619D02*
X107390095Y-82274000D01*
X107485333Y-82226381D01*
X107723429Y-82226381D01*
X107818667Y-82274000D01*
X107866286Y-82321619D01*
X107913905Y-82416857D01*
X107913905Y-82512095D01*
X107866286Y-82654952D01*
X107294857Y-83226381D01*
X107913905Y-83226381D01*
X106961524Y-80686381D02*
X106390095Y-80686381D01*
X106675809Y-80686381D02*
X106675809Y-79686381D01*
X106580571Y-79829238D01*
X106485333Y-79924476D01*
X106390095Y-79972095D01*
X107294857Y-79686381D02*
X107913905Y-79686381D01*
X107580571Y-80067333D01*
X107723429Y-80067333D01*
X107818667Y-80114952D01*
X107866286Y-80162571D01*
X107913905Y-80257810D01*
X107913905Y-80495905D01*
X107866286Y-80591143D01*
X107818667Y-80638762D01*
X107723429Y-80686381D01*
X107437714Y-80686381D01*
X107342476Y-80638762D01*
X107294857Y-80591143D01*
X105882096Y-77194000D02*
X105786858Y-77146381D01*
X105644001Y-77146381D01*
X105501143Y-77194000D01*
X105405905Y-77289238D01*
X105358286Y-77384476D01*
X105310667Y-77574952D01*
X105310667Y-77717810D01*
X105358286Y-77908286D01*
X105405905Y-78003524D01*
X105501143Y-78098762D01*
X105644001Y-78146381D01*
X105739239Y-78146381D01*
X105882096Y-78098762D01*
X105929715Y-78051143D01*
X105929715Y-77717810D01*
X105739239Y-77717810D01*
X106358286Y-78146381D02*
X106358286Y-77146381D01*
X106929715Y-78146381D01*
X106929715Y-77146381D01*
X107405905Y-78146381D02*
X107405905Y-77146381D01*
X107644000Y-77146381D01*
X107786858Y-77194000D01*
X107882096Y-77289238D01*
X107929715Y-77384476D01*
X107977334Y-77574952D01*
X107977334Y-77717810D01*
X107929715Y-77908286D01*
X107882096Y-78003524D01*
X107786858Y-78098762D01*
X107644000Y-78146381D01*
X107405905Y-78146381D01*
X105429714Y-73018762D02*
X105572571Y-73066381D01*
X105810667Y-73066381D01*
X105905905Y-73018762D01*
X105953524Y-72971143D01*
X106001143Y-72875905D01*
X106001143Y-72780667D01*
X105953524Y-72685429D01*
X105905905Y-72637810D01*
X105810667Y-72590190D01*
X105620190Y-72542571D01*
X105524952Y-72494952D01*
X105477333Y-72447333D01*
X105429714Y-72352095D01*
X105429714Y-72256857D01*
X105477333Y-72161619D01*
X105524952Y-72114000D01*
X105620190Y-72066381D01*
X105858286Y-72066381D01*
X106001143Y-72114000D01*
X106429714Y-73066381D02*
X106429714Y-72066381D01*
X106667809Y-72066381D01*
X106810667Y-72114000D01*
X106905905Y-72209238D01*
X106953524Y-72304476D01*
X107001143Y-72494952D01*
X107001143Y-72637810D01*
X106953524Y-72828286D01*
X106905905Y-72923524D01*
X106810667Y-73018762D01*
X106667809Y-73066381D01*
X106429714Y-73066381D01*
X107382095Y-72780667D02*
X107858286Y-72780667D01*
X107286857Y-73066381D02*
X107620190Y-72066381D01*
X107953524Y-73066381D01*
X105453524Y-70478762D02*
X105596381Y-70526381D01*
X105834477Y-70526381D01*
X105929715Y-70478762D01*
X105977334Y-70431143D01*
X106024953Y-70335905D01*
X106024953Y-70240667D01*
X105977334Y-70145429D01*
X105929715Y-70097810D01*
X105834477Y-70050190D01*
X105644000Y-70002571D01*
X105548762Y-69954952D01*
X105501143Y-69907333D01*
X105453524Y-69812095D01*
X105453524Y-69716857D01*
X105501143Y-69621619D01*
X105548762Y-69574000D01*
X105644000Y-69526381D01*
X105882096Y-69526381D01*
X106024953Y-69574000D01*
X107024953Y-70431143D02*
X106977334Y-70478762D01*
X106834477Y-70526381D01*
X106739239Y-70526381D01*
X106596381Y-70478762D01*
X106501143Y-70383524D01*
X106453524Y-70288286D01*
X106405905Y-70097810D01*
X106405905Y-69954952D01*
X106453524Y-69764476D01*
X106501143Y-69669238D01*
X106596381Y-69574000D01*
X106739239Y-69526381D01*
X106834477Y-69526381D01*
X106977334Y-69574000D01*
X107024953Y-69621619D01*
X107929715Y-70526381D02*
X107453524Y-70526381D01*
X107453524Y-69526381D01*
X119685334Y-126914381D02*
X119352000Y-126438190D01*
X119113905Y-126914381D02*
X119113905Y-125914381D01*
X119494858Y-125914381D01*
X119590096Y-125962000D01*
X119637715Y-126009619D01*
X119685334Y-126104857D01*
X119685334Y-126247714D01*
X119637715Y-126342952D01*
X119590096Y-126390571D01*
X119494858Y-126438190D01*
X119113905Y-126438190D01*
X120018667Y-125914381D02*
X120637715Y-125914381D01*
X120304381Y-126295333D01*
X120447239Y-126295333D01*
X120542477Y-126342952D01*
X120590096Y-126390571D01*
X120637715Y-126485810D01*
X120637715Y-126723905D01*
X120590096Y-126819143D01*
X120542477Y-126866762D01*
X120447239Y-126914381D01*
X120161524Y-126914381D01*
X120066286Y-126866762D01*
X120018667Y-126819143D01*
X119685334Y-133010381D02*
X119352000Y-132534190D01*
X119113905Y-133010381D02*
X119113905Y-132010381D01*
X119494858Y-132010381D01*
X119590096Y-132058000D01*
X119637715Y-132105619D01*
X119685334Y-132200857D01*
X119685334Y-132343714D01*
X119637715Y-132438952D01*
X119590096Y-132486571D01*
X119494858Y-132534190D01*
X119113905Y-132534190D01*
X120542477Y-132343714D02*
X120542477Y-133010381D01*
X120304381Y-131962762D02*
X120066286Y-132677048D01*
X120685334Y-132677048D01*
X119788667Y-73272762D02*
X119931524Y-73320381D01*
X120169620Y-73320381D01*
X120264858Y-73272762D01*
X120312477Y-73225143D01*
X120360096Y-73129905D01*
X120360096Y-73034667D01*
X120312477Y-72939429D01*
X120264858Y-72891810D01*
X120169620Y-72844190D01*
X119979143Y-72796571D01*
X119883905Y-72748952D01*
X119836286Y-72701333D01*
X119788667Y-72606095D01*
X119788667Y-72510857D01*
X119836286Y-72415619D01*
X119883905Y-72368000D01*
X119979143Y-72320381D01*
X120217239Y-72320381D01*
X120360096Y-72368000D01*
X120693429Y-72320381D02*
X120931524Y-73320381D01*
X121122001Y-72606095D01*
X121312477Y-73320381D01*
X121550572Y-72320381D01*
X122455334Y-73320381D02*
X121883905Y-73320381D01*
X122169619Y-73320381D02*
X122169619Y-72320381D01*
X122074381Y-72463238D01*
X121979143Y-72558476D01*
X121883905Y-72606095D01*
X119788667Y-107562762D02*
X119931524Y-107610381D01*
X120169620Y-107610381D01*
X120264858Y-107562762D01*
X120312477Y-107515143D01*
X120360096Y-107419905D01*
X120360096Y-107324667D01*
X120312477Y-107229429D01*
X120264858Y-107181810D01*
X120169620Y-107134190D01*
X119979143Y-107086571D01*
X119883905Y-107038952D01*
X119836286Y-106991333D01*
X119788667Y-106896095D01*
X119788667Y-106800857D01*
X119836286Y-106705619D01*
X119883905Y-106658000D01*
X119979143Y-106610381D01*
X120217239Y-106610381D01*
X120360096Y-106658000D01*
X120693429Y-106610381D02*
X120931524Y-107610381D01*
X121122001Y-106896095D01*
X121312477Y-107610381D01*
X121550572Y-106610381D01*
X121883905Y-106705619D02*
X121931524Y-106658000D01*
X122026762Y-106610381D01*
X122264858Y-106610381D01*
X122360096Y-106658000D01*
X122407715Y-106705619D01*
X122455334Y-106800857D01*
X122455334Y-106896095D01*
X122407715Y-107038952D01*
X121836286Y-107610381D01*
X122455334Y-107610381D01*
X119788667Y-96132762D02*
X119931524Y-96180381D01*
X120169620Y-96180381D01*
X120264858Y-96132762D01*
X120312477Y-96085143D01*
X120360096Y-95989905D01*
X120360096Y-95894667D01*
X120312477Y-95799429D01*
X120264858Y-95751810D01*
X120169620Y-95704190D01*
X119979143Y-95656571D01*
X119883905Y-95608952D01*
X119836286Y-95561333D01*
X119788667Y-95466095D01*
X119788667Y-95370857D01*
X119836286Y-95275619D01*
X119883905Y-95228000D01*
X119979143Y-95180381D01*
X120217239Y-95180381D01*
X120360096Y-95228000D01*
X120693429Y-95180381D02*
X120931524Y-96180381D01*
X121122001Y-95466095D01*
X121312477Y-96180381D01*
X121550572Y-95180381D01*
X121836286Y-95180381D02*
X122455334Y-95180381D01*
X122122000Y-95561333D01*
X122264858Y-95561333D01*
X122360096Y-95608952D01*
X122407715Y-95656571D01*
X122455334Y-95751810D01*
X122455334Y-95989905D01*
X122407715Y-96085143D01*
X122360096Y-96132762D01*
X122264858Y-96180381D01*
X121979143Y-96180381D01*
X121883905Y-96132762D01*
X121836286Y-96085143D01*
X119788667Y-84702762D02*
X119931524Y-84750381D01*
X120169620Y-84750381D01*
X120264858Y-84702762D01*
X120312477Y-84655143D01*
X120360096Y-84559905D01*
X120360096Y-84464667D01*
X120312477Y-84369429D01*
X120264858Y-84321810D01*
X120169620Y-84274190D01*
X119979143Y-84226571D01*
X119883905Y-84178952D01*
X119836286Y-84131333D01*
X119788667Y-84036095D01*
X119788667Y-83940857D01*
X119836286Y-83845619D01*
X119883905Y-83798000D01*
X119979143Y-83750381D01*
X120217239Y-83750381D01*
X120360096Y-83798000D01*
X120693429Y-83750381D02*
X120931524Y-84750381D01*
X121122001Y-84036095D01*
X121312477Y-84750381D01*
X121550572Y-83750381D01*
X122360096Y-84083714D02*
X122360096Y-84750381D01*
X122122000Y-83702762D02*
X121883905Y-84417048D01*
X122502953Y-84417048D01*
X71600095Y-125660381D02*
X72171524Y-125660381D01*
X71885809Y-126660381D02*
X71885809Y-125660381D01*
X72504857Y-126660381D02*
X72504857Y-125660381D01*
X72885810Y-125660381D01*
X72981048Y-125708000D01*
X73028667Y-125755619D01*
X73076286Y-125850857D01*
X73076286Y-125993714D01*
X73028667Y-126088952D01*
X72981048Y-126136571D01*
X72885810Y-126184190D01*
X72504857Y-126184190D01*
X74028667Y-126660381D02*
X73457238Y-126660381D01*
X73742952Y-126660381D02*
X73742952Y-125660381D01*
X73647714Y-125803238D01*
X73552476Y-125898476D01*
X73457238Y-125946095D01*
X74394095Y-120580381D02*
X74965524Y-120580381D01*
X74679809Y-121580381D02*
X74679809Y-120580381D01*
X75298857Y-121580381D02*
X75298857Y-120580381D01*
X75679810Y-120580381D01*
X75775048Y-120628000D01*
X75822667Y-120675619D01*
X75870286Y-120770857D01*
X75870286Y-120913714D01*
X75822667Y-121008952D01*
X75775048Y-121056571D01*
X75679810Y-121104190D01*
X75298857Y-121104190D01*
X76251238Y-120675619D02*
X76298857Y-120628000D01*
X76394095Y-120580381D01*
X76632191Y-120580381D01*
X76727429Y-120628000D01*
X76775048Y-120675619D01*
X76822667Y-120770857D01*
X76822667Y-120866095D01*
X76775048Y-121008952D01*
X76203619Y-121580381D01*
X76822667Y-121580381D01*
X118590095Y-58858381D02*
X119161524Y-58858381D01*
X118875809Y-59858381D02*
X118875809Y-58858381D01*
X119494857Y-59858381D02*
X119494857Y-58858381D01*
X119875810Y-58858381D01*
X119971048Y-58906000D01*
X120018667Y-58953619D01*
X120066286Y-59048857D01*
X120066286Y-59191714D01*
X120018667Y-59286952D01*
X119971048Y-59334571D01*
X119875810Y-59382190D01*
X119494857Y-59382190D01*
X120399619Y-58858381D02*
X121018667Y-58858381D01*
X120685333Y-59239333D01*
X120828191Y-59239333D01*
X120923429Y-59286952D01*
X120971048Y-59334571D01*
X121018667Y-59429810D01*
X121018667Y-59667905D01*
X120971048Y-59763143D01*
X120923429Y-59810762D01*
X120828191Y-59858381D01*
X120542476Y-59858381D01*
X120447238Y-59810762D01*
X120399619Y-59763143D01*
X85562095Y-123120381D02*
X85562095Y-123929905D01*
X85609714Y-124025143D01*
X85657333Y-124072762D01*
X85752571Y-124120381D01*
X85943048Y-124120381D01*
X86038286Y-124072762D01*
X86085905Y-124025143D01*
X86133524Y-123929905D01*
X86133524Y-123120381D01*
X87133524Y-124120381D02*
X86562095Y-124120381D01*
X86847809Y-124120381D02*
X86847809Y-123120381D01*
X86752571Y-123263238D01*
X86657333Y-123358476D01*
X86562095Y-123406095D01*
X97119095Y-123120381D02*
X97119095Y-123929905D01*
X97166714Y-124025143D01*
X97214333Y-124072762D01*
X97309571Y-124120381D01*
X97500048Y-124120381D01*
X97595286Y-124072762D01*
X97642905Y-124025143D01*
X97690524Y-123929905D01*
X97690524Y-123120381D01*
X98119095Y-123215619D02*
X98166714Y-123168000D01*
X98261952Y-123120381D01*
X98500048Y-123120381D01*
X98595286Y-123168000D01*
X98642905Y-123215619D01*
X98690524Y-123310857D01*
X98690524Y-123406095D01*
X98642905Y-123548952D01*
X98071476Y-124120381D01*
X98690524Y-124120381D01*
X57979143Y-98196476D02*
X58026762Y-98244095D01*
X58074381Y-98386952D01*
X58074381Y-98482190D01*
X58026762Y-98625048D01*
X57931524Y-98720286D01*
X57836286Y-98767905D01*
X57645810Y-98815524D01*
X57502952Y-98815524D01*
X57312476Y-98767905D01*
X57217238Y-98720286D01*
X57122000Y-98625048D01*
X57074381Y-98482190D01*
X57074381Y-98386952D01*
X57122000Y-98244095D01*
X57169619Y-98196476D01*
X58074381Y-97767905D02*
X57074381Y-97767905D01*
X58074381Y-97196476D01*
X57074381Y-97196476D01*
X57169619Y-96767905D02*
X57122000Y-96720286D01*
X57074381Y-96625048D01*
X57074381Y-96386952D01*
X57122000Y-96291714D01*
X57169619Y-96244095D01*
X57264857Y-96196476D01*
X57360095Y-96196476D01*
X57502952Y-96244095D01*
X58074381Y-96815524D01*
X58074381Y-96196476D01*
X52375334Y-75511143D02*
X52327715Y-75558762D01*
X52184858Y-75606381D01*
X52089620Y-75606381D01*
X51946762Y-75558762D01*
X51851524Y-75463524D01*
X51803905Y-75368286D01*
X51756286Y-75177810D01*
X51756286Y-75034952D01*
X51803905Y-74844476D01*
X51851524Y-74749238D01*
X51946762Y-74654000D01*
X52089620Y-74606381D01*
X52184858Y-74606381D01*
X52327715Y-74654000D01*
X52375334Y-74701619D01*
X53280096Y-74606381D02*
X52803905Y-74606381D01*
X52756286Y-75082571D01*
X52803905Y-75034952D01*
X52899143Y-74987333D01*
X53137239Y-74987333D01*
X53232477Y-75034952D01*
X53280096Y-75082571D01*
X53327715Y-75177810D01*
X53327715Y-75415905D01*
X53280096Y-75511143D01*
X53232477Y-75558762D01*
X53137239Y-75606381D01*
X52899143Y-75606381D01*
X52803905Y-75558762D01*
X52756286Y-75511143D01*
X56645810Y-58588381D02*
X56645810Y-57588381D01*
X57693429Y-58493143D02*
X57645810Y-58540762D01*
X57502953Y-58588381D01*
X57407715Y-58588381D01*
X57264857Y-58540762D01*
X57169619Y-58445524D01*
X57122000Y-58350286D01*
X57074381Y-58159810D01*
X57074381Y-58016952D01*
X57122000Y-57826476D01*
X57169619Y-57731238D01*
X57264857Y-57636000D01*
X57407715Y-57588381D01*
X57502953Y-57588381D01*
X57645810Y-57636000D01*
X57693429Y-57683619D01*
X58645810Y-58588381D02*
X58074381Y-58588381D01*
X58360095Y-58588381D02*
X58360095Y-57588381D01*
X58264857Y-57731238D01*
X58169619Y-57826476D01*
X58074381Y-57874095D01*
X50692667Y-79432381D02*
X50692667Y-80146667D01*
X50645047Y-80289524D01*
X50549809Y-80384762D01*
X50406952Y-80432381D01*
X50311714Y-80432381D01*
X51168857Y-80432381D02*
X51168857Y-79432381D01*
X51549810Y-79432381D01*
X51645048Y-79480000D01*
X51692667Y-79527619D01*
X51740286Y-79622857D01*
X51740286Y-79765714D01*
X51692667Y-79860952D01*
X51645048Y-79908571D01*
X51549810Y-79956190D01*
X51168857Y-79956190D01*
X52692667Y-80432381D02*
X52121238Y-80432381D01*
X52406952Y-80432381D02*
X52406952Y-79432381D01*
X52311714Y-79575238D01*
X52216476Y-79670476D01*
X52121238Y-79718095D01*
X50692667Y-76892381D02*
X50692667Y-77606667D01*
X50645047Y-77749524D01*
X50549809Y-77844762D01*
X50406952Y-77892381D01*
X50311714Y-77892381D01*
X51168857Y-77892381D02*
X51168857Y-76892381D01*
X51549810Y-76892381D01*
X51645048Y-76940000D01*
X51692667Y-76987619D01*
X51740286Y-77082857D01*
X51740286Y-77225714D01*
X51692667Y-77320952D01*
X51645048Y-77368571D01*
X51549810Y-77416190D01*
X51168857Y-77416190D01*
X52121238Y-76987619D02*
X52168857Y-76940000D01*
X52264095Y-76892381D01*
X52502191Y-76892381D01*
X52597429Y-76940000D01*
X52645048Y-76987619D01*
X52692667Y-77082857D01*
X52692667Y-77178095D01*
X52645048Y-77320952D01*
X52073619Y-77892381D01*
X52692667Y-77892381D01*
X55740953Y-88560381D02*
X55264762Y-88560381D01*
X55264762Y-87560381D01*
X56074286Y-88036571D02*
X56407620Y-88036571D01*
X56550477Y-88560381D02*
X56074286Y-88560381D01*
X56074286Y-87560381D01*
X56550477Y-87560381D01*
X56979048Y-88560381D02*
X56979048Y-87560381D01*
X57217143Y-87560381D01*
X57360001Y-87608000D01*
X57455239Y-87703238D01*
X57502858Y-87798476D01*
X57550477Y-87988952D01*
X57550477Y-88131810D01*
X57502858Y-88322286D01*
X57455239Y-88417524D01*
X57360001Y-88512762D01*
X57217143Y-88560381D01*
X56979048Y-88560381D01*
X57883810Y-87560381D02*
X58502858Y-87560381D01*
X58169524Y-87941333D01*
X58312382Y-87941333D01*
X58407620Y-87988952D01*
X58455239Y-88036571D01*
X58502858Y-88131810D01*
X58502858Y-88369905D01*
X58455239Y-88465143D01*
X58407620Y-88512762D01*
X58312382Y-88560381D01*
X58026667Y-88560381D01*
X57931429Y-88512762D01*
X57883810Y-88465143D01*
M02*
