M48
;DRILL file {KiCad 4.0.7} date 06/22/21 16:10:03
;FORMAT={-:-/ absolute / metric / decimal}
FMAT,2
METRIC,TZ
T1C0.300
T2C0.500
T3C0.800
T4C0.900
T5C1.000
%
G90
G05
M71
T1
X79.72Y-55.088
X79.72Y-81.758
X79.72Y-83.028
X79.72Y-99.538
X80.482Y-67.788
X80.482Y-100.046
X81.244Y-70.328
X81.244Y-100.554
X81.752Y-112.238
X81.752Y-123.16
X82.514Y-66.518
X82.514Y-114.778
X82.514Y-122.398
X83.276Y-58.898
X94.96Y-123.16
X95.722Y-122.398
X102.326Y-74.138
X102.326Y-76.678
X102.326Y-77.948
X102.326Y-79.218
X102.834Y-81.758
X102.834Y-102.332
X102.834Y-113.508
X103.088Y-57.628
X103.088Y-65.248
X103.088Y-70.328
X103.596Y-80.488
X103.596Y-85.06
X103.596Y-103.094
X103.596Y-112.746
X104.358Y-103.856
X104.358Y-111.984
X104.612Y-72.868
X104.866Y-126.462
X105.12Y-89.378
X105.12Y-104.618
X105.12Y-111.222
X106.39Y-126.462
X106.644Y-90.648
X107.406Y-107.158
X107.406Y-110.46
X108.422Y-126.462
X110.2Y-126.462
X111.216Y-126.462
X111.47Y-82.774
X111.47Y-116.81
X112.232Y-80.234
X112.232Y-117.318
X112.74Y-126.462
X112.994Y-85.314
X112.994Y-116.81
X113.756Y-76.424
X113.756Y-117.318
X114.518Y-86.584
X114.518Y-89.124
T2
X64.607Y-69.058
X64.607Y-76.678
X75.656Y-102.078
X76.672Y-65.248
X76.672Y-104.618
X77.434Y-57.628
X77.688Y-107.158
X78.704Y-60.168
X78.704Y-109.698
X90.642Y-57.628
X90.642Y-65.248
X93.182Y-55.723
X93.182Y-63.343
X105.247Y-119.223
X117.312Y-130.653
T3
X51.272Y-93.823
X51.907Y-69.058
X54.447Y-69.058
X54.987Y-72.868
X56.987Y-69.058
X56.987Y-72.868
X72.862Y-134.468
X72.862Y-138.268
X123.408Y-67.788
X123.408Y-78.456
T4
X54.447Y-77.313
X54.447Y-79.853
X56.987Y-77.313
X56.987Y-79.853
X61.432Y-79.218
X61.432Y-81.758
X61.432Y-84.298
X61.432Y-86.838
X61.432Y-89.378
X61.432Y-91.918
X61.432Y-94.458
X61.432Y-96.998
X61.432Y-102.078
X61.432Y-104.618
X61.432Y-107.158
X61.432Y-109.698
X61.432Y-112.238
X61.432Y-114.778
X74.132Y-52.548
X74.132Y-55.088
X74.132Y-57.628
X74.132Y-60.168
X74.132Y-62.708
X74.132Y-65.248
X74.132Y-67.788
X74.132Y-70.328
X74.132Y-72.868
X74.132Y-75.408
X74.132Y-77.948
X74.132Y-80.488
X74.132Y-83.028
X74.132Y-85.568
X74.132Y-88.108
X74.132Y-90.648
X74.132Y-93.188
X74.132Y-95.728
X74.132Y-98.268
X79.212Y-127.478
X79.212Y-130.018
X81.752Y-127.478
X81.752Y-130.018
X84.292Y-127.478
X84.292Y-130.018
X86.832Y-127.478
X86.832Y-130.018
X90.642Y-127.478
X90.642Y-130.018
X93.182Y-127.478
X93.182Y-130.018
X95.722Y-127.478
X95.722Y-130.018
X98.262Y-127.478
X98.262Y-130.018
X98.262Y-132.558
X99.532Y-52.548
X99.532Y-55.088
X99.532Y-57.628
X99.532Y-60.168
X99.532Y-62.708
X99.532Y-65.248
X99.532Y-67.788
X99.532Y-70.328
X99.532Y-72.868
X99.532Y-75.408
X99.532Y-77.948
X99.532Y-80.488
X99.532Y-83.028
X99.532Y-85.568
X99.532Y-88.108
X99.532Y-90.648
X99.532Y-93.188
X99.532Y-95.728
X99.532Y-98.268
X109.692Y-70.074
X109.692Y-72.614
X109.692Y-75.154
X109.692Y-77.694
X109.692Y-80.234
X109.692Y-82.774
X109.692Y-85.314
X109.692Y-87.854
X109.692Y-90.394
X109.692Y-92.934
X109.692Y-96.998
X109.692Y-99.538
X109.692Y-102.078
X109.692Y-104.618
X109.692Y-107.158
X109.692Y-109.698
X109.692Y-112.238
X109.692Y-114.778
T5
X52.542Y-84.933
X53.812Y-91.383
X53.812Y-93.883
X53.812Y-96.383
X53.812Y-98.883
X53.812Y-101.383
X53.812Y-103.883
X53.812Y-108.428
X53.812Y-110.968
X53.812Y-113.508
X53.812Y-116.048
X53.812Y-118.588
X53.812Y-121.128
X53.812Y-123.668
X53.812Y-126.208
X53.812Y-128.748
X53.812Y-131.288
X55.082Y-84.933
X56.352Y-93.823
X56.352Y-108.428
X56.352Y-110.968
X58.892Y-113.508
X58.892Y-116.048
X64.607Y-52.548
X64.607Y-81.758
X64.607Y-86.838
X67.147Y-85.568
X67.147Y-91.918
X67.147Y-94.458
X67.147Y-124.938
X70.322Y-89.378
X70.322Y-98.268
X70.322Y-122.398
X72.862Y-128.748
X79.212Y-122.398
X79.212Y-124.938
X86.832Y-119.223
X90.642Y-52.548
X90.642Y-119.223
X90.642Y-124.938
X93.182Y-52.548
X93.182Y-67.788
X93.182Y-124.938
X98.262Y-119.223
X100.548Y-124.938
X118.872Y-64.538
X118.872Y-71.038
X118.872Y-75.968
X118.872Y-82.468
X118.872Y-87.398
X118.872Y-93.898
X118.872Y-98.828
X118.872Y-105.328
X123.372Y-64.538
X123.372Y-71.038
X123.372Y-75.968
X123.372Y-82.468
X123.372Y-87.398
X123.372Y-93.898
X123.372Y-98.828
X123.372Y-105.328
X123.662Y-60.168
T5
X61.452Y-127.478G85X63.952Y-127.478
G05
X61.452Y-133.478G85X63.952Y-133.478
G05
X67.402Y-131.728G85X67.402Y-129.228
G05
T0
M30
