G04 #@! TF.FileFunction,Copper,L2,Bot,Signal*
%FSLAX46Y46*%
G04 Gerber Fmt 4.6, Leading zero omitted, Abs format (unit mm)*
G04 Created by KiCad (PCBNEW 4.0.7) date 06/22/21 16:10:00*
%MOMM*%
%LPD*%
G01*
G04 APERTURE LIST*
%ADD10C,0.100000*%
%ADD11C,1.600000*%
%ADD12R,1.600000X1.600000*%
%ADD13R,1.000000X1.000000*%
%ADD14O,5.100000X2.600000*%
%ADD15O,4.600000X2.600000*%
%ADD16O,2.600000X4.600000*%
%ADD17R,1.400000X1.400000*%
%ADD18C,1.400000*%
%ADD19C,1.700000*%
%ADD20C,1.000000*%
%ADD21C,0.600000*%
%ADD22C,2.000000*%
%ADD23C,1.600000*%
%ADD24C,1.400000*%
%ADD25C,0.250000*%
%ADD26C,0.500000*%
%ADD27C,0.800000*%
G04 APERTURE END LIST*
D10*
D11*
X53812000Y-121128000D03*
X53812000Y-118588000D03*
X53812000Y-116048000D03*
X53812000Y-113508000D03*
X53812000Y-110968000D03*
X53812000Y-108428000D03*
X53812000Y-123668000D03*
X53812000Y-126208000D03*
X53812000Y-128748000D03*
D12*
X53812000Y-131288000D03*
D11*
X72862000Y-134468000D03*
X72862000Y-138268000D03*
D13*
X96522000Y-63343000D03*
X94922000Y-63343000D03*
X96522000Y-55723000D03*
X94922000Y-55723000D03*
D14*
X62702000Y-127478000D03*
D15*
X62702000Y-133478000D03*
D16*
X67402000Y-130478000D03*
D17*
X74132000Y-52548000D03*
D18*
X74132000Y-55088000D03*
X74132000Y-57628000D03*
X74132000Y-60168000D03*
X74132000Y-62708000D03*
X74132000Y-65248000D03*
X74132000Y-67788000D03*
X74132000Y-70328000D03*
X74132000Y-72868000D03*
X74132000Y-75408000D03*
X74132000Y-77948000D03*
X74132000Y-80488000D03*
X74132000Y-83028000D03*
X74132000Y-85568000D03*
X74132000Y-88108000D03*
X74132000Y-90648000D03*
X74132000Y-93188000D03*
X74132000Y-95728000D03*
X74132000Y-98268000D03*
X99532000Y-98268000D03*
X99532000Y-95728000D03*
X99532000Y-93188000D03*
X99532000Y-90648000D03*
X99532000Y-88108000D03*
X99532000Y-85568000D03*
X99532000Y-83028000D03*
X99532000Y-80488000D03*
X99532000Y-77948000D03*
X99532000Y-75408000D03*
X99532000Y-72868000D03*
X99532000Y-70328000D03*
X99532000Y-67788000D03*
X99532000Y-65248000D03*
X99532000Y-62708000D03*
X99532000Y-60168000D03*
X99532000Y-57628000D03*
X99532000Y-55088000D03*
X99532000Y-52548000D03*
D17*
X61432000Y-79218000D03*
D18*
X61432000Y-81758000D03*
X61432000Y-84298000D03*
X61432000Y-86838000D03*
X61432000Y-89378000D03*
X61432000Y-91918000D03*
X61432000Y-94458000D03*
X61432000Y-96998000D03*
D17*
X61432000Y-102078000D03*
D18*
X61432000Y-104618000D03*
X61432000Y-107158000D03*
X61432000Y-109698000D03*
X61432000Y-112238000D03*
X61432000Y-114778000D03*
D17*
X109692000Y-114778000D03*
D18*
X109692000Y-112238000D03*
X109692000Y-109698000D03*
X109692000Y-107158000D03*
X109692000Y-104618000D03*
X109692000Y-102078000D03*
X109692000Y-99538000D03*
X109692000Y-96998000D03*
D17*
X109692000Y-92934000D03*
D18*
X109692000Y-90394000D03*
X109692000Y-87854000D03*
X109692000Y-85314000D03*
X109692000Y-82774000D03*
X109692000Y-80234000D03*
X109692000Y-77694000D03*
X109692000Y-75154000D03*
X109692000Y-72614000D03*
X109692000Y-70074000D03*
D13*
X94922000Y-65248000D03*
X96522000Y-65248000D03*
X94922000Y-57628000D03*
X96522000Y-57628000D03*
X65712000Y-102078000D03*
X67312000Y-102078000D03*
X65712000Y-104618000D03*
X67312000Y-104618000D03*
X65712000Y-107158000D03*
X67312000Y-107158000D03*
X65712000Y-109698000D03*
X67312000Y-109698000D03*
X112994000Y-129294000D03*
X112994000Y-127694000D03*
X110962000Y-129294000D03*
X110962000Y-127694000D03*
X106644000Y-129294000D03*
X106644000Y-127694000D03*
X104612000Y-129294000D03*
X104612000Y-127694000D03*
D19*
X118872000Y-71038000D03*
X118872000Y-64538000D03*
X123372000Y-71038000D03*
X123372000Y-64538000D03*
X118872000Y-105328000D03*
X118872000Y-98828000D03*
X123372000Y-105328000D03*
X123372000Y-98828000D03*
X118872000Y-93898000D03*
X118872000Y-87398000D03*
X123372000Y-93898000D03*
X123372000Y-87398000D03*
X118872000Y-82468000D03*
X118872000Y-75968000D03*
X123372000Y-82468000D03*
X123372000Y-75968000D03*
D11*
X72862000Y-128748000D03*
X79212000Y-122398000D03*
X123662000Y-60168000D03*
D17*
X79212000Y-127478000D03*
D18*
X81752000Y-127478000D03*
X84292000Y-127478000D03*
X86832000Y-127478000D03*
X79212000Y-130018000D03*
X81752000Y-130018000D03*
X84292000Y-130018000D03*
X86832000Y-130018000D03*
D17*
X90642000Y-127478000D03*
D18*
X93182000Y-127478000D03*
X95722000Y-127478000D03*
X98262000Y-127478000D03*
X90642000Y-130018000D03*
X93182000Y-130018000D03*
X95722000Y-130018000D03*
X98262000Y-130018000D03*
X98262000Y-132558000D03*
D11*
X53812000Y-93883000D03*
X53812000Y-96383000D03*
X53812000Y-98883000D03*
X53812000Y-101383000D03*
D12*
X53812000Y-91383000D03*
D11*
X53812000Y-103883000D03*
D17*
X56987000Y-72868000D03*
D18*
X54987000Y-72868000D03*
D17*
X51907000Y-69058000D03*
D18*
X54447000Y-69058000D03*
X56987000Y-69058000D03*
D17*
X54447000Y-79853000D03*
D18*
X56987000Y-79853000D03*
D17*
X54447000Y-77313000D03*
D18*
X56987000Y-77313000D03*
D11*
X55082000Y-84933000D03*
X52542000Y-84933000D03*
D13*
X59997000Y-69058000D03*
X61597000Y-69058000D03*
X59997000Y-76678000D03*
X61597000Y-76678000D03*
X57622000Y-84463000D03*
X57622000Y-82863000D03*
D11*
X58892000Y-113508000D03*
X58892000Y-116048000D03*
X70322000Y-98268000D03*
X70322000Y-122398000D03*
X70322000Y-89378000D03*
D18*
X51272000Y-93823000D03*
D11*
X100548000Y-124938000D03*
X67147000Y-85568000D03*
D18*
X123408000Y-67788000D03*
X123408000Y-78456000D03*
D11*
X56352000Y-93823000D03*
X56352000Y-108428000D03*
X56352000Y-110968000D03*
X93182000Y-124938000D03*
X90642000Y-124938000D03*
X93182000Y-67788000D03*
D20*
X93182000Y-63343000D03*
D11*
X93182000Y-52548000D03*
D20*
X93182000Y-55723000D03*
D11*
X67147000Y-91918000D03*
X67147000Y-94458000D03*
X79212000Y-124938000D03*
X67147000Y-124938000D03*
D21*
X103088000Y-65248000D03*
X82514000Y-66518000D03*
X94960000Y-123160000D03*
X81752000Y-123160000D03*
X81752000Y-112238000D03*
X104866000Y-126462000D03*
X112740000Y-126462000D03*
X113756000Y-117318000D03*
X113756000Y-76424000D03*
X111216000Y-126462000D03*
X112994000Y-116810000D03*
X112994000Y-85314000D03*
X110200000Y-126462000D03*
X104612000Y-72868000D03*
X112232000Y-117318000D03*
X108422000Y-126462000D03*
X112232000Y-80234000D03*
X103088000Y-70328000D03*
X111470000Y-82774000D03*
X111470000Y-116810000D03*
X106390000Y-126462000D03*
X107406000Y-110460000D03*
X107406000Y-107158000D03*
X103596000Y-85060000D03*
X102326000Y-79218000D03*
X105120000Y-104618000D03*
X105120000Y-111222000D03*
X105120000Y-89378000D03*
X104358000Y-103856000D03*
X104358000Y-111984000D03*
X102834000Y-81758000D03*
X103596000Y-103094000D03*
X103596000Y-112746000D03*
X106644000Y-90648000D03*
X102834000Y-113508000D03*
X102834000Y-102332000D03*
X103596000Y-80488000D03*
D20*
X64607000Y-69058000D03*
X64607000Y-76678000D03*
X105247000Y-119223000D03*
X117312000Y-130653000D03*
D11*
X64607000Y-86838000D03*
X86832000Y-119223000D03*
X98262000Y-119223000D03*
X90642000Y-119223000D03*
D20*
X90642000Y-65248000D03*
D11*
X90642000Y-52548000D03*
D20*
X90642000Y-57628000D03*
D11*
X64607000Y-81758000D03*
X64607000Y-52548000D03*
D21*
X79720000Y-55088000D03*
X79720000Y-81758000D03*
D20*
X77434000Y-57628000D03*
X77688000Y-107158000D03*
X78704000Y-60168000D03*
X78704000Y-109698000D03*
X75656000Y-102078000D03*
X76672000Y-65248000D03*
X76672000Y-104618000D03*
D21*
X80482000Y-67788000D03*
X80482000Y-100046000D03*
X81244000Y-70328000D03*
X81244000Y-100554000D03*
X102326000Y-74138000D03*
X102326000Y-76678000D03*
X79720000Y-83028000D03*
X79720000Y-99538000D03*
X114518000Y-89124000D03*
X114518000Y-86584000D03*
X102326000Y-77948000D03*
X103088000Y-57628000D03*
X83276000Y-58898000D03*
X82514000Y-122398000D03*
X95722000Y-122398000D03*
X82514000Y-114778000D03*
D22*
X61432000Y-89378000D02*
X60162000Y-89378000D01*
X58157000Y-91383000D02*
X53812000Y-91383000D01*
X60162000Y-89378000D02*
X58157000Y-91383000D01*
X58892000Y-113508000D02*
X53812000Y-113508000D01*
X58892000Y-116048000D02*
X53812000Y-116048000D01*
X70322000Y-98268000D02*
X74132000Y-98268000D01*
X62702000Y-127478000D02*
X62702000Y-122398000D01*
X62702000Y-122398000D02*
X70322000Y-122398000D01*
X70322000Y-89378000D02*
X61432000Y-89378000D01*
X72862000Y-128748000D02*
X72862000Y-134468000D01*
X62702000Y-127478000D02*
X62702000Y-126843000D01*
D23*
X51272000Y-93823000D02*
X51332000Y-93883000D01*
X51332000Y-93883000D02*
X53812000Y-93883000D01*
D22*
X93182000Y-124938000D02*
X100548000Y-124938000D01*
X67147000Y-85568000D02*
X74132000Y-85568000D01*
D24*
X99532000Y-67788000D02*
X123408000Y-67788000D01*
X109692000Y-77694000D02*
X112613000Y-77694000D01*
X113375000Y-78456000D02*
X123408000Y-78456000D01*
X112613000Y-77694000D02*
X113375000Y-78456000D01*
D25*
X79212000Y-130018000D02*
X81752000Y-130018000D01*
D22*
X56352000Y-108428000D02*
X53812000Y-108428000D01*
X56352000Y-110968000D02*
X53812000Y-110968000D01*
D23*
X56352000Y-93823000D02*
X53872000Y-93823000D01*
D22*
X90642000Y-124938000D02*
X79212000Y-124938000D01*
X93182000Y-124938000D02*
X90642000Y-124938000D01*
D23*
X93182000Y-67788000D02*
X99532000Y-67788000D01*
D26*
X94922000Y-63343000D02*
X93182000Y-63343000D01*
X94922000Y-55723000D02*
X93182000Y-55723000D01*
D22*
X93182000Y-52548000D02*
X99532000Y-52548000D01*
X67147000Y-91918000D02*
X61432000Y-91918000D01*
X67147000Y-94458000D02*
X61432000Y-94458000D01*
X67147000Y-124938000D02*
X79212000Y-124938000D01*
X72862000Y-138268000D02*
X67787000Y-138268000D01*
X67402000Y-137883000D02*
X67402000Y-130478000D01*
X67787000Y-138268000D02*
X67402000Y-137883000D01*
X67402000Y-130478000D02*
X62877000Y-130478000D01*
X62702000Y-130653000D02*
X62702000Y-133478000D01*
X62877000Y-130478000D02*
X62702000Y-130653000D01*
D25*
X99532000Y-65248000D02*
X103088000Y-65248000D01*
X95252000Y-66518000D02*
X82514000Y-66518000D01*
X95252000Y-66518000D02*
X96522000Y-65248000D01*
X94960000Y-123160000D02*
X81752000Y-123160000D01*
X81752000Y-112238000D02*
X61432000Y-112238000D01*
X99532000Y-65248000D02*
X96522000Y-65248000D01*
X96522000Y-63343000D02*
X96522000Y-65248000D01*
X104612000Y-127694000D02*
X104612000Y-126716000D01*
X104612000Y-126716000D02*
X104866000Y-126462000D01*
X112994000Y-127694000D02*
X112994000Y-126716000D01*
X112994000Y-126716000D02*
X112740000Y-126462000D01*
X111216000Y-124430000D02*
X111216000Y-126462000D01*
X113756000Y-121890000D02*
X111216000Y-124430000D01*
X113756000Y-117318000D02*
X113756000Y-121890000D01*
X105374000Y-75408000D02*
X99532000Y-75408000D01*
X106390000Y-76424000D02*
X105374000Y-75408000D01*
X113756000Y-76424000D02*
X106390000Y-76424000D01*
X110962000Y-127694000D02*
X110962000Y-126716000D01*
X110962000Y-126716000D02*
X111216000Y-126462000D01*
X110454000Y-126208000D02*
X110454000Y-124430000D01*
X112994000Y-121890000D02*
X112994000Y-116810000D01*
X110454000Y-124430000D02*
X112994000Y-121890000D01*
X112994000Y-85314000D02*
X109692000Y-85314000D01*
X110200000Y-126462000D02*
X110454000Y-126208000D01*
X109692000Y-124430000D02*
X109692000Y-125192000D01*
X112232000Y-121890000D02*
X109692000Y-124430000D01*
X112232000Y-117318000D02*
X112232000Y-121890000D01*
X108422000Y-126462000D02*
X109692000Y-125192000D01*
X112232000Y-80234000D02*
X109692000Y-80234000D01*
X99532000Y-72868000D02*
X104612000Y-72868000D01*
X106390000Y-126462000D02*
X106898000Y-126462000D01*
X111470000Y-82774000D02*
X109692000Y-82774000D01*
X111470000Y-121890000D02*
X111470000Y-116810000D01*
X106898000Y-126462000D02*
X111470000Y-121890000D01*
X99532000Y-70328000D02*
X103088000Y-70328000D01*
X106644000Y-127694000D02*
X106644000Y-126716000D01*
X106644000Y-126716000D02*
X106390000Y-126462000D01*
X59654000Y-119350000D02*
X55590000Y-119350000D01*
X55590000Y-119350000D02*
X53812000Y-121128000D01*
X88610000Y-110460000D02*
X107406000Y-110460000D01*
X82768000Y-116302000D02*
X88610000Y-110460000D01*
X62702000Y-116302000D02*
X82768000Y-116302000D01*
X59654000Y-119350000D02*
X62702000Y-116302000D01*
X99532000Y-83028000D02*
X101564000Y-83028000D01*
X101564000Y-83028000D02*
X103596000Y-85060000D01*
X109692000Y-107158000D02*
X107406000Y-107158000D01*
X53812000Y-118588000D02*
X59654000Y-118588000D01*
X88610000Y-109698000D02*
X109692000Y-109698000D01*
X82768000Y-115540000D02*
X88610000Y-109698000D01*
X62702000Y-115540000D02*
X82768000Y-115540000D01*
X59654000Y-118588000D02*
X62702000Y-115540000D01*
X97246000Y-79218000D02*
X102326000Y-79218000D01*
X74132000Y-77948000D02*
X95976000Y-77948000D01*
X95976000Y-77948000D02*
X97246000Y-79218000D01*
X59654000Y-120112000D02*
X57368000Y-120112000D01*
X57368000Y-120112000D02*
X53812000Y-123668000D01*
X105120000Y-104618000D02*
X109692000Y-104618000D01*
X88610000Y-111222000D02*
X105120000Y-111222000D01*
X82768000Y-117064000D02*
X88610000Y-111222000D01*
X62702000Y-117064000D02*
X82768000Y-117064000D01*
X59654000Y-120112000D02*
X62702000Y-117064000D01*
X109692000Y-104618000D02*
X118162000Y-104618000D01*
X118162000Y-104618000D02*
X118872000Y-105328000D01*
X74132000Y-88108000D02*
X95976000Y-88108000D01*
X97246000Y-89378000D02*
X105120000Y-89378000D01*
X95976000Y-88108000D02*
X97246000Y-89378000D01*
X59654000Y-120874000D02*
X59146000Y-120874000D01*
X59146000Y-120874000D02*
X53812000Y-126208000D01*
X106136000Y-102078000D02*
X109692000Y-102078000D01*
X104358000Y-103856000D02*
X106136000Y-102078000D01*
X88610000Y-111984000D02*
X104358000Y-111984000D01*
X82768000Y-117826000D02*
X88610000Y-111984000D01*
X62702000Y-117826000D02*
X82768000Y-117826000D01*
X59654000Y-120874000D02*
X62702000Y-117826000D01*
X74132000Y-80488000D02*
X95976000Y-80488000D01*
X97246000Y-81758000D02*
X102834000Y-81758000D01*
X95976000Y-80488000D02*
X97246000Y-81758000D01*
X55336000Y-127224000D02*
X55336000Y-125954000D01*
X62702000Y-118588000D02*
X82768000Y-118588000D01*
X55336000Y-125954000D02*
X62702000Y-118588000D01*
X53812000Y-128748000D02*
X55336000Y-127224000D01*
X107152000Y-99538000D02*
X109692000Y-99538000D01*
X103596000Y-103094000D02*
X107152000Y-99538000D01*
X88610000Y-112746000D02*
X103596000Y-112746000D01*
X82768000Y-118588000D02*
X88610000Y-112746000D01*
X109692000Y-99538000D02*
X113232000Y-99538000D01*
X113232000Y-99538000D02*
X118872000Y-93898000D01*
X99532000Y-90648000D02*
X106644000Y-90648000D01*
X56098000Y-125954000D02*
X56098000Y-129002000D01*
X56098000Y-129002000D02*
X53812000Y-131288000D01*
X88610000Y-113508000D02*
X102834000Y-113508000D01*
X82768000Y-119350000D02*
X88610000Y-113508000D01*
X62702000Y-119350000D02*
X82768000Y-119350000D01*
X56098000Y-125954000D02*
X62702000Y-119350000D01*
X102834000Y-102332000D02*
X108168000Y-96998000D01*
X108168000Y-96998000D02*
X109692000Y-96998000D01*
X118872000Y-82468000D02*
X116498000Y-82468000D01*
X104612000Y-81504000D02*
X103596000Y-80488000D01*
X115534000Y-81504000D02*
X104612000Y-81504000D01*
X116498000Y-82468000D02*
X115534000Y-81504000D01*
X99532000Y-80488000D02*
X103596000Y-80488000D01*
D27*
X61597000Y-69058000D02*
X64607000Y-69058000D01*
X61597000Y-76678000D02*
X64607000Y-76678000D01*
D25*
X86832000Y-130018000D02*
X84292000Y-130018000D01*
D22*
X105247000Y-119223000D02*
X98262000Y-119223000D01*
D27*
X104612000Y-129294000D02*
X98986000Y-129294000D01*
X98986000Y-129294000D02*
X98262000Y-130018000D01*
X112994000Y-129294000D02*
X115953000Y-129294000D01*
X115953000Y-129294000D02*
X117312000Y-130653000D01*
X110962000Y-129294000D02*
X112994000Y-129294000D01*
X106644000Y-129294000D02*
X110962000Y-129294000D01*
X106644000Y-129294000D02*
X104612000Y-129294000D01*
D22*
X61432000Y-86838000D02*
X64607000Y-86838000D01*
X90642000Y-119223000D02*
X86832000Y-119223000D01*
X90642000Y-119223000D02*
X98262000Y-119223000D01*
D26*
X94922000Y-65248000D02*
X90642000Y-65248000D01*
X94922000Y-57628000D02*
X90642000Y-57628000D01*
D22*
X90642000Y-52548000D02*
X74132000Y-52548000D01*
X74132000Y-52548000D02*
X64607000Y-52548000D01*
X64607000Y-81758000D02*
X61432000Y-81758000D01*
D25*
X61432000Y-84298000D02*
X64988000Y-84298000D01*
X79720000Y-55088000D02*
X74132000Y-55088000D01*
X67528000Y-81758000D02*
X79720000Y-81758000D01*
X64988000Y-84298000D02*
X67528000Y-81758000D01*
D26*
X67312000Y-107158000D02*
X77688000Y-107158000D01*
X77434000Y-57628000D02*
X74132000Y-57628000D01*
X67312000Y-109698000D02*
X78704000Y-109698000D01*
X78704000Y-60168000D02*
X74132000Y-60168000D01*
X67312000Y-102078000D02*
X75656000Y-102078000D01*
X67312000Y-104618000D02*
X76672000Y-104618000D01*
X76672000Y-65248000D02*
X74132000Y-65248000D01*
D25*
X56987000Y-77313000D02*
X59362000Y-77313000D01*
X59362000Y-77313000D02*
X59997000Y-76678000D01*
X80228000Y-100300000D02*
X55229000Y-100300000D01*
X55229000Y-100300000D02*
X53812000Y-98883000D01*
X80228000Y-100300000D02*
X80482000Y-100046000D01*
X53812000Y-98883000D02*
X53812000Y-98903000D01*
X80482000Y-67788000D02*
X74132000Y-67788000D01*
X80990000Y-100808000D02*
X54387000Y-100808000D01*
X54387000Y-100808000D02*
X53812000Y-101383000D01*
X81244000Y-70328000D02*
X74132000Y-70328000D01*
X80990000Y-100808000D02*
X81244000Y-100554000D01*
X74132000Y-72868000D02*
X95976000Y-72868000D01*
X97246000Y-74138000D02*
X102326000Y-74138000D01*
X95976000Y-72868000D02*
X97246000Y-74138000D01*
X74132000Y-75408000D02*
X95976000Y-75408000D01*
X97246000Y-76678000D02*
X102326000Y-76678000D01*
X95976000Y-75408000D02*
X97246000Y-76678000D01*
X79466000Y-99792000D02*
X57221000Y-99792000D01*
X57221000Y-99792000D02*
X53812000Y-96383000D01*
X79720000Y-83028000D02*
X74132000Y-83028000D01*
X79466000Y-99792000D02*
X79720000Y-99538000D01*
X107660000Y-88108000D02*
X99532000Y-88108000D01*
X108676000Y-89124000D02*
X107660000Y-88108000D01*
X114518000Y-89124000D02*
X108676000Y-89124000D01*
X99532000Y-85568000D02*
X102580000Y-85568000D01*
X102580000Y-85568000D02*
X103596000Y-86584000D01*
X103596000Y-86584000D02*
X114518000Y-86584000D01*
X99532000Y-77948000D02*
X102326000Y-77948000D01*
D26*
X61432000Y-102078000D02*
X65712000Y-102078000D01*
X61432000Y-104618000D02*
X65712000Y-104618000D01*
X61432000Y-107158000D02*
X65712000Y-107158000D01*
X61432000Y-109698000D02*
X65712000Y-109698000D01*
D25*
X99532000Y-57628000D02*
X103088000Y-57628000D01*
X95214000Y-58898000D02*
X96484000Y-57628000D01*
X83276000Y-58898000D02*
X95214000Y-58898000D01*
X96484000Y-57628000D02*
X96522000Y-57628000D01*
X95722000Y-122398000D02*
X82514000Y-122398000D01*
X82514000Y-114778000D02*
X61432000Y-114778000D01*
X99532000Y-57628000D02*
X96522000Y-57628000D01*
X96522000Y-55723000D02*
X96522000Y-57628000D01*
D27*
X56987000Y-72868000D02*
X56987000Y-69058000D01*
X59997000Y-69058000D02*
X56987000Y-69058000D01*
D25*
X54447000Y-77313000D02*
X54447000Y-74773000D01*
X51907000Y-72233000D02*
X51907000Y-69058000D01*
X54447000Y-74773000D02*
X51907000Y-72233000D01*
X56987000Y-79853000D02*
X56987000Y-82228000D01*
X56987000Y-82228000D02*
X57622000Y-82863000D01*
X57622000Y-84463000D02*
X55552000Y-84463000D01*
X55552000Y-84463000D02*
X55082000Y-84933000D01*
M02*
