%TF.GenerationSoftware,KiCad,Pcbnew,(5.1.12)-1*%
%TF.CreationDate,2022-11-09T13:12:54+09:00*%
%TF.ProjectId,2213_PHOTO_DIODE_BUFFER_AMP,32323133-5f50-4484-9f54-4f5f44494f44,0*%
%TF.SameCoordinates,Original*%
%TF.FileFunction,Soldermask,Top*%
%TF.FilePolarity,Negative*%
%FSLAX46Y46*%
G04 Gerber Fmt 4.6, Leading zero omitted, Abs format (unit mm)*
G04 Created by KiCad (PCBNEW (5.1.12)-1) date 2022-11-09 13:12:54*
%MOMM*%
%LPD*%
G01*
G04 APERTURE LIST*
%ADD10C,0.500000*%
%ADD11C,3.500000*%
%ADD12C,1.500000*%
%ADD13R,1.500000X1.500000*%
%ADD14C,1.400000*%
%ADD15O,2.600000X5.100000*%
%ADD16O,2.600000X4.600000*%
%ADD17O,4.600000X2.600000*%
%ADD18C,1.600000*%
%ADD19R,1.600000X1.600000*%
%ADD20R,1.400000X1.400000*%
%ADD21R,2.200000X2.200000*%
%ADD22C,2.200000*%
%ADD23C,2.500000*%
%ADD24R,1.700000X1.700000*%
%ADD25C,1.700000*%
G04 APERTURE END LIST*
D10*
X148000000Y-50000000D02*
X52000000Y-50000000D01*
X150000000Y-52000000D02*
X148000000Y-50000000D01*
X150000000Y-148000000D02*
X150000000Y-52000000D01*
X148000000Y-150000000D02*
X150000000Y-148000000D01*
X52000000Y-150000000D02*
X148000000Y-150000000D01*
X50000000Y-148000000D02*
X52000000Y-150000000D01*
X50000000Y-52000000D02*
X50000000Y-148000000D01*
X52000000Y-50000000D02*
X50000000Y-52000000D01*
D11*
%TO.C,CN10*%
X124480000Y-139720000D03*
X114280000Y-139720000D03*
D12*
X121880000Y-134620000D03*
D13*
X119380000Y-134620000D03*
%TD*%
D11*
%TO.C,CN9*%
X106700000Y-139720000D03*
X96500000Y-139720000D03*
D12*
X104100000Y-134620000D03*
D13*
X101600000Y-134620000D03*
%TD*%
D11*
%TO.C,CN8*%
X88920000Y-139720000D03*
X78720000Y-139720000D03*
D12*
X86320000Y-134620000D03*
D13*
X83820000Y-134620000D03*
%TD*%
D11*
%TO.C,CN7*%
X71140000Y-139720000D03*
X60940000Y-139720000D03*
D12*
X68540000Y-134620000D03*
D13*
X66040000Y-134620000D03*
%TD*%
D11*
%TO.C,REF\u002A\u002A*%
X54000000Y-54000000D03*
%TD*%
%TO.C,REF\u002A\u002A*%
X54000000Y-146050000D03*
%TD*%
%TO.C,REF\u002A\u002A*%
X146000000Y-146000000D03*
%TD*%
%TO.C,REF\u002A\u002A*%
X146000000Y-54000000D03*
%TD*%
D14*
%TO.C,C1*%
X64750000Y-74930000D03*
X62250000Y-74930000D03*
%TD*%
%TO.C,C2*%
X92650000Y-54610000D03*
X85150000Y-54610000D03*
%TD*%
%TO.C,C3*%
X119380000Y-74930000D03*
X119380000Y-72390000D03*
%TD*%
%TO.C,C4*%
X119380000Y-80010000D03*
X119380000Y-82550000D03*
%TD*%
%TO.C,C5*%
X127000000Y-72390000D03*
X127000000Y-74930000D03*
%TD*%
%TO.C,C6*%
X127000000Y-82550000D03*
X127000000Y-80010000D03*
%TD*%
%TO.C,C15*%
X60960000Y-104140000D03*
X60960000Y-109220000D03*
%TD*%
%TO.C,C16*%
X78740000Y-109220000D03*
X78740000Y-104140000D03*
%TD*%
%TO.C,C17*%
X96520000Y-104140000D03*
X96520000Y-109220000D03*
%TD*%
%TO.C,C18*%
X114300000Y-109220000D03*
X114300000Y-104140000D03*
%TD*%
D15*
%TO.C,CN1*%
X64420000Y-63500000D03*
D16*
X58420000Y-63500000D03*
D17*
X61420000Y-68200000D03*
%TD*%
D18*
%TO.C,CN2*%
X71080000Y-105410000D03*
D19*
X68580000Y-105410000D03*
%TD*%
%TO.C,CN3*%
X86380000Y-105410000D03*
D18*
X88880000Y-105410000D03*
%TD*%
D19*
%TO.C,CN4*%
X104160000Y-105410000D03*
D18*
X106660000Y-105410000D03*
%TD*%
%TO.C,CN5*%
X124440000Y-105410000D03*
D19*
X121940000Y-105410000D03*
%TD*%
D14*
%TO.C,IC1*%
X60960000Y-111760000D03*
X68580000Y-119380000D03*
X63500000Y-111760000D03*
X66040000Y-119380000D03*
X66040000Y-111760000D03*
X63500000Y-119380000D03*
X68580000Y-111760000D03*
D20*
X60960000Y-119380000D03*
%TD*%
%TO.C,IC2*%
X78740000Y-119380000D03*
D14*
X86360000Y-111760000D03*
X81280000Y-119380000D03*
X83820000Y-111760000D03*
X83820000Y-119380000D03*
X81280000Y-111760000D03*
X86360000Y-119380000D03*
X78740000Y-111760000D03*
%TD*%
D20*
%TO.C,IC3*%
X96520000Y-119380000D03*
D14*
X104140000Y-111760000D03*
X99060000Y-119380000D03*
X101600000Y-111760000D03*
X101600000Y-119380000D03*
X99060000Y-111760000D03*
X104140000Y-119380000D03*
X96520000Y-111760000D03*
%TD*%
%TO.C,IC4*%
X114300000Y-111760000D03*
X121920000Y-119380000D03*
X116840000Y-111760000D03*
X119380000Y-119380000D03*
X119380000Y-111760000D03*
X116840000Y-119380000D03*
X121920000Y-111760000D03*
D20*
X114300000Y-119380000D03*
%TD*%
D18*
%TO.C,L1*%
X127000000Y-68580000D03*
X121920000Y-68580000D03*
%TD*%
%TO.C,L2*%
X124460000Y-86360000D03*
X119380000Y-86360000D03*
%TD*%
%TO.C,TP1*%
X133350000Y-68580000D03*
%TD*%
%TO.C,TP2*%
X133350000Y-86360000D03*
%TD*%
%TO.C,TP3*%
X59690000Y-127000000D03*
%TD*%
%TO.C,TP4*%
X77470000Y-127000000D03*
%TD*%
%TO.C,TP5*%
X95250000Y-127000000D03*
%TD*%
%TO.C,TP6*%
X113030000Y-127000000D03*
%TD*%
%TO.C,TP7*%
X72390000Y-127000000D03*
%TD*%
%TO.C,TP8*%
X90170000Y-127000000D03*
%TD*%
%TO.C,TP9*%
X107950000Y-127000000D03*
%TD*%
%TO.C,TP10*%
X125730000Y-127000000D03*
%TD*%
%TO.C,TP11*%
X133350000Y-77470000D03*
%TD*%
D21*
%TO.C,U1*%
X71120000Y-64770000D03*
D22*
X71120000Y-77470000D03*
X71120000Y-85090000D03*
X111760000Y-64770000D03*
X111760000Y-74930000D03*
X111760000Y-85090000D03*
D23*
X76200000Y-59690000D03*
X76200000Y-90170000D03*
X106680000Y-59690000D03*
X106680000Y-90170000D03*
%TD*%
D24*
%TO.C,CN6*%
X130810000Y-139700000D03*
D25*
X133350000Y-139700000D03*
X135890000Y-139700000D03*
X138430000Y-139700000D03*
%TD*%
D14*
%TO.C,C7*%
X63500000Y-109220000D03*
X63500000Y-104140000D03*
%TD*%
%TO.C,C8*%
X68580000Y-127000000D03*
X68580000Y-121920000D03*
%TD*%
%TO.C,C9*%
X81280000Y-104140000D03*
X81280000Y-109220000D03*
%TD*%
%TO.C,C10*%
X86360000Y-121920000D03*
X86360000Y-127000000D03*
%TD*%
%TO.C,C11*%
X99060000Y-104140000D03*
X99060000Y-109220000D03*
%TD*%
%TO.C,C12*%
X104140000Y-121920000D03*
X104140000Y-127000000D03*
%TD*%
%TO.C,C13*%
X116840000Y-109220000D03*
X116840000Y-104140000D03*
%TD*%
%TO.C,C14*%
X121920000Y-127000000D03*
X121920000Y-121920000D03*
%TD*%
%TO.C,R1*%
X66040000Y-127000000D03*
X66040000Y-121920000D03*
%TD*%
%TO.C,R2*%
X83820000Y-121920000D03*
X83820000Y-127000000D03*
%TD*%
%TO.C,R3*%
X101600000Y-121920000D03*
X101600000Y-127000000D03*
%TD*%
%TO.C,R4*%
X119380000Y-127000000D03*
X119380000Y-121920000D03*
%TD*%
%TO.C,R5*%
X63500000Y-121920000D03*
X63500000Y-127000000D03*
%TD*%
%TO.C,R6*%
X81280000Y-127000000D03*
X81280000Y-121920000D03*
%TD*%
%TO.C,R7*%
X99060000Y-127000000D03*
X99060000Y-121920000D03*
%TD*%
%TO.C,R8*%
X116840000Y-121920000D03*
X116840000Y-127000000D03*
%TD*%
%TO.C,LED1*%
X69850000Y-54610000D03*
X72390000Y-54610000D03*
%TD*%
%TO.C,R9*%
X60960000Y-54610000D03*
X66040000Y-54610000D03*
%TD*%
M02*
