M48
; DRILL file {KiCad (5.1.12)-1} date 11/09/22 13:12:56
; FORMAT={-:-/ absolute / inch / decimal}
; #@! TF.CreationDate,2022-11-09T13:12:56+09:00
; #@! TF.GenerationSoftware,Kicad,Pcbnew,(5.1.12)-1
; #@! TF.FileFunction,Plated,1,2,PTH
FMAT,2
INCH
T1C0.0315
T2C0.0354
T3C0.0394
T4C0.0512
T5C0.0551
T6C0.0787
%
G90
G05
T1
X2.4Y-2.15
X2.4Y-4.1
X2.4Y-4.3
X2.4Y-4.4
X2.4Y-4.7
X2.4508Y-2.95
X2.5Y-4.1
X2.5Y-4.3
X2.5Y-4.4
X2.5Y-4.7
X2.5Y-4.8
X2.5Y-5.0
X2.5492Y-2.95
X2.6Y-2.15
X2.6Y-4.4
X2.6Y-4.7
X2.6Y-4.8
X2.6Y-5.0
X2.7Y-4.4
X2.7Y-4.7
X2.7Y-4.8
X2.7Y-5.0
X2.75Y-2.15
X2.85Y-2.15
X3.1Y-4.1
X3.1Y-4.3
X3.1Y-4.4
X3.1Y-4.7
X3.2Y-4.1
X3.2Y-4.3
X3.2Y-4.4
X3.2Y-4.7
X3.2Y-4.8
X3.2Y-5.0
X3.3Y-4.4
X3.3Y-4.7
X3.3Y-4.8
X3.3Y-5.0
X3.3524Y-2.15
X3.4Y-4.4
X3.4Y-4.7
X3.4Y-4.8
X3.4Y-5.0
X3.6476Y-2.15
X3.8Y-4.1
X3.8Y-4.3
X3.8Y-4.4
X3.8Y-4.7
X3.9Y-4.1
X3.9Y-4.3
X3.9Y-4.4
X3.9Y-4.7
X3.9Y-4.8
X3.9Y-5.0
X4.0Y-4.4
X4.0Y-4.7
X4.0Y-4.8
X4.0Y-5.0
X4.1Y-4.4
X4.1Y-4.7
X4.1Y-4.8
X4.1Y-5.0
X4.5Y-4.1
X4.5Y-4.3
X4.5Y-4.4
X4.5Y-4.7
X4.6Y-4.1
X4.6Y-4.3
X4.6Y-4.4
X4.6Y-4.7
X4.6Y-4.8
X4.6Y-5.0
X4.7Y-2.85
X4.7Y-2.95
X4.7Y-3.15
X4.7Y-3.25
X4.7Y-4.4
X4.7Y-4.7
X4.7Y-4.8
X4.7Y-5.0
X4.8Y-4.4
X4.8Y-4.7
X4.8Y-4.8
X4.8Y-5.0
X5.0Y-2.85
X5.0Y-2.95
X5.0Y-3.15
X5.0Y-3.25
T2
X2.6Y-5.3
X2.6984Y-5.3
X3.3Y-5.3
X3.3984Y-5.3
X4.0Y-5.3
X4.0984Y-5.3
X4.7Y-5.3
X4.7984Y-5.3
T3
X2.35Y-5.0
X2.7Y-4.15
X2.7984Y-4.15
X2.85Y-5.0
X3.05Y-5.0
X3.4008Y-4.15
X3.4992Y-4.15
X3.55Y-5.0
X3.75Y-5.0
X4.1008Y-4.15
X4.1992Y-4.15
X4.25Y-5.0
X4.45Y-5.0
X4.7Y-3.4
X4.8Y-2.7
X4.8008Y-4.15
X4.8992Y-4.15
X4.9Y-3.4
X4.95Y-5.0
X5.0Y-2.7
X5.15Y-5.5
X5.25Y-2.7
X5.25Y-3.05
X5.25Y-3.4
X5.25Y-4.6
X5.25Y-5.5
X5.35Y-4.5
X5.35Y-5.5
X5.45Y-5.5
X5.65Y-2.55
X5.8Y-3.55
T4
X2.8Y-2.55
X2.8Y-3.05
X2.8Y-3.35
X4.4Y-2.55
X4.4Y-2.95
X4.4Y-3.35
T5
X3.0Y-2.35
X3.0Y-3.55
X4.2Y-2.35
X4.2Y-3.55
T6
X2.3992Y-5.5008
X2.8008Y-5.5008
X3.0992Y-5.5008
X3.5008Y-5.5008
X3.7992Y-5.5008
X4.2008Y-5.5008
X4.4992Y-5.5008
X4.9008Y-5.5008
T3
G00X2.3Y-2.4508
M15
G01X2.3Y-2.5492
M16
G05
G00X2.3689Y-2.685
M15
G01X2.4673Y-2.685
M16
G05
G00X2.5362Y-2.4508
M15
G01X2.5362Y-2.5492
M16
G05
T0
M30
